<svg width="64" height="64" fill="none" xmlns="http://www.w3.org/2000/svg"><path d="M49 23v-2c1.654 0 3-1.346 3-3s-1.346-3-3-3h-2a1 1 0 010-2h3v1h2v-3h-3V9h-2v2c-1.654 0-3 1.346-3 3s1.346 3 3 3h2a1 1 0 010 2h-3v-1h-2v3h3v2h2z" fill="#71B219"/><path d="M59 16c0-6.065-4.935-11-11-11S37 9.935 37 16s4.935 11 11 11 11-4.935 11-11zm-20 0c0-4.963 4.037-9 9-9s9 4.037 9 9-4.037 9-9 9-9-4.037-9-9z" fill="#000"/><path d="M63 16c0-8.271-6.729-15-15-15S33 7.729 33 16c0 6.368 3.995 11.808 9.606 13.98L40.586 32h-8.04l-7 8H13.563L1.266 53.321l1.469 1.357L14.438 42h12.017l7-8h7.96l3.359-3.359a14.93 14.93 0 002.833.339L42.586 36H33.5l-6 8H15.546L1 60.624V63h58V26.164c2.474-2.676 4-6.241 4-10.164zm-28 0c0-7.168 5.832-13 13-13s13 5.832 13 13-5.832 13-13 13-13-5.832-13-13zm16 14.698V61h-4V34.414l3.665-3.665c.111-.02.225-.029.335-.051zM43.414 38L45 36.414V61h-4V38h2.414zM15 61h-4v-8.767l4-4.571V61zm2-15h4v15h-4V46zm6 0h4v15h-4V46zm6-.667L33 40v21h-4V45.333zM35 38h4v23h-4V38zM9 54.519V61H3.329L9 54.519zM53 61V30.125a14.971 14.971 0 004-2.153V61h-4z" fill="#000"/><path d="M7 38h2v-4h2V22H9v-4H7v4H5v12h2v4zm0-14h2v8H7v-8z" fill="#71B219"/><path d="M15 33h2v-4h2V19h-2v-4h-2v4h-2v10h2v4zm0-12h2v6h-2v-6z" fill="#000"/><path d="M23 26h2v-4h2v-8h-2v-4h-2v4h-2v8h2v4zm0-10h2v4h-2v-4z" fill="#71B219"/></svg>