<svg width="76" height="76" fill="none" xmlns="http://www.w3.org/2000/svg"><path d="M67.688 41.004V17.718c4.022-.58 7.124-4.04 7.124-8.218 0-4.583-3.728-8.313-8.312-8.313s-8.313 3.73-8.313 8.313h-57V57h35.686c.618 9.923 8.865 17.813 18.94 17.813 10.476 0 19-8.524 19-19 0-5.984-2.788-11.323-7.126-14.809zM66.5 3.563A5.944 5.944 0 0172.438 9.5a5.944 5.944 0 01-5.938 5.938A5.944 5.944 0 0160.562 9.5 5.944 5.944 0 0166.5 3.562zM3.562 11.874h54.976c.284.948.735 1.82 1.314 2.595l-7.262 7.262a3.514 3.514 0 00-1.528-.357c-.548 0-1.061.134-1.525.357l-2.393-2.392c.222-.466.356-.979.356-1.527a3.567 3.567 0 00-3.563-3.563 3.567 3.567 0 00-3.562 3.563c0 .548.134 1.061.357 1.525l-5.955 5.956a3.53 3.53 0 00-1.527-.357 3.567 3.567 0 00-3.563 3.563 3.567 3.567 0 003.563 3.563 3.567 3.567 0 003.563-3.563c0-.549-.135-1.062-.358-1.526l5.955-5.955a3.53 3.53 0 001.528.356c.548 0 1.061-.134 1.525-.357l2.393 2.392a3.529 3.529 0 00-.356 1.527 3.567 3.567 0 003.563 3.563 3.567 3.567 0 003.562-3.563c0-.548-.134-1.061-.357-1.525l7.264-7.263a8.263 8.263 0 003.78 1.57v21.666a18.85 18.85 0 00-9.5-2.572c-5.676 0-10.765 2.515-14.25 6.475V38h-7.124v14.25h2.721c-.147.775-.236 1.57-.286 2.375H3.563v-42.75zm47.5 11.875a1.189 1.189 0 010 2.375 1.189 1.189 0 010-2.375zm-8.312-5.938a1.189 1.189 0 012.375 0 1.189 1.189 0 01-2.375 0zM34.437 28.5a1.189 1.189 0 01-2.374 0 1.189 1.189 0 012.374 0zm21.376 36.813c-5.239 0-9.5-4.262-9.5-9.5 0-5.239 4.261-9.5 9.5-9.5 5.238 0 9.5 4.261 9.5 9.5 0 5.238-4.262 9.5-9.5 9.5zm-16.627-18.68a18.852 18.852 0 00-1.411 3.241h-.964v-9.5h2.376v6.26zm15.438-7.386v4.75c-5.992.599-10.688 5.668-10.688 11.815 0 1.737.385 3.384 1.059 4.873l-4.12 2.379a16.484 16.484 0 01-1.688-7.252c0-8.767 6.824-15.952 15.437-16.565zm1.188 33.19c-5.717 0-10.769-2.902-13.761-7.31l4.136-2.388c2.159 2.99 5.663 4.947 9.624 4.947 3.962 0 7.466-1.956 9.625-4.947l4.136 2.388c-2.992 4.408-8.044 7.31-13.76 7.31zm14.936-9.373l-4.12-2.379a11.797 11.797 0 001.058-4.873c0-6.147-4.695-11.218-10.687-11.815v-4.75c8.613.613 15.438 7.798 15.438 16.565 0 2.601-.618 5.057-1.69 7.252z" fill="#000"/><path d="M55.813 48.688a7.132 7.132 0 00-7.126 7.124 7.132 7.132 0 007.126 7.126 7.132 7.132 0 007.124-7.126 7.132 7.132 0 00-7.124-7.124zm0 11.874c-2.62 0-4.75-2.13-4.75-4.75s2.13-4.75 4.75-4.75 4.75 2.13 4.75 4.75-2.13 4.75-4.75 4.75zM5.938 14.25h2.375v2.375H5.937V14.25zm4.75 0h16.624v2.375H10.688V14.25zM5.938 19h2.375v2.375H5.937V19zm4.75 0h16.624v2.375H10.688V19zm-4.75 4.75h2.375v2.375H5.937V23.75zm4.75 0h16.624v2.375H10.688V23.75zm-4.75 4.75h2.375v2.375H5.937V28.5zm4.75 0h16.624v2.375H10.688V28.5z" fill="#000"/><path d="M5.938 52.25h7.125V40.375H5.936V52.25zm2.375-9.5h2.374v7.125H8.313V42.75zm7.125 9.5h7.124v-9.5h-7.125v9.5zm2.374-7.125h2.375v4.75h-2.375v-4.75zm7.126 7.125h7.125v-19h-7.126v19zm2.375-16.625h2.375v14.25h-2.375v-14.25z" fill="#71B219"/></svg>