<svg width="68" height="68" fill="none" xmlns="http://www.w3.org/2000/svg"><g clip-path="url(#clip0)"><path d="M29.386 32.433h-.997a.996.996 0 000 1.992s2.32-.001 2.795-.003v1a.996.996 0 001.992 0v-1.008l2.219-.008v1.016a.996.996 0 001.992 0v-1.146a5.594 5.594 0 004.396-5.456 5.59 5.59 0 00-3.045-4.97 4.903 4.903 0 001.514-3.545 4.924 4.924 0 00-2.865-4.468V14.39a.996.996 0 00-1.992 0v.998l-.062-.002h-2.157v-.996a.996.996 0 00-1.992 0v.996h-2.795a.996.996 0 100 1.992h.997v15.055zm6.812-.02c-.88 0-3.401.01-4.82.016v-7.193l4.82-.008a3.596 3.596 0 013.593 3.592 3.596 3.596 0 01-3.593 3.593zm2.062-12.108a2.93 2.93 0 01-2.927 2.926l-3.955.005v-5.858h3.955a2.93 2.93 0 012.927 2.927z" fill="#71B219"/><path d="M34 43.296c10.14 0 18.391-8.25 18.391-18.39 0-10.141-8.25-18.392-18.391-18.392-4.105 0-7.99 1.324-11.232 3.83a.996.996 0 001.218 1.576A16.241 16.241 0 0134 8.507c9.042 0 16.399 7.356 16.399 16.398 0 9.043-7.357 16.399-16.399 16.399-9.042 0-16.399-7.356-16.399-16.399a16.42 16.42 0 013.746-10.432.996.996 0 00-1.536-1.269 18.42 18.42 0 00-4.202 11.701c0 10.141 8.25 18.391 18.391 18.391z" fill="#000"/><path d="M5.421 59.507l8.871-.73 4.234 7.83c1.003 1.855 3.665 1.854 4.669.002l9.132-16.856c1.113.074 2.17.08 3.346 0l9.132 16.856c.791 1.459 2.35 1.394 2.335 1.39.976 0 1.87-.534 2.334-1.392l4.234-7.83 8.871.73c2.1.172 3.554-2.059 2.551-3.91l-9.723-17.946a24.81 24.81 0 003.499-12.746C58.906 11.172 47.733 0 34 0 20.267 0 9.095 11.172 9.095 24.905c0 4.648 1.28 9.002 3.506 12.73L2.87 55.597c-1.003 1.851.452 4.082 2.551 3.91zM34 1.992c12.635 0 22.913 10.279 22.913 22.913a22.79 22.79 0 01-6.48 15.967 23.533 23.533 0 01-2.151 1.95.996.996 0 101.243 1.556 25.272 25.272 0 004.637-4.844l9.217 17.012a.662.662 0 01-.637.975l-9.52-.782a.996.996 0 00-.957.519l-4.544 8.401a.661.661 0 01-1.164 0l-8.745-16.14a24.68 24.68 0 008.195-2.79.996.996 0 10-.963-1.746c-6.187 3.408-13.803 3.825-20.465.808-7.949-3.6-13.492-11.607-13.492-20.886C11.087 12.271 21.366 1.992 34 1.992zM4.621 56.546l9.22-17.017a25.17 25.17 0 006.982 6.512 25.011 25.011 0 009.364 3.478l-8.744 16.14a.648.648 0 01-.582.347.648.648 0 01-.583-.347l-4.543-8.401a.996.996 0 00-.876-.522c-.078 0 .565-.049-9.601.786a.648.648 0 01-.609-.299.649.649 0 01-.028-.677z" fill="#000"/></g><defs><clipPath id="clip0"><path fill="#fff" d="M0 0h68v68H0z"/></clipPath></defs></svg>