<svg width="67" height="67" fill="none" xmlns="http://www.w3.org/2000/svg"><g clip-path="url(#clip0)"><path d="M42.882 23.41c.543 0 .982-.44.982-.982v-.682a.981.981 0 10-1.963 0v.682c0 .542.44.982.981.982zm-18.764-2.646a.981.981 0 00-.982.982v.682a.981.981 0 101.963 0v-.682a.981.981 0 00-.982-.982zm14.055 18.168a.981.981 0 00-.982.981v.776a.981.981 0 101.963 0v-.776a.982.982 0 00-.981-.981zM65.83 30.56c-.232-1.366-1.676-2.222-4.414-2.618-2.036-.294-4.252-.268-5.46-.221-.638-.605-1.6-.941-2.869-1-.63-.03-1.25.201-1.706.635a2.269 2.269 0 00-.712 1.652c-.008 2.736-.841 4.818-2.479 6.188-1.487 1.245-3.418 1.67-4.773 1.571v-3.534a2.362 2.362 0 00-2.13-2.348c.446-1.376 1.007-2.766 1.531-3.767a1.487 1.487 0 011.32-.802h4.287c.283 0 .561.051.826.152l.9.345a1.648 1.648 0 002.201-1.894l-.25-1.14A4.347 4.347 0 0049.25 20.6l-1.157-.387a.763.763 0 01-.386-.292l-.183-.267a2.72 2.72 0 00-2.248-1.189h-3.831c-1.383 0-3.34-.073-4.373-.703-.424-.26-.951-.3-1.41-.108a1.54 1.54 0 00-.903 1.067c-.6 2.572.44 3.944 1.24 4.589-.809 1.49-1.78 3.531-2.498 5.826-.718-2.295-1.688-4.336-2.497-5.826.8-.645 1.84-2.017 1.24-4.588a1.541 1.541 0 00-.903-1.068 1.557 1.557 0 00-1.41.108c-1.032.63-2.99.704-4.373.704h-3.83c-.901 0-1.742.444-2.25 1.188l-.182.267a.763.763 0 01-.387.292l-1.156.387a4.347 4.347 0 00-2.855 3.178l-.25 1.14a1.648 1.648 0 002.201 1.895l.9-.345c.265-.1.543-.152.827-.152h4.287c.555 0 1.06.307 1.32.802.523 1.001 1.084 2.391 1.53 3.768a2.362 2.362 0 00-2.13 2.347v3.534c-1.354.1-3.286-.326-4.773-1.57-1.637-1.37-2.471-3.453-2.478-6.189a2.27 2.27 0 00-.713-1.651 2.328 2.328 0 00-1.706-.637c-1.475.07-2.348.52-2.864 1.001a37.189 37.189 0 00-2.821-.004.981.981 0 10.074 1.962c1-.038 2.109-.03 3.12.024a.983.983 0 00.866-.432c.225-.334.851-.55 1.718-.59a.356.356 0 01.26.098.32.32 0 01.103.234c.01 4.163 1.736 6.48 3.181 7.689 1.737 1.453 3.913 2.042 5.657 2.042.128 0 .253-.004.377-.01v6.715c-.62.82-1.149 1.09-1.433 1.127-.273-.428-.522-2.195-.097-4.545a.982.982 0 00-1.675-.852c-1.123 1.176-2.664 2.359-4.02 3.085-1.318.706-2.21.848-2.578.68.068-.485.831-1.824 2.448-3.523a.982.982 0 00-1.116-1.57c-2.98 1.349-6.264 1.908-7.082 1.616.064-.495.999-1.544 3.13-2.646a.982.982 0 00-.6-1.842c-3.673.563-5.742-.571-5.983-1.06.087-.123.58-.659 2.787-1.2a.982.982 0 00-.188-1.933c-2.76-.128-3.638-.863-3.888-1.172a.844.844 0 01-.184-.724c.011-.065.17-.285.761-.522a.981.981 0 10-.732-1.822c-1.155.465-1.815 1.142-1.964 2.014a2.8 2.8 0 00.59 2.285c.435.54 1.066.968 1.887 1.281-.614.456-1.055 1.049-1.043 1.817.006.427.17 1.069.918 1.7.745.63 2.055 1.206 3.858 1.391-1.052 1.01-1.49 2.039-1.252 3.017.12.492.459.896.956 1.139 1.193.582 3.427.25 5.52-.347-.48.788-.814 1.59-.787 2.27.02.494.212.92.557 1.229 1.787 1.603 5.101-.176 7.495-2.07-.024 1.275.12 2.705.757 3.54.412.54.908.69 1.25.721.074.007.146.01.22.01.498 0 1-.152 1.493-.444.008.181.03.36.063.533a7.573 7.573 0 00-1.457 4.457v1.64a3.661 3.661 0 002.675 3.52v.13c0 .418-.34.758-.758.758h-3.34l-.969-2.662a1.698 1.698 0 00-1.973-1.072l-1.2-3.297a2.499 2.499 0 001.345-2.35l-.133-2.252a.982.982 0 00-1.96.116l.133 2.25a.519.519 0 01-.084.315l-.772-2.12a.981.981 0 10-1.845.67l.772 2.121a.517.517 0 01-.267-.186l-1.345-1.81a.981.981 0 10-1.576 1.171l1.346 1.81a2.498 2.498 0 002.541.937l1.2 3.297a1.698 1.698 0 00-.822 2.09l2.81 7.72a1.699 1.699 0 002.174 1.013l1.452-.528a1.698 1.698 0 001.014-2.175l-1.126-3.094h2.625c1.5 0 2.72-1.22 2.72-2.721v-.13a3.661 3.661 0 002.675-3.52v-1.641c0-.084.04-.163.11-.21l1.59-1.094a.52.52 0 01.236.122l.776.705c.073.066.15.124.23.177-.18.603-.683 1.093-1.411 1.76-1.351 1.236-3.202 2.93-1.33 6.424a.981.981 0 101.73-.927c-1.151-2.15-.37-2.865.925-4.05l.157-.144v5.056a.981.981 0 101.963 0v-5.056l.158.145c1.294 1.184 2.076 1.9.925 4.05a.982.982 0 001.73.926c1.871-3.495.02-5.188-1.33-6.424-.729-.667-1.232-1.157-1.41-1.76.078-.053.156-.11.228-.177l.777-.705a.528.528 0 01.234-.122l1.591 1.094c.07.047.11.126.11.21v1.64a3.661 3.661 0 002.675 3.521v.13c0 1.5 1.22 2.72 2.72 2.72h2.097a5.01 5.01 0 004.772 3.506c.79 0 1.578-.19 2.278-.548a.981.981 0 00-.895-1.748 3.042 3.042 0 01-4.421-2.706 3.042 3.042 0 013.038-3.038c1.59 0 2.92 1.24 3.031 2.823a.981.981 0 001.958-.137c-.158-2.273-1.844-4.116-4.007-4.551v-1.612h.43a.981.981 0 100-1.963h-.43v-.713a.982.982 0 00-1.963 0v.713h-.43a.981.981 0 100 1.963h.43V54.7a5.012 5.012 0 00-3.997 4.437h-1.89a.759.759 0 01-.758-.758v-.13a3.661 3.661 0 002.674-3.52v-1.64a7.573 7.573 0 00-1.457-4.456c.033-.175.055-.352.063-.534.492.293.995.444 1.494.444.073 0 .145-.003.218-.01.343-.03.84-.18 1.251-.72.637-.836.78-2.266.757-3.54 1.74 1.377 3.967 2.693 5.74 2.692.665 0 1.267-.185 1.755-.623.345-.31.538-.735.557-1.23.027-.68-.307-1.48-.788-2.27 2.094.598 4.328.93 5.521.348.497-.242.837-.647.956-1.139.237-.978-.2-2.007-1.252-3.017 1.803-.185 3.113-.76 3.858-1.39.748-.633.912-1.274.919-1.7.01-.695-.338-1.305-1.037-1.82.818-.314 1.446-.74 1.88-1.28a2.802 2.802 0 00.59-2.284zM19.724 64.962l-2.627-7.219.951-.346 2.627 7.218-.95.347zm27.901-42.835l1.001.335a2.375 2.375 0 011.56 1.736l.125.573-.358-.137a4.263 4.263 0 00-1.527-.282H46.85c.172-.716.44-1.487.774-2.225zm-9.8 1.932a1.705 1.705 0 00-.508-2.212c-.617-.438-.866-1.155-.746-2.137 1.414.63 3.317.718 4.872.718h3.832c.25 0 .485.124.627.331l.116.171c-.548 1.122-.961 2.327-1.177 3.422h-.702c-1.288 0-2.46.711-3.059 1.855-.658 1.257-1.341 2.992-1.845 4.666h-4.192c.7-2.708 1.868-5.155 2.781-6.814zm-19.25.293a4.26 4.26 0 00-1.528.283l-.358.137.125-.574a2.375 2.375 0 011.56-1.736l1-.335c.335.738.603 1.509.775 2.226h-1.575zm4.286 0h-.702c-.216-1.095-.63-2.3-1.177-3.422l.116-.17a.759.759 0 01.627-.332h3.832c1.555 0 3.458-.088 4.872-.718.12.982-.13 1.7-.746 2.137a1.705 1.705 0 00-.507 2.212c.913 1.659 2.081 4.106 2.782 6.814h-4.192c-.505-1.675-1.188-3.409-1.846-4.666a3.444 3.444 0 00-3.059-1.855zm4.68 28.736v1.64c0 .934-.759 1.694-1.692 1.694-.933 0-1.693-.76-1.693-1.693v-1.64c0-.85.197-1.686.565-2.444a3.845 3.845 0 002.719 1.124h.538a2.216 2.216 0 00-.436 1.32zm8.546-3.282h-.173c-.62 0-1.215.23-1.675.647l-.739.672-.74-.672a2.487 2.487 0 00-1.674-.647H27.44a1.897 1.897 0 01-1.895-1.895V33.233c0-.219.178-.397.397-.397h15.116c.22 0 .397.178.397.397V47.91c0 1.045-.85 1.895-1.895 1.895h-3.473zm6.756 4.923c0 .933-.759 1.693-1.692 1.693-.934 0-1.693-.76-1.693-1.693v-1.64c0-.483-.157-.943-.436-1.32h.538c1.06 0 2.02-.43 2.719-1.124.368.758.564 1.593.564 2.443v1.64zm20.87-23.116c-.25.31-1.128 1.044-3.888 1.173a.981.981 0 00-.188 1.933c2.206.541 2.7 1.077 2.787 1.2-.242.489-2.31 1.623-5.983 1.06a.982.982 0 00-.6 1.842c2.13 1.102 3.066 2.15 3.13 2.645-.82.292-4.103-.267-7.082-1.616a.982.982 0 00-1.116 1.571c1.616 1.7 2.38 3.038 2.447 3.522-.366.169-1.26.027-2.577-.679-1.357-.727-2.897-1.909-4.02-3.085a.981.981 0 00-1.676.852c.425 2.35.176 4.117-.097 4.544-.284-.036-.812-.306-1.432-1.126v-6.715c1.798.091 4.17-.473 6.033-2.032 1.446-1.21 3.17-3.526 3.182-7.69a.32.32 0 01.103-.234.361.361 0 01.26-.097c.866.04 1.492.256 1.717.59.193.286.522.45.866.432 1.97-.104 4.047-.036 5.557.182 2.167.313 2.733.843 2.76 1.004a.845.845 0 01-.184.724zm-34.886 7.319a.981.981 0 00-.981.981v.776a.981.981 0 101.963 0v-.776a.982.982 0 00-.982-.981zm6.55 1.051a.982.982 0 00-1.385.095.646.646 0 01-.492.225.646.646 0 01-.492-.225.981.981 0 10-1.48 1.29 2.616 2.616 0 003.944 0 .981.981 0 00-.095-1.385z" fill="#000"/><g clip-path="url(#clip1)"><path d="M28.45 14.502a.981.981 0 100 1.963h10.1a.981.981 0 000-1.963h-.035c1.053-1.86 1.945-4.48.938-6.587-.569-1.191-1.627-1.996-3.15-2.412l-.031-.008a9.563 9.563 0 00-1.79-.288v-1.55h.429a.981.981 0 100-1.963h-.43V.981a.981.981 0 10-1.962 0v.713h-.43a.981.981 0 100 1.963h.43v1.55a9.557 9.557 0 00-1.82.296c-1.525.416-2.583 1.22-3.152 2.412-1.007 2.106-.114 4.727.938 6.587h-.035zm5.05-7.368c.506 0 .967.029 1.387.084l-.399 2.244a.165.165 0 01-.162.136h-1.653a.164.164 0 01-.162-.136l-.398-2.244c.42-.055.88-.084 1.387-.084zm-4.182 1.628c.186-.39.49-.709.905-.959l.355 2.002a2.125 2.125 0 002.095 1.756h1.653a2.125 2.125 0 002.095-1.756l.356-2.002c.416.25.72.57.905.958.75 1.57-.353 4.163-1.49 5.741h-5.384c-1.137-1.578-2.24-4.17-1.49-5.74z" fill="#71B219"/></g></g><defs><clipPath id="clip0"><path fill="#fff" d="M0 0h67v67H0z"/></clipPath><clipPath id="clip1"><path fill="#fff" d="M0 0h67v67H0z"/></clipPath></defs></svg>