<svg width="74" height="74" fill="none" xmlns="http://www.w3.org/2000/svg"><g clip-path="url(#clip0)"><path d="M24.923 37.434c-.598 0-1.084.485-1.084 1.084v1.734a1.084 1.084 0 002.168 0v-1.734c0-.6-.485-1.084-1.084-1.084zm18.052 0c-.599 0-1.084.485-1.084 1.084v1.734a1.084 1.084 0 002.168 0v-1.734c0-.6-.486-1.084-1.084-1.084zm-5.935 1.949a1.084 1.084 0 00-1.529.105 2.07 2.07 0 01-3.125 0 1.084 1.084 0 00-1.634 1.425 4.24 4.24 0 006.394 0 1.084 1.084 0 00-.105-1.53z" fill="#71B219"/><path d="M63.452 29.403a8.989 8.989 0 001.869-7.426 3.05 3.05 0 00-2.42-2.42 8.99 8.99 0 00-8.088 2.467l-.02.02-1.191-4.842a1.084 1.084 0 00-2.105.518l.855 3.472c-4.717-4.055-10.613-7.609-16.622-10.014-5.451-2.182-10.825-3.365-15.746-3.485a10.27 10.27 0 014.813-3.184l6.051-1.879a10.286 10.286 0 013.106-.462c1.05-.002 2.075.145 3.096.462l6.05 1.88a10.39 10.39 0 016.967 7.404l.39 1.586a1.084 1.084 0 102.105-.518l-.39-1.586C51.13 7.161 47.9 3.729 43.744 2.438L37.693.56C36.515.194 35.808 0 33.953 0a12.448 12.448 0 00-3.748.56l-6.051 1.879a12.436 12.436 0 00-6.88 5.3c-5.207.31-9.832 2.554-10.546 7.596-.56 3.955 1.804 7.96 5.695 9.826a21.218 21.218 0 00-.041 4.867 6.296 6.296 0 00.407 12.561c1.576 5.25 5.192 9.931 10.078 12.79a11.186 11.186 0 00-.07 2.686 18.78 18.78 0 00-1.823 1.563 1.084 1.084 0 001.514 1.55c.258-.25.527-.492.802-.727a11.176 11.176 0 007.51 7.28l1.527 1.327c.925.803 2.32.803 3.244 0L37.1 67.73a11.176 11.176 0 007.51-7.283 16.483 16.483 0 014.058 5.213 38.645 38.645 0 01-3.416 2.548v-.69a1.084 1.084 0 10-2.168 0v4.314h-18.27v-4.314a1.084 1.084 0 00-2.168 0v.689a38.708 38.708 0 01-3.413-2.546c.222-.448.462-.888.723-1.313a1.084 1.084 0 00-1.848-1.134 18.467 18.467 0 00-2.74 9.702c0 .599.485 1.084 1.083 1.084h34.998c.6 0 1.084-.485 1.084-1.084 0-5.965-2.845-11.403-7.43-14.854.083-.88.062-1.78-.072-2.688A22.12 22.12 0 0055.087 42.59a6.31 6.31 0 003.364-1.076 10.386 10.386 0 006.03.634 3.38 3.38 0 002.682-2.681 10.314 10.314 0 00-3.71-10.064zM18.367 67.756a41.495 41.495 0 004.278 3.026v1.05h-5.076c.091-1.394.359-2.757.798-4.076zm26.884 4.076v-1.048a41.52 41.52 0 004.28-3.028c.44 1.319.707 2.682.798 4.076H45.25zm17.236-50.147a.89.89 0 01.706.706 6.825 6.825 0 01-1.589 5.84c-2.961-1.465-6.251-1.216-7.523-.522a1.09 1.09 0 00-.637.946 21.69 21.69 0 01-.07 1.01c-6.279-2.069-12.855-3.117-19.567-3.117-6.636 0-13.272 1.07-19.285 3.105-.143-1.49-.125-2.94.088-4.46 5.98-3.18 12.312-4.692 19.328-4.623h.022c7.212-.071 13.687 1.525 19.8 4.877l.024.011c.511.265 1.15.084 1.44-.429h.001a6.832 6.832 0 017.261-3.344zM8.873 15.639c.451-3.183 3.376-5.309 7.823-5.686 10.71-.908 22.865 4.264 31.442 10.646-4.469-1.522-9.16-2.246-14.19-2.197-7.405-.073-14.08 1.528-20.394 4.895-3.167-1.421-5.118-4.571-4.68-7.658zm-.031 20.657a4.136 4.136 0 013.422-4.07 21.919 21.919 0 00-.018 8.138 4.136 4.136 0 01-3.404-4.068zm16.09 20.148c.704.316 1.424.594 2.16.834a6.916 6.916 0 003.195 5.51l-.706 1.226c-.133.23-.222.474-.274.722a9.009 9.009 0 01-4.376-8.293zm11.137 4.73a2.466 2.466 0 00-.923-.182h-2.395c-.322 0-.635.064-.924.181a4.735 4.735 0 01-2.487-3.294c1.487.314 3.017.477 4.575.477 1.54 0 3.078-.155 4.643-.488a4.735 4.735 0 01-2.489 3.305zm-1.92 6.247a.303.303 0 01-.401 0l-2.223-1.93a.32.32 0 01-.065-.395l1.024-1.78a.317.317 0 01.266-.156h2.395c.086 0 .205.049.267.156l1.024 1.78a.32.32 0 01-.066.394l-2.221 1.931zm4.44-2.685a2.466 2.466 0 00-.274-.722l-.706-1.226a6.916 6.916 0 003.197-5.523 21.89 21.89 0 002.158-.832 9.008 9.008 0 01-4.375 8.303zm-4.67-8.549c-12.6 0-22.191-11.745-19.384-24.241 5.968-2.113 12.616-3.23 19.27-3.23 6.721 0 13.297 1.09 19.557 3.236 2.734 12.43-6.646 24.235-19.443 24.235zM55.63 32.224a4.136 4.136 0 013.427 4.072 4.14 4.14 0 01-3.431 4.073c.499-2.661.508-5.419.004-8.145zm9.406 6.828a1.22 1.22 0 01-.969.968 8.22 8.22 0 01-3.925-.197 6.297 6.297 0 00-4.625-9.796c.019-.187.035-.374.05-.56 5.665-1.033 10.566 3.955 9.469 9.585z" fill="#000"/></g><defs><clipPath id="clip0"><path fill="#fff" d="M0 0h74v74H0z"/></clipPath></defs></svg>