<svg width="65" height="65" fill="none" xmlns="http://www.w3.org/2000/svg"><path d="M63.096 4.691h-8.341c.03-.924.047-1.853.047-2.787A1.904 1.904 0 0052.897 0H12.103a1.904 1.904 0 00-1.905 1.904c0 .934.017 1.863.047 2.787h-8.34A1.904 1.904 0 000 6.596c0 8.532 2.23 16.582 6.28 22.668 4.002 6.016 9.333 9.466 15.093 9.802 1.305 1.42 2.686 2.58 4.123 3.463v8.463h-3.194a7.012 7.012 0 00-7.004 7.004v3.195h-.136a1.904 1.904 0 000 3.808h34.675a1.904 1.904 0 100-3.808h-.135v-3.195a7.012 7.012 0 00-7.004-7.004h-3.194V42.53c1.437-.883 2.818-2.042 4.124-3.463 5.759-.336 11.09-3.786 15.093-9.802C62.771 23.178 65 15.128 65 6.596a1.904 1.904 0 00-1.904-1.905zM9.45 27.154C6.11 22.135 4.148 15.57 3.85 8.5h6.61c.686 8.691 2.726 16.725 5.915 23.102a39.207 39.207 0 001.59 2.879c-3.167-1.197-6.099-3.697-8.514-7.327zm36.444 30.842v3.195H19.106v-3.195a3.199 3.199 0 013.196-3.195h20.396a3.199 3.199 0 013.196 3.195zm-10.199-7.004h-6.39v-6.808a12.51 12.51 0 003.195.419 12.51 12.51 0 003.195-.42v6.81zm1.18-11.339a1.855 1.855 0 00-.248.125c-1.345.67-2.729 1.016-4.127 1.016-1.398 0-2.78-.346-4.126-1.015a1.897 1.897 0 00-.25-.127c-1.493-.79-2.937-1.982-4.303-3.548a1.924 1.924 0 00-.243-.284c-1.356-1.61-2.632-3.59-3.798-5.922-3.5-6.998-5.52-16.2-5.75-26.09h36.94c-.23 9.89-2.251 19.092-5.75 26.09-1.166 2.331-2.442 4.312-3.798 5.922a1.88 1.88 0 00-.243.284c-1.366 1.567-2.811 2.759-4.305 3.549zM55.55 27.154c-2.415 3.63-5.346 6.13-8.514 7.327a39.207 39.207 0 001.59-2.88c3.189-6.376 5.228-14.41 5.916-23.101h6.61c-.3 7.07-2.262 13.635-5.602 18.654z" fill="#FAC71E"/><path d="M34.61 25h-2.415v-6.61l.024-1.085.039-1.188c-.401.401-.68.664-.836.79l-1.313 1.054-1.164-1.453 3.68-2.93h1.984V25z" fill="#2B4722"/></svg>