<svg width="73" height="73" fill="none" xmlns="http://www.w3.org/2000/svg"><g clip-path="url(#clip0)"><path d="M71.934 71.398a4.709 4.709 0 01-3.666 1.744H50.072c-.03 0-.06-.004-.09-.005-.054.002-.108.005-.161.005H23.089l-.103-.003c-.02 0-.038.003-.058.003H4.732a4.708 4.708 0 01-3.666-1.744A4.734 4.734 0 01.1 67.432c.81-3.897 3.234-7.144 6.477-9.104a8.932 8.932 0 01-1.729-5.29c0-4.952 4.03-8.982 8.982-8.982 4.953 0 8.982 4.03 8.982 8.983a8.93 8.93 0 01-1.72 5.278c.045.027.09.053.134.081a19.26 19.26 0 017.054-5.657 10.644 10.644 0 01-2.473-6.831c0-5.896 4.797-10.693 10.693-10.693s10.693 4.797 10.693 10.693c0 2.595-.93 4.977-2.473 6.83a19.265 19.265 0 017.053 5.657l.135-.08a8.932 8.932 0 01-1.72-5.278c0-4.953 4.029-8.982 8.981-8.982 4.953 0 8.983 4.03 8.983 8.982 0 4.902-3.949 8.898-8.832 8.978-.026.001-.05.004-.076.004h-.15a8.201 8.201 0 00-4.52 1.356c.332.872.603 1.769.806 2.684.022.074.04.149.056.226.08.382.117.768.115 1.152h11.763a2.853 2.853 0 015.585-.006 4.733 4.733 0 01-.965 3.965zm-16.043-18.36c0 1.809 1.47 3.28 3.278 3.28a3.283 3.283 0 003.28-3.28 3.283 3.283 0 00-3.28-3.279 3.283 3.283 0 00-3.278 3.28zM36.5 50.9a4.996 4.996 0 004.99-4.99 4.996 4.996 0 00-4.99-4.99 4.996 4.996 0 00-4.99 4.99 4.996 4.996 0 004.99 4.99zM23.156 67.439h26.655a.128.128 0 00.027-.024c-1.334-6.269-6.932-10.812-13.338-10.812-6.414 0-12.019 4.554-13.344 10.836zm-12.605-14.4a3.283 3.283 0 003.28 3.279 3.282 3.282 0 003.278-3.28 3.282 3.282 0 00-3.279-3.279 3.283 3.283 0 00-3.28 3.28zm-4.537 14.4h11.432c.003-.371.04-.745.117-1.116.21-1.006.5-1.991.865-2.946a8.196 8.196 0 00-4.523-1.356h-.149c-3.482 0-6.569 2.218-7.742 5.418z" fill="#71B219"/><path d="M25.778 8.83a2.851 2.851 0 104.05 4.015l3.678-3.71v18.527a2.851 2.851 0 105.703 0V9.134l3.678 3.711a2.844 2.844 0 002.025.845 2.851 2.851 0 002.025-4.859l-5.53-5.58a7.062 7.062 0 00-5.05-2.108 7.061 7.061 0 00-5.05 2.108l-5.53 5.58zm26.72 18.273a2.852 2.852 0 01-4.05-4.015l5.53-5.58a7.06 7.06 0 015.049-2.108c1.91 0 3.703.749 5.05 2.108l5.53 5.58a2.852 2.852 0 01-4.05 4.015l-3.678-3.711v13.11a2.851 2.851 0 11-5.703 0v-13.11l-3.678 3.711zm-41.519-3.568L7.3 27.245a2.852 2.852 0 01-4.05-4.015l5.53-5.579a7.06 7.06 0 015.05-2.108 7.06 7.06 0 015.049 2.108l5.53 5.58a2.852 2.852 0 01-4.05 4.014l-3.678-3.71V36.5a2.851 2.851 0 11-5.703 0V23.535z" fill="#000"/></g><defs><clipPath id="clip0"><path fill="#fff" d="M0 0h73v73H0z"/></clipPath></defs></svg>