<svg width="74" height="74" fill="none" xmlns="http://www.w3.org/2000/svg"><path d="M11.563 50.297v20.812a2.89 2.89 0 11-5.782 0V52.692C2.416 51.5 0 48.284 0 44.516V28.762c0-4.782 3.89-8.672 8.672-8.672h11.562a8.702 8.702 0 017.51 4.334 2.89 2.89 0 11-5.004 2.895 2.903 2.903 0 00-2.506-1.448H8.672a2.894 2.894 0 00-2.89 2.89v15.755a2.894 2.894 0 002.89 2.89 2.89 2.89 0 012.89 2.89zm8.671 8.672a2.89 2.89 0 00-2.89 2.89v9.25a2.89 2.89 0 105.781 0v-9.25a2.89 2.89 0 00-2.89-2.89zM5.781 8.672C5.781 3.89 9.671 0 14.453 0s8.672 3.89 8.672 8.672-3.89 8.672-8.672 8.672-8.672-3.89-8.672-8.672zm5.782 0a2.894 2.894 0 002.89 2.89 2.894 2.894 0 002.89-2.89 2.894 2.894 0 00-2.89-2.89 2.894 2.894 0 00-2.89 2.89zm42.203 50.297a2.89 2.89 0 00-2.891 2.89v9.25a2.89 2.89 0 105.781 0v-9.25a2.89 2.89 0 00-2.89-2.89zm11.562-38.88H53.766a8.702 8.702 0 00-7.51 4.335 2.89 2.89 0 105.004 2.895 2.903 2.903 0 012.506-1.448h11.562a2.894 2.894 0 012.89 2.89v15.755a2.894 2.894 0 01-2.89 2.89 2.89 2.89 0 00-2.89 2.89V71.11a2.89 2.89 0 105.78 0V52.692C71.585 51.5 74 48.284 74 44.516V28.762c0-4.782-3.89-8.672-8.672-8.672zM50.875 8.673C50.875 3.89 54.765 0 59.547 0s8.672 3.89 8.672 8.672-3.89 8.672-8.672 8.672-8.672-3.89-8.672-8.672zm5.781 0a2.894 2.894 0 002.89 2.89 2.894 2.894 0 002.892-2.89 2.894 2.894 0 00-2.891-2.89 2.894 2.894 0 00-2.89 2.89z" fill="#71B219"/><path d="M50.702 53.435a2.891 2.891 0 01-3.435 1.539l-3.286-.972a11.451 11.451 0 01-2.684 1.664l-.532 3.326a2.891 2.891 0 01-2.854 2.434h-2.602a2.89 2.89 0 01-2.845-2.379l-.615-3.415a11.496 11.496 0 01-2.233-1.331l-3.175 1.141a2.89 2.89 0 01-3.497-1.301l-1.283-2.279a2.891 2.891 0 01.704-3.668l2.718-2.192c-.005-.064-.007-.129-.011-.193l-.011-.184a11.193 11.193 0 010-1.095l-2.784-1.875a2.89 2.89 0 01-.92-3.788l1.346-2.454a2.89 2.89 0 013.354-1.381l3.372.998a11.517 11.517 0 012.41-1.472l.463-3.306a2.89 2.89 0 012.863-2.49h2.746a2.89 2.89 0 012.844 2.378l.615 3.415c.057.026.112.055.168.082.06.028.118.057.177.086.122.06.243.121.362.186l.119.065c.135.075.269.151.4.231l.022.013c.311.19.615.393.908.612l3.121-1.192a2.89 2.89 0 013.482 1.166l1.505 2.405a2.89 2.89 0 01-.677 3.817l-2.818 2.19c.005.057.006.115.01.173.004.059.008.118.01.177a10.938 10.938 0 01.005.979l2.73 2.002a2.89 2.89 0 01.905 3.564l-1.097 2.324zm-19.873-8.341c0 .11.004.221.01.332l.007.092a7.011 7.011 0 00.035.345c.01.077.022.153.036.23l.018.103a5.78 5.78 0 001.663 3.056c.037.034.073.07.11.103.075.07.153.137.232.203l.13.103a5.316 5.316 0 00.461.322 6.418 6.418 0 00.54.303 5.77 5.77 0 00.988.376 5.768 5.768 0 005.247-1.127c.04-.032.078-.067.116-.1a6.65 6.65 0 00.213-.198l.06-.057a5.765 5.765 0 001.575-2.91c.013-.061.023-.123.034-.185.006-.033.013-.066.018-.1a5.975 5.975 0 00.059-1.224l-.007-.093a5.727 5.727 0 00-.022-.24l-.014-.105a5.374 5.374 0 00-.035-.23c-.007-.034-.012-.07-.02-.104a5.774 5.774 0 00-1.7-3.088l-.075-.073a5.967 5.967 0 00-.249-.214 7.61 7.61 0 00-.28-.214l-.121-.086a5.436 5.436 0 00-.259-.166 5.283 5.283 0 00-.303-.17 2.971 2.971 0 00-.148-.077 6.933 6.933 0 00-.4-.177 5.154 5.154 0 00-.59-.2 5.764 5.764 0 00-3.485.123c-.05.017-.1.037-.149.056-.121.047-.24.097-.357.152l-.073.034a6.332 6.332 0 00-.22.113l-.053.03a5.83 5.83 0 00-.658.423l-.033.025c-.129.098-.253.2-.373.308l-.042.037c-.06.055-.119.11-.176.168l-.06.061a5.773 5.773 0 00-1.563 3.045l-.003.018a5.54 5.54 0 00-.044.303l-.003.025c-.01.096-.019.192-.025.288l-.003.04c-.006.107-.01.214-.01.32z" fill="#000"/></svg>