<svg width="67" height="74" fill="none" xmlns="http://www.w3.org/2000/svg"><path d="M32.792 31.797a2.89 2.89 0 00-2.89-2.89H14.437a2.89 2.89 0 000 5.78h15.465a2.89 2.89 0 002.89-2.89zm-18.355 8.672a2.89 2.89 0 100 5.781h6.215a2.89 2.89 0 100-5.781h-6.215z" fill="#71B219"/><path d="M27.3 68.219H11.562a5.788 5.788 0 01-5.78-5.781V11.562a5.788 5.788 0 015.78-5.78h35.54a5.788 5.788 0 015.78 5.78V27.75a2.89 2.89 0 105.782 0V11.562C58.664 5.188 53.477 0 47.1 0H11.563C5.186 0 0 5.187 0 11.563v50.874C0 68.814 5.187 74 11.563 74H27.3a2.89 2.89 0 000-5.781z" fill="#71B219"/><path d="M64.323 41.857l-14.188-6.34a2.875 2.875 0 00-1.444-.24 2.879 2.879 0 00-1.444.24l-14.188 6.34a2.89 2.89 0 00-1.712 2.639v11.008c0 4.52 1.786 9.135 4.9 12.66C39.574 71.927 43.923 74 48.497 74h.39c4.573 0 8.923-2.073 12.248-5.836 3.114-3.525 4.9-8.14 4.9-12.66V44.496a2.89 2.89 0 00-1.71-2.64zm-4.07 4.513v9.134c0 6.002-4.861 12.715-11.367 12.715h-.39c-6.506 0-11.368-6.713-11.368-12.715V46.37l11.563-5.166 11.562 5.166z" fill="#000"/><path d="M47.101 20.234a2.89 2.89 0 00-2.89-2.89H14.436a2.89 2.89 0 100 5.781H44.21a2.89 2.89 0 002.891-2.89z" fill="#71B219"/></svg>