<svg width="73" height="73" fill="none" xmlns="http://www.w3.org/2000/svg"><path d="M28.381 12.437l5.267-5.205v26.416a2.851 2.851 0 105.704 0V7.513l4.982 4.924a2.852 2.852 0 004.008-4.057l-5.93-5.86A8.486 8.486 0 0036.358 0a8.486 8.486 0 00-6.055 2.52l-5.93 5.86a2.852 2.852 0 004.01 4.056z" fill="#000"/><path d="M2.852 33.648a2.851 2.851 0 002.851-2.851 5.71 5.71 0 015.703-5.703h13.688a2.851 2.851 0 100-5.703H11.406C5.116 19.39 0 24.508 0 30.797a2.851 2.851 0 002.852 2.851z" fill="#71B219"/><path d="M28.634 36.812a2.85 2.85 0 00-3.941.854c-1.697 2.633-2.593 5.638-2.593 8.69 0 8.49 6.46 15.398 14.4 15.398s14.4-6.908 14.4-15.399c0-3.266-.826-6.193-2.457-8.7a2.851 2.851 0 10-4.78 3.108c1.018 1.567 1.534 3.448 1.534 5.592 0 5.346-3.901 9.696-8.697 9.696-4.796 0-8.697-4.35-8.697-9.696 0-1.953.582-3.89 1.684-5.602a2.852 2.852 0 00-.853-3.941z" fill="#000"/><path d="M13.83 43.486a2.852 2.852 0 100 5.703 2.852 2.852 0 000-5.703zm45.34 0a2.852 2.852 0 100 5.703 2.852 2.852 0 000-5.703z" fill="#71B219"/><path d="M11.406 73h50.188C67.884 73 73 67.883 73 61.594V30.797c0-6.29-5.117-11.406-11.406-11.406H47.906a2.852 2.852 0 000 5.703h13.688a5.71 5.71 0 015.703 5.703v30.797a5.71 5.71 0 01-5.703 5.703H11.406a5.71 5.71 0 01-5.703-5.703v-16.54a2.852 2.852 0 10-5.703 0v16.54C0 67.884 5.117 73 11.406 73z" fill="#71B219"/></svg>