<svg width="27" height="27" fill="none" xmlns="http://www.w3.org/2000/svg"><path d="M26.892 17.443a1.038 1.038 0 00-.014-.124L24.873 6.298a1.07 1.07 0 00-.022-.094A4.196 4.196 0 0023.45 4.06a1.054 1.054 0 00-.22-.138l-5.976-2.777A12.383 12.383 0 0012.07 0H1.055a1.055 1.055 0 100 2.11H12.07c1.473 0 2.958.328 4.294.948l5.844 2.716c.283.258.49.584.6.953l1.01 5.552a8.205 8.205 0 00-2.888-1.445c-.347-1.779-.396-1.927-.418-1.992a1.055 1.055 0 00-2.01.637c.028.113.118.55.222 1.069a8.197 8.197 0 00-5.52 2.168c-.148-.712-.292-1.377-.415-1.931a5.8 5.8 0 012.308-1.68 1.055 1.055 0 10-.768-1.965c-2.366.926-3.525 2.776-3.573 2.854a1.055 1.055 0 00-.13.788c.734 3.217 1.556 7.544 1.556 8.519 0 .572-.495 1.055-1.081 1.055-.356 0-.682-.175-.878-.47l-4.528-9.35a1.058 1.058 0 00-.09-.15 2.997 2.997 0 00-2.44-1.263h-2.11a1.055 1.055 0 100 2.11h2.11c.261 0 .51.117.677.316l4.509 9.31a.727.727 0 00.05.091 3.144 3.144 0 003.011 1.5A8.202 8.202 0 0018.773 27a8.237 8.237 0 003.945-1.006 1.055 1.055 0 10-1.012-1.85 6.122 6.122 0 01-2.933.747 6.1 6.1 0 01-5.445-3.328 3.141 3.141 0 00.963-2.262c0-.705-.25-2.279-.569-3.978a6.1 6.1 0 015.051-2.667 6.124 6.124 0 015.82 8.009 1.055 1.055 0 002.006.651 8.217 8.217 0 00.293-3.873z" fill="#2B4722"/><path d="M19.05 22.136c.583 0 1.055-.472 1.055-1.055v-4.746a1.055 1.055 0 00-1.692-.84l-1.687 1.28a1.055 1.055 0 001.27 1.683v2.623c0 .583.472 1.055 1.055 1.055z" fill="#2B4722"/></svg>