<svg width="27" height="27" fill="none" xmlns="http://www.w3.org/2000/svg"><g clip-path="url(#clip0)"><path d="M26.81 14.091a2.453 2.453 0 01-2.274 1.518H21.25v3.059a1.055 1.055 0 11-2.11 0v-4.114c0-.582.473-1.055 1.055-1.055h4.34a.334.334 0 00.324-.216.327.327 0 00-.075-.378L14.311 2.417a1.061 1.061 0 00-1.497 0L2.21 12.908a.325.325 0 00-.072.376c.033.08.12.216.325.216h4.55c.583 0 1.055.473 1.055 1.055v4.114a1.055 1.055 0 11-2.11 0V15.61H2.462c-1 0-1.893-.597-2.274-1.52a2.45 2.45 0 01.534-2.678L11.327.921a3.173 3.173 0 014.475.004l10.476 10.489a2.45 2.45 0 01.531 2.677zm-19.798 10.8a1.055 1.055 0 100 2.11 1.055 1.055 0 000-2.11zm0-3.692a1.055 1.055 0 100 2.11 1.055 1.055 0 000-2.11zm13.184 3.692a1.055 1.055 0 100 2.109 1.055 1.055 0 000-2.11zm0-3.692a1.055 1.055 0 100 2.11 1.055 1.055 0 000-2.11zm-6.031-7.752h-.966c-.465 0-.858-.41-.858-.897v-.384c0-.473.369-.829.857-.829h.914c.27 0 .547.18.547.481a1.055 1.055 0 002.11 0c0-1.264-.934-2.319-2.164-2.545v-.678a1.055 1.055 0 10-2.11 0v.714c-.521.124-1 .384-1.387.763a2.904 2.904 0 00-.876 2.094v.384c0 1.658 1.33 3.006 2.966 3.006h.967c.484 0 .863.367.863.836v.64c0 .52-.434.792-.863.792h-1.57c-.252 0-.523-.145-.523-.462a1.055 1.055 0 10-2.109 0c0 1.41 1.105 2.52 2.533 2.569v.582a1.055 1.055 0 002.109 0v-.61c1.451-.202 2.532-1.39 2.532-2.87v-.642c0-.796-.311-1.54-.878-2.096a2.974 2.974 0 00-2.094-.848z" fill="#2B4722"/></g><defs><clipPath id="clip0"><path fill="#fff" d="M0 0h27v27H0z"/></clipPath></defs></svg>