<svg width="11" height="18" fill="none" xmlns="http://www.w3.org/2000/svg"><path d="M.674 9.592c-.41.806.056 1.192 1.118 1.85.903.558 2.151.762 2.953.844l-3.159 3.038c-.92.882.56 2.295 1.48 1.433l2.486-2.399c.953.916 1.865 1.794 2.487 2.402.92.866 2.4-.536 1.49-1.432L6.36 12.289c.812-.081 2.04-.297 2.933-.843v-.001c1.062-.662 1.528-1.046 1.124-1.853-.245-.457-.903-.84-1.78-.178 0 0-1.183.906-3.092.906-1.91 0-3.092-.906-3.092-.906-.876-.665-1.537-.28-1.779.178z" fill="#828282"/><path d="M5.544 9.098c2.327 0 4.227-1.819 4.227-4.058 0-2.248-1.9-4.066-4.227-4.066-2.328 0-4.228 1.818-4.228 4.066 0 2.24 1.9 4.058 4.228 4.058zm0-6.064c1.143 0 2.076.897 2.076 2.006 0 1.1-.933 1.998-2.076 1.998-1.144 0-2.076-.898-2.076-1.998-.001-1.11.932-2.006 2.076-2.006z" fill="#828282"/></svg>