<svg width="30" height="30" fill="none" xmlns="http://www.w3.org/2000/svg"><path d="M24.63 7.839c-.119-.208-.264-.352-.489-.432l-6.505-2.368a2.63 2.63 0 00-.77-1.959 2.64 2.64 0 00-3.946.242L6.425.96h-.001a.886.886 0 00-1.085.43L1.223 9.563H3.19l2.937-5.834L9.1 9.563h1.973L7.92 3.373l4.441 1.617a2.634 2.634 0 001.76 2.446v17.07a.88.88 0 001.758 0V7.436a2.62 2.62 0 001.114-.76l5.622 2.046-3.7 7.35h1.968l2.962-5.884 2.964 5.884h1.968L24.63 7.84zM15.623 5.57a.882.882 0 11-1.246-1.249.882.882 0 011.246 1.249z" fill="#E9E9E9"/><path d="M16.035 23.686h-2.07a4.534 4.534 0 00-4.528 4.529c0 .485.393.878.878.878h9.37a.879.879 0 00.879-.878 4.534 4.534 0 00-4.53-4.529zm13.086-5.856h-10.55a.879.879 0 00-.879.879 6.16 6.16 0 006.154 6.154A6.16 6.16 0 0030 18.709a.879.879 0 00-.879-.88zm-17.689-6.51H.879A.879.879 0 000 12.2a6.162 6.162 0 006.155 6.155 6.162 6.162 0 006.155-6.156.879.879 0 00-.878-.879z" fill="#E9E9E9"/></svg>