<svg width="285" height="285" fill="none" xmlns="http://www.w3.org/2000/svg"><g clip-path="url(#clip0)" fill="#DEDFE0"><path d="M91.135 27.371l30.201 25.09a11.057 11.057 0 007.111 2.564 11.08 11.08 0 008.527-4.009c3.92-4.718 3.272-11.72-1.446-15.639l-30.201-25.09c-4.716-3.92-11.719-3.273-15.638 1.445-3.92 4.718-3.272 11.72 1.446 15.639zm17.296 33.424C86.276 38.723 57.623 25.548 26.805 23.036l-.022-11.576C26.77 5.327 21.79.364 15.657.377 9.523.387 4.56 5.368 4.572 11.502l.022 11.575c-30.81 2.627-59.412 15.908-81.485 38.063-24.705 24.797-38.274 57.73-38.209 92.733.065 35.003 13.757 67.886 38.554 92.59 24.797 24.705 57.73 38.274 92.733 38.209 28.181-.053 55.02-8.914 77.614-25.628 4.931-3.648 5.97-10.601 2.323-15.533-3.647-4.931-10.602-5.971-15.532-2.323-18.755 13.873-41.04 21.23-64.447 21.273-60.01.112-108.923-48.619-109.035-108.629C-93 93.822-44.27 44.909 15.74 44.797c60.01-.112 108.923 48.619 109.034 108.629.035 18.33-4.57 36.455-13.318 52.418-2.947 5.379-.976 12.128 4.403 15.076 5.377 2.946 12.128.976 15.075-4.403 10.542-19.238 16.092-41.069 16.051-63.132-.065-35.003-13.757-67.885-38.554-92.59z"/><path d="M69.92 86.675c-4.774-3.849-11.766-3.1-15.616 1.675L19.37 131.685a22.168 22.168 0 00-3.468-.266c-12.247.022-22.192 10.005-22.169 22.252.023 12.246 10.005 22.192 22.252 22.169 12.247-.023 22.192-10.005 22.17-22.252a22.086 22.086 0 00-1.497-7.959l34.938-43.339c3.85-4.775 3.1-11.767-1.675-15.615z"/></g><defs><clipPath id="clip0"><path fill="#fff" transform="rotate(-.107 284.283 .265)" d="M0 0h284.296v284.296H0z"/></clipPath></defs></svg>