<?xml version="1.0" encoding="utf-8"?><svg viewBox="0 0 74 74" xmlns="http://www.w3.org/2000/svg" xmlns:xlink="http://www.w3.org/1999/xlink"><style>:root>svg{display:none}:root>svg:target{display:block}</style><svg fill="none" viewBox="0 0 34 35" id="globe" xmlns="http://www.w3.org/2000/svg"><circle cx="17.156" cy="17.169" r="15.344" stroke="#71B219" stroke-width="3"/><path d="M16.715 2s-5.891 7.658-5.597 15.17c.295 7.51 5.597 15.169 5.597 15.169M17.745 2s5.891 7.658 5.597 15.17c-.295 7.51-5.597 15.169-5.597 15.169" stroke="#71B219" stroke-width="3"/><path d="M29.238 9.506s-5.596 2.945-13.107 2.65c-7.511-.294-11.34-2.65-11.34-2.65M29.238 24.848s-5.596-2.945-13.107-2.65c-7.511.294-11.34 2.65-11.34 2.65" stroke="#71B219" stroke-width="3"/></svg><svg fill="none" viewBox="0 0 21 21" id="question-circle" xmlns="http://www.w3.org/2000/svg"><path d="M21 14.212a6.809 6.809 0 00-3.734-6.063c-.07 4.997-4.12 9.048-9.117 9.117A6.809 6.809 0 0014.212 21c1.222 0 2.41-.325 3.454-.944l3.304.914-.914-3.304A6.764 6.764 0 0021 14.212z" fill="#71B219"/><path d="M16.037 8.019C16.037 3.597 12.44 0 8.02 0 3.597 0 0 3.597 0 8.019c0 1.44.384 2.844 1.112 4.075L.029 16.008l3.914-1.083a7.994 7.994 0 004.076 1.112c4.421 0 8.018-3.597 8.018-8.018zM6.788 6.152h-1.23a2.464 2.464 0 012.46-2.46 2.464 2.464 0 012.461 2.46c0 .69-.291 1.351-.8 1.816l-1.045.957v.96h-1.23V8.383l1.444-1.322a1.232 1.232 0 00-.83-2.139c-.678 0-1.23.552-1.23 1.23zm.615 4.963h1.23v1.23h-1.23v-1.23z" fill="#71B219"/></svg><svg fill="none" viewBox="0 0 10 10" id="right-arrow" xmlns="http://www.w3.org/2000/svg"><path d="M9.84 5.389L6.23 9a.543.543 0 01-.387.16.543.543 0 01-.387-.16l-.328-.328a.554.554 0 010-.779l2.107-2.111H.54A.534.534 0 010 5.244V4.78c0-.302.238-.562.54-.562h6.718L5.127 2.095a.54.54 0 010-.769L5.455 1a.543.543 0 01.387-.16c.146 0 .284.057.387.16L9.84 4.612c.104.103.16.241.16.388a.544.544 0 01-.16.389z" fill="#2C64EB"/></svg><svg fill="none" viewBox="0 0 23 25" id="right-triangle" xmlns="http://www.w3.org/2000/svg"><path d="M22.112 11.41L2.112.16A1.252 1.252 0 00.25 1.25v22.5a1.249 1.249 0 001.862 1.09l20-11.25c.393-.223.638-.637.638-1.09 0-.453-.245-.867-.638-1.09z" fill="#71B219"/></svg><svg fill="none" viewBox="0 0 73 73" id="together1" xmlns="http://www.w3.org/2000/svg"><g clip-path="url(#eclip0)"><path d="M71.934 71.398a4.709 4.709 0 01-3.666 1.744H50.072c-.03 0-.06-.004-.09-.005-.054.002-.108.005-.161.005H23.089l-.103-.003c-.02 0-.038.003-.058.003H4.732a4.708 4.708 0 01-3.666-1.744A4.734 4.734 0 01.1 67.432c.81-3.897 3.234-7.144 6.477-9.104a8.932 8.932 0 01-1.729-5.29c0-4.952 4.03-8.982 8.982-8.982 4.953 0 8.982 4.03 8.982 8.983a8.93 8.93 0 01-1.72 5.278c.045.027.09.053.134.081a19.26 19.26 0 017.054-5.657 10.644 10.644 0 01-2.473-6.831c0-5.896 4.797-10.693 10.693-10.693s10.693 4.797 10.693 10.693c0 2.595-.93 4.977-2.473 6.83a19.265 19.265 0 017.053 5.657l.135-.08a8.932 8.932 0 01-1.72-5.278c0-4.953 4.029-8.982 8.981-8.982 4.953 0 8.983 4.03 8.983 8.982 0 4.902-3.949 8.898-8.832 8.978-.026.001-.05.004-.076.004h-.15a8.201 8.201 0 00-4.52 1.356c.332.872.603 1.769.806 2.684.022.074.04.149.056.226.08.382.117.768.115 1.152h11.763a2.853 2.853 0 015.585-.006 4.733 4.733 0 01-.965 3.965zm-16.043-18.36c0 1.809 1.47 3.28 3.278 3.28 1.809 0 3.28-1.471 3.28-3.28 0-1.808-1.471-3.279-3.28-3.279a3.283 3.283 0 00-3.278 3.28zM36.5 50.9a4.996 4.996 0 004.99-4.99 4.996 4.996 0 00-4.99-4.99 4.996 4.996 0 00-4.99 4.99 4.996 4.996 0 004.99 4.99zM23.156 67.439h26.655a.128.128 0 00.027-.024c-1.334-6.269-6.932-10.812-13.338-10.812-6.414 0-12.019 4.554-13.344 10.836zm-12.605-14.4a3.283 3.283 0 003.28 3.279c1.808 0 3.278-1.471 3.278-3.28 0-1.808-1.47-3.279-3.279-3.279a3.283 3.283 0 00-3.28 3.28zm-4.537 14.4h11.432c.003-.371.04-.745.117-1.116.21-1.006.5-1.991.865-2.946a8.196 8.196 0 00-4.523-1.356h-.149c-3.482 0-6.569 2.218-7.742 5.418z" fill="#71B219"/><path d="M25.778 8.83a2.851 2.851 0 104.05 4.015l3.678-3.71v18.527a2.851 2.851 0 105.703 0V9.134l3.678 3.711a2.844 2.844 0 002.025.845 2.851 2.851 0 002.025-4.859l-5.53-5.58a7.062 7.062 0 00-5.05-2.108c-1.909 0-3.702.748-5.05 2.108l-5.53 5.58zM52.498 27.103a2.852 2.852 0 01-4.05-4.015l5.53-5.58a7.06 7.06 0 015.049-2.108c1.91 0 3.703.749 5.05 2.108l5.53 5.58a2.852 2.852 0 01-4.05 4.015l-3.678-3.711v13.11a2.851 2.851 0 11-5.703 0v-13.11l-3.678 3.711zM10.979 23.535L7.3 27.245a2.852 2.852 0 01-4.05-4.015l5.53-5.579a7.06 7.06 0 015.05-2.108 7.06 7.06 0 015.049 2.108l5.53 5.58a2.852 2.852 0 01-4.05 4.014l-3.678-3.71V36.5a2.851 2.851 0 11-5.703 0V23.535z" fill="#000"/></g><defs><clipPath id="eclip0"><path fill="#fff" d="M0 0h73v73H0z"/></clipPath></defs></svg><svg fill="none" viewBox="0 0 74 74" id="together2" xmlns="http://www.w3.org/2000/svg"><path d="M11.563 50.297v20.812a2.89 2.89 0 11-5.782 0V52.692C2.416 51.5 0 48.284 0 44.516V28.762c0-4.782 3.89-8.672 8.672-8.672h11.562a8.702 8.702 0 017.51 4.334 2.89 2.89 0 11-5.004 2.895 2.903 2.903 0 00-2.506-1.448H8.672a2.894 2.894 0 00-2.89 2.89v15.755a2.894 2.894 0 002.89 2.89 2.89 2.89 0 012.89 2.89zm8.671 8.672a2.89 2.89 0 00-2.89 2.89v9.25a2.89 2.89 0 105.781 0v-9.25a2.89 2.89 0 00-2.89-2.89zM5.781 8.672C5.781 3.89 9.671 0 14.453 0s8.672 3.89 8.672 8.672-3.89 8.672-8.672 8.672-8.672-3.89-8.672-8.672zm5.782 0a2.894 2.894 0 002.89 2.89 2.894 2.894 0 002.89-2.89 2.894 2.894 0 00-2.89-2.89 2.894 2.894 0 00-2.89 2.89zm42.203 50.297a2.89 2.89 0 00-2.891 2.89v9.25a2.89 2.89 0 105.781 0v-9.25a2.89 2.89 0 00-2.89-2.89zm11.562-38.88H53.766a8.702 8.702 0 00-7.51 4.335 2.89 2.89 0 105.004 2.895 2.903 2.903 0 012.506-1.448h11.562a2.894 2.894 0 012.89 2.89v15.755a2.894 2.894 0 01-2.89 2.89 2.89 2.89 0 00-2.89 2.89V71.11a2.89 2.89 0 105.78 0V52.692C71.585 51.5 74 48.284 74 44.516V28.762c0-4.782-3.89-8.672-8.672-8.672zM50.875 8.673C50.875 3.89 54.765 0 59.547 0s8.672 3.89 8.672 8.672-3.89 8.672-8.672 8.672-8.672-3.89-8.672-8.672zm5.781 0a2.894 2.894 0 002.89 2.89 2.894 2.894 0 002.892-2.89 2.894 2.894 0 00-2.891-2.89 2.894 2.894 0 00-2.89 2.89z" fill="#71B219"/><path d="M50.702 53.435a2.891 2.891 0 01-3.435 1.539l-3.286-.972a11.451 11.451 0 01-2.684 1.664l-.532 3.326a2.891 2.891 0 01-2.854 2.434h-2.602a2.89 2.89 0 01-2.845-2.379l-.615-3.415a11.496 11.496 0 01-2.233-1.331l-3.175 1.141a2.89 2.89 0 01-3.497-1.301l-1.283-2.279a2.891 2.891 0 01.704-3.668l2.718-2.192c-.005-.064-.007-.129-.011-.193l-.011-.184a11.193 11.193 0 010-1.095l-2.784-1.875a2.89 2.89 0 01-.92-3.788l1.346-2.454a2.89 2.89 0 013.354-1.381l3.372.998a11.517 11.517 0 012.41-1.472l.463-3.306a2.89 2.89 0 012.863-2.49h2.746a2.89 2.89 0 012.844 2.378l.615 3.415c.057.026.112.055.168.082.06.028.118.057.177.086.122.06.243.121.362.186l.119.065c.135.075.269.151.4.231l.022.013c.311.19.615.393.908.612l3.121-1.192a2.89 2.89 0 013.482 1.166l1.505 2.405a2.89 2.89 0 01-.677 3.817l-2.818 2.19c.005.057.006.115.01.173.004.059.008.118.01.177a10.938 10.938 0 01.005.979l2.73 2.002a2.89 2.89 0 01.905 3.564l-1.097 2.324zm-19.873-8.341c0 .11.004.221.01.332l.007.092a7.011 7.011 0 00.035.345c.01.077.022.153.036.23l.018.103a5.78 5.78 0 001.663 3.056c.037.034.073.07.11.103.075.07.153.137.232.203l.13.103a5.316 5.316 0 00.461.322 6.418 6.418 0 00.54.303 5.77 5.77 0 00.988.376 5.768 5.768 0 005.247-1.127c.04-.032.078-.067.116-.1.072-.065.144-.13.213-.198l.06-.057a5.765 5.765 0 001.575-2.91c.013-.061.023-.123.034-.185.006-.033.013-.066.018-.1a5.975 5.975 0 00.059-1.224l-.007-.093a5.727 5.727 0 00-.022-.24l-.014-.105a5.374 5.374 0 00-.035-.23c-.007-.034-.012-.07-.02-.104a5.774 5.774 0 00-1.7-3.088l-.075-.073a5.967 5.967 0 00-.249-.214 7.61 7.61 0 00-.28-.214l-.121-.086a5.436 5.436 0 00-.259-.166 5.283 5.283 0 00-.303-.17c-.049-.027-.098-.053-.148-.077a6.933 6.933 0 00-.4-.177 5.154 5.154 0 00-.59-.2 5.764 5.764 0 00-3.485.123c-.05.017-.1.037-.149.056-.121.047-.24.097-.357.152l-.073.034a6.332 6.332 0 00-.22.113l-.053.03a5.83 5.83 0 00-.658.423l-.033.025c-.129.098-.253.2-.373.308l-.042.037c-.06.055-.119.11-.176.168l-.06.061a5.773 5.773 0 00-1.563 3.045l-.003.018a5.54 5.54 0 00-.044.303l-.003.025c-.01.096-.019.192-.025.288l-.003.04c-.006.107-.01.214-.01.32z" fill="#000"/></svg><svg fill="none" viewBox="0 0 73 73" id="together3" xmlns="http://www.w3.org/2000/svg"><path d="M28.381 12.437l5.267-5.205v26.416a2.851 2.851 0 105.704 0V7.513l4.982 4.924a2.852 2.852 0 004.008-4.057l-5.93-5.86A8.486 8.486 0 0036.358 0a8.486 8.486 0 00-6.055 2.52l-5.93 5.86a2.852 2.852 0 004.01 4.056z" fill="#000"/><path d="M2.852 33.648a2.851 2.851 0 002.851-2.851 5.71 5.71 0 015.703-5.703h13.688a2.851 2.851 0 100-5.703H11.406C5.116 19.39 0 24.508 0 30.797a2.851 2.851 0 002.852 2.851z" fill="#71B219"/><path d="M28.634 36.812a2.85 2.85 0 00-3.941.854c-1.697 2.633-2.593 5.638-2.593 8.69 0 8.49 6.46 15.398 14.4 15.398s14.4-6.908 14.4-15.399c0-3.266-.826-6.193-2.457-8.7a2.851 2.851 0 10-4.78 3.108c1.018 1.567 1.534 3.448 1.534 5.592 0 5.346-3.901 9.696-8.697 9.696-4.796 0-8.697-4.35-8.697-9.696 0-1.953.582-3.89 1.684-5.602a2.852 2.852 0 00-.853-3.941z" fill="#000"/><path d="M13.83 43.486a2.852 2.852 0 100 5.703 2.852 2.852 0 000-5.703zM59.17 43.486a2.852 2.852 0 100 5.703 2.852 2.852 0 000-5.703z" fill="#71B219"/><path d="M11.406 73h50.188C67.884 73 73 67.883 73 61.594V30.797c0-6.29-5.117-11.406-11.406-11.406H47.906a2.852 2.852 0 000 5.703h13.688a5.71 5.71 0 015.703 5.703v30.797a5.71 5.71 0 01-5.703 5.703H11.406a5.71 5.71 0 01-5.703-5.703v-16.54a2.852 2.852 0 10-5.703 0v16.54C0 67.884 5.117 73 11.406 73z" fill="#71B219"/></svg><svg fill="none" viewBox="0 0 67 74" id="together4" xmlns="http://www.w3.org/2000/svg"><path d="M32.792 31.797a2.89 2.89 0 00-2.89-2.89H14.437a2.89 2.89 0 000 5.78h15.465a2.89 2.89 0 002.89-2.89zM14.437 40.469a2.89 2.89 0 100 5.781h6.215a2.89 2.89 0 100-5.781h-6.215z" fill="#71B219"/><path d="M27.3 68.219H11.562a5.788 5.788 0 01-5.78-5.781V11.562a5.788 5.788 0 015.78-5.78h35.54a5.788 5.788 0 015.78 5.78V27.75a2.89 2.89 0 105.782 0V11.562C58.664 5.188 53.477 0 47.1 0H11.563C5.186 0 0 5.187 0 11.563v50.874C0 68.814 5.187 74 11.563 74H27.3a2.89 2.89 0 000-5.781z" fill="#71B219"/><path d="M64.323 41.857l-14.188-6.34a2.875 2.875 0 00-1.444-.24 2.879 2.879 0 00-1.444.24l-14.188 6.34a2.89 2.89 0 00-1.712 2.639v11.008c0 4.52 1.786 9.135 4.9 12.66C39.574 71.927 43.923 74 48.497 74h.39c4.573 0 8.923-2.073 12.248-5.836 3.114-3.525 4.9-8.14 4.9-12.66V44.496a2.89 2.89 0 00-1.71-2.64zm-4.07 4.513v9.134c0 6.002-4.861 12.715-11.367 12.715h-.39c-6.506 0-11.368-6.713-11.368-12.715V46.37l11.563-5.166 11.562 5.166z" fill="#000"/><path d="M47.101 20.234a2.89 2.89 0 00-2.89-2.89H14.436a2.89 2.89 0 100 5.781H44.21a2.89 2.89 0 002.891-2.89z" fill="#71B219"/></svg></svg>