<?xml version="1.0" encoding="utf-8"?><svg viewBox="0 0 76 76" xmlns="http://www.w3.org/2000/svg" xmlns:xlink="http://www.w3.org/1999/xlink"><style>:root>svg{display:none}:root>svg:target{display:block}</style><svg fill="none" viewBox="0 0 74 74" id="category1" xmlns="http://www.w3.org/2000/svg"><g clip-path="url(#aclip0)"><path d="M24.923 37.434c-.598 0-1.084.485-1.084 1.084v1.734a1.084 1.084 0 002.168 0v-1.734c0-.6-.485-1.084-1.084-1.084zM42.975 37.434c-.599 0-1.084.485-1.084 1.084v1.734a1.084 1.084 0 002.168 0v-1.734c0-.6-.486-1.084-1.084-1.084zM37.04 39.383a1.084 1.084 0 00-1.529.105 2.07 2.07 0 01-3.125 0 1.084 1.084 0 00-1.634 1.425 4.24 4.24 0 006.394 0 1.084 1.084 0 00-.105-1.53z" fill="#71B219"/><path d="M63.452 29.403a8.989 8.989 0 001.869-7.426 3.05 3.05 0 00-2.42-2.42 8.99 8.99 0 00-8.088 2.467l-.02.02-1.191-4.842a1.084 1.084 0 00-2.105.518l.855 3.472c-4.717-4.055-10.613-7.609-16.622-10.014-5.451-2.182-10.825-3.365-15.746-3.485a10.27 10.27 0 014.813-3.184l6.051-1.879a10.286 10.286 0 013.106-.462c1.05-.002 2.075.145 3.096.462L43.1 4.51a10.39 10.39 0 016.967 7.404l.39 1.586a1.084 1.084 0 102.105-.518l-.39-1.586C51.13 7.161 47.9 3.729 43.744 2.438L37.693.56C36.515.194 35.808 0 33.953 0a12.448 12.448 0 00-3.748.56l-6.051 1.879a12.436 12.436 0 00-6.88 5.3c-5.207.31-9.832 2.554-10.546 7.596-.56 3.955 1.804 7.96 5.695 9.826a21.218 21.218 0 00-.041 4.867 6.296 6.296 0 00.407 12.561c1.576 5.25 5.192 9.931 10.078 12.79a11.186 11.186 0 00-.07 2.686 18.78 18.78 0 00-1.823 1.563 1.084 1.084 0 001.514 1.55c.258-.25.527-.492.802-.727a11.176 11.176 0 007.51 7.28l1.527 1.327c.925.803 2.32.803 3.244 0L37.1 67.73a11.176 11.176 0 007.51-7.283 16.483 16.483 0 014.058 5.213 38.645 38.645 0 01-3.416 2.548v-.69a1.084 1.084 0 10-2.168 0v4.314h-18.27v-4.314a1.084 1.084 0 00-2.168 0v.689a38.708 38.708 0 01-3.413-2.546c.222-.448.462-.888.723-1.313a1.084 1.084 0 00-1.848-1.134 18.467 18.467 0 00-2.74 9.702c0 .599.485 1.084 1.083 1.084h34.998c.6 0 1.084-.485 1.084-1.084 0-5.965-2.845-11.403-7.43-14.854.083-.88.062-1.78-.072-2.688A22.12 22.12 0 0055.087 42.59a6.31 6.31 0 003.364-1.076 10.386 10.386 0 006.03.634 3.38 3.38 0 002.682-2.681 10.314 10.314 0 00-3.71-10.064zM18.367 67.756a41.495 41.495 0 004.278 3.026v1.05h-5.076c.091-1.394.359-2.757.798-4.076zm26.884 4.076v-1.048a41.52 41.52 0 004.28-3.028c.44 1.319.707 2.682.798 4.076H45.25zm17.236-50.147a.89.89 0 01.706.706 6.825 6.825 0 01-1.589 5.84c-2.961-1.465-6.251-1.216-7.523-.522a1.09 1.09 0 00-.637.946c-.015.335-.039.672-.07 1.01-6.279-2.069-12.855-3.117-19.567-3.117-6.636 0-13.272 1.07-19.285 3.105-.143-1.49-.125-2.94.088-4.46 5.98-3.18 12.312-4.692 19.328-4.623h.022c7.212-.071 13.687 1.525 19.8 4.877l.024.011c.511.265 1.15.084 1.44-.429h.001a6.832 6.832 0 017.261-3.344zM8.873 15.639c.451-3.183 3.376-5.309 7.823-5.686 10.71-.908 22.865 4.264 31.442 10.646-4.469-1.522-9.16-2.246-14.19-2.197-7.405-.073-14.08 1.528-20.394 4.895-3.167-1.421-5.118-4.571-4.68-7.658zm-.031 20.657a4.136 4.136 0 013.422-4.07 21.919 21.919 0 00-.018 8.138 4.136 4.136 0 01-3.404-4.068zm16.09 20.148c.704.316 1.424.594 2.16.834a6.916 6.916 0 003.195 5.51l-.706 1.226c-.133.23-.222.474-.274.722a9.009 9.009 0 01-4.376-8.293zm11.137 4.73a2.466 2.466 0 00-.923-.182h-2.395c-.322 0-.635.064-.924.181a4.735 4.735 0 01-2.487-3.294c1.487.314 3.017.477 4.575.477 1.54 0 3.078-.155 4.643-.488a4.735 4.735 0 01-2.489 3.305zm-1.92 6.247a.303.303 0 01-.401 0l-2.223-1.93a.32.32 0 01-.065-.395l1.024-1.78a.317.317 0 01.266-.156h2.395c.086 0 .205.049.267.156l1.024 1.78a.32.32 0 01-.066.394l-2.221 1.931zm4.44-2.685a2.466 2.466 0 00-.274-.722l-.706-1.226a6.916 6.916 0 003.197-5.523 21.89 21.89 0 002.158-.832 9.008 9.008 0 01-4.375 8.303zm-4.67-8.549c-12.6 0-22.191-11.745-19.384-24.241 5.968-2.113 12.616-3.23 19.27-3.23 6.721 0 13.297 1.09 19.557 3.236 2.734 12.43-6.646 24.235-19.443 24.235zM55.63 32.224a4.136 4.136 0 013.427 4.072 4.14 4.14 0 01-3.431 4.073c.499-2.661.508-5.419.004-8.145zm9.406 6.828a1.22 1.22 0 01-.969.968 8.22 8.22 0 01-3.925-.197 6.297 6.297 0 00-4.625-9.796c.019-.187.035-.374.05-.56 5.665-1.033 10.566 3.955 9.469 9.585z" fill="#000"/></g><defs><clipPath id="aclip0"><path fill="#fff" d="M0 0h74v74H0z"/></clipPath></defs></svg><svg fill="none" viewBox="0 0 76 76" id="category2" xmlns="http://www.w3.org/2000/svg"><g clip-path="url(#bclip0)"><path d="M37.848 33.113l-2.94-3.457V28.6a9.47 9.47 0 002.955.463c1 0 2.015-.188 2.924-.506v1.1l-2.939 3.456zm1.333 3.963l-.424.607H36.94l-.424-.607 1.333-.911 1.333.91zm4.712-15.939c0 3.182-2.712 5.756-6.03 5.756-3.742 0-6.227-2.762-6.227-5.756v-5.076c3.59.13 7.318-.883 10.363-2.69 1.03 1.055 1.637 1.663 1.894 1.937v5.83zM33.41 31.334l2.788 3.283-1.91 1.287-.605.405-2.228-4.267 1.955-.708zm7.06 2.14l1.818-2.14 1.955.723-2.227 4.267-.607-.405-1.909-1.287.97-1.158zm6.788-14.796c0 .463-.212.883-.576 1.186-.151.13-.333.232-.53.29v-2.95c.697.23 1.106.838 1.106 1.474zm-9.5-13.508c4.742 0 8.606 3.688 8.606 8.215v1.62c-.046-.015-.197-.03-.212-.044-.015-.332-.122-.535-.318-.795-.303-.39-.864-.94-2.44-2.56-.59-.608-1.56-.723-2.303-.275-2.954 1.851-6.545 2.748-9.787 2.517-.788-.058-1.546.404-1.818 1.113-.03 0-.303.058-.319.058v-1.634c-.015-4.527 3.849-8.215 8.591-8.215zm-8.393 12.09v2.894c-.667-.232-1.091-.81-1.091-1.476 0-.636.485-1.157 1.09-1.417zm8.484 31.791A7.913 7.913 0 0036 47.084l1.288-7.246h1.136l1.288 7.246a7.9 7.9 0 00-1.864 1.967zM38.984 53c0-1.287.425-2.473 1.334-3.471.606-.666 1.394-1.186 1.954-1.418l-.454-2.155-1.228-6.942.47-.665.121.086c.425.29.955.376 1.455.26a1.82 1.82 0 001.166-.882l1.925-3.673-.44-4.007-2.197-.81v-1.981c1.576-1.2 2.667-2.936 3-4.918.197-.029.379-.058.56-.1l2.895-3.718a3.668 3.668 0 00-.88-2.256v-2.965C48.652 7.657 43.758 3 37.758 3c-6 0-10.878 4.657-10.878 10.385v3.008a3.467 3.467 0 00-.879 2.17l2.894 3.731c.182.044.379.087.576.101.333 1.939 1.439 3.79 3.166 5.048v1.851l-2.318.854-.394 3.833 1.985 3.803c.227.449.651.767 1.166.883.5.115 1.03.029 1.455-.26l.121-.087.47.665-1.227 6.942-.455 2.155c1.727.71 3.273 2.56 3.273 4.89l2.272.028z" fill="#71B219"/></g><g clip-path="url(#bclip1)"><path d="M11.237 33.374a1.59 1.59 0 01-1.069-1.494c0-.645.475-1.172 1.069-1.436v2.93zM62.7 45.43l-2.182 4.322s-2.434-1.7-2.464-1.729c1.054-1.274.55-.674 2.731-3.325l1.915.732zm-6.264 1.07l-2.88-3.502V41.93a9.004 9.004 0 002.895.469c.98 0 1.974-.19 2.865-.513V43l-2.88 3.5zm1.306 4.014l-.415.615H55.53l-.416-.615 1.306-.923 1.321.922zm-5.64-5.816l2.73 3.325c-1.187.835-2.389 1.685-2.463 1.729l-2.182-4.322 1.915-.732zM62.359 34.37c0 3.135-2.583 5.83-5.908 5.83-3.785 0-6.101-2.93-6.101-5.83v-5.142c3.488.132 7.14-.879 10.153-2.725 1.01 1.07 1.603 1.685 1.856 1.963v5.904zm3.295-2.49c0 .674-.416 1.26-1.069 1.494v-2.989c.668.25 1.069.85 1.069 1.495zm-17.738-5.362c0-4.585 3.785-8.32 8.43-8.32 4.647 0 8.432 3.735 8.432 8.32v1.64c-.044-.014-.193-.029-.208-.043a1.241 1.241 0 00-.267-.747c-.297-.41-.801-.909-2.45-2.652a1.777 1.777 0 00-2.255-.278c-2.746 1.773-6.205 2.769-9.5 2.549-.92-.059-1.603.38-1.87 1.128-.03 0-.297.059-.312.059v-1.656zm.207 3.926v2.93a1.59 1.59 0 01-1.068-1.494c0-.645.475-1.172 1.068-1.436zm-20.425-.058a1.58 1.58 0 011.07 1.391c.044.703-.387 1.348-1.07 1.597v-2.989zm6.428 15.865l-9.47-3.619v-2.007c1.573-1.26 2.627-3.032 2.939-4.98 1.053-.132 2.018-.674 2.642-1.51 0 0 .786-.79.786-2.065 0-1.274-.4-1.816-.4-1.816a3.721 3.721 0 00-.49-.762v-2.974c0-1.494-.312-2.93-.906-4.233 0 0-.608-1.348-1.113-2.022-.505-.689-1.722-1.758-1.722-1.758a10.704 10.704 0 00-4.2-2.168 1.116 1.116 0 00-1.366.776 1.098 1.098 0 00.787 1.348c3.71.967 6.293 4.278 6.293 8.057v1.64c-.044-.014-.208-.029-.208-.043a1.241 1.241 0 00-.267-.747c-.282-.41-.801-.909-2.449-2.652a1.8 1.8 0 00-2.256-.278c-2.82 1.816-6.25 2.74-9.426 2.564-1.04-.06-1.677.395-1.96 1.128-.03 0-.296.058-.311.058v-1.67c0-3.648 2.464-6.914 5.997-7.969.593-.176.92-.791.742-1.362a1.107 1.107 0 00-1.38-.733 10.644 10.644 0 00-5.433 3.736 10.301 10.301 0 00-2.153 6.328v3.047a3.528 3.528 0 00-.86 2.315c0 1.875 1.41 3.515 3.399 3.765a8.103 8.103 0 003.102 5.112v1.875l-9.827 3.765s-.014 0-.014.015C4.409 46.485 0 48.33 0 53.399v17.228c0 1.318 1.084 2.388 2.42 2.388h34.289c.475 0 .92-.147 1.306-.381.37.234.816.38 1.306.38h34.29c1.335 0 2.419-1.069 2.419-2.387v-7.34a1.114 1.114 0 00-2.227 0v7.34c0 .102-.089.19-.193.19h-4.23V54.762a1.114 1.114 0 00-2.227 0v16.055h-8.179l2.212-2.402a1.72 1.72 0 00.43-1.407v-.029l-2.493-14.502.46-.674.119.088c.4.293.935.395 1.425.263a1.79 1.79 0 001.142-.893l2.524-5.01 5.774 2.212c.223.102 3.206 1.45 3.206 4.951v4.761a1.114 1.114 0 002.227 0v-4.761c0-5.069-4.409-6.914-4.587-6.988 0 0-.015 0-.015-.014l-9.841-3.765V40.64a7.958 7.958 0 002.94-4.98 3.804 3.804 0 002.062-.894 3.754 3.754 0 001.336-2.872c0-.879-.311-1.728-.86-2.387v-2.989c0-5.801-4.78-10.518-10.658-10.518-2.643 0-5.062.952-6.918 2.52 0 0-.83.79-1.47 1.611-.652.82-1.365 2.154-1.365 2.154a10.32 10.32 0 00-.905 4.233v3.047c-.178.205-.312.41-.446.645 0 0-.282.732-.222 2.05.06 1.319.668 2.008.668 2.008.638.79 1.573 1.26 2.538 1.377a7.993 7.993 0 003.102 5.112v1.875l-9.47 3.619-2.063 1.157c-.757.6-1.366 1.274-1.811 1.992a7.915 7.915 0 00-1.811-1.992l-2.078-1.157zm-14.577.249l-2.88-3.502V41.93a9.004 9.004 0 002.895.469 8.41 8.41 0 002.865-.513V43l-2.88 3.5zm1.306 4.014l-.415.615h-1.796l-.416-.615 1.306-.923 1.322.922zm3.043-5.816l1.915.732-2.182 4.322-.593-.41-1.87-1.304 2.73-3.34zM13.463 34.37v-5.142c3.533.147 7.185-.908 10.153-2.725.995 1.055 1.604 1.685 1.856 1.963v5.904c0 3.194-2.642 5.83-5.908 5.83-3.622 0-6.1-2.768-6.1-5.83zm1.752 10.328l2.731 3.325-1.87 1.304-.594.41-2.182-4.321 1.915-.718zM8.877 70.803V54.762a1.114 1.114 0 00-2.227 0v16.055H2.42a.195.195 0 01-.193-.19V53.385c0-3.53 3.013-4.878 3.206-4.952l5.774-2.212 2.538 5.01a1.68 1.68 0 001.143.894c.49.117 1.01.03 1.425-.264l.119-.088.46.674-2.494 14.503v.03a1.72 1.72 0 00.43 1.405l2.213 2.403-8.164.015zm7.763-3.707L19 53.311h1.113l2.36 13.785-2.924 3.165-2.91-3.165zm20.247 3.53c0 .103-.09.191-.193.191h-4.23V54.762a1.114 1.114 0 00-2.227 0v16.055h-8.18l2.213-2.402a1.72 1.72 0 00.43-1.407v-.029l-2.494-14.502.46-.674.12.088c.296.205.652.322 1.008.322a1.75 1.75 0 001.56-.952l2.523-5.01 5.774 2.212c1.692.717 3.206 2.593 3.206 4.951l.03 17.213zm8.876.177V54.762a1.114 1.114 0 00-2.226 0v16.055h-4.23a.195.195 0 01-.194-.19V53.385c0-1.304.416-2.505 1.306-3.516.594-.674 1.366-1.201 1.915-1.436l5.775-2.212 2.538 5.01a1.68 1.68 0 001.143.894c.49.117 1.01.03 1.425-.264l.119-.088.46.674L51.3 66.95v.03a1.72 1.72 0 00.43 1.405l2.212 2.403-8.179.015zm7.764-3.707l2.36-13.785H57l2.36 13.785-2.924 3.165-2.91-3.165z" fill="#000"/></g><defs><clipPath id="bclip0"><path fill="#fff" transform="translate(26 3)" d="M0 0h23.529v50H0z"/></clipPath><clipPath id="bclip1"><path fill="#fff" transform="translate(0 16)" d="M0 0h76v57H0z"/></clipPath></defs></svg><svg fill="none" viewBox="0 0 68 68" id="category3" xmlns="http://www.w3.org/2000/svg"><g clip-path="url(#cclip0)"><path d="M29.386 32.433h-.997a.996.996 0 000 1.992s2.32-.001 2.795-.003v1a.996.996 0 001.992 0v-1.008l2.219-.008v1.016a.996.996 0 001.992 0v-1.146a5.594 5.594 0 004.396-5.456 5.59 5.59 0 00-3.045-4.97 4.903 4.903 0 001.514-3.545 4.924 4.924 0 00-2.865-4.468V14.39a.996.996 0 00-1.992 0v.998l-.062-.002h-2.157v-.996a.996.996 0 00-1.992 0v.996h-2.795a.996.996 0 100 1.992h.997v15.055zm6.812-.02c-.88 0-3.401.01-4.82.016v-7.193l4.82-.008a3.596 3.596 0 013.593 3.592 3.596 3.596 0 01-3.593 3.593zm2.062-12.108a2.93 2.93 0 01-2.927 2.926l-3.955.005v-5.858h3.955a2.93 2.93 0 012.927 2.927z" fill="#71B219"/><path d="M34 43.296c10.14 0 18.391-8.25 18.391-18.39 0-10.141-8.25-18.392-18.391-18.392-4.105 0-7.99 1.324-11.232 3.83a.996.996 0 001.218 1.576A16.241 16.241 0 0134 8.507c9.042 0 16.399 7.356 16.399 16.398 0 9.043-7.357 16.399-16.399 16.399-9.042 0-16.399-7.356-16.399-16.399 0-3.801 1.33-7.506 3.746-10.432a.996.996 0 00-1.536-1.269 18.42 18.42 0 00-4.202 11.701c0 10.141 8.25 18.391 18.391 18.391z" fill="#000"/><path d="M5.421 59.507l8.871-.73 4.234 7.83c1.003 1.855 3.665 1.854 4.669.002l9.132-16.856c1.113.074 2.17.08 3.346 0l9.132 16.856c.791 1.459 2.35 1.394 2.335 1.39.976 0 1.87-.534 2.334-1.392l4.234-7.83 8.871.73c2.1.172 3.554-2.059 2.551-3.91l-9.723-17.946a24.81 24.81 0 003.499-12.746C58.906 11.172 47.733 0 34 0 20.267 0 9.095 11.172 9.095 24.905c0 4.648 1.28 9.002 3.506 12.73L2.87 55.597c-1.003 1.851.452 4.082 2.551 3.91zM34 1.992c12.635 0 22.913 10.279 22.913 22.913 0 6.09-2.368 11.739-6.48 15.967a23.533 23.533 0 01-2.151 1.95.996.996 0 101.243 1.556 25.272 25.272 0 004.637-4.844l9.217 17.012a.662.662 0 01-.637.975l-9.52-.782a.996.996 0 00-.957.519l-4.544 8.401a.661.661 0 01-1.164 0l-8.745-16.14a24.68 24.68 0 008.195-2.79.996.996 0 10-.963-1.746c-6.187 3.408-13.803 3.825-20.465.808-7.949-3.6-13.492-11.607-13.492-20.886C11.087 12.271 21.366 1.992 34 1.992zM4.621 56.546l9.22-17.017a25.17 25.17 0 006.982 6.512 25.011 25.011 0 009.364 3.478l-8.744 16.14a.648.648 0 01-.582.347.648.648 0 01-.583-.347l-4.543-8.401a.996.996 0 00-.876-.522c-.078 0 .565-.049-9.601.786a.648.648 0 01-.609-.299.649.649 0 01-.028-.677z" fill="#000"/></g><defs><clipPath id="cclip0"><path fill="#fff" d="M0 0h68v68H0z"/></clipPath></defs></svg><svg fill="none" viewBox="0 0 76 76" id="category4" xmlns="http://www.w3.org/2000/svg"><path d="M67.688 41.004V17.718c4.022-.58 7.124-4.04 7.124-8.218 0-4.583-3.728-8.313-8.312-8.313s-8.313 3.73-8.313 8.313h-57V57h35.686c.618 9.923 8.865 17.813 18.94 17.813 10.476 0 19-8.524 19-19 0-5.984-2.788-11.323-7.126-14.809zM66.5 3.563A5.944 5.944 0 0172.438 9.5a5.944 5.944 0 01-5.938 5.938A5.944 5.944 0 0160.562 9.5 5.944 5.944 0 0166.5 3.562zM3.562 11.874h54.976c.284.948.735 1.82 1.314 2.595l-7.262 7.262a3.514 3.514 0 00-1.528-.357c-.548 0-1.061.134-1.525.357l-2.393-2.392c.222-.466.356-.979.356-1.527a3.567 3.567 0 00-3.563-3.563 3.567 3.567 0 00-3.562 3.563c0 .548.134 1.061.357 1.525l-5.955 5.956a3.53 3.53 0 00-1.527-.357 3.567 3.567 0 00-3.563 3.563 3.567 3.567 0 003.563 3.563 3.567 3.567 0 003.563-3.563c0-.549-.135-1.062-.358-1.526l5.955-5.955a3.53 3.53 0 001.528.356c.548 0 1.061-.134 1.525-.357l2.393 2.392a3.529 3.529 0 00-.356 1.527 3.567 3.567 0 003.563 3.563 3.567 3.567 0 003.562-3.563c0-.548-.134-1.061-.357-1.525l7.264-7.263a8.263 8.263 0 003.78 1.57v21.666a18.85 18.85 0 00-9.5-2.572c-5.676 0-10.765 2.515-14.25 6.475V38h-7.124v14.25h2.721c-.147.775-.236 1.57-.286 2.375H3.563v-42.75zm47.5 11.875a1.189 1.189 0 010 2.375 1.189 1.189 0 010-2.375zm-8.312-5.938a1.189 1.189 0 012.375 0 1.189 1.189 0 01-2.375 0zM34.437 28.5a1.189 1.189 0 01-2.374 0 1.189 1.189 0 012.374 0zm21.376 36.813c-5.239 0-9.5-4.262-9.5-9.5 0-5.239 4.261-9.5 9.5-9.5 5.238 0 9.5 4.261 9.5 9.5 0 5.238-4.262 9.5-9.5 9.5zM39.186 46.633a18.852 18.852 0 00-1.411 3.241h-.964v-9.5h2.376v6.26zm15.438-7.386v4.75c-5.992.599-10.688 5.668-10.688 11.815 0 1.737.385 3.384 1.059 4.873l-4.12 2.379a16.484 16.484 0 01-1.688-7.252c0-8.767 6.824-15.952 15.437-16.565zm1.188 33.19c-5.717 0-10.769-2.902-13.761-7.31l4.136-2.388c2.159 2.99 5.663 4.947 9.624 4.947 3.962 0 7.466-1.956 9.625-4.947l4.136 2.388c-2.992 4.408-8.044 7.31-13.76 7.31zm14.936-9.373l-4.12-2.379a11.797 11.797 0 001.058-4.873c0-6.147-4.695-11.218-10.687-11.815v-4.75c8.613.613 15.438 7.798 15.438 16.565 0 2.601-.618 5.057-1.69 7.252z" fill="#000"/><path d="M55.813 48.688a7.132 7.132 0 00-7.126 7.124 7.132 7.132 0 007.126 7.126 7.132 7.132 0 007.124-7.126 7.132 7.132 0 00-7.124-7.124zm0 11.874c-2.62 0-4.75-2.13-4.75-4.75s2.13-4.75 4.75-4.75 4.75 2.13 4.75 4.75-2.13 4.75-4.75 4.75zM5.938 14.25h2.375v2.375H5.937V14.25zM10.688 14.25h16.624v2.375H10.688V14.25zM5.938 19h2.375v2.375H5.937V19zM10.688 19h16.624v2.375H10.688V19zM5.938 23.75h2.375v2.375H5.937V23.75zM10.688 23.75h16.624v2.375H10.688V23.75zM5.938 28.5h2.375v2.375H5.937V28.5zM10.688 28.5h16.624v2.375H10.688V28.5z" fill="#000"/><path d="M5.938 52.25h7.125V40.375H5.936V52.25zm2.375-9.5h2.374v7.125H8.313V42.75zM15.438 52.25h7.124v-9.5h-7.125v9.5zm2.374-7.125h2.375v4.75h-2.375v-4.75zM24.938 52.25h7.125v-19h-7.126v19zm2.375-16.625h2.375v14.25h-2.375v-14.25z" fill="#71B219"/></svg><svg fill="none" viewBox="0 0 64 64" id="category5" xmlns="http://www.w3.org/2000/svg"><path d="M49 23v-2c1.654 0 3-1.346 3-3s-1.346-3-3-3h-2a1 1 0 010-2h3v1h2v-3h-3V9h-2v2c-1.654 0-3 1.346-3 3s1.346 3 3 3h2a1 1 0 010 2h-3v-1h-2v3h3v2h2z" fill="#71B219"/><path d="M59 16c0-6.065-4.935-11-11-11S37 9.935 37 16s4.935 11 11 11 11-4.935 11-11zm-20 0c0-4.963 4.037-9 9-9s9 4.037 9 9-4.037 9-9 9-9-4.037-9-9z" fill="#000"/><path d="M63 16c0-8.271-6.729-15-15-15S33 7.729 33 16c0 6.368 3.995 11.808 9.606 13.98L40.586 32h-8.04l-7 8H13.563L1.266 53.321l1.469 1.357L14.438 42h12.017l7-8h7.96l3.359-3.359a14.93 14.93 0 002.833.339L42.586 36H33.5l-6 8H15.546L1 60.624V63h58V26.164c2.474-2.676 4-6.241 4-10.164zm-28 0c0-7.168 5.832-13 13-13s13 5.832 13 13-5.832 13-13 13-13-5.832-13-13zm16 14.698V61h-4V34.414l3.665-3.665c.111-.02.225-.029.335-.051zM43.414 38L45 36.414V61h-4V38h2.414zM15 61h-4v-8.767l4-4.571V61zm2-15h4v15h-4V46zm6 0h4v15h-4V46zm6-.667L33 40v21h-4V45.333zM35 38h4v23h-4V38zM9 54.519V61H3.329L9 54.519zM53 61V30.125a14.971 14.971 0 004-2.153V61h-4z" fill="#000"/><path d="M7 38h2v-4h2V22H9v-4H7v4H5v12h2v4zm0-14h2v8H7v-8z" fill="#71B219"/><path d="M15 33h2v-4h2V19h-2v-4h-2v4h-2v10h2v4zm0-12h2v6h-2v-6z" fill="#000"/><path d="M23 26h2v-4h2v-8h-2v-4h-2v4h-2v8h2v4zm0-10h2v4h-2v-4z" fill="#71B219"/></svg><svg fill="none" viewBox="0 0 67 67" id="category6" xmlns="http://www.w3.org/2000/svg"><g clip-path="url(#fclip0)"><path d="M42.882 23.41c.543 0 .982-.44.982-.982v-.682a.981.981 0 10-1.963 0v.682c0 .542.44.982.981.982zm-18.764-2.646a.981.981 0 00-.982.982v.682a.981.981 0 101.963 0v-.682a.981.981 0 00-.982-.982zm14.055 18.168a.981.981 0 00-.982.981v.776a.981.981 0 101.963 0v-.776a.982.982 0 00-.981-.981zM65.83 30.56c-.232-1.366-1.676-2.222-4.414-2.618-2.036-.294-4.252-.268-5.46-.221-.638-.605-1.6-.941-2.869-1-.63-.03-1.25.201-1.706.635a2.269 2.269 0 00-.712 1.652c-.008 2.736-.841 4.818-2.479 6.188-1.487 1.245-3.418 1.67-4.773 1.571v-3.534a2.362 2.362 0 00-2.13-2.348c.446-1.376 1.007-2.766 1.531-3.767a1.487 1.487 0 011.32-.802h4.287c.283 0 .561.051.826.152l.9.345a1.648 1.648 0 002.201-1.894l-.25-1.14A4.347 4.347 0 0049.25 20.6l-1.157-.387a.763.763 0 01-.386-.292l-.183-.267a2.72 2.72 0 00-2.248-1.189h-3.831c-1.383 0-3.34-.073-4.373-.703-.424-.26-.951-.3-1.41-.108a1.54 1.54 0 00-.903 1.067c-.6 2.572.44 3.944 1.24 4.589-.809 1.49-1.78 3.531-2.498 5.826-.718-2.295-1.688-4.336-2.497-5.826.8-.645 1.84-2.017 1.24-4.588a1.541 1.541 0 00-.903-1.068 1.557 1.557 0 00-1.41.108c-1.032.63-2.99.704-4.373.704h-3.83c-.901 0-1.742.444-2.25 1.188l-.182.267a.763.763 0 01-.387.292l-1.156.387a4.347 4.347 0 00-2.855 3.178l-.25 1.14a1.648 1.648 0 002.201 1.895l.9-.345c.265-.1.543-.152.827-.152h4.287c.555 0 1.06.307 1.32.802.523 1.001 1.084 2.391 1.53 3.768a2.362 2.362 0 00-2.13 2.347v3.534c-1.354.1-3.286-.326-4.773-1.57-1.637-1.37-2.471-3.453-2.478-6.189a2.27 2.27 0 00-.713-1.651 2.328 2.328 0 00-1.706-.637c-1.475.07-2.348.52-2.864 1.001a37.189 37.189 0 00-2.821-.004.981.981 0 10.074 1.962c1-.038 2.109-.03 3.12.024a.983.983 0 00.866-.432c.225-.334.851-.55 1.718-.59a.356.356 0 01.26.098.32.32 0 01.103.234c.01 4.163 1.736 6.48 3.181 7.689 1.737 1.453 3.913 2.042 5.657 2.042.128 0 .253-.004.377-.01v6.715c-.62.82-1.149 1.09-1.433 1.127-.273-.428-.522-2.195-.097-4.545a.982.982 0 00-1.675-.852c-1.123 1.176-2.664 2.359-4.02 3.085-1.318.706-2.21.848-2.578.68.068-.485.831-1.824 2.448-3.523a.982.982 0 00-1.116-1.57c-2.98 1.349-6.264 1.908-7.082 1.616.064-.495.999-1.544 3.13-2.646a.982.982 0 00-.6-1.842c-3.673.563-5.742-.571-5.983-1.06.087-.123.58-.659 2.787-1.2a.982.982 0 00-.188-1.933c-2.76-.128-3.638-.863-3.888-1.172a.844.844 0 01-.184-.724c.011-.065.17-.285.761-.522a.981.981 0 10-.732-1.822c-1.155.465-1.815 1.142-1.964 2.014a2.8 2.8 0 00.59 2.285c.435.54 1.066.968 1.887 1.281-.614.456-1.055 1.049-1.043 1.817.006.427.17 1.069.918 1.7.745.63 2.055 1.206 3.858 1.391-1.052 1.01-1.49 2.039-1.252 3.017.12.492.459.896.956 1.139 1.193.582 3.427.25 5.52-.347-.48.788-.814 1.59-.787 2.27.02.494.212.92.557 1.229 1.787 1.603 5.101-.176 7.495-2.07-.024 1.275.12 2.705.757 3.54.412.54.908.69 1.25.721.074.007.146.01.22.01.498 0 1-.152 1.493-.444.008.181.03.36.063.533a7.573 7.573 0 00-1.457 4.457v1.64a3.661 3.661 0 002.675 3.52v.13c0 .418-.34.758-.758.758h-3.34l-.969-2.662a1.698 1.698 0 00-1.973-1.072l-1.2-3.297a2.499 2.499 0 001.345-2.35l-.133-2.252a.982.982 0 00-1.96.116l.133 2.25a.519.519 0 01-.084.315l-.772-2.12a.981.981 0 10-1.845.67l.772 2.121a.517.517 0 01-.267-.186l-1.345-1.81a.981.981 0 10-1.576 1.171l1.346 1.81a2.498 2.498 0 002.541.937l1.2 3.297a1.698 1.698 0 00-.822 2.09l2.81 7.72a1.699 1.699 0 002.174 1.013l1.452-.528a1.698 1.698 0 001.014-2.175l-1.126-3.094h2.625c1.5 0 2.72-1.22 2.72-2.721v-.13a3.661 3.661 0 002.675-3.52v-1.641c0-.084.04-.163.11-.21l1.59-1.094c.088.02.169.061.236.122l.776.705c.073.066.15.124.23.177-.18.603-.683 1.093-1.411 1.76-1.351 1.236-3.202 2.93-1.33 6.424a.981.981 0 101.73-.927c-1.151-2.15-.37-2.865.925-4.05l.157-.144v5.056a.981.981 0 101.963 0v-5.056l.158.145c1.294 1.184 2.076 1.9.925 4.05a.982.982 0 001.73.926c1.871-3.495.02-5.188-1.33-6.424-.729-.667-1.232-1.157-1.41-1.76.078-.053.156-.11.228-.177l.777-.705a.528.528 0 01.234-.122l1.591 1.094c.07.047.11.126.11.21v1.64a3.661 3.661 0 002.675 3.521v.13c0 1.5 1.22 2.72 2.72 2.72h2.097a5.01 5.01 0 004.772 3.506c.79 0 1.578-.19 2.278-.548a.981.981 0 00-.895-1.748 3.042 3.042 0 01-4.421-2.706 3.042 3.042 0 013.038-3.038c1.59 0 2.92 1.24 3.031 2.823a.981.981 0 001.958-.137c-.158-2.273-1.844-4.116-4.007-4.551v-1.612h.43a.981.981 0 100-1.963h-.43v-.713a.982.982 0 00-1.963 0v.713h-.43a.981.981 0 100 1.963h.43V54.7a5.012 5.012 0 00-3.997 4.437h-1.89a.759.759 0 01-.758-.758v-.13a3.661 3.661 0 002.674-3.52v-1.64a7.573 7.573 0 00-1.457-4.456c.033-.175.055-.352.063-.534.492.293.995.444 1.494.444.073 0 .145-.003.218-.01.343-.03.84-.18 1.251-.72.637-.836.78-2.266.757-3.54 1.74 1.377 3.967 2.693 5.74 2.692.665 0 1.267-.185 1.755-.623.345-.31.538-.735.557-1.23.027-.68-.307-1.48-.788-2.27 2.094.598 4.328.93 5.521.348.497-.242.837-.647.956-1.139.237-.978-.2-2.007-1.252-3.017 1.803-.185 3.113-.76 3.858-1.39.748-.633.912-1.274.919-1.7.01-.695-.338-1.305-1.037-1.82.818-.314 1.446-.74 1.88-1.28a2.802 2.802 0 00.59-2.284zM19.724 64.962l-2.627-7.219.951-.346 2.627 7.218-.95.347zm27.901-42.835l1.001.335a2.375 2.375 0 011.56 1.736l.125.573-.358-.137a4.263 4.263 0 00-1.527-.282H46.85c.172-.716.44-1.487.774-2.225zm-9.8 1.932c.417-.759.199-1.71-.508-2.212-.617-.438-.866-1.155-.746-2.137 1.414.63 3.317.718 4.872.718h3.832c.25 0 .485.124.627.331l.116.171c-.548 1.122-.961 2.327-1.177 3.422h-.702c-1.288 0-2.46.711-3.059 1.855-.658 1.257-1.341 2.992-1.845 4.666h-4.192c.7-2.708 1.868-5.155 2.781-6.814zm-19.25.293a4.26 4.26 0 00-1.528.283l-.358.137.125-.574a2.375 2.375 0 011.56-1.736l1-.335c.335.738.603 1.509.775 2.226h-1.575zm4.286 0h-.702c-.216-1.095-.63-2.3-1.177-3.422l.116-.17a.759.759 0 01.627-.332h3.832c1.555 0 3.458-.088 4.872-.718.12.982-.13 1.7-.746 2.137a1.705 1.705 0 00-.507 2.212c.913 1.659 2.081 4.106 2.782 6.814h-4.192c-.505-1.675-1.188-3.409-1.846-4.666a3.444 3.444 0 00-3.059-1.855zm4.68 28.736v1.64c0 .934-.759 1.694-1.692 1.694-.933 0-1.693-.76-1.693-1.693v-1.64c0-.85.197-1.686.565-2.444a3.845 3.845 0 002.719 1.124h.538a2.216 2.216 0 00-.436 1.32zm8.546-3.282H35.914c-.62 0-1.215.23-1.675.647l-.739.672-.74-.672a2.487 2.487 0 00-1.674-.647H27.44a1.897 1.897 0 01-1.895-1.895V33.233c0-.219.178-.397.397-.397h15.116c.22 0 .397.178.397.397V47.91c0 1.045-.85 1.895-1.895 1.895h-3.473zm6.756 4.923c0 .933-.759 1.693-1.692 1.693-.934 0-1.693-.76-1.693-1.693v-1.64c0-.483-.157-.943-.436-1.32h.538c1.06 0 2.02-.43 2.719-1.124.368.758.564 1.593.564 2.443v1.64zm20.87-23.116c-.25.31-1.128 1.044-3.888 1.173a.981.981 0 00-.188 1.933c2.206.541 2.7 1.077 2.787 1.2-.242.489-2.31 1.623-5.983 1.06a.982.982 0 00-.6 1.842c2.13 1.102 3.066 2.15 3.13 2.645-.82.292-4.103-.267-7.082-1.616a.982.982 0 00-1.116 1.571c1.616 1.7 2.38 3.038 2.447 3.522-.366.169-1.26.027-2.577-.679-1.357-.727-2.897-1.909-4.02-3.085a.981.981 0 00-1.676.852c.425 2.35.176 4.117-.097 4.544-.284-.036-.812-.306-1.432-1.126v-6.715c1.798.091 4.17-.473 6.033-2.032 1.446-1.21 3.17-3.526 3.182-7.69a.32.32 0 01.103-.234.361.361 0 01.26-.097c.866.04 1.492.256 1.717.59.193.286.522.45.866.432 1.97-.104 4.047-.036 5.557.182 2.167.313 2.733.843 2.76 1.004a.845.845 0 01-.184.724zm-34.886 7.319a.981.981 0 00-.981.981v.776a.981.981 0 101.963 0v-.776a.982.982 0 00-.982-.981zm6.55 1.051a.982.982 0 00-1.385.095.646.646 0 01-.492.225.646.646 0 01-.492-.225.981.981 0 10-1.48 1.29 2.616 2.616 0 003.944 0 .981.981 0 00-.095-1.385z" fill="#000"/><g clip-path="url(#fclip1)"><path d="M28.45 14.502a.981.981 0 100 1.963H38.55a.981.981 0 000-1.963h-.035c1.053-1.86 1.945-4.48.938-6.587-.569-1.191-1.627-1.996-3.15-2.412l-.031-.008a9.563 9.563 0 00-1.79-.288v-1.55h.429a.981.981 0 100-1.963h-.43V.981a.981.981 0 10-1.962 0v.713h-.43a.981.981 0 100 1.963h.43v1.55a9.557 9.557 0 00-1.82.296c-1.525.416-2.583 1.22-3.152 2.412-1.007 2.106-.114 4.727.938 6.587h-.035zm5.05-7.368c.506 0 .967.029 1.387.084l-.399 2.244a.165.165 0 01-.162.136h-1.653a.164.164 0 01-.162-.136l-.398-2.244c.42-.055.88-.084 1.387-.084zm-4.182 1.628c.186-.39.49-.709.905-.959l.355 2.002a2.125 2.125 0 002.095 1.756h1.653a2.125 2.125 0 002.095-1.756l.356-2.002c.416.25.72.57.905.958.75 1.57-.353 4.163-1.49 5.741h-5.384c-1.137-1.578-2.24-4.17-1.49-5.74z" fill="#71B219"/></g></g><defs><clipPath id="fclip0"><path fill="#fff" d="M0 0h67v67H0z"/></clipPath><clipPath id="fclip1"><path fill="#fff" d="M0 0h67v67H0z"/></clipPath></defs></svg><svg fill="none" viewBox="0 0 65 65" id="cup1" xmlns="http://www.w3.org/2000/svg"><path d="M63.096 4.691h-8.341c.03-.924.047-1.853.047-2.787A1.904 1.904 0 0052.897 0H12.103a1.904 1.904 0 00-1.905 1.904c0 .934.017 1.863.047 2.787h-8.34A1.904 1.904 0 000 6.596c0 8.532 2.23 16.582 6.28 22.668 4.002 6.016 9.333 9.466 15.093 9.802 1.305 1.42 2.686 2.58 4.123 3.463v8.463h-3.194a7.012 7.012 0 00-7.004 7.004v3.195h-.136a1.904 1.904 0 000 3.808h34.675a1.904 1.904 0 100-3.808h-.135v-3.195a7.012 7.012 0 00-7.004-7.004h-3.194V42.53c1.437-.883 2.818-2.042 4.124-3.463 5.759-.336 11.09-3.786 15.093-9.802C62.771 23.178 65 15.128 65 6.596a1.904 1.904 0 00-1.904-1.905zM9.45 27.154C6.11 22.135 4.148 15.57 3.85 8.5h6.61c.686 8.691 2.726 16.725 5.915 23.102a39.207 39.207 0 001.59 2.879c-3.167-1.197-6.099-3.697-8.514-7.327zm36.444 30.842v3.195H19.106v-3.195a3.199 3.199 0 013.196-3.195h20.396a3.199 3.199 0 013.196 3.195zm-10.199-7.004h-6.39v-6.808a12.51 12.51 0 003.195.419 12.51 12.51 0 003.195-.42v6.81zm1.18-11.339a1.855 1.855 0 00-.248.125c-1.345.67-2.729 1.016-4.127 1.016-1.398 0-2.78-.346-4.126-1.015a1.897 1.897 0 00-.25-.127c-1.493-.79-2.937-1.982-4.303-3.548a1.924 1.924 0 00-.243-.284c-1.356-1.61-2.632-3.59-3.798-5.922-3.5-6.998-5.52-16.2-5.75-26.09h36.94c-.23 9.89-2.251 19.092-5.75 26.09-1.166 2.331-2.442 4.312-3.798 5.922-.09.086-.172.182-.243.284-1.366 1.567-2.811 2.759-4.305 3.549zM55.55 27.154c-2.415 3.63-5.346 6.13-8.514 7.327a39.207 39.207 0 001.59-2.88c3.189-6.376 5.228-14.41 5.916-23.101h6.61c-.3 7.07-2.262 13.635-5.602 18.654z" fill="#FAC71E"/><path d="M34.61 25h-2.415v-6.61l.024-1.085.039-1.188c-.401.401-.68.664-.836.79l-1.313 1.054-1.164-1.453 3.68-2.93h1.984V25z" fill="#2B4722"/></svg><svg fill="none" viewBox="0 0 65 65" id="cup2" xmlns="http://www.w3.org/2000/svg"><path d="M63.096 4.691h-8.341c.03-.924.047-1.853.047-2.787A1.904 1.904 0 0052.897 0H12.103a1.904 1.904 0 00-1.905 1.904c0 .934.017 1.863.047 2.787h-8.34A1.904 1.904 0 000 6.596c0 8.532 2.23 16.582 6.28 22.668 4.002 6.016 9.333 9.466 15.093 9.802 1.305 1.42 2.686 2.58 4.123 3.463v8.463h-3.194a7.012 7.012 0 00-7.004 7.004v3.195h-.136a1.904 1.904 0 000 3.808h34.675a1.904 1.904 0 100-3.808h-.135v-3.195a7.012 7.012 0 00-7.004-7.004h-3.194V42.53c1.437-.883 2.818-2.042 4.124-3.463 5.759-.336 11.09-3.786 15.093-9.802C62.771 23.178 65 15.128 65 6.596a1.904 1.904 0 00-1.904-1.905zM9.45 27.154C6.11 22.135 4.148 15.57 3.85 8.5h6.61c.686 8.691 2.726 16.725 5.915 23.102a39.207 39.207 0 001.59 2.879c-3.167-1.197-6.099-3.697-8.514-7.327zm36.444 30.842v3.195H19.106v-3.195a3.199 3.199 0 013.196-3.195h20.396a3.199 3.199 0 013.196 3.195zm-10.199-7.004h-6.39v-6.808a12.51 12.51 0 003.195.419 12.51 12.51 0 003.195-.42v6.81zm1.18-11.339a1.855 1.855 0 00-.248.125c-1.345.67-2.729 1.016-4.127 1.016-1.398 0-2.78-.346-4.126-1.015a1.897 1.897 0 00-.25-.127c-1.493-.79-2.937-1.982-4.303-3.548a1.924 1.924 0 00-.243-.284c-1.356-1.61-2.632-3.59-3.798-5.922-3.5-6.998-5.52-16.2-5.75-26.09h36.94c-.23 9.89-2.251 19.092-5.75 26.09-1.166 2.331-2.442 4.312-3.798 5.922-.09.086-.172.182-.243.284-1.366 1.567-2.811 2.759-4.305 3.549zM55.55 27.154c-2.415 3.63-5.346 6.13-8.514 7.327a39.207 39.207 0 001.59-2.88c3.189-6.376 5.228-14.41 5.916-23.101h6.61c-.3 7.07-2.262 13.635-5.602 18.654z" fill="#8D8D8D"/><path d="M36.625 25h-7.984v-1.68l2.867-2.898c.849-.87 1.403-1.471 1.664-1.805a4.05 4.05 0 00.562-.937c.115-.287.172-.584.172-.89 0-.46-.127-.8-.383-1.024-.25-.224-.586-.336-1.007-.336-.443 0-.873.101-1.29.304a6.65 6.65 0 00-1.304.868l-1.313-1.555c.563-.48 1.029-.818 1.399-1.016.37-.198.773-.349 1.21-.453.438-.11.928-.164 1.47-.164.713 0 1.343.13 1.89.39.547.261.971.626 1.274 1.094.302.47.453 1.006.453 1.61a3.92 3.92 0 01-.282 1.484c-.182.459-.468.93-.859 1.414-.385.485-1.068 1.175-2.047 2.07l-1.469 1.383v.11h4.977V25z" fill="#2B4722"/></svg><svg fill="none" viewBox="0 0 65 65" id="cup3" xmlns="http://www.w3.org/2000/svg"><path d="M63.096 4.691h-8.341c.03-.924.047-1.853.047-2.787A1.904 1.904 0 0052.897 0H12.103a1.904 1.904 0 00-1.905 1.904c0 .934.017 1.863.047 2.787h-8.34A1.904 1.904 0 000 6.596c0 8.532 2.23 16.582 6.28 22.668 4.002 6.016 9.333 9.466 15.093 9.802 1.305 1.42 2.686 2.58 4.123 3.463v8.463h-3.194a7.012 7.012 0 00-7.004 7.004v3.195h-.136a1.904 1.904 0 000 3.808h34.675a1.904 1.904 0 100-3.808h-.135v-3.195a7.012 7.012 0 00-7.004-7.004h-3.194V42.53c1.437-.883 2.818-2.042 4.124-3.463 5.759-.336 11.09-3.786 15.093-9.802C62.771 23.178 65 15.128 65 6.596a1.904 1.904 0 00-1.904-1.905zM9.45 27.154C6.11 22.135 4.148 15.57 3.85 8.5h6.61c.686 8.691 2.726 16.725 5.915 23.102a39.207 39.207 0 001.59 2.879c-3.167-1.197-6.099-3.697-8.514-7.327zm36.444 30.842v3.195H19.106v-3.195a3.199 3.199 0 013.196-3.195h20.396a3.199 3.199 0 013.196 3.195zm-10.199-7.004h-6.39v-6.808a12.51 12.51 0 003.195.419 12.51 12.51 0 003.195-.42v6.81zm1.18-11.339a1.855 1.855 0 00-.248.125c-1.345.67-2.729 1.016-4.127 1.016-1.398 0-2.78-.346-4.126-1.015a1.897 1.897 0 00-.25-.127c-1.493-.79-2.937-1.982-4.303-3.548a1.924 1.924 0 00-.243-.284c-1.356-1.61-2.632-3.59-3.798-5.922-3.5-6.998-5.52-16.2-5.75-26.09h36.94c-.23 9.89-2.251 19.092-5.75 26.09-1.166 2.331-2.442 4.312-3.798 5.922-.09.086-.172.182-.243.284-1.366 1.567-2.811 2.759-4.305 3.549zM55.55 27.154c-2.415 3.63-5.346 6.13-8.514 7.327a39.207 39.207 0 001.59-2.88c3.189-6.376 5.228-14.41 5.916-23.101h6.61c-.3 7.07-2.262 13.635-5.602 18.654z" fill="#D7A141"/><path d="M36.18 16.133c0 .713-.216 1.32-.649 1.82-.432.5-1.039.844-1.82 1.031v.047c.922.115 1.62.396 2.094.844.474.443.71 1.042.71 1.797 0 1.099-.398 1.956-1.195 2.57-.797.61-1.935.914-3.414.914-1.24 0-2.338-.205-3.297-.617v-2.055c.443.224.93.407 1.461.547.532.14 1.058.211 1.578.211.797 0 1.386-.135 1.766-.406.38-.27.57-.706.57-1.305 0-.536-.218-.916-.656-1.14-.437-.224-1.135-.336-2.094-.336h-.867v-1.852h.883c.885 0 1.531-.114 1.938-.344.411-.234.617-.632.617-1.195 0-.865-.542-1.297-1.625-1.297-.375 0-.758.063-1.149.188-.385.125-.815.34-1.289.648l-1.117-1.664c1.042-.75 2.284-1.125 3.727-1.125 1.182 0 2.114.24 2.796.719.688.479 1.032 1.146 1.032 2z" fill="#2B4722"/></svg><svg fill="none" viewBox="0 0 34 35" id="globe" xmlns="http://www.w3.org/2000/svg"><circle cx="17.156" cy="17.169" r="15.344" stroke="#71B219" stroke-width="3"/><path d="M16.715 2s-5.891 7.658-5.597 15.17c.295 7.51 5.597 15.169 5.597 15.169M17.745 2s5.891 7.658 5.597 15.17c-.295 7.51-5.597 15.169-5.597 15.169" stroke="#71B219" stroke-width="3"/><path d="M29.238 9.506s-5.596 2.945-13.107 2.65c-7.511-.294-11.34-2.65-11.34-2.65M29.238 24.848s-5.596-2.945-13.107-2.65c-7.511.294-11.34 2.65-11.34 2.65" stroke="#71B219" stroke-width="3"/></svg><svg fill="none" viewBox="0 0 21 21" id="question-circle" xmlns="http://www.w3.org/2000/svg"><path d="M21 14.212a6.809 6.809 0 00-3.734-6.063c-.07 4.997-4.12 9.048-9.117 9.117A6.809 6.809 0 0014.212 21c1.222 0 2.41-.325 3.454-.944l3.304.914-.914-3.304A6.764 6.764 0 0021 14.212z" fill="#71B219"/><path d="M16.037 8.019C16.037 3.597 12.44 0 8.02 0 3.597 0 0 3.597 0 8.019c0 1.44.384 2.844 1.112 4.075L.029 16.008l3.914-1.083a7.994 7.994 0 004.076 1.112c4.421 0 8.018-3.597 8.018-8.018zM6.788 6.152h-1.23a2.464 2.464 0 012.46-2.46 2.464 2.464 0 012.461 2.46c0 .69-.291 1.351-.8 1.816l-1.045.957v.96h-1.23V8.383l1.444-1.322a1.232 1.232 0 00-.83-2.139c-.678 0-1.23.552-1.23 1.23zm.615 4.963h1.23v1.23h-1.23v-1.23z" fill="#71B219"/></svg><svg fill="none" viewBox="0 0 10 10" id="right-arrow" xmlns="http://www.w3.org/2000/svg"><path d="M9.84 5.389L6.23 9a.543.543 0 01-.387.16.543.543 0 01-.387-.16l-.328-.328a.554.554 0 010-.779l2.107-2.111H.54A.534.534 0 010 5.244V4.78c0-.302.238-.562.54-.562h6.718L5.127 2.095a.54.54 0 010-.769L5.455 1a.543.543 0 01.387-.16c.146 0 .284.057.387.16L9.84 4.612c.104.103.16.241.16.388a.544.544 0 01-.16.389z" fill="#2C64EB"/></svg><svg fill="none" viewBox="0 0 23 25" id="right-triangle" xmlns="http://www.w3.org/2000/svg"><path d="M22.112 11.41L2.112.16A1.252 1.252 0 00.25 1.25v22.5a1.249 1.249 0 001.862 1.09l20-11.25c.393-.223.638-.637.638-1.09 0-.453-.245-.867-.638-1.09z" fill="#71B219"/></svg><svg fill="none" viewBox="0 0 17 17" id="search-icon" xmlns="http://www.w3.org/2000/svg"><path d="M12.476 10.974a6.86 6.86 0 001.336-4.067A6.914 6.914 0 006.906.001 6.914 6.914 0 000 6.907a6.914 6.914 0 006.906 6.906 6.86 6.86 0 004.067-1.337l4.525 4.525L17 15.498l-4.524-4.524zm-5.57.714a4.786 4.786 0 01-4.781-4.78 4.786 4.786 0 014.781-4.782 4.786 4.786 0 014.782 4.781 4.786 4.786 0 01-4.782 4.781z" fill="#71B219"/></svg><svg fill="none" viewBox="0 0 73 73" id="together1" xmlns="http://www.w3.org/2000/svg"><g clip-path="url(#oclip0)"><path d="M71.934 71.398a4.709 4.709 0 01-3.666 1.744H50.072c-.03 0-.06-.004-.09-.005-.054.002-.108.005-.161.005H23.089l-.103-.003c-.02 0-.038.003-.058.003H4.732a4.708 4.708 0 01-3.666-1.744A4.734 4.734 0 01.1 67.432c.81-3.897 3.234-7.144 6.477-9.104a8.932 8.932 0 01-1.729-5.29c0-4.952 4.03-8.982 8.982-8.982 4.953 0 8.982 4.03 8.982 8.983a8.93 8.93 0 01-1.72 5.278c.045.027.09.053.134.081a19.26 19.26 0 017.054-5.657 10.644 10.644 0 01-2.473-6.831c0-5.896 4.797-10.693 10.693-10.693s10.693 4.797 10.693 10.693c0 2.595-.93 4.977-2.473 6.83a19.265 19.265 0 017.053 5.657l.135-.08a8.932 8.932 0 01-1.72-5.278c0-4.953 4.029-8.982 8.981-8.982 4.953 0 8.983 4.03 8.983 8.982 0 4.902-3.949 8.898-8.832 8.978-.026.001-.05.004-.076.004h-.15a8.201 8.201 0 00-4.52 1.356c.332.872.603 1.769.806 2.684.022.074.04.149.056.226.08.382.117.768.115 1.152h11.763a2.853 2.853 0 015.585-.006 4.733 4.733 0 01-.965 3.965zm-16.043-18.36c0 1.809 1.47 3.28 3.278 3.28 1.809 0 3.28-1.471 3.28-3.28 0-1.808-1.471-3.279-3.28-3.279a3.283 3.283 0 00-3.278 3.28zM36.5 50.9a4.996 4.996 0 004.99-4.99 4.996 4.996 0 00-4.99-4.99 4.996 4.996 0 00-4.99 4.99 4.996 4.996 0 004.99 4.99zM23.156 67.439h26.655a.128.128 0 00.027-.024c-1.334-6.269-6.932-10.812-13.338-10.812-6.414 0-12.019 4.554-13.344 10.836zm-12.605-14.4a3.283 3.283 0 003.28 3.279c1.808 0 3.278-1.471 3.278-3.28 0-1.808-1.47-3.279-3.279-3.279a3.283 3.283 0 00-3.28 3.28zm-4.537 14.4h11.432c.003-.371.04-.745.117-1.116.21-1.006.5-1.991.865-2.946a8.196 8.196 0 00-4.523-1.356h-.149c-3.482 0-6.569 2.218-7.742 5.418z" fill="#71B219"/><path d="M25.778 8.83a2.851 2.851 0 104.05 4.015l3.678-3.71v18.527a2.851 2.851 0 105.703 0V9.134l3.678 3.711a2.844 2.844 0 002.025.845 2.851 2.851 0 002.025-4.859l-5.53-5.58a7.062 7.062 0 00-5.05-2.108c-1.909 0-3.702.748-5.05 2.108l-5.53 5.58zM52.498 27.103a2.852 2.852 0 01-4.05-4.015l5.53-5.58a7.06 7.06 0 015.049-2.108c1.91 0 3.703.749 5.05 2.108l5.53 5.58a2.852 2.852 0 01-4.05 4.015l-3.678-3.711v13.11a2.851 2.851 0 11-5.703 0v-13.11l-3.678 3.711zM10.979 23.535L7.3 27.245a2.852 2.852 0 01-4.05-4.015l5.53-5.579a7.06 7.06 0 015.05-2.108 7.06 7.06 0 015.049 2.108l5.53 5.58a2.852 2.852 0 01-4.05 4.014l-3.678-3.71V36.5a2.851 2.851 0 11-5.703 0V23.535z" fill="#000"/></g><defs><clipPath id="oclip0"><path fill="#fff" d="M0 0h73v73H0z"/></clipPath></defs></svg><svg fill="none" viewBox="0 0 74 74" id="together2" xmlns="http://www.w3.org/2000/svg"><path d="M11.563 50.297v20.812a2.89 2.89 0 11-5.782 0V52.692C2.416 51.5 0 48.284 0 44.516V28.762c0-4.782 3.89-8.672 8.672-8.672h11.562a8.702 8.702 0 017.51 4.334 2.89 2.89 0 11-5.004 2.895 2.903 2.903 0 00-2.506-1.448H8.672a2.894 2.894 0 00-2.89 2.89v15.755a2.894 2.894 0 002.89 2.89 2.89 2.89 0 012.89 2.89zm8.671 8.672a2.89 2.89 0 00-2.89 2.89v9.25a2.89 2.89 0 105.781 0v-9.25a2.89 2.89 0 00-2.89-2.89zM5.781 8.672C5.781 3.89 9.671 0 14.453 0s8.672 3.89 8.672 8.672-3.89 8.672-8.672 8.672-8.672-3.89-8.672-8.672zm5.782 0a2.894 2.894 0 002.89 2.89 2.894 2.894 0 002.89-2.89 2.894 2.894 0 00-2.89-2.89 2.894 2.894 0 00-2.89 2.89zm42.203 50.297a2.89 2.89 0 00-2.891 2.89v9.25a2.89 2.89 0 105.781 0v-9.25a2.89 2.89 0 00-2.89-2.89zm11.562-38.88H53.766a8.702 8.702 0 00-7.51 4.335 2.89 2.89 0 105.004 2.895 2.903 2.903 0 012.506-1.448h11.562a2.894 2.894 0 012.89 2.89v15.755a2.894 2.894 0 01-2.89 2.89 2.89 2.89 0 00-2.89 2.89V71.11a2.89 2.89 0 105.78 0V52.692C71.585 51.5 74 48.284 74 44.516V28.762c0-4.782-3.89-8.672-8.672-8.672zM50.875 8.673C50.875 3.89 54.765 0 59.547 0s8.672 3.89 8.672 8.672-3.89 8.672-8.672 8.672-8.672-3.89-8.672-8.672zm5.781 0a2.894 2.894 0 002.89 2.89 2.894 2.894 0 002.892-2.89 2.894 2.894 0 00-2.891-2.89 2.894 2.894 0 00-2.89 2.89z" fill="#71B219"/><path d="M50.702 53.435a2.891 2.891 0 01-3.435 1.539l-3.286-.972a11.451 11.451 0 01-2.684 1.664l-.532 3.326a2.891 2.891 0 01-2.854 2.434h-2.602a2.89 2.89 0 01-2.845-2.379l-.615-3.415a11.496 11.496 0 01-2.233-1.331l-3.175 1.141a2.89 2.89 0 01-3.497-1.301l-1.283-2.279a2.891 2.891 0 01.704-3.668l2.718-2.192c-.005-.064-.007-.129-.011-.193l-.011-.184a11.193 11.193 0 010-1.095l-2.784-1.875a2.89 2.89 0 01-.92-3.788l1.346-2.454a2.89 2.89 0 013.354-1.381l3.372.998a11.517 11.517 0 012.41-1.472l.463-3.306a2.89 2.89 0 012.863-2.49h2.746a2.89 2.89 0 012.844 2.378l.615 3.415c.057.026.112.055.168.082.06.028.118.057.177.086.122.06.243.121.362.186l.119.065c.135.075.269.151.4.231l.022.013c.311.19.615.393.908.612l3.121-1.192a2.89 2.89 0 013.482 1.166l1.505 2.405a2.89 2.89 0 01-.677 3.817l-2.818 2.19c.005.057.006.115.01.173.004.059.008.118.01.177a10.938 10.938 0 01.005.979l2.73 2.002a2.89 2.89 0 01.905 3.564l-1.097 2.324zm-19.873-8.341c0 .11.004.221.01.332l.007.092a7.011 7.011 0 00.035.345c.01.077.022.153.036.23l.018.103a5.78 5.78 0 001.663 3.056c.037.034.073.07.11.103.075.07.153.137.232.203l.13.103a5.316 5.316 0 00.461.322 6.418 6.418 0 00.54.303 5.77 5.77 0 00.988.376 5.768 5.768 0 005.247-1.127c.04-.032.078-.067.116-.1.072-.065.144-.13.213-.198l.06-.057a5.765 5.765 0 001.575-2.91c.013-.061.023-.123.034-.185.006-.033.013-.066.018-.1a5.975 5.975 0 00.059-1.224l-.007-.093a5.727 5.727 0 00-.022-.24l-.014-.105a5.374 5.374 0 00-.035-.23c-.007-.034-.012-.07-.02-.104a5.774 5.774 0 00-1.7-3.088l-.075-.073a5.967 5.967 0 00-.249-.214 7.61 7.61 0 00-.28-.214l-.121-.086a5.436 5.436 0 00-.259-.166 5.283 5.283 0 00-.303-.17c-.049-.027-.098-.053-.148-.077a6.933 6.933 0 00-.4-.177 5.154 5.154 0 00-.59-.2 5.764 5.764 0 00-3.485.123c-.05.017-.1.037-.149.056-.121.047-.24.097-.357.152l-.073.034a6.332 6.332 0 00-.22.113l-.053.03a5.83 5.83 0 00-.658.423l-.033.025c-.129.098-.253.2-.373.308l-.042.037c-.06.055-.119.11-.176.168l-.06.061a5.773 5.773 0 00-1.563 3.045l-.003.018a5.54 5.54 0 00-.044.303l-.003.025c-.01.096-.019.192-.025.288l-.003.04c-.006.107-.01.214-.01.32z" fill="#000"/></svg><svg fill="none" viewBox="0 0 73 73" id="together3" xmlns="http://www.w3.org/2000/svg"><path d="M28.381 12.437l5.267-5.205v26.416a2.851 2.851 0 105.704 0V7.513l4.982 4.924a2.852 2.852 0 004.008-4.057l-5.93-5.86A8.486 8.486 0 0036.358 0a8.486 8.486 0 00-6.055 2.52l-5.93 5.86a2.852 2.852 0 004.01 4.056z" fill="#000"/><path d="M2.852 33.648a2.851 2.851 0 002.851-2.851 5.71 5.71 0 015.703-5.703h13.688a2.851 2.851 0 100-5.703H11.406C5.116 19.39 0 24.508 0 30.797a2.851 2.851 0 002.852 2.851z" fill="#71B219"/><path d="M28.634 36.812a2.85 2.85 0 00-3.941.854c-1.697 2.633-2.593 5.638-2.593 8.69 0 8.49 6.46 15.398 14.4 15.398s14.4-6.908 14.4-15.399c0-3.266-.826-6.193-2.457-8.7a2.851 2.851 0 10-4.78 3.108c1.018 1.567 1.534 3.448 1.534 5.592 0 5.346-3.901 9.696-8.697 9.696-4.796 0-8.697-4.35-8.697-9.696 0-1.953.582-3.89 1.684-5.602a2.852 2.852 0 00-.853-3.941z" fill="#000"/><path d="M13.83 43.486a2.852 2.852 0 100 5.703 2.852 2.852 0 000-5.703zM59.17 43.486a2.852 2.852 0 100 5.703 2.852 2.852 0 000-5.703z" fill="#71B219"/><path d="M11.406 73h50.188C67.884 73 73 67.883 73 61.594V30.797c0-6.29-5.117-11.406-11.406-11.406H47.906a2.852 2.852 0 000 5.703h13.688a5.71 5.71 0 015.703 5.703v30.797a5.71 5.71 0 01-5.703 5.703H11.406a5.71 5.71 0 01-5.703-5.703v-16.54a2.852 2.852 0 10-5.703 0v16.54C0 67.884 5.117 73 11.406 73z" fill="#71B219"/></svg><svg fill="none" viewBox="0 0 67 74" id="together4" xmlns="http://www.w3.org/2000/svg"><path d="M32.792 31.797a2.89 2.89 0 00-2.89-2.89H14.437a2.89 2.89 0 000 5.78h15.465a2.89 2.89 0 002.89-2.89zM14.437 40.469a2.89 2.89 0 100 5.781h6.215a2.89 2.89 0 100-5.781h-6.215z" fill="#71B219"/><path d="M27.3 68.219H11.562a5.788 5.788 0 01-5.78-5.781V11.562a5.788 5.788 0 015.78-5.78h35.54a5.788 5.788 0 015.78 5.78V27.75a2.89 2.89 0 105.782 0V11.562C58.664 5.188 53.477 0 47.1 0H11.563C5.186 0 0 5.187 0 11.563v50.874C0 68.814 5.187 74 11.563 74H27.3a2.89 2.89 0 000-5.781z" fill="#71B219"/><path d="M64.323 41.857l-14.188-6.34a2.875 2.875 0 00-1.444-.24 2.879 2.879 0 00-1.444.24l-14.188 6.34a2.89 2.89 0 00-1.712 2.639v11.008c0 4.52 1.786 9.135 4.9 12.66C39.574 71.927 43.923 74 48.497 74h.39c4.573 0 8.923-2.073 12.248-5.836 3.114-3.525 4.9-8.14 4.9-12.66V44.496a2.89 2.89 0 00-1.71-2.64zm-4.07 4.513v9.134c0 6.002-4.861 12.715-11.367 12.715h-.39c-6.506 0-11.368-6.713-11.368-12.715V46.37l11.563-5.166 11.562 5.166z" fill="#000"/><path d="M47.101 20.234a2.89 2.89 0 00-2.89-2.89H14.436a2.89 2.89 0 100 5.781H44.21a2.89 2.89 0 002.891-2.89z" fill="#71B219"/></svg></svg>