<svg width="443" height="277" fill="none" xmlns="http://www.w3.org/2000/svg"><g clip-path="url(#clip0)"><path d="M20.95 118.344s-5.448-.389-4.93 11.731c.52 12.119 1.752 18.6 1.752 18.6s-.13 2.722-2.27 2.139c-2.076-.519-6.032-3.176-7.978-1.167-2.01 2.01-1.297 5.12 1.362 8.815 2.66 3.694 8.237 11.925 8.691 12.702.52.713.714 2.139-.778 2.01-1.492-.13-11.48-3.5-12.778 1.296-1.297 4.861 7.784 13.804 8.756 14.841.973.973 1.038 1.621.65 2.269-.39.583-3.633-.843-6.552-1.685C4.021 189.052.52 188.598 0 191.45c-.519 2.852 3.502 11.212 18.485 19.962l7.2 3.629 6.875-4.342c14.075-10.24 17.253-18.925 16.41-21.712-.843-2.786-4.216-1.944-7.005-.842-2.79 1.102-5.838 2.916-6.292 2.333-.454-.583-.454-1.231.39-2.268.843-1.102 9.015-10.953 7.264-15.62-1.816-4.666-11.415-.324-12.842 0-1.427.26-1.427-1.101-.973-1.879.389-.778 5.124-9.592 7.394-13.481 2.27-3.888 2.659-7.064.454-8.879-2.14-1.75-5.773 1.232-7.784 2.009-2.01.713-2.464-1.944-2.464-1.944s.584-6.546-.13-18.665c-.713-12.12-6.227-11.148-6.227-11.148" fill="#EBEBEB"/><path d="M21.34 129.232v.259c0 .195.064.454.064.713.065.648.13 1.621.195 2.852.194 2.463.389 6.092.648 10.564.52 8.944 1.103 21.258 1.686 34.803.584 13.611 1.168 25.925 1.557 34.868.195 4.472.39 8.037.52 10.564.064 1.232.129 2.204.129 2.852v.778c0-.195-.065-.454-.065-.713-.065-.648-.13-1.62-.195-2.852-.194-2.463-.389-6.092-.648-10.564-.52-8.944-1.103-21.258-1.687-34.868-.583-13.61-1.167-25.924-1.556-34.868-.195-4.472-.39-8.036-.52-10.564-.064-1.231-.129-2.204-.129-2.852v-.972z" fill="#F0F1F2"/><path d="M12.907 153.601s.195.129.454.389c.26.259.649.648 1.168 1.101.973.973 2.205 2.269 3.632 3.759 1.362 1.491 2.594 2.852 3.567 3.889.454.454.779.843 1.103 1.167.26.259.39.453.39.453s-.195-.129-.455-.389c-.26-.259-.648-.648-1.167-1.101-.973-.972-2.206-2.333-3.568-3.824-1.362-1.491-2.594-2.787-3.567-3.824-.454-.454-.778-.842-1.103-1.166l-.454-.454zm17.011 4.496c3.32-3.364 5.97-6.131 5.92-6.181-.051-.051-2.784 2.635-6.105 5.999-3.32 3.364-5.97 6.131-5.92 6.181.052.051 2.785-2.635 6.105-5.999zm-6.114 26.937s.195-.13.519-.324c.389-.195.843-.454 1.427-.778a100.78 100.78 0 004.605-2.722c1.751-1.102 3.373-2.139 4.475-2.916.52-.324.973-.648 1.362-.908.325-.194.52-.324.52-.324s-.13.13-.455.389c-.324.259-.713.583-1.297.972-1.103.778-2.66 1.88-4.475 2.982a90.637 90.637 0 01-4.67 2.657c-.584.324-1.103.583-1.427.713-.39.194-.584.259-.584.259zm-11.999-7.324s.194.065.519.26c.324.194.778.388 1.297.712 1.102.649 2.594 1.491 4.28 2.463 1.687.972 3.179 1.88 4.217 2.593.519.324.973.583 1.297.777.324.195.454.324.454.324s-.195-.064-.52-.259c-.323-.194-.777-.389-1.296-.713-1.103-.648-2.595-1.49-4.281-2.462-1.686-.973-3.178-1.88-4.216-2.593-.519-.324-.973-.583-1.297-.778-.26-.194-.454-.324-.454-.324zM9.47 196.181s.259.065.648.324c.454.26 1.038.584 1.687.908 1.426.778 3.372 1.879 5.513 3.176a206.04 206.04 0 015.448 3.24c.649.389 1.232.713 1.622.972l.583.389s-.26-.065-.648-.324a34.73 34.73 0 00-1.687-.907 144.049 144.049 0 01-5.513-3.176 205.535 205.535 0 01-5.448-3.241c-.649-.388-1.233-.713-1.622-.972l-.584-.389zm15.177 8.685s.195-.195.649-.389c.454-.259 1.037-.648 1.75-1.037a193.129 193.129 0 005.773-3.629c2.206-1.426 4.216-2.787 5.643-3.824.649-.454 1.233-.843 1.687-1.167.389-.259.648-.389.648-.389s-.194.195-.583.519c-.39.324-.908.713-1.622 1.231a209.947 209.947 0 01-5.578 3.889c-2.205 1.426-4.28 2.657-5.773 3.564-.778.454-1.362.778-1.816.973-.519.194-.778.259-.778.259zm10.832 12.508H15.502l6.55 49.386h6.94l6.487-49.386z" fill="#F0F1F2"/><path d="M16.54 223.402s0 .065.13.194c.064.13.259.259.453.324.454.195 1.297.195 2.14-.259.779-.454 1.492-1.296 2.595-1.685 1.103-.389 2.4-.324 3.697.065 1.297.389 2.4 1.037 3.438 1.685 1.038.583 1.946 1.166 2.789 1.49a6.826 6.826 0 002.075.584c.26.065.454.065.584.065h.195c0-.065-1.103-.065-2.724-.843a33.835 33.835 0 01-2.725-1.555c-.973-.649-2.14-1.297-3.502-1.686-1.297-.453-2.724-.518-3.892-.064-.584.194-1.037.583-1.491.907-.39.324-.779.648-1.168.907-.713.454-1.492.519-1.946.324-.454-.194-.648-.453-.648-.453zm.713 9.138s.13-.194.454-.518c.324-.325.843-.713 1.621-1.037a7.24 7.24 0 012.79-.389c1.102.065 2.27.259 3.502.453 1.232.195 2.465.324 3.567.13a9.578 9.578 0 002.79-.778c.778-.324 1.297-.713 1.686-.972s.519-.454.519-.454c-.065-.064-.779.649-2.335 1.297a10.46 10.46 0 01-2.725.713c-1.037.129-2.27.064-3.502-.195-1.232-.194-2.4-.454-3.503-.454-1.102 0-2.075.195-2.853.519a4.181 4.181 0 00-1.622 1.167c-.13.194-.26.324-.324.453-.065 0-.065 0-.065.065zm15.956 4.861s-.195-.13-.519-.259c-.39-.13-.973-.324-1.686-.324-.714-.065-1.557 0-2.53.129-.908.13-1.946.389-2.984.648-1.037.195-2.075.389-2.983.324-.908 0-1.751-.259-2.335-.518-1.297-.583-1.751-1.361-1.816-1.361 0 0 .065.194.324.518.26.324.713.713 1.362 1.037a5.529 5.529 0 002.465.584c.973.064 2.01-.065 3.048-.325 1.038-.194 2.076-.518 2.984-.648.908-.194 1.751-.259 2.465-.194 1.427 0 2.205.454 2.205.389zm-14.205 6.805c0 .065.714-.454 1.946-.194a7.906 7.906 0 012.01.777c.779.324 1.687.648 2.66.713 1.946.195 3.697-.454 4.8-1.102a6.675 6.675 0 001.167-.907c.26-.259.39-.389.325-.454-.065-.064-.584.519-1.687 1.167-1.103.583-2.789 1.167-4.67.972-1.88-.13-3.373-1.231-4.67-1.361-.649-.065-1.167 0-1.492.13l-.389.259zm1.168 9.527c0 .065.648.065 1.686-.324 1.038-.324 2.27-1.102 3.697-1.685.714-.259 1.492-.454 2.14-.454.65 0 1.233.195 1.687.389.908.454 1.167 1.102 1.232 1.037 0 0 0-.194-.194-.389-.13-.259-.454-.583-.908-.842s-1.103-.454-1.817-.519c-.713 0-1.491.13-2.27.454-1.491.583-2.724 1.361-3.697 1.75-.973.389-1.556.518-1.556.583zm.973 4.407c0 .065.454.195 1.297.389.778.194 1.946.389 3.178.519 1.232.129 2.4.129 3.178.064a21.9 21.9 0 001.297-.129c0-.13-2.01 0-4.475-.26-2.53-.194-4.476-.712-4.476-.583zm405.38-244.919L389.684 0l-36.451 13.027c-4.67 2.204-8.757 3.5-8.757 7.842v21.582c0 14.971 3.957 29.813 12 42.97 6.81 11.017 17.317 22.359 33.533 29.618 14.918-4.861 26.009-17.758 32.819-28.776 8.108-13.092 12-27.934 12-42.97V23.915c.064-6.222-3.179-9.203-8.303-10.694z" fill="#F5F5F5"/><path d="M390.074 102.465c-12.843-5.703-21.145-14.906-26.529-23.59-6.421-10.37-9.534-22.101-9.534-33.961V29.748c0-3.435 2.075-6.61 6.162-8.555l29.511-11.018V0l-36.451 13.027c-3.827 1.685-8.757 3.5-8.757 7.842v21.582c0 14.971 3.957 29.813 12 42.97 6.81 11.017 17.317 22.359 33.533 29.618v-12.574h.065z" fill="#EBEBEB"/><path d="M390.074 115.039c2.594-.843 4.929-1.88 7.264-3.111 6.097-3.306 11.351-7.907 15.307-12.055 4.475-4.602 7.783-9.657 10.637-14.323 8.108-13.092 11.999-27.933 11.675-43.358V24.369c0-8.88-4.605-9.527-8.432-11.213L389.684 0v10.175l29.836 11.212c4.087 1.945 6.162 5.12 6.162 8.555v15.166c0 11.86-3.113 23.591-9.534 33.96-5.384 8.75-13.362 17.759-26.204 23.462v12.509h.13z" fill="#F0F1F2"/><path d="M399.479 43.941l.064-2.916c0-5.25-4.28-9.527-9.534-9.527-5.254 0-9.535 4.277-9.535 9.527l-.065 2.981a5.306 5.306 0 00-4.54 5.25v17.175c0 2.981 2.4 5.314 5.319 5.314h17.837a5.299 5.299 0 005.318-5.314V49.256c0-2.787-2.14-5.055-4.864-5.315zm-7.005 18.212h-4.67l.713-3.37c-.778-.518-1.362-1.426-1.362-2.398 0-1.555 1.297-2.852 2.854-2.852 1.556 0 2.854 1.297 2.854 2.852 0 .972-.519 1.88-1.233 2.333.325 1.296.844 3.435.844 3.435zm4.929-18.276H382.42l.065-2.917c0-4.148 3.373-7.518 7.524-7.518s7.524 3.37 7.524 7.453l-.13 2.982z" fill="#F0F1F2"/><path d="M359.978 43.747c-.065 0-.324-1.102-.584-2.981-.194-1.88-.389-4.472-.324-7.324.065-1.426.13-2.787.26-4.018.129-1.231.324-2.398.843-3.24.454-.843 1.102-1.362 1.621-1.62.519-.26.843-.195.843-.195.065.065-1.232.324-2.01 2.009-.389.778-.584 1.88-.649 3.11-.065 1.232-.194 2.593-.194 4.02-.065 2.85 0 5.378.129 7.258.065 1.815.13 2.916.065 2.981zm.556 9.396c.179-.003.307-.905.285-2.015-.022-1.11-.185-2.006-.364-2.002-.179.003-.306.906-.285 2.015.022 1.11.185 2.006.364 2.002z" fill="#fff"/><path d="M443 266.76c0 .065-98.978.194-221.111.194S.779 266.889.779 266.76c0-.13 98.977-.195 221.11-.195 122.133.065 221.111.13 221.111.195z" fill="#263238"/><path d="M364.129 18.341H82.633c-4.865 0-8.757 3.954-8.757 8.75v198.644c0 4.861 3.957 8.749 8.757 8.749H190.69s6.875 21.258-14.399 32.211H277.28s-24.063-8.231-17.836-32.211h104.75c4.864 0 8.756-3.953 8.756-8.749V27.091c-.065-4.861-3.956-8.75-8.821-8.75z" fill="#455A64"/><path d="M227.143 213.615c3.827 5.444-2.141 11.472-7.654 7.648a1.524 1.524 0 01-.454-.454c-3.827-5.444 2.141-11.471 7.654-7.647.194.129.324.259.454.453z" fill="#263238"/><path d="M368.021 198.19H78.741V28.257c0-3.5 2.789-6.286 6.291-6.286h276.762a6.254 6.254 0 016.292 6.286V198.19h-.065z" fill="#fff"/><path d="M368.021 36.618H78.741v-8.75a5.95 5.95 0 015.967-5.962h278.513a4.857 4.857 0 014.865 4.86v9.852h-.065z" fill="#EBEBEB"/><path d="M87.951 31.563a2.01 2.01 0 10.002-4.02 2.01 2.01 0 00-.002 4.02zm6.032 0a2.01 2.01 0 10.002-4.02 2.01 2.01 0 00-.002 4.02zm5.773 0a2.01 2.01 0 10.002-4.02 2.01 2.01 0 00-.002 4.02z" fill="#F0F1F2"/><path d="M313.797 234.549c0 .065-40.019.194-89.443.194s-89.443-.064-89.443-.194c0-.065 40.019-.194 89.443-.194 49.359 0 89.443.064 89.443.194z" fill="#263238"/><path d="M268.07 61.376l-44.105-16.268-43.717 16.008c-5.578 2.722-10.442 4.343-10.442 9.657v26.508c0 18.406 4.735 36.682 14.399 52.755 8.172 13.546 20.755 27.48 40.214 36.359 17.836-5.963 31.198-21.776 39.305-35.322 9.665-16.138 14.399-34.349 14.399-52.756V74.532c0-7.583-3.956-11.342-10.053-13.156z" fill="#71B219"/><path opacity=".8" d="M268.07 61.376l-44.105-16.268-43.717 16.008c-5.578 2.722-10.442 4.343-10.442 9.657v26.508c0 18.406 4.735 36.682 14.399 52.755 8.172 13.546 20.755 27.48 40.214 36.359 17.836-5.963 31.198-21.776 39.305-35.322 9.665-16.138 14.399-34.349 14.399-52.756V74.532c0-7.583-3.956-11.342-10.053-13.156z" fill="#fff"/><path d="M250.882 128.519h-8.108V84.448c0-10.37-8.432-18.795-18.809-18.795-10.378 0-18.81 8.425-18.81 18.795v44.071h-8.108V84.448c0-14.842 12.064-26.896 26.918-26.896 14.853 0 26.917 12.054 26.917 26.896v44.071z" fill="#71B219"/><path opacity=".4" d="M250.882 128.519h-8.108V84.448c0-10.37-8.432-18.795-18.809-18.795-10.378 0-18.81 8.425-18.81 18.795v44.071h-8.108V84.448c0-14.842 12.064-26.896 26.918-26.896 14.853 0 26.917 12.054 26.917 26.896v44.071z" fill="#000"/><path d="M256.525 155.416h-65.12a3.764 3.764 0 01-3.762-3.759v-39.016a3.763 3.763 0 013.762-3.759h65.055a3.763 3.763 0 013.762 3.759v39.016c.065 2.073-1.622 3.759-3.697 3.759z" fill="#71B219"/><path d="M191.534 151.073c.179 0 .325-7.776.325-17.369s-.146-17.369-.325-17.369c-.179 0-.324 7.776-.324 17.369s.145 17.369.324 17.369z" fill="#FAFAFA"/><path d="M278.513 176.22s.194-.26.519-.713c.064-.13.194-.26.324-.389.13-.13.194-.324.324-.519.195-.389.454-.777.649-1.361.129-.259.259-.518.324-.842.065-.324.195-.648.259-.972a3.02 3.02 0 00.195-1.102l.195-1.167c.194-1.62.065-3.564-.26-5.703-.648-4.278-2.465-9.268-5.254-14.712-2.789-5.444-6.55-11.342-11.22-17.434-4.67-6.092-10.248-12.444-16.735-18.795-6.486-6.352-13.75-12.703-21.987-18.73-4.087-2.982-8.432-5.963-12.973-8.685a126.12 126.12 0 00-14.399-7.583c-5.059-2.203-10.442-4.148-16.02-5.055-2.789-.454-5.708-.648-8.562-.194a15.883 15.883 0 00-4.151 1.166c-1.297.648-2.465 1.49-3.438 2.528-.973 1.102-1.621 2.398-2.14 3.759-.454 1.36-.649 2.787-.714 4.213-.129 2.851.454 5.703 1.168 8.49 1.557 5.508 4.086 10.564 6.81 15.36 2.789 4.796 5.903 9.268 9.146 13.48 3.243 4.213 6.68 8.166 10.118 11.925a203.38 203.38 0 0021.145 19.703c7.069 5.703 13.945 10.564 20.561 14.453 6.615 3.953 12.907 7.064 18.615 9.138 5.707 2.139 10.896 3.37 15.242 3.5 2.14.064 4.086 0 5.708-.389.389-.065.778-.195 1.167-.324.389-.13.714-.195 1.038-.324.324-.13.649-.26.908-.389.259-.13.519-.324.778-.454.519-.259.908-.583 1.233-.842.194-.13.324-.26.454-.324l.324-.325c.389-.194.649-.388.649-.388l-.649.648-.324.324c-.13.129-.325.259-.454.389-.325.259-.714.583-1.233.842-.259.13-.519.324-.778.454-.324.129-.584.259-.908.389-.324.129-.649.259-1.038.324s-.778.259-1.167.324c-1.622.389-3.568.518-5.708.453-4.346-.129-9.535-1.361-15.242-3.434-5.773-2.074-12.065-5.185-18.68-9.139-6.616-3.953-13.556-8.749-20.626-14.452-7.07-5.704-14.205-12.25-21.21-19.703-3.437-3.759-6.875-7.712-10.118-11.925-3.243-4.213-6.356-8.685-9.21-13.481-2.789-4.796-5.319-9.916-6.875-15.425-.779-2.786-1.298-5.638-1.168-8.555.065-1.49.26-2.916.714-4.342.518-1.426 1.232-2.722 2.205-3.824 1.038-1.101 2.27-1.944 3.567-2.592 1.362-.583 2.789-.972 4.216-1.231 2.919-.454 5.838-.195 8.691.194 5.708.907 11.027 2.852 16.151 5.055 5.059 2.269 9.924 4.796 14.464 7.583a196.165 196.165 0 0112.972 8.685c8.173 6.027 15.502 12.443 21.988 18.795 6.421 6.351 12.064 12.703 16.734 18.86 4.67 6.157 8.432 11.989 11.221 17.498 2.724 5.444 4.54 10.5 5.189 14.777.324 2.139.389 4.083.259 5.704 0 .388-.129.777-.194 1.166-.065.389-.13.713-.26 1.102-.065.324-.194.648-.259.972-.13.324-.26.583-.325.843a6.711 6.711 0 01-.713 1.361c-.13.194-.195.388-.324.518-.13.13-.195.259-.325.389-.389.194-.583.454-.583.454z" fill="#71B219"/><path d="M299.268 126.121s0-.324-.065-.907c0-.13 0-.324-.065-.519 0-.194-.064-.389-.129-.583a8.035 8.035 0 00-.389-1.426c-.13-.259-.195-.583-.325-.842-.129-.26-.259-.584-.454-.908-.13-.324-.324-.648-.519-.972a8.417 8.417 0 00-.648-.972c-.973-1.361-2.335-2.722-3.957-4.083-3.308-2.722-7.978-5.25-13.685-7.518-5.708-2.204-12.454-4.083-19.978-5.574-7.588-1.49-15.955-2.463-24.971-2.916a198.428 198.428 0 00-28.863.648 167.552 167.552 0 00-15.502 2.139 131.32 131.32 0 00-15.826 3.953c-5.254 1.75-10.507 3.824-15.307 6.935-2.4 1.555-4.67 3.305-6.551 5.509a16.224 16.224 0 00-2.27 3.629c-.519 1.361-.843 2.722-.908 4.213 0 1.426.324 2.851.908 4.212a16.23 16.23 0 002.27 3.63c1.816 2.203 4.151 4.018 6.551 5.509 4.8 3.046 10.053 5.185 15.307 6.934 5.254 1.686 10.572 2.982 15.826 3.954a167.858 167.858 0 0015.502 2.139c10.118.972 19.847 1.037 28.863.648 9.016-.454 17.448-1.426 24.971-2.917 7.524-1.49 14.27-3.305 19.978-5.573 5.707-2.204 10.377-4.732 13.685-7.518 1.687-1.361 3.049-2.723 3.957-4.084.259-.324.454-.648.648-.972.195-.324.389-.648.519-.972.13-.324.325-.583.454-.907.13-.324.195-.583.325-.843a8.012 8.012 0 00.389-1.426c.065-.194.065-.388.129-.583 0-.194 0-.324.065-.454 0-.324.065-.583.065-.583s0 .324-.065.908v.518c0 .194-.065.389-.129.583a6.718 6.718 0 01-.39 1.426 4.449 4.449 0 01-.324.843c-.13.259-.259.583-.454.907-.13.324-.324.648-.519.972a8.417 8.417 0 01-.648.972c-.973 1.361-2.335 2.722-3.957 4.083-3.308 2.787-8.043 5.315-13.686 7.583-5.707 2.269-12.453 4.148-20.042 5.639-7.588 1.49-15.955 2.463-25.036 2.916-9.08.454-18.745.324-28.928-.583a167.858 167.858 0 01-15.502-2.139c-5.253-.972-10.572-2.268-15.826-3.953-5.253-1.75-10.572-3.889-15.437-6.935-2.399-1.555-4.734-3.37-6.615-5.639-.908-1.101-1.752-2.397-2.335-3.759a11.076 11.076 0 01-.908-4.342c0-1.49.389-2.981.908-4.342.583-1.361 1.427-2.593 2.335-3.694 1.881-2.269 4.216-4.019 6.615-5.574 4.865-3.111 10.119-5.25 15.372-6.935 5.254-1.685 10.573-2.981 15.827-3.953a167.654 167.654 0 0115.501-2.139c10.183-.972 19.848-1.037 28.928-.583 9.081.453 17.448 1.426 25.037 2.916 7.588 1.491 14.334 3.37 20.042 5.639 5.707 2.268 10.377 4.796 13.685 7.583 1.687 1.361 3.049 2.722 3.957 4.083.259.324.454.713.648.972.195.324.389.648.519.972.13.324.325.648.454.907.13.324.195.584.325.843.194.518.259 1.037.389 1.426.065.194.065.389.129.583v.518c.13.454.13.778.13.778z" fill="#71B219"/><path d="M271.767 63.773s-.259-.13-.713-.453c-.13-.065-.26-.195-.389-.26-.13-.064-.325-.194-.519-.259a14.367 14.367 0 00-1.362-.583c-.26-.065-.519-.194-.844-.26l-.973-.194a5.71 5.71 0 00-1.102-.13c-.389 0-.778-.129-1.168-.064-1.686-.065-3.567.194-5.643.648-4.216.972-9.08 3.11-14.334 6.222-5.254 3.11-10.832 7.323-16.604 12.379-5.773 5.055-11.74 11.082-17.578 17.952a197.791 197.791 0 00-17.188 23.202c-2.724 4.278-5.318 8.815-7.783 13.546a123.32 123.32 0 00-6.551 14.906c-1.816 5.185-3.373 10.694-3.892 16.332-.259 2.852-.259 5.704.39 8.555.324 1.426.778 2.787 1.491 4.019.714 1.231 1.622 2.398 2.789 3.305a12.037 12.037 0 003.892 1.879c1.427.324 2.854.454 4.281.454 2.854-.065 5.708-.842 8.367-1.75 5.383-1.944 10.313-4.796 14.853-7.842 4.605-3.111 8.821-6.546 12.778-10.046 3.956-3.564 7.718-7.193 11.221-10.888a210.358 210.358 0 0018.161-22.424c5.189-7.388 9.534-14.647 13.037-21.517 3.502-6.87 6.162-13.351 7.848-19.184 1.751-5.833 2.594-11.083 2.465-15.425-.065-2.139-.325-4.083-.779-5.639-.065-.388-.259-.777-.389-1.101-.13-.39-.259-.713-.389-1.037-.13-.324-.324-.584-.454-.908-.13-.259-.324-.518-.454-.777-.26-.519-.649-.843-.908-1.167-.13-.194-.26-.324-.389-.454-.13-.13-.26-.259-.389-.324-.584-.518-.779-.713-.779-.713s.26.195.649.584c.13.065.259.194.389.324s.259.26.389.454c.26.323.649.712.908 1.166.13.26.324.454.519.778.13.259.26.583.454.907.195.324.324.648.454 1.037.13.389.324.713.389 1.102.519 1.62.714 3.5.843 5.638.13 4.343-.713 9.592-2.399 15.49-1.687 5.898-4.346 12.379-7.849 19.249-3.437 6.87-7.848 14.129-13.037 21.582a204.43 204.43 0 01-18.161 22.489c-3.502 3.694-7.199 7.388-11.221 10.953a126.04 126.04 0 01-12.842 10.11c-4.605 3.111-9.535 5.963-14.918 7.907-2.724.972-5.578 1.685-8.497 1.75a14.587 14.587 0 01-4.41-.454 12.16 12.16 0 01-4.022-1.944 11 11 0 01-2.854-3.37c-.713-1.296-1.167-2.722-1.491-4.148-.649-2.852-.649-5.768-.39-8.62.519-5.703 2.076-11.212 3.957-16.397 1.881-5.249 4.151-10.175 6.551-14.906 2.465-4.731 5.059-9.268 7.783-13.546 5.448-8.619 11.351-16.332 17.253-23.202 5.903-6.87 11.87-12.897 17.642-17.952 5.773-5.055 11.416-9.268 16.67-12.379 5.253-3.11 10.183-5.25 14.399-6.157 2.075-.454 4.021-.713 5.707-.648.39 0 .844.065 1.168.065.389.065.778.065 1.103.13l.973.194c.324.065.583.194.843.259.519.13.973.389 1.362.583.194.13.389.195.519.26.129.13.259.194.389.259.519.259.778.453.778.453zM147.86 161.128a2.785 2.785 0 000-3.941 2.789 2.789 0 00-3.944 0 2.785 2.785 0 000 3.941 2.79 2.79 0 003.944 0zm154.975-87.763a2.787 2.787 0 100-5.573 2.788 2.788 0 00-2.789 2.787 2.788 2.788 0 002.789 2.786zm-138.023 93.716a.713.713 0 100-1.425.713.713 0 000 1.425zm15.177-78.291a.713.713 0 100-1.425.713.713 0 000 1.425zm110.847 38.044a.714.714 0 100-1.427.714.714 0 000 1.427zm9.924-33.118a.713.713 0 100-1.426.713.713 0 000 1.426zm114.934 105.317a24.48 24.48 0 0110.377-3.565c1.687-.194 3.568-.129 4.865.908.259.194.584.518.519.907-.065.259-.26.454-.454.583-4.216 3.241-10.573 3.63-15.307 1.167zm.259-.259c2.335-1.815 4.67-3.694 6.681-5.898 2.01-2.204 3.567-4.861 4.216-7.712.194-.908.259-1.88-.325-2.593-5.318 4.148-9.534 9.527-10.572 16.203z" fill="#71B219"/><path d="M415.758 198.968c.389-2.916.519-5.898-.129-8.749-.649-2.852-2.206-5.574-4.67-7.259-.908 2.139-.519 4.602.129 6.87.973 3.5 2.595 6.805 4.605 9.721m-5.123 8.815c3.178.389 5.902 2.074 8.302 4.212 2.4 2.139 4.021 5.056 4.735 8.167-3.114-.195-5.773-2.398-7.654-4.861-1.946-2.463-3.243-5.185-5.383-7.518zm-1.168 1.49c2.53-6.286 1.622-13.869-2.335-19.378-1.816 6.416-1.167 13.675 2.335 19.378zm-6.875 8.231c2.854-.194 5.773.519 8.302 1.945 2.53 1.425 4.54 3.629 5.838 6.221.194.324.324.778.064 1.102-.194.259-.583.324-.908.259-2.789-.194-5.253-1.879-7.329-3.759-2.011-1.944-3.762-4.147-5.967-5.768zm.195-.453c1.491-4.732 1.556-9.916.259-14.712-.519-1.88-1.362-3.889-3.113-4.796-.13-.065-.325-.13-.454-.065a.78.78 0 00-.325.324c-.648 1.296-.778 2.787-.713 4.213.065 1.425.389 2.851.648 4.277.584 2.592.844 5.444 2.271 7.648.324.518.648 1.101.908 1.685.259.583.259.777.519 1.231m-18.226 2.917c1.362-5.12-.065-11.407-3.308-15.62-.26-.324-.584-.648-.973-.583-.584.065-.779.843-.714 1.426.195 5.25 1.946 10.434 4.995 14.777zm-1.687 1.101c-6.226 1.621-13.426.065-18.615-3.759 3.113-1.555 6.746-2.009 10.118-1.231 3.308.713 6.422 2.268 8.497 4.99zm-1.362-3.435c-3.502-5.703-10.248-9.462-16.929-9.786.779 2.722 2.984 4.861 5.513 6.092 2.53 1.296 5.319 1.815 8.108 2.398 1.103.195 2.595.454 3.308 1.296zm2.659-16.591c-.972-3.241-1.881-6.546-2.14-9.916-.259-3.37.195-6.87 1.946-9.786 3.243 6.351 3.632 13.739.259 20.026m-11.091-5.898c-3.827-6.934-11.61-12.508-19.523-13.286 3.048 7.583 11.351 13.416 19.523 13.286zm2.4 1.361c-5.708.843-10.573 4.537-15.891 6.741-1.168.453-2.4.842-3.567.712-1.233-.129-2.4-.972-2.725-2.203-.259-.972.26-2.074.973-2.787.714-.713 1.687-1.167 2.595-1.555 5.837-2.398 12.064-2.463 18.161-1.037" fill="#71B219"/><path d="M378.788 201.237c-1.298.388-1.752 1.036-2.789 1.879a29.835 29.835 0 01-12.065 6.222c-.454.129-1.037.129-1.297-.259-.194-.389.065-.778.325-1.102 1.881-2.333 4.475-3.889 7.264-4.926 2.789-1.037 5.189-2.268 8.497-2.009m3.827-23.98c-4.67 4.343-11.156 6.546-17.513 5.963-.259 0-.584-.065-.778-.259-.454-.454.065-1.232.584-1.621 5.124-4.083 11.35-5.703 17.707-4.083z" fill="#71B219"/><path d="M378.139 175.442c-6.162-4.602-14.529-5.963-21.858-3.629 2.724 2.722 6.551 4.147 10.378 4.536 3.891.454 7.718 0 11.48-.907zm1.751-11.083c.519-5.12.195-9.203.519-14.323 0-.389.13-.907.519-1.037.519-.194.973.454 1.168.972 1.556 4.732.713 10.176-2.206 14.259" fill="#71B219"/><path d="M380.215 164.878c-3.503-2.139-6.097-4.991-8.497-8.231-1.686-2.268-3.113-5.055-2.724-7.842 2.335-.065 4.605 1.231 6.162 3.046 1.556 1.815 2.464 4.018 3.113 6.287.713 2.203 1.167 4.536 1.946 6.74zm-8.303-2.268c-7.653-2.852-14.788-7-20.95-12.314 2.53-1.037 5.384-.389 7.849.583 5.707 2.333 10.377 6.222 13.166 11.666m5.903 5.185c-3.892.453-7.784.712-11.611.064-3.761-.648-7.329-2.138-10.831-3.629-.26-.13-.584-.259-.714-.583a.803.803 0 01.26-.908c.259-.259.583-.324.908-.453 3.827-1.102 7.978-.584 11.74.713 3.761 1.296 6.81 2.786 10.248 4.796zm22.052 9.462c2.66-5.315 2.465-11.536.195-16.98-1.621 2.462-1.816 5.573-1.492 8.425.325 2.916 1.168 5.898 1.233 8.814m10.637-5.509c6.551-.129 13.166 2.657 17.642 7.518-3.308.519-6.681-.324-9.664-1.814-2.984-1.426-5.643-3.5-8.303-5.509m7.394-2.593c3.244-.259 6.292-.648 9.405.26 3.114.972 5.903 3.11 7.2 6.092-2.984.324-6.097-.389-8.821-1.685-2.789-1.232-5.319-2.917-7.784-4.667zm-10.507.13c2.919-1.88 5.902-3.824 9.275-4.602 3.373-.777 7.264-.194 9.664 2.333-2.724 1.621-6.032 1.815-9.21 1.815-3.178 0-7.07-.065-10.053 1.037" fill="#71B219"/><path d="M407.067 169.803c4.929-4.86 6.81-13.61 4.865-20.22-3.892 5.897-5.643 13.221-4.865 20.22zm-13.621-13.739c-.908-2.139-1.621-4.472-2.4-6.676-.778-2.203-1.881-4.407-3.437-6.157-1.557-1.75-3.762-3.046-6.162-3.176 1.492 6.676 5.902 12.638 11.934 16.009m2.53 2.851c1.557-2.138 3.308-4.99 5.448-6.61 2.076-1.556 4.8-2.528 7.395-1.945-2.66 4.667-7.524 7.907-12.843 8.555zm-.519-2.722c1.038-2.592 2.011-5.185 2.465-7.907.389-2.722.129-5.638-1.233-8.036-2.724 5.12-3.567 10.629-1.362 16.008m-1.816-16.008c-1.556-5.12-6.226-8.814-11.221-10.564-.648-.195-1.297-.389-1.945-.324-.649.065-1.298.583-1.427 1.231-.195.843.518 1.62 1.232 2.204 3.827 3.435 8.432 5.962 13.361 7.453zm-.064-4.148c-.195-3.305-.39-6.611-1.492-9.722-1.038-3.11-3.114-6.027-6.097-7.388-.519 3.305.973 6.611 2.724 9.462 1.751 2.852 3.892 5.574 4.929 8.75m0 1.166c1.298-3.694 1.427-8.425 3.633-11.666 1.556-2.268 4.021-3.823 5.383-6.221.908 2.203.649 4.796-.324 6.999-.908 2.204-2.465 4.148-4.087 5.898-1.686 1.815-3.048 3.111-4.605 4.99z" fill="#71B219"/><path d="M393.446 247.641c.13 0 .195-24.758.195-55.283 0-30.526-.065-55.284-.195-55.284-.129 0-.194 24.758-.194 55.284 0 30.525.065 55.283.194 55.283z" fill="#71B219"/><path d="M371.783 173.498s.324.129.908.324c.648.194 1.556.518 2.594.842 2.141.713 5.124 1.815 8.367 3.111 3.178 1.361 6.227 2.463 7.913 3.954a6.724 6.724 0 011.622 2.074c.259.583.259.907.324.907v-.259c0-.195-.065-.389-.194-.713-.195-.584-.714-1.426-1.557-2.269-.843-.777-2.076-1.49-3.438-2.138-1.362-.648-2.919-1.297-4.54-1.945a135.652 135.652 0 00-8.432-3.046c-1.103-.324-2.011-.583-2.594-.778-.649 0-.973-.064-.973-.064z" fill="#71B219"/><path d="M364.713 156.064s.065.129.259.259l.779.778c.713.648 1.751 1.555 2.983 2.722 2.53 2.268 6.032 5.379 9.859 8.814 3.827 3.435 7.2 6.675 9.47 9.203a57.698 57.698 0 012.659 2.981c.26.324.519.584.714.843l.259.259s-.065-.13-.195-.324c-.129-.194-.389-.518-.648-.842a89.394 89.394 0 00-2.595-3.047c-2.27-2.527-5.578-5.833-9.469-9.267-3.892-3.435-7.394-6.482-9.924-8.685-1.232-1.102-2.27-1.944-3.048-2.593-.325-.259-.649-.518-.844-.712-.194-.324-.259-.389-.259-.389z" fill="#71B219"/><path d="M382.744 172.072c.13-.065-.713-1.88-1.491-4.278-.779-2.333-1.168-4.342-1.298-4.342-.065 0 .13 2.074.973 4.407.389 1.167.843 2.204 1.168 2.981.389.778.584 1.232.648 1.232zm10.637 14.971s.26-.259.584-.713c.389-.518.908-1.166 1.492-1.944 1.297-1.62 3.048-3.954 4.994-6.416 2.011-2.463 3.827-4.732 5.124-6.352a50.572 50.572 0 001.557-1.944c.389-.454.584-.713.519-.713 0 0-.26.194-.649.648s-.973 1.037-1.621 1.88c-1.362 1.555-3.243 3.823-5.189 6.286a200.862 200.862 0 00-4.93 6.481c-.583.843-1.102 1.556-1.427 2.009a5.493 5.493 0 01-.454.778z" fill="#71B219"/><path d="M398.181 180.951c.065.065 1.297-1.426 2.011-3.694.519-1.621.519-3.046.454-3.759h-.13c.065.259.13.453.13.453v-.453h-.13c-.065.648-.13 2.074-.648 3.629-.714 2.204-1.817 3.759-1.687 3.824zm6.097-7.713c.065.065.454-.453 1.362-.777.908-.389 2.335-.454 3.827-.324 1.557.129 2.919.388 3.892.648.973.259 1.556.453 1.621.389 0-.065-.584-.324-1.556-.649a14.385 14.385 0 00-3.892-.712c-1.557-.13-3.049 0-3.957.453-.973.389-1.362.972-1.297.972zm1.427-1.879c0 .065.778-.324 2.14-.778 1.298-.453 3.179-.907 5.319-1.102 2.141-.129 4.021 0 5.384.26 1.362.259 2.205.518 2.205.453 0 0-.195-.129-.584-.259-.389-.13-.908-.324-1.621-.454-1.363-.324-3.308-.518-5.514-.388-2.14.194-4.086.712-5.383 1.231-.649.259-1.168.518-1.492.713-.259.194-.454.324-.454.324zm-10.703-13.216c.757-2.984 1.287-5.424 1.183-5.45-.104-.027-.803 2.371-1.56 5.355-.757 2.983-1.287 5.424-1.182 5.45.104.026.802-2.371 1.559-5.355z" fill="#71B219"/><path d="M393.381 163.517c.13.065.584-1.556 1.752-3.241 1.102-1.685 2.594-2.527 2.529-2.592 0-.065-.389.13-.973.518-.583.389-1.232 1.037-1.816 1.88-1.297 1.685-1.621 3.435-1.492 3.435zm.065 70.903c.065 0 .13-.584.389-1.621.26-1.037.779-2.527 1.687-4.277 1.686-3.5 4.799-7.907 8.756-12.379 1.946-2.268 3.892-4.342 5.448-6.351a44.621 44.621 0 003.892-5.639c.973-1.685 1.621-3.176 1.946-4.213.194-.518.324-.907.389-1.166.065-.259.13-.454.13-.454s-.195.583-.649 1.556c-.389 1.036-1.103 2.462-2.075 4.083-.973 1.685-2.335 3.564-3.957 5.573-1.622 2.009-3.502 4.083-5.513 6.352-3.957 4.472-7.07 8.944-8.756 12.508a22.483 22.483 0 00-1.557 4.342c-.13.519-.195.973-.195 1.232.065.324.065.454.065.454z" fill="#71B219"/><path d="M373.858 212.384s.39.194 1.038.583c.649.389 1.622.908 2.659 1.75 1.038.843 2.271 1.88 3.503 3.176 1.232 1.296 2.465 2.787 3.762 4.407 2.594 3.24 4.994 6.092 6.421 8.36.714 1.102 1.297 2.074 1.622 2.787.324.648.519 1.037.583 1.037 0 0 0-.129-.064-.259-.065-.194-.195-.454-.325-.778-.324-.713-.843-1.685-1.556-2.851-1.427-2.334-3.762-5.25-6.357-8.426a69.131 69.131 0 00-3.827-4.407 30.038 30.038 0 00-3.567-3.176c-1.103-.777-2.076-1.361-2.724-1.685-.324-.194-.649-.259-.778-.324-.26-.194-.39-.259-.39-.194z" fill="#71B219"/><path d="M373.469 219.513c0 .065.843.13 2.141.324 1.362.195 3.178.389 5.124 1.037a16.728 16.728 0 014.605 2.398c1.038.843 1.556 1.491 1.621 1.426 0 0-.065-.194-.324-.518a8.446 8.446 0 00-1.103-1.167c-1.037-.907-2.659-1.88-4.67-2.528-2.01-.648-3.891-.842-5.253-.907-1.298-.13-2.141-.13-2.141-.065z" fill="#71B219"/><path d="M386.377 223.92c.129-.065-.844-1.555-1.622-3.564-.713-2.009-.908-3.824-.973-3.759-.065 0-.065.453.065 1.166.065.713.259 1.685.649 2.722.389 1.037.843 1.88 1.232 2.528.324.583.584.907.649.907zm-18.81-30.785s.13.065.324.195c.26.129.584.259 1.038.453.454.195.973.454 1.621.778.584.324 1.298.648 2.076 1.102.389.194.778.454 1.168.648.389.259.843.518 1.232.778.843.518 1.751 1.166 2.659 1.814a47.469 47.469 0 015.578 4.926c1.816 1.879 3.373 3.889 4.735 5.768.649.972 1.232 1.815 1.751 2.722.26.454.519.843.714 1.296.194.389.454.843.648 1.232.39.778.714 1.49 1.038 2.074.324.648.519 1.166.714 1.62.194.389.324.778.454 1.037.129.259.129.324.194.324 0 0 0-.13-.129-.389a5.335 5.335 0 00-.39-1.037c-.129-.454-.389-1.037-.648-1.62a28.87 28.87 0 00-.973-2.139 22.54 22.54 0 01-.584-1.231c-.194-.454-.454-.843-.713-1.296a47.508 47.508 0 00-1.752-2.787c-1.297-1.88-2.918-3.889-4.734-5.833-1.881-1.88-3.827-3.565-5.643-4.926-.973-.648-1.816-1.296-2.725-1.815-.454-.259-.843-.518-1.297-.777-.389-.26-.843-.454-1.232-.648a20.327 20.327 0 00-2.076-1.037c-.648-.324-1.167-.519-1.621-.713-.454-.195-.779-.324-1.038-.389-.259-.13-.389-.13-.389-.13z" fill="#71B219"/><path d="M383.004 203.505s-.13-.583-.844-1.296c-.713-.648-1.945-1.297-3.437-1.297-1.492-.064-2.724.389-3.632.713-.844.324-1.362.649-1.362.649 0 .064.583-.13 1.426-.454.909-.259 2.141-.648 3.503-.583 1.362.064 2.594.583 3.308 1.166.713.583.973 1.102 1.038 1.102zm2.335 2.398c.13-.065-.779-1.361-.973-3.176-.26-1.814.324-3.305.194-3.305-.064 0-.259.324-.389.907-.194.584-.259 1.491-.194 2.398.129.972.454 1.75.713 2.333.324.584.584.843.649.843z" fill="#71B219"/><path d="M410.505 237.984c-.519 9.462-3.373 19.054-7.784 28.776h-19.069c-4.216-9.657-6.81-19.249-7.329-28.776h34.182z" fill="#263238"/><path d="M393.511 253.474c7.738 0 14.01-.087 14.01-.195 0-.107-6.272-.194-14.01-.194-7.737 0-14.01.087-14.01.194 0 .108 6.273.195 14.01.195zm-.454 3.435c7.272 0 13.167-.087 13.167-.195 0-.107-5.895-.194-13.167-.194s-13.167.087-13.167.194c0 .108 5.895.195 13.167.195zm9.405-3.954c.107 0 .194-1.973.194-4.407s-.087-4.407-.194-4.407c-.108 0-.195 1.973-.195 4.407s.087 4.407.195 4.407z" fill="#FAFAFA"/><path d="M392.214 253.279c.107 0 .194-2.031.194-4.536 0-2.506-.087-4.537-.194-4.537-.108 0-.195 2.031-.195 4.537 0 2.505.087 4.536.195 4.536zm-9.599.13c.107 0 .194-2.089.194-4.666 0-2.578-.087-4.667-.194-4.667-.108 0-.195 2.089-.195 4.667 0 2.577.087 4.666.195 4.666z" fill="#FAFAFA"/><path d="M393.446 244.4c9.099 0 16.475-.087 16.475-.194 0-.107-7.376-.195-16.475-.195-9.098 0-16.474.088-16.474.195 0 .107 7.376.194 16.474.194z" fill="#FAFAFA"/><path d="M47.997 245.632l-3.113 15.749-5.967 11.795c-.455.843-.065 1.88.843 2.269.519.194 1.038.194 1.492-.13 2.918-1.75 13.555-8.361 13.685-9.527.195-1.361 4.346-16.397 4.346-16.397l-11.286-3.759z" fill="#71B219"/><path d="M39.76 275.445l15.372-10.694-.13.648c-.13.583-.454 1.102-.908 1.426-1.232.972-4.8 3.5-12.842 8.49-.455.324-1.038.324-1.492.13z" fill="#263238"/><path d="M53.056 260.084c-.454.195-.713.778-.519 1.232.195.453.714.713 1.168.518.454-.194.778-.842.584-1.296-.195-.454-.909-.713-1.298-.454" fill="#EBEBEB"/><path d="M44.819 269.352c-.13 0-.26-.907-1.103-1.49-.843-.648-1.75-.648-1.75-.713 0-.065.194-.13.583-.065.389 0 .908.194 1.362.583.454.389.713.843.843 1.167.13.259.13.518.065.518zm-1.557 1.88c-.065.065-.454-.583-1.232-.972-.778-.454-1.492-.454-1.492-.519s.778-.259 1.687.195c.778.453 1.102 1.231 1.037 1.296zm4.216-4.148c-.065.065-.713-.907-1.816-1.62-1.103-.778-2.205-.972-2.205-1.037 0-.065 1.232-.065 2.4.778 1.232.777 1.75 1.879 1.621 1.879zm1.362-4.666c-.065.065-.843-.454-1.946-.778-1.102-.324-2.075-.194-2.075-.324 0-.065.973-.324 2.205 0 1.103.324 1.881 1.037 1.816 1.102zm1.038-4.602c-.065.065-.843-.648-2.01-.842-1.168-.26-2.141.194-2.206.064 0-.064.195-.194.584-.324.389-.129 1.038-.194 1.686-.064.649.129 1.168.388 1.492.648.324.259.454.453.454.518zm-1.816-1.75s0-.194.13-.583c.13-.389.324-.907.843-1.426.26-.259.519-.583.973-.713a.652.652 0 01.713.324c.13.259.13.519.065.778-.26.972-1.297 1.75-2.465 1.685a2.649 2.649 0 01-2.27-1.944c-.065-.259-.065-.519.13-.778s.519-.259.713-.194c.455.194.714.518.909.777.454.584.648 1.102.778 1.426.13.389.13.583.13.583-.065 0-.26-.842-1.103-1.879-.26-.259-.454-.519-.843-.648a.312.312 0 00-.39.129c-.064.13-.13.325-.064.519.194.778 1.038 1.555 2.01 1.685.973.065 1.881-.583 2.076-1.361.065-.194.065-.389-.065-.519-.065-.129-.194-.194-.39-.194-.323.065-.583.324-.842.583-.843.908-.973 1.815-1.038 1.75z" fill="#263238"/><path d="M100.599 246.863l2.595 15.814 5.708 11.925c.389.843 0 1.88-.908 2.268a1.718 1.718 0 01-1.492-.129c-2.854-1.88-13.297-8.75-13.426-9.916-.13-1.361-3.892-16.527-3.892-16.527l11.415-3.435z" fill="#71B219"/><path d="M107.993 276.87l-15.112-11.082.13.648c.13.583.389 1.102.908 1.491 1.232.972 4.67 3.629 12.583 8.814.454.259 1.037.324 1.491.129z" fill="#263238"/><path d="M95.151 261.186c.454.195.714.778.519 1.232-.195.453-.778.713-1.232.518-.454-.194-.779-.842-.52-1.296.26-.454.909-.713 1.298-.389" fill="#EBEBEB"/><path d="M103.129 270.649c.13 0 .324-.843 1.168-1.491.843-.648 1.751-.583 1.751-.713 0-.065-.195-.13-.584-.13-.389 0-.908.195-1.362.519-.454.324-.778.842-.908 1.166-.13.389-.13.649-.065.649zm1.492 1.879c.065.065.519-.583 1.297-.972.778-.389 1.492-.389 1.492-.518 0-.065-.778-.26-1.687.194-.843.518-1.167 1.296-1.102 1.296zm-4.087-4.213c.065.065.714-.907 1.881-1.555 1.168-.713 2.27-.907 2.27-.972 0-.065-1.232-.065-2.399.713-1.362.713-1.881 1.814-1.752 1.814zm-1.232-4.731c.065.065.843-.453 2.011-.713 1.102-.259 2.075-.129 2.075-.259 0-.065-.973-.389-2.205-.065-1.167.26-1.946.973-1.88 1.037zm-.908-4.601c.065.065.843-.584 2.076-.778 1.232-.194 2.14.259 2.205.13 0-.065-.195-.195-.584-.324-.389-.13-.973-.26-1.621-.13a4.342 4.342 0 00-1.557.648c-.39.194-.519.389-.519.454zm1.881-1.685s0-.195-.065-.584a4.72 4.72 0 00-.778-1.49c-.195-.259-.454-.584-.973-.713-.26-.065-.584.065-.714.259-.13.259-.13.519-.13.778.195.972 1.233 1.815 2.401 1.75a2.586 2.586 0 002.335-1.88c.064-.259.064-.518-.13-.778-.195-.259-.519-.324-.714-.194-.454.13-.713.454-.908.713a4.26 4.26 0 00-.843 1.426c-.13.389-.13.583-.13.583.065 0 .26-.842 1.168-1.879.259-.26.519-.519.843-.649.13-.064.324 0 .389.13s.065.324.065.519c-.259.777-1.103 1.555-2.075 1.62-.973.065-1.881-.648-2.076-1.426-.065-.194 0-.389.065-.518a.312.312 0 01.39-.13c.323.065.583.389.842.583.843 1.037.973 1.945 1.038 1.88z" fill="#263238"/><path d="M49.554 142.454c-1.492-2.204-7.524 118.862-7.135 119.51l16.02.259 8.692-64.681 4.735-49.45 7.654 46.469 9.34 68.116 17.512.259L95.54 139.472 72.904 126.51l-23.35 15.944z" fill="#263238"/><path d="M64.796 61.116s-4.93.843-6.746 2.463c-1.88 1.62-3.761 5.38-3.761 5.38l-9.34 6.35 8.237 32.665-6.875 45.173 1.362 3.889 51.434-.843.973-3.564-5.318-41.09 2.335-27.545 2.14-11.082-9.34-4.148s4.28-1.296 4.475-2.074c.195-.713-9.599-5.768-9.599-5.768s-15.502-2.593-19.977.194z" fill="#71B219"/><path opacity=".3" d="M49.23 131.954c5.772 7.518 13.75 13.027 21.533 18.471 1.622 1.167 3.373 2.333 5.319 2.722 2.789.584 5.902-.713 7.459-3.111 1.102-1.75 1.492-3.888 2.853-5.444.909-1.037 2.141-1.75 3.114-2.722.843-.842 1.427-1.944 2.01-2.981 1.038-1.944 2.141-3.824 3.179-5.768-3.892 0-7.46 1.879-10.962 3.564s-7.394 3.176-11.156 2.334c-5.254-1.167-8.561-6.546-13.62-8.426-3.179-1.166-6.876-.842-9.73.908" fill="#000"/><path d="M44.949 75.31s-1.946 2.463-2.335 7.583c-.39 5.12-3.762 32.081-2.595 35.969 1.103 3.889 15.502 20.027 20.302 19.638l1.816-.648 1.686 1.296 7.654-5.768-16.93-21.258.909-30.59c0 .064-5.189-7.389-10.508-6.222z" fill="#71B219"/><path d="M58.05 63.644s-.13.13-.389.324c-.26.26-.648.648-1.038 1.231a37.429 37.429 0 00-1.362 2.204 155.71 155.71 0 01-1.88 2.981l-.13-.13c.908-.388 2.075-.388 3.178 0 1.103.325 2.14.973 3.178 1.75 2.076 1.556 3.892 3.695 5.708 6.157 3.632 4.926 7.135 11.018 10.507 17.758v.13c-.065 2.657-.13 5.444-.26 8.296-.388 14.453-.777 27.544-1.037 37.007-.13 4.731-.26 8.555-.324 11.212-.065 1.296-.065 2.333-.13 3.046 0 .324 0 .583-.065.778v-.778c0-.713 0-1.75.065-3.046.065-2.657.13-6.481.26-11.212.259-9.463.518-22.554.972-37.072.065-2.852.195-5.638.26-8.296v.065c-3.373-6.74-6.875-12.832-10.443-17.758-1.816-2.463-3.632-4.602-5.643-6.157-1.037-.778-2.075-1.36-3.113-1.75-1.038-.324-2.14-.324-3.048 0l-.26.065.13-.26c.713-1.101 1.362-2.073 1.88-2.916.52-.842.974-1.62 1.363-2.203.39-.583.778-.972 1.103-1.167.324-.194.518-.26.518-.26zm34.571 3.889c0 .064-.973.324-2.53.972-1.556.648-3.696 1.62-5.707 3.175-2.01 1.556-3.632 3.241-4.735 4.472-.519.584-.973 1.037-1.362 1.491l-.519.519s.13-.26.454-.584c.26-.389.714-.907 1.297-1.555 1.103-1.296 2.66-3.046 4.735-4.602 2.076-1.555 4.216-2.527 5.838-3.11a45.76 45.76 0 011.88-.584c.39-.194.65-.194.65-.194z" fill="#263238"/><path d="M75.822 96.05s0-.325.065-.973c.065-.583.195-1.49.39-2.592.388-2.204 1.102-5.185 2.075-8.426.973-3.24 2.01-6.157 2.854-8.166a28.473 28.473 0 011.167-2.398c.325-.518.52-.842.52-.842s-.13.324-.39.907-.649 1.361-1.038 2.398c-.843 2.074-1.816 4.925-2.789 8.166a107.132 107.132 0 00-2.14 8.36c-.26 1.102-.39 1.945-.52 2.593-.064.583-.129.972-.194.972zm4.598-23.78c1.54-3.191 2.71-5.817 2.613-5.864-.097-.046-1.423 2.504-2.963 5.696-1.54 3.192-2.71 5.817-2.613 5.864.097.047 1.424-2.503 2.963-5.695z" fill="#263238"/><path d="M79.065 90.087l.13-.325c.13.13.39.195.584.195.26 0 .39-.065.39-.194 0-.325-1.104-.13-1.039-.843 0-.324.26-.583.779-.583.26 0 .454.064.648.194l-.13.324c-.194-.13-.324-.13-.518-.13-.26 0-.325.065-.325.195 0 .324 1.103.13 1.038.778 0 .324-.26.583-.778.583-.325 0-.649-.065-.779-.195zm3.243-.13v.324h-1.426v-1.88h1.426v.325h-.972v.388h.843v.325h-.843v.453l.972.065zm.26-.583c0-.584.454-.972 1.038-.972.324 0 .583.13.778.323l-.26.26a.589.589 0 00-.453-.195.581.581 0 00-.584.584c0 .324.26.583.584.583a.589.589 0 00.453-.194l.26.259a1.074 1.074 0 01-.778.324c-.649 0-1.038-.39-1.038-.972zm3.438.453c0-.064-.065-.194-.065-.259s-.065-.13-.065-.194v.194c0 .324-.13.519-.39.519-.259 0-.388-.13-.388-.519v-1.037h-.454v1.037c0 .519.324.843.843.843.324 0 .519-.13.713-.324-.13-.065-.194-.195-.194-.26z" fill="#fff"/><path d="M86.07 88.92v.713c0 .065.065.065.065.13 0 .064.065.13.065.259.065.194.065.389.065.583a.99.99 0 00.26-.648V88.92h-.455zm2.011 1.944l-.324-.518h-.39v.518h-.453v-1.88h.778c.519 0 .778.26.778.714 0 .259-.13.454-.389.583l.39.583h-.39zm-.39-1.555h-.323v.648h.324c.26 0 .39-.13.39-.324s-.13-.324-.39-.324zm1.169-.324h.453v1.88h-.454v-1.88zm1.296.389h-.583v-.324h1.621v.324h-.584v1.49h-.454v-1.49z" fill="#fff"/><path d="M92.232 90.216v.648h-.454v-.648l-.713-1.231h.454l.454.842.519-.842h.454l-.714 1.231z" fill="#fff"/><path d="M87.627 95.077s-.13-.194-.26-.519c-.13-.324-.324-.777-.518-1.425a27.976 27.976 0 01-1.103-4.796c-.26-1.945-.26-3.695-.13-4.926a17.5 17.5 0 01.195-1.49c.065-.325.13-.519.13-.519.064 0 0 .778-.065 2.01-.065 1.23 0 2.98.26 4.86.258 1.88.648 3.564.972 4.796.26 1.231.519 2.009.519 2.009z" fill="#263238"/><path opacity=".3" d="M77.12 89.892c-.26 2.333-1.038 3.435-1.038 5.768 0 .519-.779 8.361-.325 8.555.52.195 2.66-5.509 3.114-8.36.324-2.204.973-5.185 1.362-7.389 1.102-6.48 3.502-10.045 6.875-15.684.649-1.102 3.049-4.018 3.049-4.018-.26-.13-1.168.324-1.816.583-1.881.843-5.32 3.565-5.32 3.565s-2.075 3.953-2.723 5.897c-1.362 3.76-2.335 7.648-3.114 11.407M55.715 70.125s-2.075 1.167-2.075 2.074c0 .907.713 1.685 1.492 2.139.778.453 1.75.648 2.594.972 2.01.778 3.697 2.203 5.254 3.759 2.53 2.528 4.735 5.314 6.55 8.36 1.493 2.528 2.92 5.315 5.45 6.805-1.752-3.11-3.503-6.092-5.255-9.138-1.75-3.046-3.697-6.027-5.967-8.75-2.205-2.656-5.902-5.962-8.043-6.221z" fill="#000"/><path d="M48.256 115.687v-.713c.065-.454.195-1.102.649-1.75.454-.648 1.232-1.426 2.335-1.685a4.32 4.32 0 013.567.778l-.26.129c-.129-1.944 0-4.212.39-6.546.324-2.138.714-4.148.973-5.962.26-1.815.324-3.5.39-4.926.064-1.426.064-2.527 0-3.305v-1.232s0 .13.064.325c0 .259.065.518.065.907.065.778.13 1.944.065 3.37 0 1.426-.065 3.11-.325 4.926-.194 1.879-.583 3.888-.908 6.027-.389 2.268-.519 4.472-.389 6.481v.324l-.26-.194c-.972-.843-2.334-1.037-3.307-.778-1.038.259-1.816.907-2.206 1.555-.453.648-.583 1.297-.648 1.685-.195.324-.195.584-.195.584z" fill="#263238"/><path d="M49.878 131.436l.194.194.584.583c.52.454 1.233 1.167 2.27 2.009a36.39 36.39 0 003.762 2.658c.779.453 1.622.907 2.53 1.231.454.195.973.259 1.427.195.519-.065.973-.26 1.362-.584l.13-.129.13.064c.518.389 1.102.843 1.686 1.297h-.195c2.335-1.75 4.93-3.695 7.654-5.768v.259c-.065-.065-.065-.13-.13-.195-2.335-2.851-4.346-5.703-6.291-8.295-1.881-2.528-3.633-4.861-5.124-6.741-1.492-1.879-2.79-3.37-3.698-4.342-.454-.518-.843-.907-1.037-1.102l-.39-.389s.13.13.39.324c.26.26.648.584 1.102 1.102.973.972 2.27 2.463 3.762 4.278 1.557 1.879 3.308 4.148 5.19 6.675 1.945 2.528 4.02 5.379 6.29 8.231.066.065.066.13.13.195l.13.129-.13.13a1222.608 1222.608 0 00-7.653 5.703l-.065.065-.065-.065c-.584-.454-1.167-.907-1.686-1.361h.194c-.454.454-.973.648-1.556.713-.52.065-1.103-.065-1.557-.259-.973-.389-1.751-.843-2.53-1.296-1.556-.973-2.789-1.88-3.762-2.723-.973-.842-1.686-1.555-2.205-2.073-.194-.26-.389-.454-.519-.584-.26 0-.324-.065-.324-.129zM56.04 83.8c-.065 0-.325-.778-.908-1.88a13.221 13.221 0 00-1.233-1.88c-.519-.647-1.167-1.36-1.946-1.943-.778-.648-1.556-1.102-2.27-1.556-.778-.389-1.426-.713-2.075-.907-1.232-.389-2.01-.519-2.01-.584h.583c.39.065.908.13 1.492.325.648.194 1.362.453 2.14.842.779.389 1.557.907 2.335 1.556a13.992 13.992 0 011.946 2.009 18.54 18.54 0 011.232 1.944c.26.583.52 1.102.584 1.426.13.454.13.648.13.648z" fill="#263238"/><path opacity=".3" d="M86.978 93.457c.195.453.973.194 1.038-.195.065-.389-.065-.713-.26-1.037a18.942 18.942 0 01-2.14-7.518c-.13 3.176.195 5.768 1.362 8.75zm-38.981 21.517c-.584-1.815.26-3.954 1.946-4.861.454-.259.908-.389 1.362-.389 1.038.065 1.816 1.037 2.4 1.88-1.168-.324-2.465-.195-3.503.453-1.038.649-1.816 1.685-2.01 2.917" fill="#000"/><path d="M98.653 75.828c.065 0-.324.648-.908 1.685-.519 1.037-1.232 2.463-1.75 4.148a34.436 34.436 0 00-1.039 4.407c-.194 1.167-.194 1.88-.26 1.88-.064 0-.064-.713 0-1.88.13-1.166.39-2.787.909-4.472.584-1.685 1.297-3.175 1.88-4.148.65-1.101 1.103-1.685 1.168-1.62z" fill="#263238"/><path opacity=".3" d="M94.373 92.225c-.325.39-.455 3.37-.455 3.37 0 3.63.26 5.25.26 8.88 0 1.49 0 3.046-.39 4.471-.194.778-.518 1.491-.842 2.204-.39.907-.844 1.88-1.427 2.657-.52.713-1.103 1.296-1.687 1.88-2.854 2.851-5.513 5.962-7.848 9.332l-1.427 2.074 14.14-13.286.713-1.75.065-.194-1.102-19.638z" fill="#000"/><path d="M99.237 72.977s2.205.842 3.373 5.832c1.362 5.769 3.113 15.296 3.373 18.925.259 3.046 3.243 14.129.908 19.054-2.335 4.861-13.491 20.027-17.902 20.481l-1.816-.454-1.946.324-5.448-6.222.454-1.815s-.584-.972 0-1.879c.648-.907 14.464-13.87 14.464-13.87s-.52-.064-.649-.972c-.194-1.555 1.168-1.49 1.168-1.49l-.908-13.61 4.93-24.304z" fill="#71B219"/><path d="M100.08 114.909c-.064.065-1.102-.648-2.53-1.102-1.426-.454-2.723-.454-2.723-.583 0-.065 1.297-.259 2.789.259 1.556.454 2.529 1.361 2.464 1.426zm2.789-2.074c-.065.065-1.427-1.231-3.567-1.75-2.14-.583-3.957-.13-4.022-.259 0-.065.454-.195 1.168-.324a9.54 9.54 0 012.919.194 9.261 9.261 0 012.659 1.296c.584.454.843.843.843.843z" fill="#263238"/><path d="M94.827 113.224s-.26 0-.52-.195a1.781 1.781 0 01-.389-.518 1.581 1.581 0 010-.778c.065-.194.13-.324.195-.454v.065a.981.981 0 01.843-.583c.26 0 .39.065.39.065 0 .065-.13.065-.325.129-.194.065-.519.195-.584.454-.064.13-.13.259-.13.389-.129.454 0 .843.195 1.037.195.259.39.324.325.389z" fill="#263238"/><path d="M94.243 91.577s.065.26.13.778c.064.518.13 1.166.194 2.074.13 1.75.26 4.148.39 6.805.129 2.657.194 4.99.259 6.805.065.843.065 1.491.065 2.074v.778s-.065-.26-.13-.778a39.141 39.141 0 01-.195-2.074c-.13-1.75-.26-4.148-.389-6.805-.13-2.593-.194-4.99-.26-6.805-.064-.843-.064-1.49-.064-2.074-.065-.519-.065-.778 0-.778zm.843 21.582l-.324.324c-.26.259-.584.519-1.038.907-.908.843-2.205 2.01-3.762 3.435a180.818 180.818 0 00-5.578 5.315c-1.038 1.037-2.14 2.074-3.243 3.24-.26.26-.519.584-.714.908-.194.324-.194.713-.13 1.102.066.388.195.777.195 1.296 0 .453-.194.972-.713 1.231l.065-.259c.908 1.037 1.816 2.074 2.789 3.176.908 1.037 1.88 2.138 2.724 3.111l-.13-.065c.649-.13 1.297-.195 1.946-.324.843.129 1.557.518 2.27.389.713-.065 1.362-.454 1.946-.908 1.167-.907 2.14-1.944 3.113-2.916 1.881-1.945 3.373-3.824 4.605-5.38 1.233-1.555 2.206-2.851 2.919-3.694.324-.389.584-.713.778-.972.195-.194.26-.324.26-.324s-.065.13-.26.389c-.194.259-.454.583-.713 1.037a101.43 101.43 0 01-2.854 3.759c-1.232 1.555-2.724 3.435-4.605 5.444-.908.972-1.946 2.009-3.113 2.916-.584.454-1.298.843-2.14.973-.844.129-1.622-.26-2.336-.389h.065c-.648.129-1.297.194-1.946.324h-.065l-.064-.065-2.725-3.111c-.973-1.102-1.88-2.204-2.789-3.176l-.13-.194.195-.065c.325-.13.454-.518.454-.907s-.13-.778-.194-1.232c-.065-.389-.065-.907.13-1.296.194-.389.453-.713.778-1.037a150.787 150.787 0 013.308-3.24c2.075-2.009 4.021-3.759 5.642-5.25 1.622-1.426 2.92-2.592 3.892-3.37.454-.389.779-.648 1.038-.907.324-.13.454-.26.454-.195zm-.37-7.784c.001-.108-8.825-.322-19.713-.478-10.89-.157-19.717-.196-19.719-.089-.002.107 8.824.321 19.713.478 10.889.156 19.717.196 19.719.089zm-10.137 5.321v.26c0 .129-.065.388-.13.712-.13.584-.39 1.491-.778 2.528-.844 2.074-2.53 4.796-5.32 6.805-2.788 2.009-5.901 2.787-8.107 2.917-1.102.064-2.01 0-2.659-.065-.324 0-.519-.065-.713-.13-.13 0-.26-.065-.26-.065 0-.064 1.362.195 3.567 0 2.206-.194 5.254-.972 7.978-2.916 2.725-1.944 4.476-4.602 5.319-6.611.908-2.074 1.038-3.435 1.103-3.435zm-18.875 27.091c-.065.065-.454-.13-.778-.518-.325-.389-.454-.778-.39-.843.065-.065.325.259.65.583.323.389.518.713.518.778zm2.448-1.914c.086-.064-.069-.419-.346-.792-.277-.374-.572-.625-.658-.561-.087.064.068.418.346.792.277.374.572.625.658.561z" fill="#263238"/><path d="M82.503 130.658c.065.065-.324.324-.778.648s-.843.519-.908.454c-.065-.065.26-.454.713-.778.454-.259.908-.389.973-.324zm1.817 1.815c.064.064-.13.518-.65.972-.453.453-.972.648-1.037.583-.065-.065.324-.389.778-.843.52-.388.843-.777.908-.712zm1.75 2.138c.065.065-.194.454-.713.843-.454.389-.973.583-.973.454-.065-.065.324-.389.778-.778.52-.259.844-.583.908-.519zm-25.1-68.958c.064-.065.843 1.88 2.205 4.083 1.297 2.204 2.659 3.824 2.594 3.889-.065 0-.39-.324-.973-.972a23.914 23.914 0 01-1.88-2.723 25.326 25.326 0 01-1.493-2.98c-.389-.779-.519-1.297-.454-1.297zm39.11 87.04h-2.075c-1.427 0-3.373 0-5.773.065-4.864.065-11.61.26-19.069.454s-14.204.389-19.069.389c-2.465 0-4.41 0-5.773-.065-.648 0-1.167-.065-1.556-.065-.39 0-.52 0-.52-.065h2.076c1.427 0 3.373 0 5.773-.064 4.865-.065 11.61-.26 19.07-.454 7.458-.195 14.204-.389 19.068-.389 2.465 0 4.41 0 5.773.065.648 0 1.167.065 1.556.065.325.064.519.064.519.064z" fill="#263238"/><path d="M86.654 66.69c-.065.065-.843-.843-2.14-1.62-1.233-.778-2.4-1.102-2.4-1.167 0-.065 1.232.065 2.53.908 1.362.777 2.075 1.814 2.01 1.879z" fill="#71B219"/><path d="M82.438 138.306c.26.453.843.648 1.362.648.52 0 1.038-.195 1.557-.195.519 0 1.103.13 1.362.584.195.389.195.842-.065 1.166-.194.389-.519.648-.908.843-1.751 1.037-4.086.778-5.578-.519" fill="#FFBF9D"/><path d="M70.569 146.342c1.556 1.491 3.178 2.917 4.994 4.083.39.259.843.519 1.297.454.454-.065.843-.713.519-1.037.454.389 1.232.389 1.751.065.454-.324.714-.972.52-1.556 0-.065 0-.065.064-.065.454.195 1.038.195 1.427-.129.454-.259.713-.843.519-1.361.454.648 1.621.389 2.01-.324.39-.713.13-1.621-.389-2.269-.519-.648-1.167-1.101-1.816-1.62-.648-.518-1.232-1.166-1.362-1.944" fill="#FFBF9D"/><path d="M77.638 150.101c-.064.065-.907-.259-1.686-1.102-.778-.842-1.167-1.685-1.102-1.749.064-.065.583.712 1.297 1.49.778.778 1.491 1.296 1.491 1.361zm2.4-1.491c-.065.065-.778-.324-1.556-1.037-.714-.712-1.168-1.49-1.103-1.555.065-.065.584.583 1.297 1.296.778.713 1.427 1.167 1.362 1.296zm2.141-1.49c-.065.065-.779-.324-1.492-.972-.714-.713-1.103-1.426-1.038-1.426.065-.065.584.518 1.297 1.231.649.584 1.233 1.037 1.233 1.167z" fill="#FF9A6C"/><path d="M66.288 131.695s-.195-.843 1.946-.583c2.14.259 3.113.453 5.448.324 2.4-.13 6.291-.778 6.291-.778l6.227 5.509s-6.356 5.638-8.302 6.611c-1.881.972-5.773 3.499-8.043 3.37-1.686-.065-1.816-.908-1.816-.908s-1.621-1.101-1.427-1.685c0 0-1.946-.129-1.556-1.62 0 0-1.363-.259-1.622-1.037-.195-.778.843-1.75 1.232-2.139.649-.648 6.357-4.796 6.357-4.925 0 0-4.8-.454-4.735-2.139z" fill="#FFBF9D"/><path d="M67.787 140.016c1.475-1.136 2.617-2.126 2.552-2.211-.066-.085-1.315.767-2.79 1.903-1.475 1.137-2.618 2.127-2.553 2.212.066.085 1.315-.767 2.79-1.904zm5.506-1.646c.065 0-.26.454-.779 1.037a17.574 17.574 0 01-2.205 2.074c-.973.713-1.88 1.297-2.53 1.621-.713.324-1.167.518-1.167.453-.065-.065 1.687-.907 3.503-2.398 1.88-1.426 3.113-2.851 3.178-2.787zm2.724 1.945s-.26.518-.843 1.166a12.252 12.252 0 01-2.66 2.204c-1.167.713-2.334 1.102-3.178 1.361-.843.194-1.427.259-1.427.194 0-.129 2.14-.453 4.411-1.814 2.27-1.491 3.632-3.241 3.697-3.111zm7.589-1.815s-.13.194-.454.519c-.325.324-.779.712-1.427 1.166-1.233.972-2.919 2.269-4.994 3.435a69.004 69.004 0 01-2.92 1.556 13 13 0 01-2.594.972c-.778.194-1.427.129-1.88 0-.455-.13-.65-.26-.65-.26 0-.064.909.454 2.466.065.713-.194 1.556-.518 2.464-.972a69.047 69.047 0 002.919-1.555 43.864 43.864 0 004.994-3.37c1.362-.973 2.076-1.621 2.076-1.556z" fill="#FF9A6C"/><path d="M72.19 29.553c-6.227-.583-11.74 4.084-12.194 10.305-.389 5.185-.778 10.824-.778 13.675 0 6.093 6.032 7.13 6.032 7.13s-.195 1.814-.39 4.018a8.003 8.003 0 007.525 8.684c4.41.26 8.237-3.11 8.496-7.518l1.427-24.498c.39-6.027-4.086-11.277-10.118-11.795z" fill="#FFBF9D"/><path d="M65.25 60.533s3.827.389 7.978-2.139c0 0-2.01 4.407-8.108 3.76l.13-1.621z" fill="#FF9A6C"/><path d="M81.79 43.423c.13-.065 4.216-1.167 4.021 2.981-.195 4.148-4.346 3.111-4.346 2.982 0-.13.325-5.963.325-5.963z" fill="#FFBF9D"/><path d="M82.763 47.895a.8.8 0 00.194.13c.13.064.324.13.519.064.454-.13.843-.842.908-1.555 0-.389-.065-.713-.13-1.037-.13-.324-.324-.519-.519-.583-.194-.065-.389.064-.454.194s-.065.195-.065.195-.064-.065-.064-.26c0-.065.064-.194.194-.259s.26-.13.39-.065c.324.065.583.324.713.648s.26.778.194 1.167c-.064.843-.519 1.62-1.167 1.75-.324.065-.519-.065-.649-.13-.064-.194-.064-.26-.064-.26z" fill="#FF9A6C"/><path d="M62.331 43.164c0 .453.325.842.843.907.455.065.908-.324.908-.778 0-.453-.324-.842-.843-.907a.91.91 0 00-.908.778zm-.778-1.102c.13.13.778-.389 1.686-.324.908 0 1.622.518 1.687.389.064-.065-.065-.26-.325-.454a2.41 2.41 0 00-1.362-.454c-.583 0-1.102.195-1.362.39-.324.194-.389.388-.324.453zm10.183 1.361c0 .454.324.843.843.907.454.065.908-.324.908-.777 0-.454-.324-.843-.843-.908-.519 0-.908.324-.908.778zm-1.038-1.102c.13.13.779-.389 1.687-.324.908 0 1.621.519 1.686.389.065-.065-.065-.26-.324-.454a2.41 2.41 0 00-1.362-.453c-.584 0-1.103.194-1.363.389-.259.194-.389.453-.324.453zm-3.502 6.935c0-.065-.584-.13-1.492-.324-.26 0-.454-.065-.519-.26-.065-.194.065-.453.195-.712.26-.584.454-1.167.713-1.815 1.038-2.592 1.751-4.666 1.687-4.731-.13-.065-1.038 2.009-2.011 4.601-.26.648-.454 1.232-.714 1.815-.064.26-.259.583-.13.907.066.195.26.325.39.325.13.064.26.064.39.064.907.13 1.49.13 1.49.13zm2.464-10.305c.13.26 1.038.065 2.141.13 1.103.064 2.01.324 2.14.064.065-.13-.13-.324-.454-.583a4.846 4.846 0 00-1.621-.453c-.649 0-1.233.13-1.622.324-.454.194-.648.388-.583.518zm-8.496-.324c.13.194.778 0 1.556 0 .779 0 1.427.194 1.557-.065.065-.13 0-.324-.324-.518-.26-.195-.779-.39-1.297-.39-.52 0-.973.195-1.298.39-.13.259-.26.453-.194.583z" fill="#263238"/><path d="M82.244 43.229c.065.648 0 1.36-.13 2.009-.13.648-.519 1.231-1.103 1.49-1.037.519-2.335-.324-2.789-1.36-.454-1.102-.324-2.269-.194-3.436.194-1.555.26-3.175 0-4.73-.26-1.556-.973-3.112-2.206-4.084-1.232-1.037-3.048-1.36-4.475-.713-.908.39-1.557 1.167-2.4 1.685-.778.454-1.621.778-2.53.584-.843-.13-2.075-.778-1.88-1.62.324-2.01-1.038-.325-.973-.649.13-.583 1.297-1.555 1.816-1.944.908-.648 1.816-.972 2.789-1.167a14.35 14.35 0 017.913.908c2.465 1.037 4.67 2.916 5.643 5.379 1.167 2.852.973 4.601.584 7.712m-14.832 9.14c.966-.052 1.74-.239 1.731-.417-.01-.18-.8-.282-1.766-.23-.966.052-1.741.239-1.731.417.01.18.8.282 1.766.23z" fill="#263238"/><path d="M82.244 43.617c0 .065-.52-.064-1.297-.259a47.83 47.83 0 01-2.92-1.101 45.526 45.526 0 00-2.918-1.167c-.713-.26-1.232-.454-1.167-.519 0-.064.518.065 1.297.26.778.259 1.816.648 2.918 1.101a45.19 45.19 0 002.92 1.167c.713.324 1.167.454 1.167.519zm-17.318-3.564c.584.065 1.038.454 1.102 1.037.195 1.102 0 2.203-.518 3.24-.65 1.232-1.881 2.204-3.244 2.593-.778.194-1.686.194-2.4-.195-.972-.583-1.297-1.88-1.361-3.046-.065-.842-.065-1.75.389-2.398.584-.907 1.751-1.231 2.789-1.296 1.102-.13 3.243.065 3.243.065z" fill="#263238"/><path d="M69.79 40.183c-.583.064-1.037.453-1.102 1.037-.195 1.101-.065 2.268.454 3.24.648 1.296 1.816 2.268 3.243 2.722.778.26 1.686.26 2.4-.13.972-.583 1.362-1.879 1.427-2.98.064-.843.064-1.75-.325-2.464-.584-.907-1.686-1.296-2.789-1.36-1.102-.195-3.308-.065-3.308-.065z" fill="#263238"/><path d="M70.77 40.324c.002-.107-1.593-.226-3.563-.266-1.97-.039-3.568.016-3.57.124-.002.107 1.593.226 3.563.265 1.97.04 3.568-.016 3.57-.123z" fill="#263238"/><path d="M81.984 67.921v-.453c0-.26.13-.648.39-1.102.259-.454.518-.972.713-1.62.194-.648.26-1.426.26-2.333 0-.908-.13-1.815-.195-2.852 0-.26 0-.584.194-.843.13-.259.454-.518.843-.389.195.065.325.13.39.324.13.13.13.39 0 .584-.26.324-.65.324-.973.194-.584-.26-.973-1.037-.779-1.685.065-.324.26-.648.584-.842a.736.736 0 01.519-.195c.194 0 .39 0 .584.195.13.13.26.388.13.648a.595.595 0 01-.52.324c-.389 0-.778-.13-.972-.454-.26-.26-.39-.648-.325-1.037.065-.389.325-.713.649-.907.26-.195.584-.26.908-.195.195.065.324.13.454.26s.195.324.13.518-.26.324-.39.389c-.194.065-.324.065-.454.065a2.01 2.01 0 01-.843-.39c-.454-.388-.778-1.036-.519-1.62.195-.518.779-.972 1.427-.842.26.065.584.26.649.648a.588.588 0 01-.195.454c-.13.13-.259.194-.389.194-.324 0-.584-.13-.778-.259-.195-.13-.39-.324-.454-.583-.26-.454-.13-1.102.324-1.361.454-.324 1.103-.065 1.233.453v.065l-.065.065c-.649.324-1.362 0-1.557-.583-.13-.26-.065-.584.065-.843.13-.26.324-.389.584-.518.26-.13.519-.13.713 0 .195.064.454.324.39.583 0 .13-.13.26-.26.26-.13.064-.26 0-.325 0-.194-.066-.324-.325-.324-.455-.13-.648-.065-1.166 0-1.555.065-.324.13-.518.13-.518.065 0-.195.777.065 2.009.065.13.13.259.26.324.129.065.324 0 .324-.13.064-.324-.454-.518-.844-.324-.389.13-.713.648-.519 1.037.13.389.779.713 1.233.454l-.065.13c-.065-.325-.519-.52-.778-.26-.325.195-.39.648-.195 1.037.195.324.584.713.973.713.195 0 .324-.13.324-.324 0-.13-.194-.324-.389-.324-.389-.13-.843.194-1.038.648-.13.389.065.907.454 1.231.195.13.454.26.649.26.195.064.454-.065.519-.195s-.13-.324-.324-.389c-.195-.065-.454 0-.65.13a.797.797 0 00-.453.713c-.065.26.065.583.26.778.194.194.453.324.713.324.26 0 .324-.195.194-.39-.13-.129-.454-.129-.648.066-.195.13-.39.389-.454.648-.13.518.13 1.102.584 1.296.194.065.518.065.583-.065.13-.13 0-.389-.26-.454-.194-.064-.388.065-.518.26a1.25 1.25 0 00-.195.648c.065 1.037.13 2.009.13 2.916 0 .908-.13 1.685-.324 2.398-.195.713-.52 1.232-.778 1.62a3.35 3.35 0 00-.455 1.037c-.324.26-.324.39-.324.39z" fill="#F0F1F2"/><path d="M84.384 48.025c-.065-.325-.13-.648-.26-.908-.194-.259-.454-.453-.778-.518s-.713.194-.843.518.065.713.324.908l.065.064c.13.065.26.065.39.13.194.13.324.454.259.713 0 .26-.065.518-.065.778 0 .194.13.389.324.389.195 0 .26-.13.325-.324.324-.454.324-1.102.259-1.75z" fill="#F0F1F2"/><path d="M65.185 61.57s-1.297 1.88-1.427 3.176c-.065.842.454 4.018.843 6.092.195 1.166.714 2.333 1.362 3.305l.844 1.232c1.232 1.814 2.27 3.694 3.048 5.703 1.622 4.148 4.41 11.147 4.475 11.471.13.454 1.233 2.463 1.233 2.463l1.492-17.499 4.41-8.75c.39-.777.584-1.62.649-2.462l.13-2.787c.064-1.037-.325-2.009-1.038-2.787l-.195 2.528-7.33 6.61-8.496-5.703V61.57z" fill="#fff"/><path d="M73.293 69.995c.065.065-.843.324-1.557 1.426-.713 1.102-1.297 2.852-1.751 4.86-.065.195-.13.39-.13.584l-.065.26-.194-.195c-1.492-1.231-2.595-2.528-3.438-3.435s-1.297-1.49-1.297-1.49.584.453 1.427 1.36c.843.843 2.01 2.14 3.502 3.306l-.26.064c.066-.194.066-.388.13-.583.455-2.009 1.103-3.759 1.882-4.86a3.563 3.563 0 011.167-1.102l.584-.195zm5.253 4.732c.065.064-.648 1.101-1.621 2.657l-.26.389v-.519c0-.713-.194-1.49-.454-2.398-.389-1.49-.778-2.852-1.297-3.694-.519-.843-1.102-1.167-1.038-1.232l.39.195c.26.194.519.454.843.907.648.843 1.038 2.204 1.427 3.695.26.842.454 1.685.454 2.462l-.26-.064c.973-1.426 1.752-2.463 1.816-2.398zm-3.39 19.091c.107-.007-.148-5.311-.57-11.848-.42-6.536-.85-11.83-.957-11.823-.107.007.148 5.312.57 11.848.421 6.537.85 11.83.957 11.823z" fill="#263238"/><path d="M58.829 43.617c-.065.065-.39-.648-.065-1.49.26-.843.908-1.232.973-1.167.065.065-.39.519-.649 1.296-.26.713-.194 1.361-.26 1.361zm10.701.389c-.064.065-.518-.518-.518-1.296 0-.842.454-1.36.519-1.296.065.065-.13.583-.13 1.296-.065.713.195 1.231.13 1.296z" fill="#F0F1F2"/><path d="M198 137.605v-11.211h2.784l3.086 4.743 3.086-4.739h2.789v11.211h-2.57v-7.32l-3.305 4.787h-.067l-3.27-4.739v7.268H198zm36.512.455h-2.582v-1.222c-1.779 0-3.193-.467-4.244-1.401-1.05-.934-1.575-2.126-1.576-3.576 0-1.43.525-2.599 1.576-3.507 1.051-.907 2.466-1.36 4.244-1.359v-1.028h2.582v1.025c1.766 0 3.178.456 4.235 1.368 1.058.911 1.586 2.083 1.585 3.515 0 1.44-.525 2.627-1.576 3.561-1.051.933-2.466 1.401-4.244 1.402v1.222zm-2.582-3.416v-5.459c-.951 0-1.717.248-2.298.744s-.872 1.156-.873 1.979c0 .831.291 1.496.873 1.992.582.497 1.348.745 2.298.744zm2.582-5.459v5.459c.951 0 1.714-.248 2.29-.745.575-.497.863-1.161.863-1.993 0-.822-.288-1.481-.863-1.978-.576-.497-1.339-.744-2.29-.743zm10.667 8.42v-8.933h-3.573v-2.274h9.729v2.274h-3.573v8.933h-2.583zm-22.308-9.718a6.087 6.087 0 00-3.92-1.663v2.294a3.324 3.324 0 011.986.986 3.435 3.435 0 011.007 2.498 3.456 3.456 0 01-.989 2.506 3.276 3.276 0 01-1.998.983v2.287a6.127 6.127 0 003.895-1.67c1.168-1.072 1.815-2.559 1.786-4.106.034-1.546-.606-3.036-1.767-4.115zm-4.999 8.799a7.19 7.19 0 01-1.426-2.464c.473-.058.949-.089 1.426-.091v-.701c-.541.002-1.082.038-1.618.108a6.983 6.983 0 010-3.065c.536.074 1.077.114 1.619.121v-.719a11.938 11.938 0 01-1.427-.091 7.193 7.193 0 011.427-2.464v-.949c-3.258.047-5.86 2.608-5.81 5.718.049 3.044 2.622 5.5 5.81 5.547l-.001-.95zm-.804-9.537a7.787 7.787 0 00-1.358 2.527 11.467 11.467 0 01-1.958-.558 5.204 5.204 0 013.316-1.969zm-4.303 4.853c0-.792.202-1.573.589-2.275.701.279 1.428.492 2.172.637a7.668 7.668 0 000 3.283c-.744.144-1.472.356-2.174.633a4.727 4.727 0 01-.591-2.277h.004v-.001zm.987 2.893c.633-.243 1.289-.43 1.959-.558a7.864 7.864 0 001.357 2.521 5.206 5.206 0 01-3.316-1.963z" fill="#fff"/><path d="M218.332 125.531h-.92v12.961h.92v-12.961z" fill="#fff"/></g><defs><clipPath id="clip0"><path fill="#fff" d="M0 0h443v277H0z"/></clipPath></defs></svg>