<?xml version="1.0" encoding="utf-8"?><svg viewBox="0 0 30 30" xmlns="http://www.w3.org/2000/svg" xmlns:xlink="http://www.w3.org/1999/xlink"><style>:root>svg{display:none}:root>svg:target{display:block}</style><svg viewBox="0 0 15 13" id="arrow_right" xmlns="http://www.w3.org/2000/svg"><path d="M14.76 7.083L9.343 12.5a.815.815 0 01-.58.24.815.815 0 01-.58-.24l-.493-.492a.831.831 0 010-1.168l3.16-3.167H.81A.801.801 0 010 6.866v-.695c0-.453.358-.843.81-.843h10.076L7.69 2.143a.809.809 0 010-1.153L8.182.5a.814.814 0 01.58-.24c.22 0 .427.086.581.24l5.417 5.418c.155.155.24.362.24.582 0 .221-.085.428-.24.583z"/></svg><svg viewBox="0 0 27 27" id="clock" xmlns="http://www.w3.org/2000/svg"><path d="M20.663 2.577l2.864 2.388a1.052 1.052 0 001.485-.134 1.055 1.055 0 00-.134-1.486L22.014.957a1.055 1.055 0 10-1.35 1.62zM2.798 5.21c.238 0 .478-.08.675-.245l2.864-2.388A1.055 1.055 0 104.986.957L2.122 3.345a1.055 1.055 0 00.676 1.865zM22.3 5.755c-2.1-2.1-4.819-3.357-7.745-3.601v-1.1a1.055 1.055 0 10-2.11 0v1.1a12.351 12.351 0 00-7.745 3.6 12.364 12.364 0 00-3.645 8.8c0 3.325 1.294 6.45 3.645 8.8A12.363 12.363 0 0013.5 27c2.677 0 5.227-.837 7.376-2.42a1.055 1.055 0 10-1.252-1.698A10.252 10.252 0 0113.5 24.89c-5.7 0-10.336-4.637-10.336-10.336 0-5.7 4.637-10.336 10.336-10.336 5.7 0 10.336 4.636 10.336 10.336 0 1.74-.44 3.461-1.274 4.976a1.055 1.055 0 001.848 1.017 12.46 12.46 0 001.535-5.993c0-3.325-1.294-6.45-3.645-8.8z"/><path d="M18.638 8.206a1.055 1.055 0 00-1.483.156l-3.326 4.11a2.112 2.112 0 00-2.439 2.084c0 1.162.947 2.108 2.11 2.108a2.112 2.112 0 001.969-2.865l3.325-4.11a1.055 1.055 0 00-.156-1.483z"/></svg><svg viewBox="0 0 9 18" id="facebook" xmlns="http://www.w3.org/2000/svg"><path d="M7.207 3.398h1.556V.799A20.963 20.963 0 006.495.684c-2.244 0-3.781 1.353-3.781 3.84v2.288H.237v2.905h2.477v7.31H5.75V9.717h2.377l.377-2.905H5.749V4.812c.001-.84.237-1.414 1.458-1.414z"/></svg><svg viewBox="0 0 23 25" id="green_triangle" xmlns="http://www.w3.org/2000/svg"><path d="M22.112 11.41L2.112.16A1.252 1.252 0 00.25 1.25v22.5a1.249 1.249 0 001.862 1.09l20-11.25c.393-.223.638-.637.638-1.09 0-.453-.245-.867-.638-1.09z"/></svg><svg viewBox="0 0 14 14" id="mail" xmlns="http://www.w3.org/2000/svg"><path d="M6.855.395a6.758 6.758 0 00-6.75 6.75 6.758 6.758 0 006.75 6.75 6.747 6.747 0 003.376-.904l-.845-1.46a5.068 5.068 0 01-7.594-4.386 5.068 5.068 0 015.063-5.063 5.068 5.068 0 015.063 5.063v.735c0 .552-.355.952-.844.952a.845.845 0 01-.844-.844V4.613H9.064a3.346 3.346 0 00-2.209-.843A3.379 3.379 0 003.48 7.145a3.379 3.379 0 003.375 3.375c.886 0 1.687-.35 2.29-.911a2.516 2.516 0 001.929.91c1.419 0 2.531-1.159 2.531-2.64v-.734a6.758 6.758 0 00-6.75-6.75zm0 8.437a1.69 1.69 0 01-1.688-1.687c0-.931.757-1.688 1.688-1.688.93 0 1.687.757 1.687 1.688a1.69 1.69 0 01-1.687 1.687z"/></svg><svg viewBox="0 0 27 27" id="money_hand" xmlns="http://www.w3.org/2000/svg"><path d="M26.892 17.443a1.038 1.038 0 00-.014-.124L24.873 6.298a1.07 1.07 0 00-.022-.094A4.196 4.196 0 0023.45 4.06a1.054 1.054 0 00-.22-.138l-5.976-2.777A12.383 12.383 0 0012.07 0H1.055a1.055 1.055 0 100 2.11H12.07c1.473 0 2.958.328 4.294.948l5.844 2.716c.283.258.49.584.6.953l1.01 5.552a8.205 8.205 0 00-2.888-1.445c-.347-1.779-.396-1.927-.418-1.992a1.055 1.055 0 00-2.01.637c.028.113.118.55.222 1.069a8.197 8.197 0 00-5.52 2.168c-.148-.712-.292-1.377-.415-1.931a5.8 5.8 0 012.308-1.68 1.055 1.055 0 10-.768-1.965c-2.366.926-3.525 2.776-3.573 2.854a1.055 1.055 0 00-.13.788c.734 3.217 1.556 7.544 1.556 8.519 0 .572-.495 1.055-1.081 1.055-.356 0-.682-.175-.878-.47l-4.528-9.35a1.058 1.058 0 00-.09-.15 2.997 2.997 0 00-2.44-1.263h-2.11a1.055 1.055 0 100 2.11h2.11c.261 0 .51.117.677.316l4.509 9.31c.015.032.031.062.05.091a3.144 3.144 0 003.011 1.5A8.202 8.202 0 0018.773 27a8.237 8.237 0 003.945-1.006 1.055 1.055 0 10-1.012-1.85 6.122 6.122 0 01-2.933.747 6.1 6.1 0 01-5.445-3.328 3.141 3.141 0 00.963-2.262c0-.705-.25-2.279-.569-3.978a6.1 6.1 0 015.051-2.667 6.124 6.124 0 015.82 8.009 1.055 1.055 0 002.006.651 8.217 8.217 0 00.293-3.873z"/><path d="M19.05 22.136c.583 0 1.055-.472 1.055-1.055v-4.746a1.055 1.055 0 00-1.692-.84l-1.687 1.28a1.055 1.055 0 001.27 1.683v2.623c0 .583.472 1.055 1.055 1.055z"/></svg><svg viewBox="0 0 27 27" id="money_house" xmlns="http://www.w3.org/2000/svg"><g clip-path="url(#gclip0)"><path d="M26.81 14.091a2.453 2.453 0 01-2.274 1.518H21.25v3.059a1.055 1.055 0 11-2.11 0v-4.114c0-.582.473-1.055 1.055-1.055h4.34a.334.334 0 00.324-.216.327.327 0 00-.075-.378L14.311 2.417a1.061 1.061 0 00-1.497 0L2.21 12.908a.325.325 0 00-.072.376c.033.08.12.216.325.216h4.55c.583 0 1.055.473 1.055 1.055v4.114a1.055 1.055 0 11-2.11 0v-3.059H2.462c-1 0-1.893-.597-2.274-1.52a2.45 2.45 0 01.534-2.678L11.327.921a3.173 3.173 0 014.475.004l10.476 10.489a2.45 2.45 0 01.531 2.677zm-19.798 10.8a1.055 1.055 0 100 2.11 1.055 1.055 0 000-2.11zm0-3.692a1.055 1.055 0 100 2.11 1.055 1.055 0 000-2.11zm13.184 3.692a1.055 1.055 0 100 2.109 1.055 1.055 0 000-2.11zm0-3.692a1.055 1.055 0 100 2.11 1.055 1.055 0 000-2.11zm-6.031-7.752h-.966c-.465 0-.858-.41-.858-.897v-.384c0-.473.369-.829.857-.829h.914c.27 0 .547.18.547.481a1.055 1.055 0 002.11 0c0-1.264-.934-2.319-2.164-2.545v-.678a1.055 1.055 0 10-2.11 0v.714c-.521.124-1 .384-1.387.763a2.904 2.904 0 00-.876 2.094v.384c0 1.658 1.33 3.006 2.966 3.006h.967c.484 0 .863.367.863.836v.64c0 .52-.434.792-.863.792h-1.57c-.252 0-.523-.145-.523-.462a1.055 1.055 0 10-2.109 0c0 1.41 1.105 2.52 2.533 2.569v.582a1.055 1.055 0 002.109 0v-.61c1.451-.202 2.532-1.39 2.532-2.87v-.642c0-.796-.311-1.54-.878-2.096a2.974 2.974 0 00-2.094-.848z"/></g><defs><clipPath id="gclip0"><path d="M0 0h27v27H0z"/></clipPath></defs></svg><svg viewBox="0 0 11 18" id="ok" xmlns="http://www.w3.org/2000/svg"><path d="M.674 9.592c-.41.806.056 1.192 1.118 1.85.903.558 2.151.762 2.953.844l-3.159 3.038c-.92.882.56 2.295 1.48 1.433l2.486-2.399c.953.916 1.865 1.794 2.487 2.402.92.866 2.4-.536 1.49-1.432L6.36 12.289c.812-.081 2.04-.297 2.933-.843v-.001c1.062-.662 1.528-1.046 1.124-1.853-.245-.457-.903-.84-1.78-.178 0 0-1.183.906-3.092.906-1.91 0-3.092-.906-3.092-.906-.876-.665-1.537-.28-1.779.178z"/><path d="M5.544 9.098c2.327 0 4.227-1.819 4.227-4.058 0-2.248-1.9-4.066-4.227-4.066-2.328 0-4.228 1.818-4.228 4.066 0 2.24 1.9 4.058 4.228 4.058zm0-6.064c1.143 0 2.076.897 2.076 2.006 0 1.1-.933 1.998-2.076 1.998-1.144 0-2.076-.898-2.076-1.998-.001-1.11.932-2.006 2.076-2.006z"/></svg><svg viewBox="0 0 30 30" id="scales" xmlns="http://www.w3.org/2000/svg"><path d="M24.63 7.839c-.119-.208-.264-.352-.489-.432l-6.505-2.368a2.63 2.63 0 00-.77-1.959 2.64 2.64 0 00-3.946.242L6.425.96h-.001a.886.886 0 00-1.085.43L1.223 9.563H3.19l2.937-5.834 2.973 5.834h1.973L7.92 3.373l4.441 1.617a2.634 2.634 0 001.76 2.446v17.07a.88.88 0 001.758 0V7.436a2.62 2.62 0 001.114-.76l5.622 2.046-3.7 7.35h1.968l2.962-5.884 2.964 5.884h1.968L24.63 7.84zM15.623 5.57a.882.882 0 11-1.246-1.249.882.882 0 011.246 1.249z"/><path d="M16.035 23.686h-2.07a4.534 4.534 0 00-4.528 4.529c0 .485.393.878.878.878h9.37a.879.879 0 00.879-.878 4.534 4.534 0 00-4.53-4.529zM29.121 17.83h-10.55a.879.879 0 00-.879.879 6.16 6.16 0 006.154 6.154A6.16 6.16 0 0030 18.709a.879.879 0 00-.879-.88zM11.432 11.32H.879A.879.879 0 000 12.2a6.162 6.162 0 006.155 6.155 6.162 6.162 0 006.155-6.156.879.879 0 00-.878-.879z"/></svg><svg viewBox="0 0 15 13" id="twitter" xmlns="http://www.w3.org/2000/svg"><path d="M14.387 2.162a5.98 5.98 0 01-1.653.453 2.852 2.852 0 001.262-1.586 5.733 5.733 0 01-1.819.695 2.868 2.868 0 00-4.962 1.961c0 .227.02.446.067.654a8.12 8.12 0 01-5.913-3 2.873 2.873 0 00.881 3.834 2.833 2.833 0 01-1.295-.354v.032c0 1.394.994 2.551 2.298 2.818a2.863 2.863 0 01-.752.095c-.184 0-.37-.01-.543-.05a2.896 2.896 0 002.68 1.999 5.764 5.764 0 01-3.556 1.223c-.236 0-.461-.01-.687-.039a8.075 8.075 0 004.4 1.287c5.279 0 8.165-4.372 8.165-8.162 0-.127-.005-.25-.01-.371a5.723 5.723 0 001.437-1.49z"/></svg><svg viewBox="0 0 19 10" id="vk" xmlns="http://www.w3.org/2000/svg"><path d="M17.874 8.8c-.045-.077-.329-.694-1.693-1.96-1.429-1.326-1.237-1.11.484-3.403C17.712 2.04 18.13 1.187 18 .823c-.125-.347-.895-.255-.895-.255l-2.563.014s-.19-.025-.331.06c-.138.082-.226.274-.226.274s-.406 1.08-.947 2c-1.142 1.938-1.6 2.04-1.786 1.92-.434-.28-.325-1.127-.325-1.728 0-1.88.285-2.663-.555-2.866-.28-.067-.484-.111-1.197-.119-.915-.01-1.69.003-2.128.218-.292.142-.517.461-.38.48.17.022.554.103.758.38.263.357.253 1.16.253 1.16s.152 2.212-.352 2.487c-.347.189-.821-.196-1.84-1.956-.52-.9-.915-1.897-.915-1.897S4.496.809 4.361.71a1.063 1.063 0 00-.395-.158L1.529.566s-.365.011-.5.17c-.119.142-.01.434-.01.434s1.909 4.463 4.068 6.713C7.07 9.945 9.317 9.81 9.317 9.81h1.02s.308-.034.464-.204c.145-.155.14-.448.14-.448s-.02-1.367.615-1.569c.626-.198 1.43 1.322 2.28 1.907.645.443 1.134.346 1.134.346l2.278-.032s1.191-.074.626-1.01z"/></svg></svg>