<?xml version="1.0" encoding="utf-8"?><svg viewBox="0 0 19 18" xmlns="http://www.w3.org/2000/svg" xmlns:xlink="http://www.w3.org/1999/xlink"><style>:root>svg{display:none}:root>svg:target{display:block}</style><svg viewBox="0 0 9 18" id="facebook" xmlns="http://www.w3.org/2000/svg"><path d="M7.207 3.398h1.556V.799A20.963 20.963 0 006.495.684c-2.244 0-3.781 1.353-3.781 3.84v2.288H.237v2.905h2.477v7.31H5.75V9.717h2.377l.377-2.905H5.749V4.812c.001-.84.237-1.414 1.458-1.414z" /></svg><svg viewBox="0 0 14 14" id="mail" xmlns="http://www.w3.org/2000/svg"><path d="M6.855.395a6.758 6.758 0 00-6.75 6.75 6.758 6.758 0 006.75 6.75 6.747 6.747 0 003.376-.904l-.845-1.46a5.068 5.068 0 01-7.594-4.386 5.068 5.068 0 015.063-5.063 5.068 5.068 0 015.063 5.063v.735c0 .552-.355.952-.844.952a.845.845 0 01-.844-.844V4.613H9.064a3.346 3.346 0 00-2.209-.843A3.379 3.379 0 003.48 7.145a3.379 3.379 0 003.375 3.375c.886 0 1.687-.35 2.29-.911a2.516 2.516 0 001.929.91c1.419 0 2.531-1.159 2.531-2.64v-.734a6.758 6.758 0 00-6.75-6.75zm0 8.437a1.69 1.69 0 01-1.688-1.687c0-.931.757-1.688 1.688-1.688.93 0 1.687.757 1.687 1.688a1.69 1.69 0 01-1.687 1.687z"/></svg><svg viewBox="0 0 11 18" id="ok" xmlns="http://www.w3.org/2000/svg"><path d="M.674 9.592c-.41.806.056 1.192 1.118 1.85.903.558 2.151.762 2.953.844l-3.159 3.038c-.92.882.56 2.295 1.48 1.433l2.486-2.399c.953.916 1.865 1.794 2.487 2.402.92.866 2.4-.536 1.49-1.432L6.36 12.289c.812-.081 2.04-.297 2.933-.843v-.001c1.062-.662 1.528-1.046 1.124-1.853-.245-.457-.903-.84-1.78-.178 0 0-1.183.906-3.092.906-1.91 0-3.092-.906-3.092-.906-.876-.665-1.537-.28-1.779.178z" /><path d="M5.544 9.098c2.327 0 4.227-1.819 4.227-4.058 0-2.248-1.9-4.066-4.227-4.066-2.328 0-4.228 1.818-4.228 4.066 0 2.24 1.9 4.058 4.228 4.058zm0-6.064c1.143 0 2.076.897 2.076 2.006 0 1.1-.933 1.998-2.076 1.998-1.144 0-2.076-.898-2.076-1.998-.001-1.11.932-2.006 2.076-2.006z"/></svg><svg viewBox="0 0 15 13" id="twitter" xmlns="http://www.w3.org/2000/svg"><path d="M14.387 2.162a5.98 5.98 0 01-1.653.453 2.852 2.852 0 001.262-1.586 5.733 5.733 0 01-1.819.695 2.868 2.868 0 00-4.962 1.961c0 .227.02.446.067.654a8.12 8.12 0 01-5.913-3 2.873 2.873 0 00.881 3.834 2.833 2.833 0 01-1.295-.354v.032c0 1.394.994 2.551 2.298 2.818a2.863 2.863 0 01-.752.095c-.184 0-.37-.01-.543-.05a2.896 2.896 0 002.68 1.999 5.764 5.764 0 01-3.556 1.223c-.236 0-.461-.01-.687-.039a8.075 8.075 0 004.4 1.287c5.279 0 8.165-4.372 8.165-8.162 0-.127-.005-.25-.01-.371a5.723 5.723 0 001.437-1.49z" fill="#828282"/></svg><svg fill="none" viewBox="0 0 19 10" id="vk" xmlns="http://www.w3.org/2000/svg"><path d="M17.874 8.8c-.045-.077-.329-.694-1.693-1.96-1.429-1.326-1.237-1.11.484-3.403C17.712 2.04 18.13 1.187 18 .823c-.125-.347-.895-.255-.895-.255l-2.563.014s-.19-.025-.331.06c-.138.082-.226.274-.226.274s-.406 1.08-.947 2c-1.142 1.938-1.6 2.04-1.786 1.92-.434-.28-.325-1.127-.325-1.728 0-1.88.285-2.663-.555-2.866-.28-.067-.484-.111-1.197-.119-.915-.01-1.69.003-2.128.218-.292.142-.517.461-.38.48.17.022.554.103.758.38.263.357.253 1.16.253 1.16s.152 2.212-.352 2.487c-.347.189-.821-.196-1.84-1.956-.52-.9-.915-1.897-.915-1.897S4.496.809 4.361.71a1.063 1.063 0 00-.395-.158L1.529.566s-.365.011-.5.17c-.119.142-.01.434-.01.434s1.909 4.463 4.068 6.713C7.07 9.945 9.317 9.81 9.317 9.81h1.02s.308-.034.464-.204c.145-.155.14-.448.14-.448s-.02-1.367.615-1.569c.626-.198 1.43 1.322 2.28 1.907.645.443 1.134.346 1.134.346l2.278-.032s1.191-.074.626-1.01z" fill="#828282"/></svg></svg>