<svg width="133" height="36" fill="none" xmlns="http://www.w3.org/2000/svg"><path d="M0 32.413V3.585h6.857l7.6 12.196 7.602-12.186h6.868v28.828h-6.33V13.6l-8.14 12.308h-.164L6.238 13.722v18.691H0zm89.928 1.171h-6.36V30.44c-4.381 0-7.865-1.201-10.452-3.602-2.586-2.401-3.88-5.466-3.883-9.194 0-3.68 1.295-6.685 3.883-9.019 2.59-2.333 6.073-3.499 10.452-3.496V2.487h6.36v2.635c4.35 0 7.826 1.172 10.431 3.517 2.604 2.345 3.905 5.357 3.903 9.038 0 3.704-1.294 6.756-3.883 9.157-2.588 2.401-6.072 3.603-10.45 3.605v3.145zm-6.36-8.785V10.762c-2.342 0-4.228.638-5.66 1.913-1.431 1.275-2.148 2.97-2.15 5.087 0 2.139.716 3.847 2.15 5.125 1.434 1.277 3.32 1.915 5.66 1.912zm6.36-14.037v14.037c2.341 0 4.221-.638 5.64-1.916 1.417-1.277 2.126-2.985 2.126-5.124 0-2.114-.709-3.81-2.127-5.088-1.418-1.277-3.297-1.913-5.639-1.91zm26.273 21.651V9.443H107.4V3.596h23.962v5.847h-8.801v22.97h-6.36zM61.257 7.425a14.687 14.687 0 00-9.655-4.277v5.898a8.057 8.057 0 014.89 2.537 9.024 9.024 0 012.481 6.423 9.106 9.106 0 01-2.436 6.444 7.955 7.955 0 01-4.921 2.527v5.88a14.784 14.784 0 009.593-4.293 14.271 14.271 0 004.4-10.558 14.331 14.331 0 00-4.352-10.581zM48.944 30.05a18.661 18.661 0 01-3.512-6.336 28.427 28.427 0 013.512-.234v-1.804c-1.333.006-2.664.1-3.985.278a18.706 18.706 0 010-7.882 30.23 30.23 0 003.988.312v-1.848a28.4 28.4 0 01-3.515-.234 18.67 18.67 0 013.515-6.335V3.525c-8.026.122-14.433 6.706-14.31 14.705.12 7.826 6.457 14.142 14.31 14.262l-.003-2.442zm-1.98-24.524a20.371 20.371 0 00-3.346 6.498 27.459 27.459 0 01-4.822-1.435 12.734 12.734 0 018.167-5.063zm-10.598 12.48a12.511 12.511 0 011.45-5.85 29.178 29.178 0 005.35 1.638 20.566 20.566 0 000 8.442c-1.834.37-3.626.914-5.354 1.628a12.542 12.542 0 01-1.456-5.858h.01zm2.43 7.438a27.311 27.311 0 014.825-1.435 20.473 20.473 0 003.342 6.482 12.735 12.735 0 01-8.167-5.047z" fill="#fff"/><path d="M50.077 1.364h-2.266v33.329h2.266V1.364z" fill="#fff"/></svg>