<svg width="19" height="19" fill="none" xmlns="http://www.w3.org/2000/svg"><path d="M9.5 0C4.262 0 0 4.262 0 9.5S4.262 19 9.5 19c1.67 0 3.313-.44 4.751-1.272l-1.188-2.056a7.122 7.122 0 01-3.563.953A7.133 7.133 0 012.375 9.5 7.133 7.133 0 019.5 2.375 7.133 7.133 0 0116.625 9.5v1.034c0 .777-.5 1.341-1.188 1.341a1.189 1.189 0 01-1.187-1.188v-4.75h-1.642A4.71 4.71 0 009.5 4.75c-2.62 0-4.75 2.13-4.75 4.75s2.13 4.75 4.75 4.75a4.719 4.719 0 003.223-1.282 3.54 3.54 0 002.714 1.282c1.998 0 3.563-1.632 3.563-3.716V9.5C19 4.262 14.738 0 9.5 0zm0 11.875A2.377 2.377 0 017.125 9.5 2.377 2.377 0 019.5 7.125 2.377 2.377 0 0111.875 9.5 2.377 2.377 0 019.5 11.875z" fill="#F9F9F9"/></svg>