<svg width="14" height="14" fill="none" xmlns="http://www.w3.org/2000/svg"><path d="M6.855.395a6.758 6.758 0 00-6.75 6.75 6.758 6.758 0 006.75 6.75 6.747 6.747 0 003.376-.904l-.845-1.46a5.068 5.068 0 01-7.594-4.386 5.068 5.068 0 015.063-5.063 5.068 5.068 0 015.063 5.063v.735c0 .552-.355.952-.844.952a.845.845 0 01-.844-.844V4.613H9.064a3.346 3.346 0 00-2.209-.843A3.379 3.379 0 003.48 7.145a3.379 3.379 0 003.375 3.375c.886 0 1.687-.35 2.29-.911a2.516 2.516 0 001.929.91c1.419 0 2.531-1.159 2.531-2.64v-.734a6.758 6.758 0 00-6.75-6.75zm0 8.437a1.69 1.69 0 01-1.688-1.687 1.69 1.69 0 011.688-1.688c.93 0 1.687.757 1.687 1.688a1.69 1.69 0 01-1.687 1.687z" fill="#828282"/></svg>