<svg width="15" height="23" fill="none" xmlns="http://www.w3.org/2000/svg"><path d="M.208 12.13c-.577 1.134.078 1.676 1.574 2.603 1.27.785 3.027 1.073 4.155 1.188l-4.445 4.276c-1.294 1.24.789 3.23 2.082 2.016l3.5-3.376c1.34 1.29 2.624 2.525 3.5 3.38 1.294 1.22 3.376-.754 2.096-2.016-.096-.09-4.743-4.549-4.46-4.276 1.143-.115 2.873-.419 4.129-1.187l-.001-.001c1.495-.931 2.15-1.473 1.582-2.608-.344-.644-1.27-1.182-2.504-.251 0 0-1.666 1.276-4.353 1.276s-4.352-1.276-4.352-1.276c-1.233-.936-2.163-.393-2.503.251z" fill="#F9F9F9"/><path d="M7.062 11.434c3.275 0 5.95-2.56 5.95-5.71C13.011 2.559 10.336 0 7.061 0c-3.276 0-5.95 2.56-5.95 5.724 0 3.15 2.674 5.71 5.95 5.71zm0-8.535c1.609 0 2.922 1.263 2.922 2.825 0 1.548-1.313 2.81-2.922 2.81-1.61 0-2.922-1.262-2.922-2.81-.001-1.564 1.31-2.825 2.922-2.825z" fill="#F9F9F9"/></svg>