<svg width="8" height="13" fill="none" xmlns="http://www.w3.org/2000/svg"><path d="M2.586 8.531v-.5c0-.573.104-1.05.312-1.43.209-.38.573-.773 1.094-1.18.62-.489 1.018-.869 1.196-1.14.182-.27.273-.593.273-.968 0-.438-.146-.774-.438-1.008-.291-.235-.71-.352-1.257-.352-.495 0-.954.07-1.375.211-.422.14-.834.31-1.235.508L.5 1.297A6.877 6.877 0 013.898.414c1.021 0 1.831.25 2.43.75.6.5.899 1.19.899 2.07 0 .391-.058.74-.172 1.047-.115.302-.29.591-.524.867-.229.276-.627.636-1.195 1.079-.484.38-.81.695-.977.945-.161.25-.242.586-.242 1.008v.351H2.586zm-.32 2.492c0-.786.382-1.18 1.148-1.18.375 0 .662.105.86.313.197.203.296.492.296.867 0 .37-.101.665-.304.883-.198.214-.482.32-.852.32s-.654-.104-.852-.312c-.197-.213-.296-.51-.296-.89z" fill="#2B4722"/></svg>