<svg width="28" height="19" fill="none" xmlns="http://www.w3.org/2000/svg"><path d="M28 12.89a5.77 5.77 0 01-.5 2.384 6.209 6.209 0 01-1.31 1.938 6.413 6.413 0 01-2.003 1.304 6.033 6.033 0 01-2.426.484c-1.104 0-2.08-.236-2.927-.708a7.35 7.35 0 01-2.119-1.825 8.966 8.966 0 01-1.31-2.608c-.282-.994-.423-2-.423-3.018 0-1.117.154-2.223.462-3.316a12.548 12.548 0 011.31-3.054c.59-.944 1.31-1.801 2.157-2.571A11.523 11.523 0 0121.76 0l3.389 1.751a10.155 10.155 0 00-1.733 2.235 5.435 5.435 0 00-.694 2.645v.336a6.62 6.62 0 012.08.708 6.023 6.023 0 011.656 1.303 5.44 5.44 0 011.117 1.789c.283.67.424 1.378.424 2.123zm-14.982 0a5.77 5.77 0 01-.5 2.384 6.209 6.209 0 01-1.31 1.938 6.414 6.414 0 01-2.003 1.304A6.033 6.033 0 016.779 19c-1.105 0-2.08-.236-2.928-.708a7.352 7.352 0 01-2.118-1.825 8.966 8.966 0 01-1.31-2.608c-.282-.994-.423-2-.423-3.018 0-1.117.154-2.223.462-3.316a12.55 12.55 0 011.31-3.054c.59-.944 1.31-1.801 2.156-2.571A11.524 11.524 0 016.778 0l3.39 1.751a10.158 10.158 0 00-1.733 2.235 5.436 5.436 0 00-.694 2.645v.336a6.62 6.62 0 012.08.708 6.023 6.023 0 011.656 1.303 5.44 5.44 0 011.117 1.789c.283.67.424 1.378.424 2.123z" fill="#8D8D8D"/></svg>