<svg width="293" height="177" fill="none" xmlns="http://www.w3.org/2000/svg"><g clip-path="url(#clip0)"><path d="M161.467 40.386c10.085-1.468 17.076-10.828 15.614-20.906-1.462-10.078-10.823-17.057-20.908-15.59-10.085 1.468-17.076 10.828-15.614 20.906 1.462 10.078 10.823 17.057 20.908 15.59z" fill="#F5F5F5"/><path d="M160.835 36.03c7.684-1.118 13.011-8.244 11.898-15.917-1.113-7.672-8.245-12.986-15.929-11.867-7.683 1.118-13.01 8.245-11.897 15.917 1.113 7.673 8.244 12.986 15.928 11.868z" fill="#ECECEC"/><path d="M172.663 19.672c-.088 0-.22-.573-.615-1.629-.395-1.012-1.011-2.508-2.241-4.048-.615-.749-1.318-1.54-2.196-2.245a14.027 14.027 0 00-3.076-1.892 11.391 11.391 0 00-1.845-.66c-.659-.176-1.318-.352-1.977-.44a16.962 16.962 0 00-2.109-.132c-.703 0-1.45.088-2.153.22-.703.132-1.406.308-2.109.528-.659.22-1.318.528-1.933.836-.615.308-1.186.704-1.713 1.1-.527.396-1.011.836-1.494 1.276-.923.88-1.626 1.893-2.241 2.86-.571.969-1.01 1.981-1.274 2.905-.615 1.849-.703 3.477-.703 4.577s.088 1.716 0 1.716c-.044 0-.263-.572-.395-1.716-.132-1.1-.132-2.816.395-4.797.264-.968.659-2.068 1.23-3.124.572-1.056 1.362-2.113 2.285-3.125a16.379 16.379 0 011.582-1.408c.571-.44 1.186-.836 1.845-1.188s1.362-.66 2.065-.924c.747-.265 1.494-.44 2.284-.617.791-.132 1.538-.22 2.329-.22.791 0 1.538.044 2.285.132.746.088 1.449.264 2.152.485.703.22 1.318.484 1.934.748a13.1 13.1 0 013.207 2.112 12.98 12.98 0 012.24 2.508c1.187 1.673 1.758 3.257 2.021 4.357.264 1.188.264 1.805.22 1.805z" fill="#F0F1F2"/><path d="M161.591 30.233l.396 2.42-2.153.353-.395-2.376c-2.153.22-4.306-.133-5.668-.88l.747-2.817c1.186.616 2.856.968 4.437.88l-.571-3.609c-2.504-.22-5.272-.572-5.799-3.652-.352-2.289.966-4.533 4.349-5.457l-.395-2.42 2.153-.353.395 2.377c1.626-.132 3.295.044 4.613.616l-.659 2.816a9.974 9.974 0 00-3.471-.616l.572 3.697c2.504.176 5.228.572 5.755 3.608.351 2.245-.967 4.445-4.306 5.413zm-3.69-9.197l-.483-3.08c-1.099.44-1.45 1.143-1.362 1.848.131.748.834 1.056 1.845 1.232zm4.569 4.62c-.132-.747-.791-1.055-1.801-1.232l.483 2.993c1.011-.44 1.406-1.1 1.318-1.76z" fill="#F0F1F2"/><path d="M273.361 99.062s-4.086-2.376-8.303 7.349c-4.218 9.726-5.712 15.271-5.712 15.271s-1.142 2.068-2.592.836c-1.45-1.188-3.515-4.753-5.755-3.96-2.329.836-2.988 3.564-2.285 7.437.703 3.873 1.889 12.498 1.977 13.246.088.748-.264 1.937-1.362 1.232-1.098-.66-7.645-7.129-10.5-3.828-2.856 3.3.834 13.818 1.23 14.962.395 1.145.176 1.673-.352 1.981-.527.308-2.548-2.069-4.481-3.829-1.933-1.76-4.481-3.476-5.975-1.408-1.494 2.024-1.538 10.122 6.898 22.708l4.261 5.589 7.03-.836c14.894-2.641 20.693-8.274 21.089-10.782.439-2.509-2.549-3.169-5.185-3.345-2.592-.176-5.711.044-5.843-.572-.132-.616.088-1.1 1.186-1.628 1.099-.528 11.247-5.149 11.599-9.506.351-4.357-8.787-4.577-10.061-4.929-1.23-.352-.659-1.408-.044-1.848.615-.484 7.645-5.545 10.896-7.745 3.295-2.201 4.789-4.533 3.778-6.822-1.01-2.2-4.964-1.232-6.854-1.408-1.845-.176-1.186-2.464-1.186-2.464s2.944-4.929 6.986-14.699c4.13-9.726-.528-11.046-.528-11.046" fill="#ECECEC"/><path d="M240.674 175.196c2.987-7.174 7.249-17.075 11.95-27.945 4.701-10.914 8.963-20.772 11.994-27.901a782.735 782.735 0 013.603-8.494c.439-1.012.747-1.76.966-2.288.132-.264.176-.44.264-.616.044-.132.088-.22.088-.22s0 .088-.088.22c-.044.132-.132.352-.22.616-.219.528-.527 1.32-.922 2.332-.835 2.025-2.021 4.929-3.515 8.494-2.988 7.173-7.249 17.075-11.95 27.945-4.701 10.914-8.963 20.771-11.994 27.945" fill="#F0F1F2"/><path d="M253.679 123.618s.087.176.219.484c.132.309.264.749.484 1.321.395 1.1.878 2.64 1.405 4.357.484 1.672.967 3.212 1.275 4.356.175.528.307.968.395 1.321.088.308.132.484.132.484s-.088-.176-.22-.484c-.132-.309-.263-.749-.483-1.321-.396-1.1-.835-2.64-1.362-4.356-.527-1.673-.967-3.213-1.318-4.357a18.424 18.424 0 01-.396-1.321c-.131-.308-.175-.484-.131-.484zm11.609 10.025c3.866-1.37 6.981-2.536 6.957-2.605-.025-.069-3.178.986-7.045 2.356-3.866 1.37-6.98 2.536-6.956 2.604.024.069 3.178-.986 7.044-2.355zm-15.08 18.757s.176-.044.527-.044c.395-.044.835-.044 1.406-.088 1.186-.088 2.812-.176 4.657-.352a94.104 94.104 0 004.613-.573c.571-.088 1.011-.132 1.406-.176.351-.044.527-.044.527-.044s-.176.044-.483.132c-.308.088-.791.176-1.406.264-1.186.221-2.812.441-4.613.617-1.801.176-3.471.264-4.657.264h-1.406c-.352.044-.571.044-.571 0zm-6.546-10.298s.131.132.307.396.439.616.747 1.056c.615.924 1.45 2.156 2.372 3.565a182.886 182.886 0 012.329 3.608c.308.484.527.837.703 1.101.176.264.22.396.22.44 0 0-.132-.132-.308-.396s-.439-.616-.747-1.057c-.615-.924-1.45-2.156-2.372-3.564a182.544 182.544 0 01-2.329-3.609c-.307-.484-.527-.836-.703-1.1-.175-.264-.263-.44-.219-.44zm-8.919 13.598s.132.176.395.484c.264.352.571.836.967 1.365.791 1.144 1.889 2.772 3.119 4.576 1.186 1.805 2.285 3.433 3.032 4.621.351.572.659 1.056.878 1.408a7.4 7.4 0 01.308.529s-.132-.176-.395-.485c-.264-.352-.572-.836-.967-1.364-.791-1.144-1.889-2.772-3.119-4.577-1.187-1.804-2.285-3.432-3.032-4.62-.351-.573-.659-1.057-.879-1.409-.175-.352-.307-.528-.307-.528zm8.611 12.586s.22-.044.659-.088c.483-.044 1.054-.088 1.801-.176 1.494-.132 3.559-.352 5.888-.66 2.284-.308 4.349-.616 5.843-.836a21.73 21.73 0 011.757-.264c.44-.044.659-.088.659-.088s-.219.088-.615.176c-.395.088-1.01.22-1.757.352a144.49 144.49 0 01-5.843.924 81.036 81.036 0 01-5.888.572c-.747.044-1.362.088-1.801.088-.483.044-.703.044-.703 0zm-126.093-39.431l-83.739-26.14c-2.153-.66-3.339-2.949-2.68-5.105l16.08-51.797c.66-2.157 2.944-3.345 5.097-2.685l83.739 26.097c2.153.66 3.339 2.948 2.68 5.105l-16.08 51.797a4.057 4.057 0 01-5.097 2.728z" fill="#F0F1F2"/><path d="M121.868 80.116c1.088-3.505-.865-7.23-4.363-8.32a6.632 6.632 0 00-8.306 4.37c-1.089 3.504.864 7.229 4.363 8.32a6.632 6.632 0 008.306-4.37z" fill="#fff"/><path d="M122.314 87.356a5.73 5.73 0 01-1.186-.264c-3.647-1.144-5.668-5.017-4.526-8.626 1.143-3.652 5.009-5.677 8.611-4.532 3.647 1.144 5.668 5.017 4.526 8.625a6.734 6.734 0 01-3.383 4.049 6.753 6.753 0 01-4.042.748zm1.669-13.158c-2.987-.396-5.931 1.452-6.853 4.4-1.055 3.345.834 6.91 4.173 7.966 1.626.484 3.339.352 4.833-.44a6.426 6.426 0 003.119-3.74c1.055-3.346-.834-6.91-4.173-7.966-.396-.088-.747-.176-1.099-.22zM44.418 82.56l-1.582 5.104-.527-.176 1.45-4.62-1.186-.353.132-.484 1.713.528zm3.778 6.248l-.131.484-3.56-1.1.133-.352 2.768-1.408c.746-.396.966-.704 1.054-1.056.176-.573-.132-1.1-.879-1.32-.615-.177-1.098-.133-1.581.131l-.264-.44c.527-.352 1.23-.396 2.021-.176 1.01.308 1.538 1.056 1.274 1.893-.132.484-.44.88-1.318 1.32l-2.24 1.144 2.723.88zm5.624.836l-1.01-.308-.396 1.32-.527-.175.395-1.32-2.855-.88.131-.397 3.735-2.552.57.176-3.602 2.464 2.197.704.352-1.188.527.176-.352 1.188 1.01.308-.175.484zm7.776 2.421l-1.01-.308-.396 1.32-.527-.176.396-1.32-2.856-.88.132-.396 3.734-2.553.571.176-3.602 2.465 2.196.704.352-1.188.527.175-.351 1.189 1.01.308-.176.484zm4.482 1.232c-.264.88-1.099 1.364-2.329.968-.747-.22-1.362-.704-1.626-1.232l.396-.352c.22.44.703.88 1.362 1.056.879.264 1.45 0 1.626-.616.22-.66-.088-1.188-1.363-1.584l-1.098-.352 1.055-2.465 2.767.88-.131.485-2.329-.705-.659 1.585.66.22c1.58.396 1.932 1.188 1.669 2.112zm5.052 1.54c-.307.968-1.23 1.32-2.24 1.013-1.362-.44-1.802-1.585-1.275-3.213.528-1.716 1.758-2.332 3.12-1.892.44.132.879.352 1.098.66l-.351.352c-.22-.264-.528-.44-.923-.528-1.098-.352-2.02.132-2.46 1.54-.044.132-.088.264-.088.44.44-.484 1.098-.616 1.845-.396 1.01.264 1.538 1.056 1.274 2.024zm-.527-.176c.22-.66-.132-1.232-.923-1.496-.79-.22-1.45.088-1.67.704-.175.572.133 1.232 1.011 1.496.703.264 1.362 0 1.582-.704zm7.425 2.377c-.264.836-1.099 1.32-2.329.924-.747-.22-1.362-.704-1.625-1.232l.395-.352c.22.44.747.88 1.406 1.1.835.264 1.45 0 1.626-.616.175-.616-.132-1.144-1.055-1.453l-.351-.132.132-.396 1.977-1.32-2.593-.792.132-.484 3.251 1.012-.131.352-2.021 1.364c1.098.484 1.45 1.233 1.186 2.025zm5.14 1.54c-.307.968-1.23 1.32-2.24 1.012-1.362-.44-1.802-1.584-1.274-3.212.527-1.717 1.757-2.333 3.119-1.893.44.132.879.352 1.098.66l-.351.353c-.22-.265-.527-.44-.923-.529-1.098-.352-2.02.132-2.46 1.54a1.303 1.303 0 00-.088.44c.44-.483 1.142-.615 1.845-.395 1.055.264 1.538 1.1 1.274 2.024zm-.527-.132c.22-.66-.132-1.232-.922-1.496-.791-.264-1.45.088-1.67.704-.176.572.132 1.232 1.01 1.496.747.22 1.362-.044 1.582-.704zm6.283-1.98l-.132.352-3.603 4.048-.57-.176 3.514-3.96-2.592-.836-.308.968-.527-.176.44-1.409 3.778 1.189zm7.293 2.244l-.132.352-3.602 4.049-.572-.176 3.515-3.96-2.592-.837-.308.968L92 98.93l.44-1.408 3.778 1.188zm3.866 5.237c-.263.88-1.23 1.232-2.416.836-1.23-.396-1.802-1.188-1.494-2.068.176-.616.659-.924 1.362-.924-.44-.353-.615-.837-.44-1.365.264-.836 1.143-1.144 2.197-.792 1.055.352 1.626 1.056 1.362 1.893-.175.528-.571.836-1.142.88.527.396.747.968.571 1.54zm-.571-.176c.176-.616-.22-1.188-1.142-1.452-.879-.264-1.538-.044-1.758.572-.175.616.22 1.188 1.099 1.452.966.308 1.625.088 1.801-.572zm-.966-1.848c.79.264 1.361.044 1.537-.529.176-.572-.22-1.1-.966-1.32-.791-.22-1.362-.044-1.538.528-.176.572.176 1.057.967 1.321zm6.809 2.42c-.527 1.716-1.757 2.332-3.119 1.892-.44-.132-.879-.352-1.099-.66l.352-.352c.22.264.527.44.923.528 1.098.352 2.021-.132 2.46-1.54.044-.132.088-.264.088-.44-.44.484-1.143.616-1.845.396-1.011-.308-1.538-1.144-1.231-2.068.308-.969 1.231-1.321 2.241-1.013 1.274.485 1.713 1.629 1.23 3.257zm-.395-1.232c.175-.572-.132-1.232-1.011-1.496-.747-.221-1.362.044-1.581.704-.22.66.131 1.232.922 1.496.791.22 1.45-.088 1.67-.704zm6.326.308l-1.581 5.105-.528-.176 1.45-4.621-1.186-.352.132-.484 1.713.528zm3.779 6.249l-.132.484-3.559-1.1.132-.352 2.768-1.408c.747-.396.967-.704 1.054-1.057.176-.572-.131-1.1-.878-1.32-.615-.176-1.099-.132-1.582.132l-.264-.44c.528-.352 1.231-.396 2.021-.176 1.011.308 1.538 1.056 1.275 1.892-.132.485-.44.881-1.319 1.321l-2.24 1.144 2.724.88zm4.877.44c-.264.836-1.099 1.32-2.329.924-.747-.22-1.362-.704-1.625-1.232l.395-.352c.22.44.747.88 1.406 1.1.835.264 1.45 0 1.625-.616.176-.616-.131-1.144-1.054-1.452l-.351-.132.131-.396 1.977-1.321-2.592-.792.132-.484 3.251 1.012-.132.352-2.021 1.365c1.099.484 1.45 1.232 1.187 2.024zm-40.616-6.94l-.692 2.227 40.69 12.687.692-2.227-40.69-12.687zm18.415 10.603l-.692 2.227 20.891 6.513.692-2.227-20.89-6.513z" fill="#fff"/><path opacity=".5" d="M57.642 81.899l-12.917-4.005a2.2 2.2 0 01-1.45-2.728l2.68-8.626c.352-1.144 1.582-1.804 2.724-1.452l12.917 4.005a2.2 2.2 0 011.45 2.728l-2.68 8.626c-.351 1.144-1.581 1.804-2.724 1.452z" fill="#ECECEC"/><path d="M43.759 73.67l.263-.837 8.787 2.729c1.01.308 2.11-.264 2.417-1.276.307-1.013-.264-2.113-1.274-2.42l-8.787-2.73.263-.835 8.787 2.728c1.45.44 2.285 2.024 1.845 3.477-.439 1.452-2.02 2.288-3.47 1.848l-8.831-2.684z" fill="#F0F1F2"/><path d="M55.74 74.03l-.261.84 6.038 1.89.262-.84-6.038-1.89z" fill="#F0F1F2"/><path d="M95.852 68.25l-43.92-13.698-1.176 3.782 43.92 13.698 1.176-3.781z" fill="#fff"/><path d="M55.666 166.627c6.387-.93 10.815-6.851 9.89-13.224-.924-6.374-6.851-10.788-13.238-9.858-6.388.93-10.816 6.851-9.891 13.224.924 6.374 6.852 10.787 13.239 9.858z" fill="#F5F5F5"/><path d="M55.267 163.883c4.85-.706 8.211-5.217 7.507-10.075-.705-4.859-5.209-8.225-10.06-7.519-4.85.706-8.21 5.217-7.505 10.076.704 4.858 5.208 8.224 10.058 7.518z" fill="#ECECEC"/><path d="M62.782 153.544c-.043 0-.131-.352-.395-1.012-.264-.661-.659-1.585-1.406-2.553a10.783 10.783 0 00-1.406-1.452c-.57-.44-1.186-.88-1.933-1.188-.351-.176-.747-.308-1.142-.44a5.952 5.952 0 00-1.274-.264c-.44-.045-.879-.089-1.318-.089-.44 0-.923.044-1.362.132-.44.089-.923.221-1.318.353-.44.132-.835.308-1.23.528-.396.22-.747.44-1.099.704a8.728 8.728 0 00-2.328 2.596 12.981 12.981 0 00-.835 1.805 8.84 8.84 0 00-.44 2.86c0 .704.044 1.1 0 1.1-.043 0-.175-.352-.263-1.1-.088-.704-.088-1.76.264-3.036.175-.617.439-1.277.79-1.981a8.444 8.444 0 011.45-1.98c.308-.308.615-.616 1.01-.88a7.805 7.805 0 011.187-.748c.395-.221.835-.441 1.318-.573a7 7 0 011.45-.396 8.205 8.205 0 011.494-.132c.483 0 .966.044 1.45.088.483.044.922.176 1.361.308.44.132.835.308 1.23.484.791.353 1.45.837 2.022 1.321a7.753 7.753 0 011.406 1.584 8.25 8.25 0 011.274 2.773 24.1 24.1 0 01.044 1.188z" fill="#F0F1F2"/><path d="M55.753 160.189l.264 1.54-1.362.22-.22-1.496c-1.362.132-2.724-.088-3.559-.528l.484-1.804c.747.396 1.801.616 2.812.528l-.352-2.289c-1.582-.132-3.339-.352-3.647-2.332-.22-1.452.616-2.861 2.724-3.433l-.263-1.496 1.362-.22.22 1.496c1.054-.088 2.064.044 2.9.396l-.396 1.805a6.632 6.632 0 00-2.197-.396l.351 2.332c1.582.132 3.34.352 3.647 2.288.176 1.409-.659 2.817-2.768 3.389zm-2.328-5.809l-.308-1.936c-.703.264-.922.704-.835 1.188.088.44.528.66 1.143.748zm2.9 2.904c-.089-.484-.528-.66-1.143-.792l.308 1.893c.659-.264.878-.66.834-1.101z" fill="#F0F1F2"/><path d="M239.839 158.297c-.835 1.232-2.504.836-3.295.088-.747-.748-1.098-1.805-1.406-2.861-.659-2.332-1.362-4.797-.835-7.217.132-.704.396-1.408.923-1.98.483-.529 1.274-.837 1.977-.661.835.22 1.362 1.057 1.714 1.805 1.098 2.288 1.669 4.841 1.713 7.349 0 1.232-.132 2.465-.791 3.477zm-3.207 6.161c-1.406-.704-3.032-.792-4.569-.572-.835.132-1.714.396-2.241 1.012-.571.616-.659 1.716-.044 2.244.395.308.923.352 1.406.352 1.23 0 2.548-.22 3.515.484.571.397.922 1.101 1.581 1.321.659.22 1.362-.176 1.714-.748.351-.573.351-1.321.176-1.981.043.044-.132-1.408-1.538-2.112zm5.536-4.445c-.923-1.1-1.099-2.684-.703-4.093.395-1.364 1.362-2.552 2.416-3.52 1.274-1.1 2.724-1.981 4.306-2.553.615-.22 1.274-.396 1.933-.352.659.044 1.318.396 1.625.968.44.881 0 1.937-.439 2.773a34.923 34.923 0 01-2.856 4.313c-.835 1.1-1.845 2.2-3.119 2.684-1.318.484-2.636.44-3.339-.484" fill="#71B219"/><path d="M239.883 176.648s-.044-.176-.088-.572a48.23 48.23 0 01-.132-1.496c-.088-.616-.175-1.409-.351-2.201a15.803 15.803 0 00-.791-2.596c-.351-.88-.791-1.717-1.318-2.377-.527-.66-1.098-1.144-1.67-1.408-.571-.264-1.054-.396-1.405-.44-.352-.044-.572-.044-.572-.088h.572c.351.044.878.132 1.493.396.615.264 1.23.748 1.758 1.408a9.161 9.161 0 011.362 2.421c.351.924.615 1.804.791 2.64.175.836.263 1.585.307 2.245.044.66.088 1.144.088 1.54 0 .352 0 .528-.044.528z" fill="#1A2E35"/><path d="M239.795 175.504v-1.012c0-.616 0-1.541-.044-2.685-.044-2.288-.263-5.413-.615-8.889-.395-3.477-.879-6.558-1.362-8.802-.088-.572-.219-1.056-.307-1.496-.088-.44-.176-.836-.264-1.144-.088-.309-.132-.529-.176-.705-.044-.176-.044-.264-.044-.264s.044.088.088.22c.044.176.132.396.22.704.088.309.176.705.307 1.145.132.44.22.924.352 1.496a81.011 81.011 0 011.406 8.802c.395 3.476.571 6.601.571 8.889 0 1.144 0 2.069-.044 2.685 0 .308-.044.528-.044.748-.044.22-.044.308-.044.308z" fill="#1A2E35"/><path d="M239.795 169.431v-.748c.044-.484.088-1.189.22-2.069.132-.88.351-1.892.659-3.036.307-1.144.747-2.333 1.274-3.565 1.054-2.508 2.46-4.533 3.734-5.809.308-.352.616-.572.879-.792.132-.132.264-.22.352-.308.131-.088.219-.176.351-.22.395-.264.615-.44.659-.396.044.044-.923.616-2.109 1.892-1.186 1.276-2.592 3.301-3.602 5.765-.528 1.232-.967 2.421-1.275 3.565a20.374 20.374 0 00-.702 2.992c-.176.88-.264 1.585-.308 2.069-.088.352-.132.66-.132.66z" fill="#1A2E35"/><path d="M144.325 134.488l-68.01-72.04a1.89 1.89 0 01.087-2.685l44.638-42.248a1.883 1.883 0 012.68.088l68.011 72.041a1.89 1.89 0 01-.088 2.685l-44.638 42.247c-.791.704-1.977.704-2.68-.088z" fill="#539100"/><path d="M191.203 89.116l-67-70.985c-1.011-1.056-2.636-1.1-3.691-.088l-12.697 12.014a.914.914 0 00-.307.925c1.274 7.085 6.326 13.466 12.389 17.647 7.294 5.105 15.949 7.745 24.164 11.178 8.216 3.388 16.476 7.877 21.397 15.27 4.657 6.998 5.755 15.667 8.128 23.765a45.316 45.316 0 002.372 6.425c.308.66 1.142.836 1.67.308l13.444-12.718c1.054-1.056 1.098-2.685.131-3.74z" fill="#71B219"/><path d="M123.193 38.77c-.615.573-1.406.441-2.285-.483l-1.713-1.804 3.514-3.301 1.626 1.716c.835.88.879 1.672.351 2.2-.351.353-.79.397-1.23.265.264.44.176 1.012-.263 1.408zm-.352-4.224l-.835.792.747.792c.396.396.703.484 1.011.22.263-.264.219-.616-.176-1.012l-.747-.792zm-.351 3.345c.307-.264.219-.616-.176-1.056l-.879-.969-.878.837.878.968c.44.396.791.484 1.055.22zm3.251 4.004l-1.538-1.628-1.054.396-.791-.836 4.965-1.76.746.792-1.977 4.929-.79-.836.439-1.057zm.395-.836l.835-1.848-1.889.704 1.054 1.144zm6.854 2.993l-3.515 3.3-.615-.66.484-3.784-2.109 2.024-.747-.792 3.515-3.3.615.66-.484 3.74 2.109-2.024.747.836zm-.132 4.093h-.922l-.879.836-.747-.793 3.515-3.3.747.792-1.626 1.54h3.12l.834.925-2.943.043-.484 3.39-.878-.969.263-2.465zm-24.867 3.785l-.615-.66-.835.791-.307-.352.834-.792-1.713-1.804.22-.22 3.734-.308.352.352-3.647.308 1.318 1.408.747-.704.307.308-.746.704.615.66-.264.308zm2.329 2.288c-.528.528-1.318.528-2.065-.264-.44-.484-.703-1.056-.703-1.54l.395-.089c0 .396.176.925.571 1.365.484.528 1.011.572 1.45.22.396-.352.396-.88-.176-1.496l-.219-.22.263-.22 1.977-.177-1.537-1.628.307-.264 1.977 2.068-.219.22-2.021.177c.527.66.527 1.364 0 1.848zm2.46 2.596c-.527.528-1.318.528-2.065-.264-.439-.484-.703-1.056-.659-1.54l.395-.088c0 .396.176.924.572 1.364.527.528 1.054.572 1.449.22.396-.396.44-.88-.351-1.716l-.659-.704 1.757-1.365 1.67 1.76-.308.265-1.406-1.453-1.142.88.395.397c.967.968.923 1.672.352 2.244zm2.724 2.816c-.615.573-1.45.44-2.021-.175-.791-.837-.659-1.893.351-2.86 1.099-1.057 2.241-.97 3.076-.089.263.308.483.616.527.924l-.395.132c-.044-.264-.22-.528-.44-.748-.659-.704-1.538-.704-2.416.088l-.264.264c.527-.176 1.055 0 1.494.484.615.616.659 1.409.088 1.98zm-.352-.307c.44-.397.396-.969-.088-1.453-.483-.484-1.098-.528-1.493-.176-.352.352-.396.968.132 1.497.483.44 1.054.528 1.449.132zm5.932 8.185l.307-1.716-1.757.176-.352-.352 2.153-.22.308-2.025.351.352-.264 1.629 1.626-.176.351.352-2.02.22-.308 2.156-.395-.396zm2.328 2.465l.308-1.717-1.758.176-.351-.352 2.153-.22.307-2.024.352.352-.264 1.628 1.626-.176.351.352-2.021.22-.307 2.157-.396-.396zm2.329 2.464l.307-1.716-1.757.176-.352-.352 2.153-.22.308-2.025.351.352-.263 1.629 1.625-.176.352.352-2.021.22-.308 2.156-.395-.396zm2.328 2.421l.308-1.717-1.758.176-.351-.352 2.153-.22.307-2.024.352.352-.264 1.628 1.626-.176.351.352-2.021.22-.307 2.157-.396-.397zm7.996 8.493l.308-1.716-1.758.176-.351-.352 2.153-.22.307-2.025.352.352-.264 1.629 1.626-.176.351.352-2.021.22-.307 2.156-.396-.396zm2.329 2.465l.307-1.717-1.757.176-.351-.352 2.152-.22.308-2.024.351.352-.263 1.628 1.625-.176.352.352-2.021.22-.308 2.156-.395-.395zm2.328 2.464l.308-1.716-1.757.176-.352-.352 2.153-.22.307-2.025.352.352-.264 1.628 1.626-.176.351.352-2.021.22-.307 2.157-.396-.396zm2.329 2.464l.307-1.716-1.757.176-.351-.352 2.152-.22.308-2.025.351.353-.263 1.628 1.625-.176.352.352-2.021.22-.308 2.156-.395-.396zm10.413 4.577l-3.208 3.037-.307-.352 2.943-2.773-.703-.748.308-.264.967 1.1zm.439 5.061c-.528.528-1.318.528-2.065-.264-.44-.484-.703-1.056-.703-1.54l.395-.088c0 .396.176.924.571 1.364.484.528 1.011.572 1.45.22.396-.352.396-.88-.176-1.496l-.219-.22.263-.22 1.977-.176-1.537-1.629.307-.264 1.977 2.069-.219.22-2.021.176c.527.704.527 1.364 0 1.848zm2.943 3.301l-.615-.66-.835.792-.307-.352.835-.792-1.714-1.805.22-.22 3.734-.308.352.352-3.647.308 1.318 1.409.747-.705.308.308-.747.705.615.66-.264.308zm1.802 2.992l-.308.264-2.153-2.244.22-.22 2.592.088c.703.044.967-.132 1.186-.308.352-.352.352-.836-.131-1.32-.352-.396-.747-.573-1.187-.529v-.44c.527-.044 1.055.22 1.538.705.615.66.659 1.364.132 1.892-.308.308-.659.44-1.494.44l-2.109-.088 1.714 1.76zm-23.198-.528c.967-.924 2.021-.924 2.724-.176.703.748.659 1.804-.351 2.729-.967.924-2.021.924-2.724.176-.659-.748-.615-1.805.351-2.729zm1.758 1.849c.659-.617.747-1.145.395-1.497-.307-.352-.835-.308-1.494.308s-.746 1.145-.395 1.497c.308.352.835.308 1.494-.308zm2.724 3.96c-.615.572-1.45.44-2.065-.176-.791-.836-.747-1.804.22-2.728 1.01-.969 2.196-.88 3.031 0 .308.308.527.704.571 1.012l-.747.22c-.044-.264-.175-.484-.395-.704-.483-.484-1.055-.528-1.626 0 .352 0 .659.176.967.484.527.572.615 1.364.044 1.892zm-.659-.616c.263-.264.263-.616-.044-.924-.264-.308-.659-.352-.923-.088-.263.22-.263.616.044.924.308.308.659.352.923.088zm4.569-.484l.571.572-5.316 2.377-.571-.573 5.316-2.376zm-.351 5.633l-.572.528-2.108-2.244.439-.44 2.153.132c.483.044.703-.088.834-.22.22-.22.22-.529-.087-.837a.956.956 0 00-.879-.352l-.132-.792c.571-.088 1.142.132 1.67.66.615.66.703 1.409.175 1.937-.307.264-.615.44-1.406.396l-1.274-.088 1.187 1.32zm2.855 2.861l-.439-.485-.615.573-.615-.661.615-.572-1.494-1.584.439-.44 3.207-.396.659.704-2.987.396.747.792.571-.528.615.66-.571.528.439.484-.571.529z" fill="#fff"/><path d="M160.229 82.735c1.67-2.552 1.011-5.985-1.23-8.053a7.949 7.949 0 00-2.328-1.54c-2.153-.881-4.965-.22-6.107 1.803-.923 1.673-.527 3.741.088 5.502.659 1.848 1.757 3.784 3.602 4.488 1.758.704 3.91.044 5.228-1.32.264-.264.528-.572.747-.88z" fill="#71B219"/><path d="M208.602 91.449v77.454c0 4.224-3.427 7.657-7.645 7.657H88.617c-4.218 0-7.645-3.433-7.645-7.657V91.449c0-4.225 3.427-7.658 7.644-7.658h112.341c4.218 0 7.645 3.433 7.645 7.658z" fill="#71B219"/><path d="M208.602 91.449v-.264c0-.177 0-.44-.088-.837-.088-.704-.352-1.804-1.142-2.992-.396-.572-.879-1.232-1.582-1.76a6.84 6.84 0 00-2.504-1.365c-.264-.088-.484-.132-.747-.22l-.791-.132c-.264 0-.571-.044-.835-.044h-4.701c-10.808 0-26.492 0-45.824.044H89.583c-.791 0-1.582-.044-2.329.132a6.95 6.95 0 00-2.197.792 8.527 8.527 0 00-1.845 1.409 7.393 7.393 0 00-1.362 1.936c-.351.704-.57 1.496-.703 2.288-.088.793-.088 1.585-.088 2.42v76.047c0 1.804.66 3.608 1.89 4.973 1.186 1.364 2.855 2.288 4.657 2.508.878.132 1.801.088 2.724.088h109.968c.703 0 1.406 0 2.065-.132a7.727 7.727 0 001.933-.66c.308-.132.571-.352.879-.484.263-.22.571-.396.791-.616.527-.44.922-.969 1.318-1.497a8.033 8.033 0 001.23-3.696c.044-5.281 0-10.342.044-15.183 0-19.364.044-35.03.044-45.9V91.449v16.811c0 10.826 0 26.492.044 45.9 0 4.841.044 9.902 0 15.227-.044 1.32-.528 2.64-1.231 3.784-.395.572-.834 1.101-1.362 1.541-.263.264-.527.44-.79.66-.308.176-.572.396-.923.528a7.469 7.469 0 01-1.977.66c-.703.132-1.406.132-2.109.132H90.286c-.923 0-1.802.044-2.724-.088-1.846-.22-3.559-1.188-4.79-2.596a7.878 7.878 0 01-1.932-5.149V92.813c0-.792-.044-1.628.088-2.465a6.86 6.86 0 01.703-2.332 7.05 7.05 0 011.406-1.98 8.902 8.902 0 011.933-1.453 7.055 7.055 0 012.284-.792l.571-.088.615-.044c.396-.044.791 0 1.187 0h60.805c19.331 0 34.972.044 45.824.044h4.701c.308 0 .571.044.879.044.263.044.571.088.835.132.263.088.527.132.79.22a6.897 6.897 0 012.505 1.408 8.457 8.457 0 011.581 1.805c.747 1.232 1.011 2.288 1.099 3.036.087.353.044.66.087.837-.131.176-.131.264-.131.264z" fill="#1A2E35"/><path d="M205.482 89.644c.728 0 1.318-.059 1.318-.132 0-.073-.59-.132-1.318-.132-.728 0-1.318.06-1.318.132 0 .073.59.132 1.318.132zm-9.402 0c1.48 0 2.68-.059 2.68-.132 0-.073-1.2-.132-2.68-.132-1.48 0-2.68.06-2.68.132 0 .073 1.2.132 2.68.132zm-10.764 0c1.48 0 2.68-.059 2.68-.132 0-.073-1.2-.132-2.68-.132-1.48 0-2.68.06-2.68.132 0 .073 1.2.132 2.68.132zm-10.72 0c1.48 0 2.68-.059 2.68-.132 0-.073-1.2-.132-2.68-.132-1.48 0-2.68.06-2.68.132 0 .073 1.2.132 2.68.132zm-10.764 0c1.48 0 2.68-.059 2.68-.132 0-.073-1.2-.132-2.68-.132-1.48 0-2.68.06-2.68.132 0 .073 1.2.132 2.68.132zm-10.764 0c1.48 0 2.68-.059 2.68-.132 0-.073-1.2-.132-2.68-.132-1.48 0-2.68.06-2.68.132 0 .073 1.2.132 2.68.132zm-10.764 0c1.48 0 2.68-.059 2.68-.132 0-.073-1.2-.132-2.68-.132-1.48 0-2.68.06-2.68.132 0 .073 1.2.132 2.68.132zm-10.72 0c1.48 0 2.68-.059 2.68-.132 0-.073-1.2-.132-2.68-.132-1.48 0-2.68.06-2.68.132 0 .073 1.2.132 2.68.132zm-10.764 0c1.48 0 2.68-.059 2.68-.132 0-.073-1.2-.132-2.68-.132-1.48 0-2.68.06-2.68.132 0 .073 1.2.132 2.68.132zm-10.764 0c1.48 0 2.68-.059 2.68-.132 0-.073-1.2-.132-2.68-.132-1.48 0-2.68.06-2.68.132 0 .073 1.2.132 2.68.132zm-10.764 0c1.48 0 2.68-.059 2.68-.132 0-.073-1.2-.132-2.68-.132-1.48 0-2.68.06-2.68.132 0 .073 1.2.132 2.68.132zm-10.676 2.509c-.044 0-.132-1.189-.132-2.64.22-.22.044-.045.132-.133h1.011c.307 0 .57 0 .834.044.484 0 .791.044.791.088s-.307.044-.79.088c-.264 0-.572 0-.835.044h-1.011l.132-.132c-.044 1.453-.088 2.64-.132 2.64zm0 9.858c.073 0 .132-1.104.132-2.465 0-1.361-.059-2.464-.132-2.464-.073 0-.132 1.103-.132 2.464s.06 2.465.132 2.465zm0 9.857c.073 0 .132-1.103.132-2.464s-.059-2.465-.132-2.465c-.073 0-.132 1.104-.132 2.465 0 1.361.06 2.464.132 2.464zm0 9.858c.073 0 .132-1.103.132-2.464s-.059-2.465-.132-2.465c-.073 0-.132 1.104-.132 2.465 0 1.361.06 2.464.132 2.464zm0 9.902c.073 0 .132-1.103.132-2.465 0-1.361-.059-2.464-.132-2.464-.073 0-.132 1.103-.132 2.464 0 1.362.06 2.465.132 2.465zm0 9.858c.073 0 .132-1.104.132-2.465 0-1.361-.059-2.464-.132-2.464-.073 0-.132 1.103-.132 2.464s.06 2.465.132 2.465zm0 9.857c.073 0 .132-1.103.132-2.464s-.059-2.464-.132-2.464c-.073 0-.132 1.103-.132 2.464s.06 2.464.132 2.464zm0 9.902c.073 0 .132-1.103.132-2.464s-.059-2.465-.132-2.465c-.073 0-.132 1.104-.132 2.465 0 1.361.06 2.464.132 2.464zm2.636 7.57c0 .044-1.186.132-2.636.132l-.132-.132v-1.013c0-.308 0-.572.044-.836 0-.484.044-.792.088-.792s.044.308.088.792c0 .264 0 .572.044.836v1.013l-.132-.132c1.45 0 2.636.044 2.636.132zm7.952.132c1.456 0 2.637-.059 2.637-.132 0-.073-1.181-.132-2.637-.132-1.455 0-2.636.059-2.636.132 0 .073 1.18.132 2.636.132zm10.589 0c1.455 0 2.636-.059 2.636-.132 0-.073-1.181-.132-2.636-.132-1.456 0-2.637.059-2.637.132 0 .073 1.181.132 2.637.132zm10.588 0c1.456 0 2.636-.059 2.636-.132 0-.073-1.18-.132-2.636-.132-1.456 0-2.636.059-2.636.132 0 .073 1.18.132 2.636.132zm10.588 0c1.456 0 2.636-.059 2.636-.132 0-.073-1.18-.132-2.636-.132-1.456 0-2.636.059-2.636.132 0 .073 1.18.132 2.636.132zm10.588 0c1.456 0 2.637-.059 2.637-.132 0-.073-1.181-.132-2.637-.132-1.455 0-2.636.059-2.636.132 0 .073 1.181.132 2.636.132zm10.633 0c1.455 0 2.636-.059 2.636-.132 0-.073-1.181-.132-2.636-.132-1.456 0-2.637.059-2.637.132 0 .073 1.181.132 2.637.132zm10.588 0c1.456 0 2.636-.059 2.636-.132 0-.073-1.18-.132-2.636-.132-1.456 0-2.636.059-2.636.132 0 .073 1.18.132 2.636.132zm10.588 0c1.456 0 2.636-.059 2.636-.132 0-.073-1.18-.132-2.636-.132-1.456 0-2.636.059-2.636.132 0 .073 1.18.132 2.636.132zm10.588 0c1.456 0 2.636-.059 2.636-.132 0-.073-1.18-.132-2.636-.132-1.455 0-2.636.059-2.636.132 0 .073 1.181.132 2.636.132zm10.589 0c1.455 0 2.636-.059 2.636-.132 0-.073-1.181-.132-2.636-.132-1.456 0-2.637.059-2.637.132 0 .073 1.181.132 2.637.132zm9.27 0c.728 0 1.318-.059 1.318-.132 0-.073-.59-.132-1.318-.132-.728 0-1.318.059-1.318.132 0 .073.59.132 1.318.132z" fill="#1A2E35"/><path opacity=".3" d="M124.994 135.237s.044 4.4-1.318 7.041c-1.318 2.64-1.757 3.697-4.569 4.709-2.812 1.012-38.18 4.929-38.18 4.929v-11.971l44.067-4.708zm-.615-16.592s.395-4.488-10.852-6.161c-12.873-1.892-32.555-4.268-32.555-4.268v8.493l43.407 1.936z" fill="#000"/><path d="M82.114 143.598h36.597a6.287 6.287 0 006.283-6.293V120.89a6.286 6.286 0 00-6.283-6.293H82.114a6.286 6.286 0 00-6.283 6.293v16.415a6.287 6.287 0 006.283 6.293z" fill="#71B219"/><path d="M82.114 143.598h-.395c-.264 0-.616-.044-1.099-.132-.483-.088-1.054-.308-1.67-.66a6.699 6.699 0 01-1.845-1.584c-.57-.749-1.054-1.673-1.23-2.773-.132-.572-.088-1.144-.088-1.76v-15.975c.044-1.804.923-3.697 2.505-4.885.79-.572 1.713-1.012 2.724-1.188a5.912 5.912 0 011.537-.088h36.202c.659 0 1.274.088 1.89.264.615.176 1.186.484 1.713.836.527.352.967.792 1.406 1.276.395.484.703 1.056.966 1.629.22.572.352 1.188.44 1.804.044.616.044 1.232.044 1.848v15.667c0 .264-.088.572-.088.836-.088.264-.132.528-.22.792-.703 2.113-2.548 3.697-4.569 4.181-.264.088-.527.088-.791.132-.263 0-.527.044-.791.044h-15.201c-6.59 0-11.906-.044-15.597-.044h-5.316c-.395-.22-.527-.22-.527-.22h5.711c3.69 0 9.007 0 15.597-.044h13.708c1.01-.044 2.021.088 2.987-.176 1.977-.44 3.735-1.98 4.438-4.049.395-1.012.307-2.112.307-3.256v-13.995c0-.616 0-1.232-.044-1.804-.088-.572-.219-1.188-.439-1.716a4.944 4.944 0 00-.923-1.541 6.93 6.93 0 00-1.318-1.232 6.17 6.17 0 00-1.625-.792 6.153 6.153 0 00-1.802-.264H82.509c-.527 0-1.01 0-1.493.088a6.191 6.191 0 00-2.637 1.144c-1.537 1.144-2.416 2.993-2.46 4.753-.044 1.804 0 3.521 0 5.149v10.782c0 .616 0 1.188.088 1.76.176 1.1.659 2.024 1.23 2.773a5.909 5.909 0 001.802 1.584c.614.352 1.186.572 1.669.66.483.132.835.176 1.098.176h.308z" fill="#1A2E35"/><path d="M110.188 140.738c5.824 0 10.544-4.729 10.544-10.562 0-5.834-4.72-10.562-10.544-10.562-5.823 0-10.544 4.728-10.544 10.562 0 5.833 4.721 10.562 10.544 10.562z" fill="#1A2E35"/><path d="M112.868 138.801c-.044-.044 1.099-.264 2.504-1.32a9.225 9.225 0 002.109-2.2 8.856 8.856 0 001.406-3.433 7.926 7.926 0 00-.263-3.697c-.308-1.1-.835-2.024-1.362-2.772-1.055-1.408-2.021-1.98-1.977-2.025 0 0 .044.045.175.089.088.088.264.176.484.352a7.89 7.89 0 011.449 1.496 9.578 9.578 0 011.406 2.772 8.483 8.483 0 01.264 3.829c-.22 1.364-.791 2.553-1.45 3.521-.659.968-1.45 1.716-2.197 2.2-.747.528-1.406.792-1.845.968-.22.088-.439.132-.527.176-.088.044-.176.044-.176.044z" fill="#FAFAFA"/><path d="M257.336 83.712c10.706-.96 18.611-10.41 17.655-21.11-.955-10.7-10.409-18.597-21.115-17.637-10.706.959-18.611 10.41-17.655 21.11.955 10.7 10.409 18.596 21.115 17.637z" fill="#71B219"/><path opacity=".3" d="M270.33 62.535c-.088 0-.22-.616-.528-1.76-.351-1.1-.922-2.684-2.108-4.4a14.284 14.284 0 00-2.197-2.51c-.879-.791-1.933-1.583-3.119-2.2a24.712 24.712 0 00-1.89-.836c-.659-.22-1.362-.44-2.065-.572a17.621 17.621 0 00-2.196-.264c-.747-.044-1.538 0-2.285.088-.747.088-1.538.264-2.241.44-.746.22-1.405.484-2.064.792-.66.308-1.275.66-1.89 1.057-.571.396-1.142.792-1.625 1.232-1.011.88-1.846 1.892-2.505 2.86-.659 1.013-1.142 2.025-1.537 2.949-.747 1.936-.923 3.609-1.011 4.753-.044 1.144-.044 1.804-.132 1.804-.043 0-.263-.616-.307-1.804-.044-1.189 0-2.949.703-5.017a17.292 17.292 0 011.494-3.213c.659-1.1 1.537-2.156 2.592-3.124.527-.484 1.098-.968 1.757-1.364a10.02 10.02 0 012.021-1.145c.703-.352 1.45-.616 2.241-.836.791-.22 1.581-.396 2.416-.484.835-.088 1.67-.132 2.461-.088.79.044 1.625.132 2.372.308.791.132 1.494.352 2.241.616a16.76 16.76 0 012.021.924 15.985 15.985 0 013.295 2.42c.922.88 1.625 1.85 2.197 2.773a13.983 13.983 0 011.845 4.71c.132 1.231.088 1.892.044 1.892z" fill="#000"/><path opacity=".3" d="M258.072 73.01l.263 2.552-2.284.22-.264-2.509c-2.284.088-4.525-.396-5.887-1.232l.967-2.948c1.23.748 2.943 1.188 4.613 1.188l-.396-3.829c-2.592-.352-5.535-.924-5.887-4.18-.264-2.421 1.274-4.71 4.877-5.502l-.264-2.552 2.285-.22.263 2.508c1.714-.044 3.471.264 4.789.924l-.834 2.949a10.183 10.183 0 00-3.647-.836l.395 3.916c2.592.353 5.492.88 5.844 4.137.263 2.333-1.274 4.577-4.833 5.413zm-3.339-9.903l-.352-3.256c-1.186.396-1.581 1.1-1.537 1.892.087.748.834 1.144 1.889 1.364zm4.525 5.105c-.088-.792-.791-1.188-1.801-1.408l.307 3.169c1.099-.352 1.538-1.013 1.494-1.76z" fill="#000"/><path d="M240.85 65.704s0 .044.044.132c0 .088.043.22.043.352.044.176.044.352.088.572.044.22.088.484.132.748a15.533 15.533 0 001.889 4.577c.528.88 1.274 1.805 2.109 2.685.22.22.44.396.703.616.132.088.22.22.352.308.131.088.263.176.395.308.264.176.527.396.791.572.307.176.571.352.879.528 1.23.66 2.548 1.232 4.042 1.584 1.449.308 3.031.44 4.613.308a16.355 16.355 0 004.481-1.144c1.406-.572 2.592-1.408 3.691-2.288.263-.22.527-.44.746-.704.264-.22.44-.484.703-.704l.352-.352a2.47 2.47 0 01.307-.397c.176-.264.396-.484.572-.748.659-1.012 1.23-2.024 1.581-3.036a15.066 15.066 0 001.011-4.841c.044-.308 0-.572 0-.792v-1.056.132c0 .088 0 .22.044.352 0 .176 0 .352.044.572 0 .22.043.484 0 .792 0 1.188-.22 2.904-.967 4.885-.351 1.012-.923 2.024-1.582 3.08-.175.264-.395.484-.571.749a2.465 2.465 0 01-.307.396c-.132.132-.22.264-.352.352-.219.22-.439.484-.703.748-.263.22-.527.44-.791.704-1.098.88-2.328 1.716-3.734 2.332-1.406.573-2.944 1.013-4.569 1.189a16.6 16.6 0 01-4.701-.309c-1.494-.308-2.856-.924-4.086-1.584-.308-.176-.571-.352-.879-.528-.307-.176-.527-.396-.791-.616-.132-.088-.263-.22-.395-.308s-.264-.22-.352-.308c-.219-.22-.483-.44-.703-.66-.834-.924-1.581-1.805-2.108-2.729-1.099-1.804-1.626-3.476-1.846-4.62-.088-.265-.088-.529-.131-.793-.044-.22-.044-.396-.088-.572 0-.132-.044-.264-.044-.352.088-.088.088-.132.088-.132z" fill="#1A2E35"/><path d="M247.548 120.055c2.707-5.627.348-12.386-5.27-15.098-5.617-2.712-12.365-.348-15.072 5.278-2.707 5.627-.348 12.387 5.269 15.098 5.618 2.712 12.366.348 15.073-5.278z" fill="#71B219"/><path opacity=".3" d="M245.287 118.601c-.044 0 .088-.396.264-1.012.175-.66.351-1.628.263-2.816-.044-.572-.132-1.232-.351-1.893-.22-.66-.484-1.364-.923-2.024a7.774 7.774 0 00-.703-.968c-.264-.308-.527-.616-.879-.88-.307-.264-.659-.528-1.01-.792a7.53 7.53 0 00-1.186-.616c-.396-.177-.835-.309-1.275-.441-.439-.132-.834-.176-1.274-.22-.439-.044-.834-.044-1.23-.044-.395 0-.791.044-1.186.132-.747.132-1.494.396-2.109.661a9.37 9.37 0 00-1.625 1.012c-.923.748-1.538 1.54-1.934 2.068-.395.572-.571.88-.615.88-.044 0 .044-.396.396-1.012.307-.616.878-1.452 1.845-2.288a10.6 10.6 0 011.713-1.145 8.417 8.417 0 012.241-.792c.396-.088.835-.132 1.274-.176.44-.044.879 0 1.362.044.44.044.923.132 1.362.264.44.132.923.264 1.362.484.44.22.879.44 1.274.705.396.264.747.528 1.099.836.351.308.659.616.922.968.264.352.527.704.747 1.056.44.704.703 1.452.923 2.2.176.705.263 1.409.307 2.025.044 1.276-.219 2.244-.483 2.904-.351.572-.571.925-.571.88z" fill="#000"/><path opacity=".3" d="M236.061 120.186l-.615 1.364-1.231-.572.615-1.32c-1.186-.616-2.152-1.541-2.592-2.377l1.362-1.188c.396.748 1.143 1.452 1.977 1.98l.923-2.024c-1.186-.968-2.504-2.112-1.67-3.829.616-1.276 2.065-1.98 4.086-1.276l.615-1.364 1.231.572-.615 1.32c.878.484 1.669 1.145 2.108 1.893l-1.318 1.232a5.073 5.073 0 00-1.581-1.496l-.967 2.068c1.186.924 2.46 2.068 1.67 3.785-.571 1.232-1.977 1.892-3.998 1.232zm1.274-5.941l.791-1.717c-.703-.132-1.143.088-1.319.485-.175.396.044.792.528 1.232zm.703 3.916c.175-.44-.044-.836-.484-1.232l-.79 1.673c.703.132 1.098-.088 1.274-.441z" fill="#000"/><path d="M229.646 111.384s-.132.352-.351 1.012a7.99 7.99 0 00-.396 2.817c0 .616.088 1.276.264 1.98.176.704.439 1.409.835 2.113a8.021 8.021 0 001.537 1.98c.616.572 1.362 1.1 2.197 1.54.835.396 1.714.66 2.548.748a7.925 7.925 0 002.505-.044 8.206 8.206 0 002.152-.66 8.376 8.376 0 001.67-1.012c.967-.748 1.582-1.54 1.933-2.112.352-.572.527-.924.571-.88l-.132.264c-.087.176-.175.396-.395.704a8.115 8.115 0 01-1.933 2.156 8.097 8.097 0 01-1.714 1.056 8.601 8.601 0 01-2.196.705 8.205 8.205 0 01-2.549.044 10.083 10.083 0 01-2.636-.793c-.834-.44-1.625-.968-2.24-1.584-.659-.616-1.143-1.32-1.582-2.024a8.764 8.764 0 01-.835-2.157 8.298 8.298 0 01-.263-2.024c0-1.232.263-2.2.483-2.861.088-.308.22-.572.308-.748.175-.132.219-.22.219-.22z" fill="#1A2E35"/><path d="M45.436 139.312c10.085-1.468 17.075-10.828 15.613-20.906-1.462-10.077-10.823-17.057-20.908-15.589-10.085 1.468-17.075 10.827-15.613 20.905 1.462 10.078 10.822 17.058 20.908 15.59z" fill="#71B219"/><path opacity=".3" d="M56.632 118.602c-.088 0-.22-.573-.615-1.629-.396-1.012-1.01-2.508-2.24-4.048-.616-.749-1.319-1.541-2.198-2.245a14.01 14.01 0 00-3.075-1.892 11.399 11.399 0 00-1.845-.66c-.66-.176-1.318-.352-1.977-.44a16.96 16.96 0 00-2.11-.132c-.702 0-1.45.088-2.152.22-.703.132-1.406.308-2.109.528-.659.22-1.318.528-1.933.836-.615.308-1.186.704-1.714 1.1-.527.396-1.01.836-1.493 1.276-.923.88-1.626 1.893-2.24 2.861-.572.968-1.011 1.98-1.275 2.904-.615 1.849-.703 3.477-.703 4.577s.088 1.716 0 1.716c-.044 0-.264-.572-.395-1.716-.132-1.1-.132-2.816.395-4.797.264-.968.659-2.068 1.23-3.124.571-1.057 1.362-2.113 2.285-3.125.483-.484 1.01-.968 1.581-1.408.572-.44 1.187-.836 1.846-1.188s1.362-.66 2.065-.925c.746-.264 1.493-.44 2.284-.616.791-.132 1.538-.22 2.329-.22.79 0 1.538.044 2.284.132.747.088 1.45.264 2.153.484.703.22 1.318.485 1.933.749 1.23.572 2.329 1.32 3.208 2.112a12.977 12.977 0 012.24 2.508c1.186 1.673 1.758 3.257 2.021 4.357.264 1.188.264 1.805.22 1.805z" fill="#000"/><path opacity=".3" d="M45.56 129.163l.396 2.421-2.153.352-.396-2.376c-2.152.22-4.305-.133-5.667-.881l.747-2.816c1.186.616 2.855.968 4.437.88l-.571-3.609c-2.504-.22-5.272-.572-5.8-3.652-.35-2.289.967-4.533 4.35-5.457l-.395-2.421 2.152-.352.396 2.377c1.626-.132 3.295.044 4.613.616l-.659 2.816a9.978 9.978 0 00-3.47-.616l.57 3.697c2.505.176 5.229.572 5.756 3.608.351 2.245-.967 4.445-4.306 5.413zm-3.69-9.197l-.484-3.081c-1.098.44-1.45 1.144-1.362 1.849.132.748.835 1.056 1.846 1.232zm4.525 4.577c-.132-.749-.79-1.057-1.801-1.233l.483 2.993c1.054-.396 1.45-1.056 1.318-1.76z" fill="#000"/><path d="M28.865 123.134s0 .044.044.088c0 .088.044.176.088.308s.088.308.132.528c.043.221.087.441.175.705a14.256 14.256 0 002.021 4.224c.572.837 1.318 1.629 2.153 2.421.22.176.44.352.703.572.132.088.22.176.352.264l.395.264.79.528c.264.132.572.308.836.44 1.186.572 2.46 1.056 3.91 1.276 1.406.22 2.9.264 4.393.044 1.494-.22 2.9-.704 4.174-1.32 1.274-.616 2.373-1.452 3.339-2.332l.703-.704c.22-.22.395-.484.615-.705.088-.132.176-.22.308-.352l.263-.396c.176-.264.352-.484.483-.748.572-1.012 1.055-1.98 1.363-2.948.614-1.893.746-3.521.702-4.621 0-.264 0-.528-.044-.748 0-.22-.044-.396-.044-.528v-.484s0 .044.044.132c0 .088.044.176.044.352 0 .132.044.352.044.528.044.22.044.44.044.748a13.5 13.5 0 01-.659 4.665c-.307.968-.747 1.98-1.362 2.992-.175.264-.351.484-.483.748l-.264.396c-.088.132-.175.22-.307.353-.22.22-.396.484-.615.748-.22.22-.44.484-.703.704-.967.88-2.109 1.76-3.383 2.376-1.318.616-2.724 1.1-4.262 1.364-1.538.22-3.031.176-4.481-.044-1.45-.22-2.768-.748-3.954-1.32-.308-.176-.571-.308-.879-.484l-.79-.528-.396-.264a2.201 2.201 0 01-.352-.308c-.22-.176-.483-.396-.703-.572-.834-.792-1.581-1.628-2.152-2.465-1.143-1.672-1.714-3.212-1.977-4.312-.088-.264-.132-.529-.176-.705-.044-.22-.088-.396-.088-.528-.044-.132-.044-.264-.044-.352 0 0 0 .044 0 0zM293 176.604c0 .044-65.594.132-146.522.132-80.884 0-146.478-.044-146.478-.132 0-.088 65.594-.132 146.522-.132 80.884.044 146.478.088 146.478.132z" fill="#1A2E35"/><path d="M224.726 93.957s-.044-2.949-.176-2.949l-6.019 1.32c-.044.397-.835 5.194-.703 5.634l6.766 1.892c.044 0 .132-5.765.132-5.897z" fill="#FFBF9D"/><path d="M224.726 99.414s0-.044.043-.132c.088-.66.044-3.52-.307-3.653-.396-.132-1.362.088-1.45.484-.088.396.176 3.609.176 3.609s.088.528.922.616c.484.044.616-.924.616-.924z" fill="#FFBF9D"/><path d="M223.012 100.426s0-.044.044-.132c.088-.66.044-3.52-.307-3.653-.396-.132-1.362.088-1.45.484-.088.397.175 3.609.175 3.609s.088.528.923.616c.483.088.615-.924.615-.924z" fill="#FFBF9D"/><path d="M221.342 100.954s0-.044.044-.132c.088-.66.044-3.52-.307-3.653-.396-.132-1.362.088-1.45.485-.088.396.176 3.608.176 3.608s.088.528.922.616c.484.088.615-.924.615-.924z" fill="#FFBF9D"/><path d="M219.673 101.438s0-.044.044-.132c.088-.66.044-3.52-.308-3.652-.395-.132-1.362.088-1.449.484-.088.396.175 3.608.175 3.608s.088.528.923.616c.483.089.615-.924.615-.924z" fill="#FFBF9D"/><path d="M222.968 96.95c.044 0 .088.616.132 1.408.044.748 0 1.364-.044 1.364s-.088-.616-.132-1.408c0-.748 0-1.364.044-1.364zm-1.504 3.961c.048-.001.056-.889.017-1.982-.038-1.093-.109-1.978-.158-1.976-.048.002-.056.89-.017 1.982.039 1.093.109 1.978.158 1.976z" fill="#FF9A6C"/><path opacity=".78" d="M219.75 101.043c.049-.001.056-.889.018-1.982-.039-1.093-.11-1.978-.158-1.976-.049.002-.057.89-.018 1.982.039 1.093.11 1.978.158 1.976z" fill="#FF9A6C"/><path d="M218.531 92.46s-2.373 5.414-2.021 5.766c.351.352 1.45.836 1.45.836l.571-6.601zM205.35 19.892l-1.757 20.243-10.105-.792c-.044-1.188 0-5.765 0-5.765s-4.218-.66-4.262-4.885c-.044-2.068.264-6.293.572-10.078a7.835 7.835 0 018.215-7.173 7.73 7.73 0 017.337 8.45z" fill="#FFBF9D"/><path d="M193.532 33.49s2.68.22 5.492-1.584c0 0-1.318 3.036-5.492 2.64V33.49z" fill="#FF9A6C"/><path d="M190.94 21.564c0 .308.264.572.571.616.352 0 .615-.22.615-.528 0-.308-.263-.572-.571-.616-.308-.044-.571.176-.615.528zm-.22-.836c.088.088.527-.264 1.186-.264.659 0 1.143.308 1.187.264.044-.044-.044-.176-.264-.308-.22-.132-.571-.308-.967-.308-.395 0-.746.132-.922.308-.176.132-.264.264-.22.308zm6.591.836c0 .308.263.572.571.616.351 0 .615-.22.615-.528 0-.308-.264-.572-.571-.616-.308-.044-.572.176-.615.528zm-.22-.748c.088.088.527-.264 1.186-.264.659 0 1.142.308 1.186.264.044-.044-.044-.176-.263-.308-.22-.132-.572-.308-.967-.308s-.747.132-.923.308c-.175.132-.263.308-.219.308zm-2.329 4.841c0-.044-.395-.088-1.054-.176-.176 0-.308-.044-.352-.176-.044-.133.044-.308.132-.485.176-.396.307-.836.483-1.276.659-1.804 1.186-3.256 1.099-3.3-.088-.044-.703 1.408-1.362 3.212-.176.44-.308.88-.484 1.277-.044.175-.175.395-.088.66.044.132.176.22.264.22.088.044.22.044.264.044.659 0 1.054.044 1.098 0zm1.889.44c-.088 0-.088.704-.703 1.188s-1.362.44-1.362.528c0 .044.176.132.484.132.307 0 .747-.088 1.142-.396.351-.308.527-.704.527-1.012.044-.264-.044-.44-.088-.44zm.264-7.79c.044.176.703.088 1.45.176s1.362.308 1.494.132c.044-.088-.044-.22-.308-.396a2.298 2.298 0 00-1.098-.396 2.912 2.912 0 00-1.143.132c-.263.132-.395.264-.395.352zm-5.931.528c.132.133.571 0 1.098 0 .527-.044 1.011.088 1.099-.044.044-.088-.044-.22-.22-.352a1.308 1.308 0 00-.879-.22c-.351 0-.703.132-.878.308-.22.088-.308.22-.22.308z" fill="#1A2E35"/><path d="M206.273 17.295c-.22 2.068-.791 4.621-.967 6.733 0 .176-.043.396-.131.573-.308.396-1.011 1.276-1.362.924-.879-.836-1.23-3.125-1.406-4.357-.176-1.188-.132-2.42-.308-3.609v-.088a3.48 3.48 0 00-1.23-2.156c-.176-.088-.307-.22-.483-.264-1.23-.44-3.295.352-4.525.836-.616.22-1.231.528-1.89.792a4.395 4.395 0 01-4.349-.352c-.747-.528-.835-2.244-.483-3.345.878-2.948 4.569-3.96 9.314-2.816 4.657 1.056 8.303 2.904 7.82 7.13z" fill="#1A2E35"/><path d="M203.945 21.784c.087-.044 2.899-.836 2.811 2.024-.088 2.905-2.943 2.2-2.943 2.113-.044-.088.132-4.137.132-4.137z" fill="#FFBF9D"/><path d="M204.691 24.864s.044.044.132.088c.088.044.22.088.396 0 .307-.088.571-.572.615-1.1 0-.264-.044-.528-.132-.704-.088-.22-.22-.352-.352-.396-.131-.044-.263.044-.307.132-.044.088-.044.132-.044.132s-.044-.044-.044-.176c0-.044.044-.132.132-.176.088-.044.176-.088.263-.044.22.044.396.22.528.484.088.22.175.528.131.792-.043.572-.351 1.1-.79 1.232-.22.044-.352 0-.44-.087-.088-.088-.088-.177-.088-.177z" fill="#FF9A6C"/><path d="M206.229 17.471c.044.044-.835.528-2.065.528-1.23.044-2.109-.44-2.065-.484.044-.088.923.264 2.065.264s2.021-.352 2.065-.308zm-.132.836c.044.044-.79.528-1.977.528-1.186.044-2.021-.44-1.977-.484.044-.088.879.264 1.977.264 1.143 0 1.977-.396 1.977-.308z" fill="#375A64"/><path d="M186.107 161.949l1.889 8.626s-8.128 4.797-7.952 6.425l16.827-3.037-2.373-13.554-8.391 1.54z" fill="#1A2E35"/><path d="M196.871 173.963l-.308-1.364-16.036 3.433s-.703.44-.527.968l16.871-3.037z" fill="#375A64"/><path d="M205.219 162.873l.263 8.802s-8.875 3.257-8.962 4.885l17.09.088.132-13.775h-8.523z" fill="#1A2E35"/><path opacity=".6" d="M213.654 176.648l-.044-1.408-16.388.44s-.747.308-.659.88l17.091.088z" fill="#375A64"/><path d="M185.184 169.343s-8.743-43.084-8.787-43.92l15.641-8.274 6.063 50.521-12.917 1.673zm19.683 1.452l-12.126-74.638V80.051l16.52 1.54c.219.616 5.623 89.292 5.623 89.292l-1.713-.088h-8.304z" fill="#1A2E35"/><path d="M183.251 78.906l-6.854 46.517 15.334-3.741 6.282-41.28-14.762-1.496z" fill="#1A2E35"/><path d="M197.442 82.823v.22c0 .176.044.396.088.66.088.616.176 1.452.308 2.553.263 2.244.659 5.457 1.186 9.417 1.01 7.966 2.592 18.924 4.261 31.026.835 6.073 1.582 11.838 2.241 17.075.176 1.32.308 2.596.483 3.829.176 1.232.396 2.464.572 3.608.351 2.333.659 4.489.966 6.47.615 3.96 1.055 7.173 1.362 9.373.176 1.1.264 1.981.352 2.553.043.308.043.528.087.66v.176c0 .044-.044 0-.044 0h.044v-.176c0-.132 0-.396-.044-.66-.043-.572-.175-1.453-.307-2.553-.264-2.244-.747-5.413-1.318-9.417-.308-1.981-.615-4.137-.967-6.47a377.724 377.724 0 01-.527-3.608c-.176-1.233-.307-2.509-.483-3.829a1382.075 1382.075 0 00-2.241-17.075c-1.669-12.102-3.251-23.06-4.305-30.982-.528-3.96-.967-7.173-1.231-9.417-.131-1.1-.263-1.98-.351-2.553-.044-.308-.088-.528-.088-.66s-.044-.22-.044-.22zm-9.226 86.124s0-.089-.044-.221-.044-.352-.088-.66a46.323 46.323 0 00-.439-2.464c-.396-2.156-.923-5.281-1.582-9.11-1.362-7.701-3.251-18.307-5.316-30.013-.132-.704-.22-1.452-.132-2.157.088-.704.22-1.452.308-2.156.219-1.452.439-2.86.659-4.225.439-2.772.878-5.457 1.274-8.009a688.113 688.113 0 012.372-13.51c.747-3.83 1.362-6.91 1.846-9.066.219-1.056.439-1.893.571-2.465.044-.264.132-.484.132-.616.043-.132.043-.22.043-.22s-.043.088-.043.22c-.044.132-.088.352-.176.616-.132.572-.352 1.365-.615 2.42-.527 2.113-1.187 5.194-1.933 9.022a452.355 452.355 0 00-2.417 13.511 614.487 614.487 0 00-1.318 8.009l-.659 4.225c-.088.704-.22 1.452-.307 2.156a6.468 6.468 0 00.131 2.245c2.109 11.706 3.998 22.312 5.404 30.013.703 3.829 1.274 6.954 1.67 9.11.22 1.056.351 1.892.483 2.464.044.264.088.484.132.66a.773.773 0 01.044.221zm7.981-51.836c.048-.008-.673-4.821-1.61-10.75-.937-5.93-1.735-10.73-1.783-10.723-.048.008.673 4.821 1.61 10.75.937 5.93 1.735 10.731 1.783 10.723zm8.538 53.552s.132.044.396.088c.263.044.615.088 1.098.088.923.088 2.197.132 3.603.176 1.406.044 2.68 0 3.602-.044.44 0 .835-.044 1.099-.088.263-.044.395-.044.395-.044 0-.044-.571-.044-1.494-.044h-3.602c-1.406-.044-2.68-.088-3.603-.088-.923-.088-1.494-.088-1.494-.044z" fill="#375A64"/><path d="M185.184 169.343s.176 0 .528-.044c.351-.044.834-.088 1.405-.132 1.187-.132 2.812-.353 4.57-.573 1.801-.22 3.383-.44 4.569-.616.571-.088 1.01-.176 1.362-.22.307-.044.527-.088.483-.088h-.527a22.56 22.56 0 01-1.406.132c-1.186.132-2.812.352-4.569.572-1.802.22-3.383.44-4.569.617-.572.088-1.011.176-1.362.22-.308.088-.484.088-.484.132zM162.119 51.401l9.885 7.525s9.182-15.71 10.017-16.678c.791-.969 2.856-2.025 2.856-2.025l-1.142 20.112s-4.965 12.718-11.775 12.014c-5.228-.528-14.235-14.347-14.235-14.347l4.394-6.6z" fill="#375A64"/><path opacity=".2" d="M171.828 58.663c-1.362 2.112-1.757 4.84-1.01 7.217.088.264.176.484.395.616.352.176.791 0 .967-.352.22-.308.22-.748.264-1.1.175.352.395.748.746.968.352.22.835.264 1.099-.044.307-.352.132-.924-.044-1.364-.835-1.893-1.67-3.829-2.504-5.721" fill="#000"/><path d="M162.37 57.427c1.306-2.048 2.315-3.74 2.254-3.78-.062-.04-1.17 1.59-2.477 3.638-1.306 2.048-2.315 3.74-2.253 3.78.061.04 1.169-1.59 2.476-3.638zm-.295-4.045c-.044-.044.088-.133.307-.088.088.044.22.132.264.308.044.176-.088.396-.22.44-.175.088-.395.088-.527-.044s-.132-.264-.088-.396c.088-.22.264-.264.264-.22 0 .044-.088.132-.088.264s.132.308.307.176c.176-.088.132-.265 0-.353-.087-.087-.175-.044-.219-.087zm9.929 10.298c-.044.044-.439-1.013-.439-2.377-.044-1.364.307-2.42.395-2.376.088 0-.132 1.056-.088 2.376-.044 1.32.22 2.377.132 2.377z" fill="#1A2E35"/><path d="M173.937 63.635c-.044.044-.703-.924-1.274-2.244-.571-1.32-.791-2.42-.747-2.465.088 0 .44 1.057 1.011 2.333.527 1.32 1.054 2.332 1.01 2.376z" fill="#1A2E35"/><path d="M205.526 38.33l-1.494-2.948h-10.807l-1.67 3.345-6.678 1.496-2.856 43.084c0 .528.132 1.1.396 1.584l26.229 1.012 1.054.44c.923-.572.352-2.992.352-4.092l.351-21.344 5.184-17.031-10.061-5.545z" fill="#375A64"/><path opacity=".2" d="M194.323 39.827l1.889-1.892c.703 1.716 1.45 3.432 2.153 5.193 2.46-1.452 4.833-3.08 7.03-4.929-2.417.792-4.833 1.54-7.25 2.332l-1.845-4.884a18.099 18.099 0 01-1.845 4.224" fill="#000"/><path d="M224.77 92.329l-7.074.352V72.349l-7.293-11.53 5.184-17.031c1.055.44 9.139 20.684 11.16 26.185a5.94 5.94 0 01.395 2.464l-2.372 19.892z" fill="#375A64"/><path d="M184.07 58.413c.506-5.128.857-9.291.785-9.298-.073-.007-.542 4.144-1.047 9.272-.506 5.128-.857 9.29-.784 9.298.072.007.541-4.144 1.046-9.272zm12.23-22.811c.088.044-.527 1.585-1.274 3.477-.044.132-.088.22-.132.352-.044.132-.088.264-.22.352-.131.132-.351.088-.483.044s-.22-.132-.307-.176c-.352-.22-.659-.44-.967-.66-.527-.396-.879-.616-.879-.66 0-.044.396.176.967.484.307.176.659.396 1.01.616.176.132.396.264.484.176.131-.088.175-.396.307-.616.747-1.892 1.406-3.389 1.494-3.389z" fill="#1A2E35"/><path d="M204.867 38.243c0 .044-.615.308-1.669.66-1.011.396-2.461.88-4.042 1.408-.308.088-.571.22-.879.308l-.132.044-.044-.132a92.997 92.997 0 01-1.362-3.388c-.351-.88-.527-1.409-.483-1.409.044 0 .264.484.659 1.32.396.837.879 2.025 1.45 3.39l-.176-.089c.264-.088.571-.176.879-.308l4.086-1.364c1.054-.264 1.713-.484 1.713-.44zm9.578 6.205c0 .088-1.494.484-3.251 1.276-1.758.792-3.076 1.629-3.12 1.585 0-.044.308-.265.835-.617a16.017 16.017 0 014.569-2.024c.572-.22.967-.264.967-.22z" fill="#1A2E35"/><path d="M196.3 35.602v.528c0 .352.044.837.044 1.453 0 1.276 0 3.08-.088 5.369-.176 4.532-.747 10.738-1.625 17.603-.44 3.432-.923 6.689-1.231 9.637-.307 2.95-.483 5.634-.439 7.922.044 2.244.22 4.093.439 5.325.088.616.176 1.1.22 1.452.044.132.044.264.044.396v.132s0-.044-.044-.132c-.044-.088-.044-.22-.088-.352-.044-.308-.176-.792-.263-1.408-.22-1.232-.44-3.08-.528-5.325-.088-2.244.044-4.973.352-7.921.307-2.993.791-6.206 1.23-9.638.879-6.821 1.494-13.026 1.713-17.56.132-2.244.132-4.092.176-5.324V35.91c.088-.264.088-.308.088-.308zm28.819 53.642c.003-.073-1.664-.214-3.724-.315-2.06-.101-3.732-.124-3.736-.052-.004.073 1.664.214 3.724.316 2.06.1 3.732.124 3.736.05zm-6.237.796c.044.044 0 .088.044.176s.132.132.22.088c.088-.088.044-.176-.044-.22-.088-.088-.176-.044-.22-.044 0-.044.044-.176.264-.132.088 0 .22.088.263.22a.356.356 0 01-.131.396c-.132.088-.308.132-.44.044-.131-.088-.131-.22-.131-.308 0-.22.175-.264.175-.22z" fill="#1A2E35"/><path opacity=".2" d="M210.491 60.819c-.747-1.408-1.538-2.773-2.285-4.18a56.95 56.95 0 001.538 21.96c.22-5.898.483-11.795.703-17.736" fill="#000"/><path d="M198.76 53.162s.132 0 .396-.044c.307 0 .747 0 1.23-.044 1.054 0 2.592-.044 4.481-.044h.132v.132c-.132 1.628-.263 3.52-.395 5.5v.089l-.044.044-.264.132a92.397 92.397 0 00-2.987 1.584l-.088.044-.044-.044c-1.011-.836-1.933-1.584-2.768-2.289l-.044-.044v-.043c.132-1.497.22-2.729.308-3.653.043-.396.087-.748.087-1.012v-.308.396c0 .264-.044.616-.044 1.012-.043.924-.131 2.112-.219 3.608l-.044-.087c.835.66 1.801 1.408 2.812 2.244h-.132c.922-.484 1.933-1.012 2.987-1.584l.264-.133-.088.089c.176-2.025.308-3.873.44-5.501l.131.132c-1.801 0-3.295-.044-4.393-.044-.527 0-.923-.044-1.274-.044-.264-.088-.396-.088-.44-.088zM185.8 85.067c0 .088-.571-.044-.923-.572-.351-.528-.263-1.056-.176-1.056.088 0 .088.44.396.924.307.484.747.66.703.704zm.703-.264c-.044.044-.528-.44-.747-1.232-.22-.792 0-1.452.088-1.408.088 0 0 .616.175 1.364.176.704.528 1.232.484 1.276zm19.77-2.948c.088 0 .132 1.056-.395 2.156-.527 1.144-1.362 1.76-1.406 1.716-.044-.044.659-.748 1.186-1.804.483-1.1.527-2.068.615-2.068z" fill="#1A2E35"/><path d="M161.591 52.237s-7.996-6.073-9.094-6.469c-1.845-.66-2.285-.484-2.285-.484l4.394 4.71s-4.613 1.583-4.965 1.76c-.351.22-.483 1.188.615 1.188.923 0 5.36.088 5.36.088l3.647 2.684 2.328-3.477z" fill="#FFBF9D"/><path d="M232.238 0h1.055c.176 0 .351 0 .571.044.22.044.439.044.703.088l.791.132c.263.088.571.132.878.22 1.231.308 2.768.88 4.306 1.892 1.538 1.013 3.163 2.42 4.481 4.357 1.274 1.937 2.285 4.357 2.549 7.13.043.704.087 1.364.043 2.112-.043.352.001.704-.087 1.056a8.81 8.81 0 01-.176 1.056c-.308 1.409-.703 2.905-1.45 4.27a15.44 15.44 0 01-2.768 3.828 15.384 15.384 0 01-3.998 2.86 15.343 15.343 0 01-4.877 1.497c-.439.088-.878.088-1.318.132-.439.044-.878.044-1.318.044-.878-.044-1.757-.132-2.636-.352-1.889-.396-3.69-1.189-5.228-2.2h.176c-1.802.747-3.603 1.451-5.316 2.155l-.308.133.088-.309c.527-1.98 1.054-3.872 1.582-5.72l.044.131c-1.494-1.98-2.461-4.268-2.856-6.513-.22-1.144-.264-2.244-.22-3.344.044-.528.044-1.1.132-1.629l.132-.792c.044-.264.132-.528.175-.748 1.011-4.005 3.515-6.997 5.976-8.713 1.23-.88 2.416-1.497 3.558-1.893.264-.088.528-.176.791-.308.264-.088.527-.132.747-.176.22-.044.483-.132.703-.176.22-.044.439-.044.659-.088.395-.044.747-.132 1.054-.132.308 0 .572 0 .791-.044h.571s-.044 0-.175.044c-.132 0-.264.044-.484.044-.219 0-.483.044-.79.044-.308.044-.659.088-1.055.176-1.582.308-3.91.924-6.326 2.685-2.417 1.716-4.833 4.664-5.8 8.581-.044.264-.132.484-.176.748-.044.264-.087.528-.131.748a9.623 9.623 0 00-.132 1.585c-.088 1.056 0 2.156.219 3.3a14.8 14.8 0 002.812 6.382l.044.044v.087c-.483 1.849-1.01 3.741-1.537 5.721l-.22-.22c1.757-.704 3.515-1.408 5.316-2.156l.088-.044.088.044a14.835 14.835 0 005.14 2.157c.835.175 1.713.308 2.592.308.44 0 .879 0 1.274-.044.44-.045.835-.045 1.274-.089 1.67-.22 3.295-.704 4.745-1.452a16.733 16.733 0 003.911-2.816 16.948 16.948 0 002.723-3.74c.703-1.321 1.143-2.773 1.45-4.182.044-.352.088-.704.176-1.056.044-.352.044-.704.088-1.056.088-.704 0-1.364-.044-2.068-.264-2.685-1.186-5.105-2.46-6.998-1.274-1.892-2.856-3.344-4.35-4.312a15.38 15.38 0 00-4.262-1.937 8.526 8.526 0 00-.878-.22l-.791-.132a8.632 8.632 0 01-.659-.132c-.22-.044-.396-.044-.571-.044-.308-.044-.571-.044-.791-.044-.22.088-.308.044-.308.044z" fill="#1A2E35"/><path d="M237.247 18.967h-.703c-.484 0-1.099 0-1.933.044-1.626 0-3.911.044-6.459.044h-.044v-.044a9.014 9.014 0 00-.175-1.056c-.44-3.124-.835-5.941-1.099-7.745l.044.044h-2.328.615c.395 0 1.01 0 1.713-.044h.044v.044c.264 1.804.703 4.62 1.142 7.745.044.352.088.748.176 1.056l-.044-.044h8.919c.088-.044.132-.044.132-.044z" fill="#71B219"/><path d="M228.328 19.144h-.219l-.044-.22v-.044l-.132-.88-1.099-7.658h-2.108c-.176 0-.22 0-.22-.044 0 0 0-.044.176-.044h.439l1.626-.044v-.044l.043.044h.132v.176l.044.044h-.044c.264 1.804.659 4.577 1.143 7.613l.131.969h8.787c.22 0 .22 0 .22.044s0 .044-.22.088h-.527l-1.933.044-6.195-.044zm-.044-.132h1.714-1.714zm-.527-3.125l.439 2.993-.131-.969c-.132-.66-.22-1.364-.308-2.024z" fill="#71B219"/><path d="M227.933 17.12h.703c.483 0 1.098 0 1.933-.045 1.669 0 3.998-.044 6.678-.044l-.044.044c.176-1.144.396-2.332.615-3.608.132-.66.22-1.277.308-1.893l.044.088c-3.12 0-5.888 0-7.865.044h-3.163.835c.571 0 1.362 0 2.328-.044 1.977 0 4.745-.044 7.865-.088h.088v.088c-.088.616-.22 1.232-.308 1.893-.22 1.276-.439 2.464-.615 3.608v.044h-9.314c-.088-.044-.088-.044-.088-.088z" fill="#71B219"/><path d="M230.569 17.207h-2.592c-.044 0-.088 0-.088-.044s.044-.044.088-.044h.659l1.933-.044 6.59-.044.615-3.52c.088-.616.22-1.189.308-1.76l-7.733.043h-3.119c-.044 0-.088 0-.088-.044s.044-.044.088-.044h.791l2.328-.044 7.777-.044h.219l-.044.22-.922 5.281-.044.22h-.22l-6.546-.132zm6.546-.132h-.966.966zm1.055-5.369c-.088.572-.22 1.189-.308 1.76l-.615 3.521.923-5.28zm-.088-.132h-1.933 1.933zm-7.601 9.902s0-.088-.044-.22a1.017 1.017 0 00-.352-.484c-.175-.132-.527-.22-.79-.088-.308.088-.572.44-.572.792 0 .352.264.704.572.792a.715.715 0 00.79-.132c.22-.132.308-.352.352-.484.044-.088 0-.176.044-.176 0 0 .044.088 0 .22a1.351 1.351 0 01-.308.528c-.219.176-.571.264-.922.176-.352-.132-.659-.484-.659-.88 0-.44.307-.792.615-.924a.95.95 0 01.922.132c.22.176.308.396.352.528v.22z" fill="#71B219"/><path d="M229.558 22.488c-.088 0-.219 0-.307-.044-.352-.088-.703-.484-.703-.968s.351-.836.659-.968c.395-.132.747 0 .966.132.264.22.352.44.352.572 0 .088.044.176 0 .22v.22c0 .088-.088.352-.352.572-.131.176-.351.264-.615.264zm-.175-1.892c-.044 0-.088 0-.132.044-.308.088-.615.44-.615.836 0 .44.307.748.615.836.044 0 .088.044.132.044-.044 0-.088 0-.132-.044-.308-.088-.615-.44-.615-.836 0-.352.263-.748.571-.836.088-.044.132-.044.176-.044zm.175.088c-.088 0-.175 0-.263.044a.826.826 0 00-.527.748c0 .352.263.66.527.748.307.132.615 0 .747-.088.219-.132.263-.352.307-.44 0-.088.044-.132.044-.176v-.088c0-.044 0-.088-.044-.176s-.132-.308-.307-.44c-.088-.088-.264-.132-.484-.132zm6.766.747s0-.088-.044-.22a1.02 1.02 0 00-.351-.484c-.176-.132-.528-.22-.791-.088-.308.088-.571.44-.571.793 0 .352.263.704.571.792a.717.717 0 00.791-.132c.219-.132.307-.352.351-.484 0-.088 0-.177.044-.177 0 0 .044.088 0 .22a1.36 1.36 0 01-.307.529c-.22.176-.572.264-.923.176-.352-.132-.659-.484-.659-.88 0-.44.307-.793.615-.925a.953.953 0 01.923.132 1.1 1.1 0 01.351.529v.22z" fill="#71B219"/><path d="M235.402 22.444c-.088 0-.22 0-.308-.044-.351-.088-.703-.484-.703-.968s.352-.836.659-.968c.396-.132.747 0 .967.176.263.22.307.44.351.572 0 .088.044.176 0 .22v.22c0 .088-.088.352-.351.572-.132.132-.352.22-.615.22zm-.22-1.892c-.044 0-.088 0-.088.044-.307.088-.615.44-.615.836 0 .44.308.748.615.836.044 0 .088.044.132.044-.044 0-.088 0-.132-.044-.307-.088-.615-.44-.615-.836 0-.44.308-.748.571-.836.088 0 .088-.044.132-.044zm.22.088c-.088 0-.176 0-.264.044a.826.826 0 00-.527.748c0 .352.263.66.527.748.308.132.615 0 .747-.088.22-.132.263-.352.307-.44 0-.088.044-.132.044-.176v-.088c0-.044 0-.088-.044-.176s-.131-.308-.307-.44c-.132-.044-.264-.132-.483-.132z" fill="#71B219"/></g><defs><clipPath id="clip0"><path fill="#fff" d="M0 0h293v177H0z"/></clipPath></defs></svg>