<svg width="237" height="227" fill="none" xmlns="http://www.w3.org/2000/svg"><g clip-path="url(#clip0)"><path d="M9.097 134.036s4.653-1.538 6.875 9.127c2.223 10.666 2.585 16.562 2.585 16.562s.723 2.308 2.43 1.385c1.705-.923 4.548-4.051 6.719-2.769 2.223 1.333 2.274 4.205.724 7.948-1.551 3.743-4.55 12.152-4.86 12.921-.258.77-.154 2 1.138 1.539 1.24-.462 9.253-5.538 11.475-1.641 2.223 3.897-3.773 13.691-4.393 14.819-.62 1.077-.517 1.641-.052 2.102.465.462 2.998-1.538 5.324-2.871 2.326-1.385 5.272-2.513 6.358-.154 1.085 2.358-.569 10.46-11.837 21.382l-5.531 4.717-6.927-2.41C4.6 210.899-.103 204.028 0 201.413c.103-2.615 3.256-2.615 5.944-2.256 2.688.359 5.79 1.231 6.048.667.259-.565.155-1.129-.879-1.898-.982-.769-10.338-7.537-9.77-11.998.57-4.461 9.925-2.769 11.218-2.821 1.344-.051.982-1.281.465-1.845-.569-.616-6.565-7.179-9.46-10.102-2.842-2.923-3.928-5.589-2.377-7.64 1.499-2 5.324-.154 7.236 0 1.913.154 1.706-2.205 1.706-2.205s-1.964-5.589-3.98-16.255c-2.016-10.716 2.998-11.024 2.998-11.024" fill="#F5F5F5"/><path d="M26.104 217.463c-1.5-7.846-3.722-18.665-6.203-30.612-2.481-11.948-4.704-22.767-6.255-30.612-.775-3.897-1.395-7.076-1.86-9.281-.207-1.077-.414-1.949-.518-2.513a6.336 6.336 0 00-.155-.666c-.051-.154-.051-.206-.051-.206s0 .103.052.206c.051.153.051.359.103.666.103.616.258 1.436.465 2.513.414 2.205.982 5.384 1.758 9.281 1.498 7.845 3.721 18.664 6.202 30.612 2.482 11.947 4.704 22.766 6.255 30.612" fill="#F0F1F2"/><path d="M23.88 162.853s-.102.154-.31.411c-.206.256-.464.717-.775 1.23a93.3 93.3 0 00-2.326 4.102 132.18 132.18 0 00-2.222 4.154c-.259.512-.517.923-.672 1.23-.155.308-.259.462-.207.462 0 0 .103-.154.31-.41.207-.257.465-.718.775-1.231.62-1.026 1.448-2.513 2.326-4.102.88-1.59 1.655-3.025 2.275-4.102.258-.513.517-.923.672-1.231.103-.308.155-.461.155-.513zm-7.287 11.515c.03-.048-2.892-1.865-6.525-4.058-3.634-2.193-6.604-3.931-6.634-3.883-.03.048 2.892 1.865 6.526 4.058 3.634 2.193 6.604 3.931 6.633 3.883zm4.652 18.174s-.155-.051-.517-.154c-.362-.102-.879-.256-1.396-.358a102.86 102.86 0 01-9.2-2.872c-.518-.205-.983-.359-1.396-.513a8.372 8.372 0 00-.517-.154s.155.103.465.257c.31.154.775.359 1.344.564 1.137.461 2.74 1.025 4.549 1.589 1.809.564 3.463.975 4.652 1.282.62.154 1.085.257 1.447.308.362.051.569.103.569.051zm8.89-8.973s-.155.103-.362.308c-.258.205-.568.512-.982.923-.827.769-1.964 1.897-3.204 3.076l-3.154 3.128c-.413.41-.723.718-.93.974-.207.257-.31.359-.31.359s.155-.102.362-.307c.258-.206.568-.513.982-.923.827-.77 1.964-1.898 3.205-3.077l3.153-3.128c.413-.41.723-.718.93-.974.207-.205.31-.308.31-.359zm6.1 15.537s-.207.153-.465.41c-.31.307-.776.718-1.293 1.179-1.085.974-2.532 2.41-4.135 3.948a344.112 344.112 0 00-4.083 4c-.466.513-.88.923-1.19 1.231-.258.307-.413.461-.413.461s.207-.154.466-.41c.31-.308.775-.718 1.292-1.179 1.085-.975 2.532-2.41 4.135-3.949 1.602-1.538 3.05-2.974 4.084-3.999.465-.513.878-.923 1.188-1.231.31-.256.466-.41.414-.461zm-11.372 10.87s-.207-.102-.62-.205c-.466-.154-1.034-.308-1.758-.564a232.901 232.901 0 01-5.84-1.897c-2.275-.769-4.291-1.538-5.739-2.051-.723-.257-1.292-.462-1.757-.667-.413-.154-.62-.205-.672-.205l.62.308c.414.154.982.41 1.706.718 1.447.615 3.463 1.384 5.738 2.153a106.89 106.89 0 005.84 1.795c.776.205 1.345.359 1.81.461.465.103.672.154.672.154zm196.01-198.849H172.49v69.582h48.383V11.127z" fill="#F0F1F2"/><path d="M218.443 11.127h-48.382v69.582h48.382V11.127z" fill="#F5F5F5"/><path d="M212.447 18.665h-36.39V73.17h36.39V18.665z" fill="#fff"/><path d="M212.447 73.171v-3.999c0-2.615 0-6.41-.052-11.23 0-9.589-.051-23.228-.051-39.277l.103.102h-36.39l.155-.154c0 20.562 0 39.534-.052 54.507l-.103-.103c11.062 0 20.159.052 26.465.052 3.154 0 5.635 0 7.289.051h1.912c.465.051.724.051.724.051h-2.533c-1.706 0-4.135 0-7.288.051-6.358 0-15.456.052-26.517.052h-.104v-.103c0-14.972 0-33.945-.051-54.506v-.154h36.648v.102c0 16.05-.052 29.69-.052 39.33 0 4.82 0 8.614-.051 11.177v3.744c-.052.205-.052.307-.052.307z" fill="#F0F1F2"/><path d="M218.598 11.127c.052 0-.31.513-.879 1.23a72.576 72.576 0 01-2.274 2.872c-.93 1.077-1.758 2.051-2.378 2.769-.62.666-1.034 1.077-1.085 1.077-.052 0 .31-.462.93-1.18.672-.769 1.447-1.743 2.326-2.82.879-1.077 1.654-2 2.326-2.82.621-.718.982-1.18 1.034-1.128z" fill="#F0F1F2"/><path d="M212.602 72.966a42.402 42.402 0 006.358 7.845l-6.358-7.845z" fill="#fff"/><path d="M218.96 80.863s-.465-.359-1.086-.974c-.672-.667-1.499-1.59-2.378-2.666-.878-1.077-1.602-2.154-2.119-2.923-.517-.77-.775-1.282-.724-1.282.052 0 .362.461.879 1.18a61.526 61.526 0 002.171 2.82c.879 1.076 1.706 2.05 2.326 2.717.569.667.931 1.077.931 1.128z" fill="#F0F1F2"/><path d="M170.009 80.657c2.12-2.563 4.239-5.178 6.358-7.742l-6.358 7.742z" fill="#fff"/><path d="M173.335 76.853c1.743-2.135 3.103-3.908 3.036-3.962-.066-.053-1.534 1.634-3.277 3.768-1.744 2.134-3.104 3.907-3.037 3.96.066.054 1.534-1.632 3.278-3.766zm2.662-58.239c.067-.053-1.213-1.77-2.86-3.836-1.647-2.065-3.036-3.697-3.104-3.644-.067.052 1.214 1.77 2.861 3.835 1.647 2.066 3.036 3.697 3.103 3.645zm25.13 11.126h-12.199v34.304h12.199V29.74zM68.955 0v38.355H13.44L11.424.256 68.954 0z" fill="#F0F1F2"/><path d="M11.44.243v37.995h55.516V.243H11.441z" fill="#fff"/><path d="M67.197 38.508H11.165V0h56.032v38.508zm-55.515-.512H66.68V.513H11.682v37.483z" fill="#F0F1F2"/><path d="M60.891 4.974H17.419v28.56h43.472V4.975z" fill="#fff"/><path d="M60.943 4.974h-3.205c-2.068 0-5.117 0-8.942.051-7.65 0-18.506.051-31.325.051l.104-.102v28.56l-.155-.153c16.385 0 31.53 0 43.471.051l-.103.103c0-8.666.051-15.793.051-20.767 0-2.461 0-4.41.052-5.743V5.538c.052-.359.052-.564.052-.564v2c0 1.333 0 3.23.052 5.743 0 4.973.051 12.1.051 20.818v.102h-.103c-11.94 0-27.086 0-43.472.052h-.155V4.87h.104c12.819 0 23.674.052 31.376.052 3.825 0 6.874.05 8.942.05h3.205z" fill="#F0F1F2"/><path d="M11.424.154c0-.052.361.205.93.615a50.226 50.226 0 014.239 3.384c.517.462.827.77.775.82-.052.052-1.396-1.025-3.05-2.358-1.602-1.282-2.946-2.41-2.894-2.461zm52.601 2.579C65.68 1.433 66.98.324 66.928.257c-.053-.066-1.44.934-3.096 2.235-1.656 1.3-2.956 2.408-2.903 2.475.053.067 1.44-.934 3.096-2.234z" fill="#F0F1F2"/><path d="M66.887 38.252c-2.067-1.64-4.135-3.333-6.203-4.974l6.203 4.974z" fill="#fff"/><path d="M66.897 38.284c.054-.066-1.287-1.233-2.995-2.606-1.707-1.373-3.135-2.433-3.19-2.367-.053.066 1.287 1.233 2.995 2.606 1.708 1.373 3.136 2.433 3.19 2.367zm-52.374-2.236c1.635-1.282 2.917-2.376 2.864-2.443-.054-.066-1.422.92-3.056 2.202-1.635 1.282-2.917 2.376-2.864 2.442.054.067 1.422-.919 3.056-2.2zm11.73-22.158v9.537h27.344V13.89H26.253z" fill="#F0F1F2"/><path d="M198.823 127.305c7.791-7.324 8.105-19.544.701-27.293-7.403-7.749-19.72-8.093-27.511-.768s-8.105 19.545-.701 27.293c7.403 7.749 19.721 8.093 27.511.768z" fill="#ECECEC"/><path d="M195.659 123.994c5.947-5.591 6.182-14.922.527-20.842-5.656-5.92-15.062-6.186-21.008-.595-5.947 5.591-6.183 14.922-.527 20.842 5.656 5.919 15.061 6.186 21.008.595z" fill="#F5F5F5"/><path d="M195.958 123.627c-.052-.051.362-.564 1.034-1.487.672-.923 1.55-2.41 2.119-4.359.31-.974.517-2.051.62-3.281.052-1.18.052-2.462-.207-3.795-.103-.666-.31-1.333-.516-1.999-.207-.667-.517-1.334-.827-1.949-.362-.615-.724-1.282-1.189-1.897a15.866 15.866 0 00-1.499-1.744c-.569-.512-1.138-1.025-1.758-1.487-.62-.461-1.24-.82-1.912-1.128a12.354 12.354 0 00-1.965-.82c-.672-.205-1.344-.41-2.016-.513-1.344-.256-2.636-.256-3.825-.205-1.189.103-2.326.308-3.256.615a15.289 15.289 0 00-4.342 2.154c-.931.667-1.447 1.077-1.499 1.025-.052-.051.362-.564 1.24-1.384.879-.769 2.326-1.795 4.394-2.564a16.316 16.316 0 013.463-.82 13.756 13.756 0 014.084.102c.724.103 1.447.257 2.171.513.724.205 1.447.513 2.171.872.724.359 1.396.769 2.067 1.23.672.462 1.293 1.026 1.913 1.59a17.804 17.804 0 011.602 1.846c.466.667.879 1.333 1.241 2.051.362.718.672 1.436.879 2.102.258.718.413 1.436.517 2.154.258 1.436.258 2.769.155 4.051-.155 1.282-.414 2.41-.776 3.435-.723 2.051-1.757 3.487-2.532 4.359-.931 1.025-1.499 1.384-1.551 1.333z" fill="#F0F1F2"/><path d="M180.141 120.499l-1.861 1.795-1.603-1.641 1.809-1.744c-1.499-1.743-2.532-3.794-2.687-5.384l2.894-1.076c.207 1.435.931 3.025 1.964 4.307l2.74-2.666c-1.344-2.257-2.74-4.872-.362-7.179 1.758-1.692 4.497-1.897 7.34.41l1.861-1.795 1.602 1.641-1.809 1.744c1.138 1.333 1.965 2.82 2.275 4.307l-2.843 1.128c-.362-1.282-.879-2.41-1.603-3.333l-2.791 2.718c1.344 2.256 2.74 4.82.362 7.076-1.706 1.794-4.445 1.999-7.288-.308zm5.685-8.717l2.327-2.256c-1.034-.667-1.861-.564-2.43-.051-.517.564-.362 1.384.103 2.307zm-1.188 6.717c.568-.564.413-1.333 0-2.307l-2.275 2.205c.931.666 1.758.615 2.275.102z" fill="#F0F1F2"/><path d="M109.762 176.038c10.683-3.672 16.349-15.217 12.657-25.787-3.692-10.569-15.344-16.161-26.026-12.49-10.682 3.672-16.349 15.217-12.657 25.786 3.692 10.57 15.344 16.162 26.026 12.491z" fill="#ECECEC"/><path d="M108.171 171.484c8.147-2.801 12.47-11.6 9.657-19.654-2.814-8.055-11.698-12.314-19.844-9.514-8.147 2.8-12.47 11.599-9.657 19.654 2.813 8.054 11.698 12.314 19.844 9.514z" fill="#F5F5F5"/><path d="M117.647 151.368c-.103.051-.362-.564-.982-1.641-.62-1.026-1.654-2.513-3.257-3.897a15.828 15.828 0 00-2.894-2c-1.137-.564-2.378-1.077-3.722-1.436-.672-.154-1.396-.307-2.119-.359-.724-.051-1.499-.102-2.275-.051-.775.051-1.55.154-2.326.308-.775.153-1.55.41-2.326.666-.775.308-1.499.616-2.17 1.026-.673.41-1.345.82-1.913 1.333-.62.461-1.138.974-1.654 1.538-.517.513-.93 1.077-1.344 1.692-.827 1.128-1.396 2.359-1.861 3.538a17.877 17.877 0 00-.827 3.385c-.259 2.102-.052 3.897.206 5.076.207 1.179.414 1.846.362 1.897-.051.051-.413-.564-.775-1.743-.362-1.18-.724-2.974-.569-5.23.104-1.128.31-2.359.724-3.641s1.034-2.564 1.86-3.846c.415-.615.88-1.23 1.448-1.846.517-.564 1.137-1.128 1.758-1.692a14.822 14.822 0 012.067-1.435 19.36 19.36 0 012.326-1.129c.827-.307 1.654-.564 2.481-.717a20.422 20.422 0 012.482-.308c.827-.051 1.654 0 2.429.102.775.103 1.551.206 2.274.411 1.448.359 2.792.974 3.981 1.641 1.137.666 2.171 1.435 2.946 2.204 1.654 1.59 2.585 3.18 3.101 4.308.517 1.128.621 1.846.569 1.846z" fill="#F0F1F2"/><path d="M107.774 165.058l.931 2.513-2.275.82-.879-2.461c-2.326.667-4.755.769-6.357.256l.258-3.23c1.447.41 3.308.462 5.014 0l-1.396-3.794c-2.739.307-5.892.461-7.081-2.769-.879-2.41.103-5.077 3.566-6.82l-.93-2.513 2.274-.82.879 2.461c1.758-.461 3.567-.615 5.117-.307l-.103 3.179c-1.396-.257-2.74-.205-3.928.102l1.395 3.846c2.74-.308 5.841-.461 7.03 2.718.931 2.41-.103 5.076-3.515 6.819zm-5.944-9.178l-1.189-3.23c-1.086.717-1.344 1.538-1.086 2.307.31.769 1.189.974 2.275.923zm5.944 4.051c-.31-.769-1.085-.975-2.223-.975l1.138 3.128c1.033-.666 1.344-1.435 1.085-2.153z" fill="#F0F1F2"/><path d="M27.661 117.316c9.506-.118 17.116-7.834 16.997-17.235-.118-9.401-7.92-16.927-17.425-16.809-9.506.118-17.115 7.834-16.997 17.235.118 9.401 7.92 16.927 17.425 16.809z" fill="#ECECEC"/><path d="M27.61 113.266c7.222-.09 13.004-5.97 12.913-13.134-.09-7.164-6.017-12.9-13.24-12.81-7.221.09-13.002 5.97-12.912 13.134.09 7.164 6.018 12.899 13.24 12.81z" fill="#F5F5F5"/><path d="M40.525 99.733c-.103 0-.155-.565-.362-1.539a12.66 12.66 0 00-1.55-3.948c-.466-.77-1.034-1.59-1.758-2.359a13.148 13.148 0 00-2.584-2.102c-.517-.308-1.034-.615-1.603-.82a9.351 9.351 0 00-1.809-.616c-.62-.154-1.24-.308-1.912-.359-.672-.051-1.344-.102-2.016-.051-.672.051-1.344.103-2.016.256-.672.103-1.293.308-1.913.513-.62.205-1.189.513-1.706.77a15.79 15.79 0 00-1.55.974c-.93.717-1.758 1.487-2.43 2.307-.672.82-1.137 1.692-1.55 2.461-.776 1.641-1.086 3.077-1.19 4.102-.154 1.026-.154 1.59-.206 1.59-.052 0-.155-.564-.155-1.59 0-1.025.207-2.564.93-4.358.362-.872.879-1.795 1.551-2.718.672-.871 1.499-1.794 2.481-2.564a10.92 10.92 0 011.602-1.076 15.576 15.576 0 011.861-.872 15.118 15.118 0 012.016-.615c.724-.154 1.448-.257 2.171-.257.724-.051 1.448 0 2.171.103.724.102 1.396.205 2.068.41.672.205 1.292.41 1.912.718.62.256 1.19.615 1.706.923 1.086.666 1.964 1.487 2.74 2.307.723.82 1.344 1.692 1.757 2.564a13.012 13.012 0 011.344 4.256c.104 1.025.052 1.59 0 1.59z" fill="#F0F1F2"/><path d="M28.998 108.039l.052 2.256-2.016.052-.052-2.205c-2.015-.051-3.98-.667-5.117-1.487l1.034-2.513c1.034.718 2.533 1.231 3.98 1.334l-.103-3.385c-2.275-.461-4.808-1.179-4.91-4.05-.053-2.154 1.446-4 4.651-4.462l-.052-2.256 2.016-.051.052 2.205c1.55.102 3.05.461 4.187 1.128l-.93 2.513a8.309 8.309 0 00-3.153-.975l.103 3.436c2.274.461 4.755 1.128 4.859 3.999.103 2.103-1.396 4-4.6 4.461zm-2.274-8.87l-.103-2.872c-1.086.256-1.5.872-1.448 1.538.052.667.672 1.077 1.55 1.334zm3.618 4.768c0-.718-.62-1.077-1.499-1.333l.052 2.769c1.034-.256 1.499-.82 1.447-1.436z" fill="#F0F1F2"/><path d="M126.021 26.612c1.241-2.153 1.913-4.666 1.913-7.332 0-8.256-6.668-14.973-14.887-14.973-1.396 0-2.688.205-3.98.564 6.306 1.744 10.958 7.538 10.958 14.409 0 6.87-4.652 12.665-10.958 14.408a14.34 14.34 0 003.98.564c2.894 0 5.582-.82 7.908-2.256l7.03 2.667-1.964-8.05z" fill="#ECECEC"/><path d="M222.94 219.001c0 .051-49.157.154-109.79.154-60.633 0-109.79-.052-109.79-.154 0-.051 49.157-.154 109.79-.154 60.633 0 109.79.103 109.79.154z" fill="#1A2E35"/><path d="M62.545 202.541l.414 12.768 3.256 9.999c.259.718-.207 1.487-.93 1.692-.414.102-.827 0-1.19-.256-2.067-1.744-9.614-8.256-9.614-9.179 0-1.077-1.343-13.434-1.343-13.434l9.407-1.59z" fill="#71B219"/><path d="M65.336 226.949l-10.855-10.307.052.564c.052.462.207.923.517 1.231.879.923 3.308 3.333 9.046 8.255.362.308.775.41 1.24.257z" fill="#F0F1F2"/><path d="M56.91 212.386c.31.205.466.667.26 1.026-.208.359-.673.461-1.035.256-.361-.205-.517-.769-.31-1.077.207-.307.827-.461 1.086-.154" fill="#fff"/><path d="M62.08 221.565c.051.051.31-.667 1.085-1.077.724-.41 1.448-.308 1.448-.359 0-.051-.156-.103-.466-.154-.31-.051-.723.051-1.137.256-.413.206-.672.565-.827.821-.155.308-.155.513-.103.513zm.982 1.641c.052.051.465-.411 1.085-.616.672-.256 1.241-.154 1.241-.205.052-.051-.62-.308-1.344-.051-.672.256-1.034.872-.982.872zm-2.842-3.744c.05.052.671-.615 1.653-1.077.982-.461 1.861-.461 1.861-.564 0-.051-.93-.205-2.016.308-.982.513-1.55 1.333-1.499 1.333zm-.414-3.845c.051.051.723-.257 1.654-.359.93-.103 1.654.102 1.705 0 .052-.052-.723-.41-1.705-.308-1.034.103-1.706.615-1.654.667zm-.259-3.744c.052.052.724-.41 1.706-.41.982-.051 1.706.41 1.706.308 0-.051-.155-.205-.414-.359-.31-.154-.775-.308-1.292-.256-.517 0-.982.153-1.292.307-.259.205-.414.359-.414.41zm1.654-1.128s.052-.153 0-.461a3.063 3.063 0 00-.465-1.231c-.155-.205-.31-.513-.672-.666-.207-.052-.465-.052-.569.153-.155.154-.155.359-.155.565.052.82.827 1.538 1.706 1.64.93.052 1.758-.512 2.068-1.23.051-.205.103-.41 0-.616a.521.521 0 00-.569-.256c-.362.103-.62.308-.827.462-.413.358-.672.769-.827 1.025-.155.256-.207.462-.155.462.052.051.31-.667 1.137-1.334.207-.153.465-.359.724-.41.155 0 .258.051.31.154.052.103.052.256 0 .41-.258.564-1.034 1.128-1.81 1.077-.775-.051-1.447-.718-1.498-1.333 0-.154 0-.308.103-.41.104-.103.207-.154.31-.103.259.103.414.359.569.564.62.821.569 1.538.62 1.538z" fill="#1A2E35"/><path d="M87.615 204.438l-.672 9.538s9.563 3.897 9.614 5.64l-18.712-.615.414-14.922 9.356.359z" fill="#71B219"/><path d="M81.205 213.001a.799.799 0 00-.568.872c.051.359.465.616.827.564.362-.102.672-.564.568-.923-.103-.359-.62-.666-.93-.461m-3.256 5.948l.103-1.487 17.885 1.128s.827.41.723.974l-18.712-.615z" fill="#F0F1F2"/><path d="M87.253 213.873c0 .103-.465.103-.93.411-.466.256-.724.666-.776.615-.103 0 .052-.564.62-.872.57-.359 1.086-.205 1.086-.154zm1.913.872c0 .103-.362.205-.724.615-.31.359-.413.769-.517.769-.103 0-.155-.512.259-.974.465-.461.982-.461.982-.41zm1.034 2.359c-.104 0-.207-.462.051-.923.258-.513.672-.667.724-.616.051.052-.259.308-.414.718-.207.462-.258.821-.362.821zm-3.05-5.384c-.052.102-.466-.052-.982-.052-.517 0-.93.154-.983.103-.051-.051.362-.41.983-.41.62-.052 1.033.256.982.359zm.103-1.949c0 .051-.362.103-.93-.051a4.267 4.267 0 01-.982-.308c-.156-.102-.362-.205-.517-.307-.104-.052-.207-.103-.259-.206-.103-.102-.155-.358 0-.461a.47.47 0 01.414-.205c.155 0 .258.051.362.051.206.051.413.154.568.205.362.154.62.41.827.616.414.41.569.769.517.769-.052.051-.258-.257-.672-.616-.207-.153-.465-.359-.827-.512-.155-.052-.362-.154-.517-.205-.207-.052-.362-.052-.413 0v.102c.051.051.103.103.206.154l.466.308c.31.153.62.307.878.359.517.205.88.256.88.307z" fill="#1A2E35"/><path d="M87.15 209.925c-.052 0-.207-.308-.207-.923 0-.308.052-.667.155-1.026.052-.205.155-.358.258-.564.104-.205.259-.41.62-.461.207 0 .31.154.362.256.052.103.052.257.104.359.052.205 0 .41 0 .616-.052.41-.259.717-.414.923-.362.461-.775.564-.775.512-.052-.051.31-.205.569-.666.155-.205.258-.513.31-.872 0-.154.051-.359 0-.513 0-.205-.104-.359-.155-.359-.104 0-.259.154-.362.308-.103.154-.207.308-.259.513-.103.307-.206.666-.206.923-.052.615.051.923 0 .974zm-37.993-99.63l2.792 102.553 14.731-.462 3.515-105.629-21.038 3.538z" fill="#1A2E35"/><path d="M79.81 106.603s10.958 43.483 11.268 50.918c.362 7.435-2.326 53.737-2.326 53.737H74.331l1.188-52.763-10.958-44.662 2.636-6.973 12.613-.257z" fill="#1A2E35"/><path d="M70.919 111.936v.564c0 .359-.052.923-.052 1.538-.052 1.385-.155 3.333-.258 5.743-.259 4.872-.62 11.537-.982 18.921-.414 7.384-.776 14.101-1.034 18.921-.155 2.41-.259 4.359-.362 5.743-.052.667-.103 1.179-.103 1.538 0 .154-.052.308-.052.411v-.411c0-.359.052-.923.052-1.538.051-1.384.155-3.333.258-5.743.258-4.871.62-11.537.982-18.972.414-7.384.776-14.101 1.034-18.921.155-2.41.258-4.358.362-5.743.052-.667.103-1.179.103-1.538 0-.154.052-.308.052-.41v-.103z" fill="#375A64"/><path d="M69.317 50.866s5.375 26.356 5.427 33.791c.052 7.435 2.688 21.946 2.688 21.946H54.223l-.517-40.2-1.654-11.999 3.463-4.923 13.802 1.385z" fill="#F5F5F5"/><path d="M69.575 51.635s5.53 1.59 6.978 3.64c1.137 1.59 2.688 31.946 2.688 31.946l2.378 26.715-2.326-.205-3.257-9.999-6.461-52.097z" fill="#71B219"/><path d="M76.553 55.276l15.61 14.203 19.229-6.204 3.826 7.999-20.522 9.23c-2.946 1.23-4.755.564-6.823-1.077l-10.751-8.563-.569-15.588z" fill="#71B219"/><path d="M107.656 66.426a.409.409 0 00.17-.555.416.416 0 00-.56-.168.41.41 0 00-.17.555c.108.2.359.275.56.168z" fill="#1A2E35"/><path d="M107.464 66.505h-.103c-.104-.051-.207-.103-.259-.205-.052-.103-.052-.205-.052-.308.052-.102.104-.205.207-.256.104-.051.207-.051.31-.051.104.05.207.102.259.205.052.102.051.205.051.307-.051.103-.103.205-.206.257-.052 0-.104.051-.207.051zm0-.872c-.052 0-.155 0-.207.052-.103.05-.155.153-.207.256-.051.102 0 .205.052.308.052.102.155.153.259.205.103.051.206 0 .31-.052.103-.05.155-.153.206-.256.052-.103.001-.205-.051-.308a.437.437 0 00-.362-.205zm1.851.412a.408.408 0 00.17-.555.414.414 0 00-.559-.169.408.408 0 00-.17.555c.107.2.358.276.559.169z" fill="#1A2E35"/><path d="M109.118 66.095h-.103c-.104-.052-.207-.103-.259-.205-.103-.205-.051-.462.155-.564.104-.052.207-.052.31-.052.104.052.207.103.259.206.052.102.052.205.052.307-.052.103-.104.205-.207.256-.104.052-.155.052-.207.052zm0-.82c-.052 0-.155 0-.207.05-.206.103-.258.36-.155.565.052.102.155.153.259.205.103.051.206 0 .31-.052.207-.102.258-.358.155-.564-.052-.102-.155-.153-.259-.205h-.103zm1.696.465a.409.409 0 00.17-.555.416.416 0 00-.56-.168.41.41 0 00-.17.555c.108.2.359.275.56.168z" fill="#1A2E35"/><path d="M110.617 65.787h-.103c-.103-.051-.207-.102-.259-.205-.051-.102-.051-.205-.051-.307.051-.103.103-.206.207-.257.206-.103.465-.051.568.154.104.205.052.461-.155.564-.052.051-.103.051-.207.051zm0-.82c-.051 0-.155 0-.206.051-.104.051-.156.154-.207.257-.052.102 0 .205.051.307.052.103.156.154.259.205.103.051.207 0 .31-.051.207-.103.259-.359.155-.564a.437.437 0 00-.362-.205z" fill="#1A2E35"/><path d="M111.651 63.685l1.447-.513 3.412 7.127-1.448.616-3.411-7.23z" fill="#F0F1F2"/><path d="M77.07 60.865s.052.307.103.82c.052.564.155 1.282.207 2.154.207 1.897.517 4.41.827 7.178.31 2.82.569 5.333.672 7.18.052.922.103 1.691.103 2.204 0 .513 0 .82-.051.82 0 0-.052-.307-.103-.82a59.351 59.351 0 01-.156-2.154c-.155-1.846-.465-4.358-.775-7.178-.31-2.82-.569-5.333-.724-7.179-.103-.923-.103-1.692-.155-2.205.052-.513.052-.82.052-.82z" fill="#1A2E35"/><path d="M79.55 68.266c.613-2.094 1.043-3.81.961-3.835-.082-.023-.646 1.655-1.259 3.75-.613 2.093-1.043 3.81-.961 3.834.082.023.646-1.655 1.259-3.749zM92.06 74.3c-.052 0-.207-.257-.362-.668-.155-.46-.258-1.076-.258-1.845a5.345 5.345 0 01.465-1.795c.207-.41.414-.667.414-.615.051.05-.569 1.025-.62 2.41-.052 1.435.413 2.46.361 2.512z" fill="#1A2E35"/><path d="M90.251 90.759l2.016.154-.827 8.306-1.912-.205.723-8.255z" fill="#F0F1F2"/><path d="M55.567 50.097l-10.803 6.82a6.926 6.926 0 00-2.637 7.896l8.27 25.792-2.997 23.433 23.622-.974-.568-10.255-2.016-18.357a36.225 36.225 0 00-2.533-9.897L55.567 50.097z" fill="#71B219"/><path d="M44.298 66.198l10.804 22.407a6.742 6.742 0 004.497 3.59l29.928 7.024.776-8.665-22.899-8.512-11.475-21.895a6.568 6.568 0 00-9.201-2.564c-2.998 1.795-4.032 5.538-2.43 8.615z" fill="#71B219"/><path d="M90.251 90.554s-.052 0-.103-.052c-.104-.05-.207-.05-.362-.102-.31-.103-.776-.257-1.344-.462-1.189-.461-2.895-1.076-5.014-1.846-4.29-1.59-10.183-3.794-16.903-6.255h-.051v-.052l-1.965-3.897a246.997 246.997 0 00-5.479-10.101 259.876 259.876 0 00-2.533-4.359c-.413-.666-.775-1.333-1.137-1.948-.207-.308-.362-.615-.568-.923-.156-.308-.414-.564-.62-.82a6.717 6.717 0 00-2.895-2.051c-.983-.41-1.913-.513-2.637-.462-1.499.051-2.222.615-2.222.564l.103-.102c.103-.052.207-.154.414-.206.361-.153.93-.358 1.705-.41a6.62 6.62 0 012.688.41 6.867 6.867 0 012.947 2.103c.206.256.465.513.62.82.207.308.413.616.569.923.361.615.775 1.282 1.188 1.949.827 1.333 1.654 2.82 2.533 4.358a327.492 327.492 0 015.531 10.102l1.964 3.897-.051-.052c6.72 2.513 12.612 4.769 16.85 6.359 2.12.82 3.774 1.435 4.963 1.897.569.205 1.034.41 1.344.513.155.05.258.102.362.153l.103.052zm-5.479 5.794a.412.412 0 00.413-.41.412.412 0 00-.413-.41.412.412 0 00-.414.41c0 .226.185.41.414.41z" fill="#1A2E35"/><path d="M84.772 96.399a.406.406 0 01-.414-.41c0-.257.207-.41.414-.41.258 0 .413.205.413.41s-.206.41-.413.41zm0-.872c-.207 0-.414.205-.414.41 0 .206.207.41.414.41s.413-.204.413-.41c0-.205-.206-.41-.413-.41zm1.602 1.283a.412.412 0 00.414-.411.412.412 0 00-.414-.41.412.412 0 00-.413.41c0 .227.185.41.413.41z" fill="#1A2E35"/><path d="M86.374 96.81a.406.406 0 01-.413-.411c0-.256.207-.41.413-.41.259 0 .414.205.414.41s-.207.41-.414.41zm0-.821c-.206 0-.413.205-.413.41s.207.41.413.41c.207 0 .414-.205.414-.41a.406.406 0 00-.414-.41zm1.499 1.231a.412.412 0 00.414-.41.412.412 0 00-.414-.411.412.412 0 00-.413.41c0 .227.185.41.413.41z" fill="#1A2E35"/><path d="M87.873 97.27a.406.406 0 01-.413-.41c0-.256.207-.41.413-.41.259 0 .414.205.414.41 0 .206-.207.41-.414.41zm0-.871c-.207 0-.413.205-.413.41s.207.41.413.41c.207 0 .414-.205.414-.41s-.207-.41-.414-.41zm1.654 2.821h-.155c-.103 0-.258-.052-.413-.103-.414-.103-.93-.205-1.603-.36-1.395-.358-3.411-.82-5.944-1.435-5.014-1.23-11.889-2.923-19.539-4.717-.93-.205-1.912-.41-2.843-.667-.93-.256-1.86-.615-2.584-1.282-.724-.666-1.19-1.487-1.551-2.256-.362-.82-.775-1.59-1.137-2.359-1.448-3.025-2.791-5.794-3.877-8.101-1.086-2.308-1.964-4.154-2.584-5.487-.31-.615-.517-1.128-.672-1.487a3.52 3.52 0 00-.156-.41c-.051-.103-.051-.154-.051-.154s.051.051.051.103c.052.102.104.205.207.359.155.358.414.871.724 1.487.62 1.281 1.55 3.179 2.688 5.435 1.137 2.307 2.43 5.025 3.928 8.102.362.769.724 1.538 1.137 2.358.414.77.827 1.59 1.5 2.154.671.615 1.55.974 2.429 1.23.93.257 1.86.41 2.843.667 7.65 1.743 14.525 3.487 19.539 4.769 2.48.666 4.497 1.18 5.892 1.538.672.205 1.241.308 1.603.41.155.052.31.103.413.103a.64.64 0 01.155.102zm-24.19-1.385s-.104.103-.362.308c-.259.153-.569.41-1.034.718-.879.563-2.171 1.384-3.722 1.897-1.55.564-3.101.615-4.187.41-.517-.103-.93-.205-1.24-.359-.259-.103-.414-.205-.414-.205 0-.051.62.256 1.654.41 1.034.154 2.533.051 4.032-.461 1.5-.513 2.791-1.282 3.722-1.846.982-.564 1.499-.923 1.55-.872zm1.292 2.923s.051.051.051.205c.052.153.104.307.155.564a5.934 5.934 0 010 2.153c-.155.923-.568 1.949-1.343 2.923-.776.974-1.965 1.743-3.309 2.154-1.395.359-2.791.307-3.98-.103a6.236 6.236 0 01-2.688-1.846c-.62-.718-.982-1.384-1.137-1.846a8.782 8.782 0 01-.207-.564c-.051-.154-.051-.205-.051-.205.051-.051.258 1.128 1.499 2.513.62.666 1.499 1.333 2.636 1.692 1.137.41 2.481.461 3.825.102 1.344-.359 2.481-1.128 3.205-2.051.775-.923 1.137-1.948 1.344-2.82.361-1.743-.052-2.82 0-2.871z" fill="#1A2E35"/><path d="M56.704 29.638l.052 19.126c0 3.23 2.74 5.845 6.047 5.64a5.707 5.707 0 005.428-5.692v-2.769s4.91-.46 5.22-5.28c.156-2.308.104-7.128 0-11.487-.103-4.666-3.825-8.512-8.528-8.768l-.466-.051c-5.065 0-7.856 4.256-7.753 9.28z" fill="#FFBF9D"/><path d="M68.283 45.841s-3.102.051-6.255-2.154c0 0 1.292 3.539 6.151 3.385l.104-1.23z" fill="#BF654E"/><path d="M72.263 31.945c0 .36-.31.667-.724.667a.681.681 0 01-.672-.667c0-.359.31-.666.724-.666.413.05.724.307.672.666zm.155-.769c-.104.103-.62-.308-1.344-.359-.724-.051-1.292.308-1.396.205-.052-.051.052-.205.31-.359a1.872 1.872 0 011.138-.256c.465.051.827.205 1.085.41.207.154.258.308.207.359zm-7.392.718c0 .359-.31.666-.724.666a.681.681 0 01-.672-.666c0-.359.31-.667.724-.667.362 0 .672.308.672.667zm-.052-.924c-.103.103-.62-.307-1.344-.358-.723-.051-1.292.308-1.395.205-.052-.051.051-.205.31-.359a1.873 1.873 0 011.137-.256c.465.051.827.205 1.086.41.206.154.258.359.206.359zm2.378 5.846c0-.05.465-.102 1.24-.153.208 0 .363-.052.414-.154.052-.154 0-.36-.103-.564-.155-.462-.31-.974-.465-1.487-.672-2.103-1.137-3.795-1.034-3.846.103-.051.672 1.64 1.344 3.743.155.513.31 1.026.465 1.487.052.205.155.462.052.77-.052.153-.207.256-.31.256-.104.051-.207.051-.31.051-.828-.051-1.293-.051-1.293-.103zm-2.068-7.383c-.103.205-.827.05-1.705.102-.879.052-1.603.257-1.706.052-.052-.103.103-.257.362-.462.31-.154.775-.359 1.292-.359.517-.051.982.103 1.292.205.362.205.517.41.465.462zm7.082-.052c-.155.154-.62-.05-1.24-.102-.62-.052-1.138.051-1.241-.154-.052-.103.052-.256.258-.41.259-.154.62-.257 1.034-.205.414.051.776.205.982.41.207.205.259.41.207.461z" fill="#1A2E35"/><path d="M56.91 33.227c-.103-.051-3.256-1.18-3.36 2.154-.102 3.281 3.257 2.717 3.31 2.615 0-.103.05-4.769.05-4.769z" fill="#FFBF9D"/><path d="M55.825 36.714s-.052.051-.155.102c-.103.052-.258.052-.413 0-.362-.153-.62-.717-.62-1.281 0-.308.051-.564.206-.82.103-.257.258-.411.465-.411.155-.051.31.051.362.154.052.102 0 .154.052.154 0 0 .051-.052.051-.206a.388.388 0 00-.103-.205c-.103-.05-.207-.102-.31-.102-.258 0-.517.256-.62.513-.155.256-.207.564-.207.923 0 .666.31 1.282.827 1.435.207.052.413 0 .517-.05-.052-.104 0-.206-.052-.206z" fill="#BF654E"/><path d="M55.05 33.022c.517-.103 1.344.41 1.55.923.207.461.207 1.025.414 1.487.207.461.672.923 1.19.82.36-.051.62-.359.723-.718a2.53 2.53 0 00.051-1.076c-.103-1.539-.361-3.077-.31-4.666.052-1.539.362-3.128 1.24-4.41.88-1.282 2.482-2.154 4.033-1.949 1.034.154 1.964.718 2.946.923 1.189.257 2.533-.102 3.412-.923.051-.051.103-.051.155-.102.31-.206.517-.616.362-1.026-.052-.154-.104-.256-.156-.308-1.912-2-5.582-2.717-8.27-2.204-2.74.512-5.376 2.256-6.668 4.666-1.292 2.512-1.137 6-.672 8.563zm10.545 4.358c.103 0 .103.82.827 1.385.672.564 1.55.461 1.55.615 0 .051-.206.154-.568.154s-.879-.103-1.292-.462c-.414-.358-.62-.82-.62-1.128-.052-.358.051-.564.103-.564z" fill="#1A2E35"/><path d="M112.064 64.506s3.619-3.18 4.342-3.385c.672-.256 6.152-.359 6.565-.05.362.256 5.944 3.28 5.014 3.742-.93.462-4.755-1.692-4.755-1.692l-.672.103s3.359 1.794 3.98 2.461c.568.615 0 1.384-.621 1.077-.62-.308-3.515-1.949-3.721-1.897-.207.05 3.049 2 3.36 2.307.413.461.155 1.384-.466 1.128-.361-.154-3.411-2.154-3.411-2.154s2.274 1.898 2.481 2.257c.258.512-.258.974-.775.666-.362-.205-1.913-1.743-2.43-2.05 0 0-.517-.052-1.344.82-.775.82-3.928 2-3.928 2l-3.619-5.333z" fill="#FFBF9D"/><path d="M127.882 64.813c0 .052-.466.052-1.189-.051-.362-.051-.776-.205-1.241-.359-.413-.205-.879-.462-1.395-.667-.362-.205-.724-.358-1.034-.512h.051c-1.654 0-2.843 0-2.843-.103 0-.051 1.189-.154 2.792-.205h.103c.31.154.672.359 1.034.513.465.256.93.461 1.396.718.413.205.827.307 1.188.41.724.154 1.189.205 1.138.256z" fill="#BF654E"/><path d="M113.408 65.428c.259.462.879.565 1.396.462.517-.103.982-.359 1.447-.513 1.499-.41 3.154.36 4.601-.154.207-.05.413-.205.413-.41s-.258-.307-.413-.359c-1.654-.512-3.257-1.025-4.911-1.538" fill="#FFBF9D"/><path d="M115.942 62.916s.207 0 .568.103c.362.102.827.256 1.448.41.62.205 1.344.41 2.171.666.206.052.413.103.62.206.207.05.465.102.672.41.103.154.052.359-.052.461a.829.829 0 01-.362.205 1.835 1.835 0 01-.723.154c-1.034.103-1.913-.154-2.791-.154-.414 0-.828 0-1.138.103-.361.102-.672.256-.982.359-.62.256-1.189.205-1.55 0-.311-.205-.362-.41-.362-.41s.103.205.413.307c.31.154.827.154 1.396-.102.31-.103.62-.257.982-.41a4.56 4.56 0 011.241-.154c.878 0 1.809.205 2.739.102.259 0 .465-.102.672-.154.207-.05.362-.205.259-.307-.052-.103-.259-.205-.466-.257-.206-.051-.413-.153-.62-.205-.775-.256-1.499-.513-2.119-.718-.621-.205-1.086-.359-1.448-.512-.413 0-.568-.103-.568-.103z" fill="#BF654E"/><path d="M91.337 90.964l6.047-.615s8.012 5.435 7.237 6.614c-.775 1.18-2.068 0-2.068 0s1.448 1.744-.878 2.256c0 0-.569 1.18-1.448 1.077h-.568s-.517 1.538-1.24 1.18c-.724-.308-2.947-2.257-2.947-2.257l-6.203-.564 2.068-7.691z" fill="#FFBF9D"/><path d="M95.11 97.168s-1.55.564-1.86 1.231c-.311.615-.518 2.051.464 2.359.362.102 1.758-.051 1.758-.051l-.362-1.59s.569-.667.93-.923c.31-.359-.051-1.436-.93-1.026z" fill="#FFBF9D"/><path d="M96.867 97.989s-1.55.564-1.86 1.23c-.31.616-.104 1.641.878 1.898.362.102 1.603-.052 1.603-.052l-.155-.307c-.31-.616-.466-1.077.103-1.487.052 0 .362-.308.362-.308.258-.359-.052-1.384-.93-.974z" fill="#FFBF9D"/><path d="M97.23 101.014c-.26-.256-.31-.718-.104-1.077.207-.359.517-.564.93-.666.259-.052.569-.103.724.102.103.103.103.308.103.462-.051.41-.361.769-.62 1.128-.155.154-.31.359-.569.359-.258 0-.413-.205-.516-.41" fill="#FFBF9D"/><path d="M64.56 52.66l1.345-.512 1.189 2.102-.672 2.205-1.344.36-1.396-1.744.879-2.41z" fill="#71B219"/><path d="M65.078 56.814s1.757 9.589 3.205 16.357c0 0 1.189 5.64 1.705 6.922.569 1.436 2.223 3.59 2.223 3.59l1.706.666-1.034-9.486-6.41-18.357-1.395.308z" fill="#71B219"/><path opacity=".4" d="M64.56 52.66l1.345-.512 1.189 2.102-.672 2.205-1.344.36-1.396-1.744.879-2.41z" fill="#000"/><path opacity=".4" d="M65.078 56.814s1.757 9.589 3.205 16.357c0 0 1.395 5.59 1.705 6.922.207.77 2.223 3.59 2.223 3.59l1.706.666-1.034-9.486-6.41-18.357-1.395.308z" fill="#000"/><path d="M56.394 46.815l8.167 5.846-1.758 4.82-7.443-7.59 1.034-3.076zm9.511 5.333l2.274-5.025 1.293 4.153-1.758 4.359-1.809-3.487z" fill="#F5F5F5"/><path d="M64.561 52.66s0 .154-.103.36a8.51 8.51 0 00-.31 1.025c-.31.872-.724 2.051-1.241 3.487l-.052.205-.155-.154c-.568-.666-1.24-1.333-1.912-2.102-1.5-1.641-2.792-3.128-3.774-4.205a69.484 69.484 0 01-1.137-1.282c-.258-.307-.413-.461-.362-.513 0 0 .155.154.465.41.31.308.724.77 1.19 1.231.981 1.026 2.325 2.513 3.824 4.154.672.717 1.293 1.435 1.913 2.102l-.207.051a919.79 919.79 0 011.292-3.435c.155-.36.31-.718.414-.974.103-.257.155-.36.155-.36zm4.911-1.384c.051 0-.104.462-.362 1.18-.259.717-.672 1.692-1.086 2.768-.051.154-.155.308-.207.462l-.155.307-.103-.307c-.672-1.949-1.706-3.282-1.602-3.333 0 0 .31.308.672.82a12.49 12.49 0 011.188 2.36h-.258c.052-.155.103-.309.207-.462.465-1.077.879-2.051 1.189-2.77l.517-1.025z" fill="#1A2E35"/><path d="M173.163 203.105l3.153 12.358 5.324 9.076c.362.666.155 1.487-.569 1.846a1.226 1.226 0 01-1.189 0c-2.377-1.282-11.165-6.051-11.372-6.974-.206-1.077-4.187-12.819-4.187-12.819l8.84-3.487z" fill="#71B219"/><path opacity=".6" d="M181.071 226.385l-12.819-7.794.155.513c.103.461.414.82.775 1.128 1.034.718 3.981 2.563 10.597 6.153.465.205.93.205 1.292 0zm-11.372-12.46c.362.102.621.564.466.923-.104.359-.569.615-.931.512-.362-.102-.672-.615-.517-.974.155-.359.672-.615 1.034-.41" fill="#fff"/><path d="M176.729 221.821c.104 0 .155-.718.827-1.23.621-.564 1.344-.564 1.344-.667 0-.051-.207-.103-.465-.051-.31.051-.724.205-1.034.512-.362.308-.568.718-.62.975-.103.256-.052.461-.052.461zm1.344 1.385c.052.051.362-.462.93-.821.569-.359 1.189-.41 1.189-.513 0-.051-.672-.153-1.344.257-.62.41-.827 1.077-.775 1.077zm-3.566-3.077c.051.051.516-.718 1.395-1.384.879-.667 1.758-.872 1.706-.923 0-.052-.982 0-1.913.718-.878.666-1.24 1.589-1.188 1.589zm-1.241-3.692c.052.051.672-.41 1.551-.666.878-.308 1.654-.257 1.654-.359 0-.052-.776-.257-1.758.051-.982.359-1.55.923-1.447.974zm-1.034-3.589c.052.051.62-.564 1.603-.769.93-.257 1.757.051 1.757-.052 0-.051-.155-.153-.517-.256-.31-.103-.827-.103-1.344 0-.517.103-.93.359-1.189.615-.258.257-.362.411-.31.462zm1.344-1.436s0-.154-.103-.461a2.892 2.892 0 00-.724-1.128c-.207-.206-.413-.462-.827-.513a.522.522 0 00-.569.256.853.853 0 00-.051.616c.207.769 1.137 1.333 2.016 1.23.93-.154 1.602-.872 1.757-1.641.052-.205 0-.41-.155-.615-.155-.205-.413-.205-.62-.103-.362.154-.517.411-.724.667-.31.462-.517.872-.568 1.179-.104.308-.104.462-.052.462s.155-.667.827-1.538c.155-.206.362-.462.62-.564.104-.052.259-.052.31.051.052.102.104.256.052.41-.155.615-.775 1.282-1.551 1.384-.775.103-1.55-.358-1.757-1.025-.052-.154-.052-.308 0-.41.052-.103.155-.154.31-.154.258.051.517.256.672.41.982.769 1.085 1.487 1.137 1.487z" fill="#1A2E35"/><path d="M134.19 205.413l.672 9.537s-9.563 3.897-9.614 5.641l18.711-.616-.413-14.921-9.356.359z" fill="#71B219"/><path d="M140.597 213.976a.798.798 0 01.569.872c-.052.359-.465.615-.827.564-.362-.103-.672-.564-.569-.923.104-.359.621-.667.931-.462m3.256 5.948l-.103-1.487-17.885 1.128s-.827.411-.723.975l18.711-.616z" fill="#F0F1F2"/><path d="M134.55 214.899c0 .102.465.102.93.41.465.256.724.667.775.615.104 0-.051-.564-.62-.871-.568-.411-1.137-.257-1.085-.154zm-1.965.82c0 .103.362.205.724.616.31.359.414.769.517.769.103 0 .155-.513-.258-.974-.414-.462-.983-.462-.983-.411zm-1.033 2.41c.103 0 .207-.461-.052-.923-.258-.512-.672-.666-.724-.615-.051.051.259.308.414.718.258.41.31.769.362.82zm3.101-5.435c.052.103.465-.051.982-.051.517 0 .931.154.983.102.051-.051-.362-.41-.983-.41-.62 0-1.033.256-.982.359zm-.103-1.949c0 .052.362.103.93-.051.31-.051.621-.154.982-.308.155-.102.362-.205.517-.307.104-.051.207-.103.259-.205.103-.103.155-.359 0-.462a.472.472 0 00-.414-.205c-.155 0-.258.051-.362.051-.206.052-.413.154-.568.206-.362.153-.62.41-.827.615-.414.41-.569.769-.517.769.052.051.258-.256.672-.615.207-.154.465-.359.827-.513.155-.051.362-.154.517-.205.207-.051.362-.051.413 0v.102a.687.687 0 01-.206.154l-.466.308c-.31.154-.62.307-.878.359-.569.256-.879.256-.879.307z" fill="#1A2E35"/><path d="M134.653 210.899c.052 0 .207-.307.207-.923 0-.307-.052-.666-.155-1.025-.052-.205-.155-.359-.259-.564-.103-.205-.258-.41-.62-.462-.207 0-.31.154-.362.257-.051.102-.051.256-.103.359-.052.205 0 .41 0 .615.052.41.258.718.413.923.362.461.776.564.776.513.051-.052-.31-.205-.569-.667-.155-.205-.258-.513-.31-.872 0-.153-.052-.359 0-.512 0-.205.103-.359.155-.359.103 0 .259.154.362.307.103.154.207.308.258.513.104.308.207.667.207.923.052.615-.052.923 0 .974z" fill="#1A2E35"/><path d="M129.071 101.63l2.998 111.013 14.783-.41-1.137-95.323 18.763 97.938 13.337-3.436-17.213-109.577-31.531-.205z" fill="#1A2E35"/><path d="M137.134 212.797c-.051 0-.155-23.023-.155-51.43s.052-51.43.155-51.43c.052 0 .155 23.023.155 51.43s-.051 51.43-.155 51.43zm31.583 2.051c-.052 0-3.515-22.049-7.702-49.277-4.187-27.228-7.495-49.328-7.443-49.328.052 0 3.515 22.049 7.702 49.277 4.187 27.228 7.495 49.328 7.443 49.328z" fill="#375A64"/><path d="M150.212 32.202c.413-1.18 1.034-2.308 1.24-3.538.156-.924.466-2.308.104-3.18-.362-.871-1.292-1.692-2.43-1.435-.31-1.846-1.24-3.282-3.101-4.205-1.654-.82-3.308-1.18-5.169-1.333-.569-.052-1.447 0-1.964.256-.517.257-.982.718-1.189 1.23-.982-.768-2.378-.973-3.825-.614-1.448.358-3.05 1.128-3.67 2.46-.362.821-.517 1.847-.104 3.129.259.871 1.189 2.204 2.068 1.897" fill="#1A2E35"/><path d="M143.027 56.148c-3.618-.052-6.41-3.077-6.255-6.666.104-1.795.156-3.18.156-3.18s-4.859-.615-5.066-5.435c-.207-4.82.362-15.844.362-15.844 5.531-2.513 12.044-1.897 16.954 1.692l.724.513-.465 22.715c.051 3.487-2.895 6.256-6.41 6.205z" fill="#FFBF9D"/><path d="M136.928 46.2s3.049.154 6.254-1.949c0 0-1.499 3.744-6.358 3.436l.104-1.487z" fill="#FF9A6C"/><path d="M149.54 32.202c.103-.052 3.308-1.077 3.308 2.204 0 3.282-3.36 2.564-3.36 2.513-.051-.103.052-4.717.052-4.717z" fill="#FFBF9D"/><path d="M150.47 35.688s.052.052.156.103c.103.051.258.051.413 0 .362-.103.672-.667.672-1.282 0-.308-.052-.564-.155-.82-.103-.257-.258-.41-.414-.462-.155-.051-.31.051-.361.154-.052.102 0 .154-.052.154 0 0-.052-.051-.052-.205 0-.052.052-.154.155-.206.104-.05.207-.102.31-.102.259 0 .466.256.621.513.155.256.206.564.206.923-.051.666-.361 1.282-.827 1.435-.258.052-.413 0-.516-.102-.156-.051-.156-.103-.156-.103z" fill="#FF9A6C"/><path d="M133.516 32.51c0 .358.31.666.672.666a.722.722 0 00.723-.616.681.681 0 00-.671-.666c-.362-.051-.672.205-.724.615zm-.155-.77c.103.103.62-.307 1.344-.307.723-.051 1.292.359 1.395.256.052-.051-.051-.205-.31-.359a2.09 2.09 0 00-1.085-.307c-.465 0-.827.205-1.086.359-.206.153-.31.307-.258.359zm7.495.718c0 .359.31.666.672.666a.723.723 0 00.724-.615.682.682 0 00-.672-.666c-.414 0-.724.256-.724.615zm-.155-.769c.103.102.62-.308 1.344-.308.723-.051 1.292.36 1.395.256.052-.05-.051-.205-.31-.358a2.09 2.09 0 00-1.085-.308c-.465 0-.827.205-1.086.359-.258.154-.31.308-.258.359zm-2.585 5.538c0-.052-.465-.103-1.24-.206-.207 0-.362-.05-.414-.153-.052-.154.052-.36.104-.564.155-.462.361-.923.516-1.436.724-2.051 1.241-3.743 1.189-3.795-.103-.05-.723 1.641-1.447 3.692-.155.513-.362.974-.517 1.436-.052.205-.207.462-.103.718.051.154.206.256.31.256.103.052.207.052.31.052.827.05 1.292.05 1.292 0zm2.223.461c-.103 0-.103.82-.775 1.385-.672.564-1.551.512-1.551.615 0 .051.207.154.569.154.361 0 .878-.103 1.292-.462.413-.359.568-.82.62-1.179 0-.359-.103-.513-.155-.513zm.103-8.922c.104.205.827.103 1.706.154.879.051 1.603.308 1.706.102.052-.102-.103-.256-.362-.461-.31-.205-.724-.359-1.292-.41a2.755 2.755 0 00-1.344.205c-.31.154-.465.308-.414.41zm-6.874.821c.155.153.62 0 1.24-.052.62-.051 1.137.103 1.241-.102.051-.103-.052-.257-.259-.41-.206-.154-.62-.257-1.033-.257-.414 0-.776.205-.983.359-.155.205-.258.359-.206.462z" fill="#1A2E35"/><path d="M150.264 27.587c-.052 1.384.31 2.974.103 4.358-.052.205-.569.77-.62.974-.259 1.231-.776 1.744-1.499.513-.31-.461-.517-1.795-.621-2.359-.31-1.487-.671-2.922-.982-4.41-1.137.565-2.377 1.026-3.67.975-1.292-.051-2.584-.667-3.204-1.744-.569 1.026-1.655 1.744-2.792 1.898-1.137.205-2.377-.205-3.256-.975-.414.718-1.448.924-2.171.513-.724-.41-1.034-1.333-.827-2.102.31-1.18 1.55-1.846 2.739-2.205 4.601-1.436 9.718-.513 13.905 1.795.62.359 1.241.718 1.706 1.23.465.513 1.137 1.077 1.189 1.795" fill="#1A2E35"/><path d="M146.749 27.176c0 .052.31-.05.775.103.207.102.465.256.672.462.258.205.465.461.775.717.259.257.621.513.931.564.361.103.672.103.93 0 .517-.153.724-.41.672-.461-.052-.051-.258.154-.724.256a1.363 1.363 0 01-.775-.051c-.31-.103-.569-.308-.827-.564a9.886 9.886 0 00-.775-.718c-.259-.205-.517-.359-.776-.41-.568-.103-.878.102-.878.102zm.568 1.436c0 .052.259 0 .517.257.155.102.258.256.414.461.155.205.361.41.62.564.517.308 1.137.36 1.499.308.413-.051.62-.205.568-.257 0-.05-.258.052-.62.052s-.879-.052-1.344-.36c-.465-.256-.723-.768-1.085-.974-.31-.205-.569-.05-.569-.05zM134.55 19.28s-.155-.051-.414.051c-.258.103-.62.308-.93.718-.621.82-.724 2.308-.259 3.692.466 1.436 1.551 2.41 2.378 2.871.414.257.775.36 1.086.462.258.051.413.102.413.051s-.569-.205-1.396-.666c-.775-.513-1.757-1.436-2.222-2.82-.414-1.334-.31-2.718.155-3.487.258-.41.568-.616.827-.718.207-.103.362-.154.362-.154zm-4.032 2c-.052 0-.052.359.052.923.103.564.361 1.333.878 2.05.517.719 1.086 1.283 1.603 1.59.465.308.827.41.827.41.051-.05-1.241-.717-2.223-2.153-.982-1.385-1.034-2.82-1.137-2.82z" fill="#375A64"/><path d="M103.794 88.298l-7.081.359a1.695 1.695 0 00-1.603 1.692c.052 1.59.31 3.794 1.55 3.59l.828-3.488 5.893 5.128c.62.513 1.344.872 2.119 1.026l1.396-.154-3.102-8.153z" fill="#FFBF9D"/><path d="M137.703 50.61l-3.722 1.23-1.809 30.51v27.074l22.744 2.512.258-39.072-1.447-19.434-3.463-4.102-12.561 1.282z" fill="#F0F1F2"/><path d="M136.566 52.046v-2.923l13.543-1.897-.569 6.82-3.101 5.332-5.066.308-3.67-2.256-1.137-5.384z" fill="#F0F1F2"/><path d="M137.983 50.358c.032-.735-.011-1.334-.097-1.338-.086-.004-.181.59-.212 1.325-.032.736.011 1.335.097 1.339.085.004.181-.59.212-1.326zm3.404-.396c.048-.82.018-1.488-.067-1.493-.086-.005-.194.655-.243 1.475-.048.82-.018 1.489.068 1.494.085.005.194-.656.242-1.476zm3.314-.427c.065-.875.049-1.59-.037-1.596-.085-.007-.207.698-.272 1.574-.065.875-.048 1.59.037 1.596.086.006.208-.698.272-1.574zm2.875 1.075c-.052 0-.155-.667-.104-1.538.052-.82.207-1.488.259-1.488.051 0 .051.667 0 1.487-.052.872-.052 1.539-.155 1.539zm-1.499 12.922s-.052.205-.155.512c-.155.308-.31.77-.62 1.333a39.879 39.879 0 01-2.275 4.205c-.982 1.59-1.912 3.025-2.636 4-.362.512-.672.871-.879 1.128-.207.256-.362.41-.362.41-.051 0 .414-.667 1.086-1.64.672-1.026 1.602-2.41 2.584-4 .931-1.59 1.758-3.077 2.326-4.154.569-1.128.879-1.794.931-1.794z" fill="#1A2E35"/><path d="M150.16 48.815l3.67 1.743 7.082 1.744c3.101.513 5.272 3.384 4.859 6.512l-3.722 28.714 4.446 27.844-17.575-.513-1.034-10.358V75.786l2.274-26.971z" fill="#375A64"/><path d="M147.886 82.4s0-.102.052-.358c.051-.257.103-.615.206-1.026.207-.923.466-2.153.776-3.692.672-3.127 1.654-7.435 2.688-12.203.31-1.333.568-2.564.827-3.795l.051.103c-.413-.41-.827-.872-1.24-1.282l-.052-.051.052-.103c.724-1.18 1.395-2.307 2.067-3.384v.102c-.93-2.204-1.705-4.102-2.274-5.435a48.192 48.192 0 01-.62-1.538 4.209 4.209 0 01-.207-.564s.103.154.259.513c.155.358.413.871.671 1.487.569 1.333 1.396 3.179 2.327 5.384v.05l-.052.052c-.62 1.026-1.292 2.205-2.016 3.384v-.153c.413.41.827.82 1.24 1.282l.052.05v.052c-.258 1.23-.568 2.513-.827 3.795-1.085 4.717-2.067 9.024-2.739 12.152-.362 1.538-.672 2.769-.879 3.692-.104.41-.207.769-.259.974-.051.41-.103.513-.103.513z" fill="#1A2E35"/><path d="M104.104 87.118l15.559-8.614 7.547-20.152c1.034-2.82 3.256-5.076 6.048-6.204l2.015-.82v53.071l.414 12.562-8.426-2.512 4.291-25.28-1.499-12.46-1.499 6c-.517 2.153-1.913 4-3.825 5.127l-16.179 8.358-4.446-9.076z" fill="#375A64"/><path d="M104.311 87.529l-1.344.359 3.67 8.716 1.758-.666-4.084-8.41z" fill="#F0F1F2"/><path d="M122.454 82.093c-.103 0-.361-.974-1.189-1.948-.827-.974-1.757-1.436-1.705-1.487 0-.052 1.085.308 1.912 1.333.879 1.025 1.034 2.102.982 2.102zm-16.489 5.128c0 .051-.051.102-.103.256 0 .154.103.308.31.257.207-.052.207-.257.103-.36a.889.889 0 00-.206-.153c0-.051.155-.103.361.051.104.051.207.205.155.36 0 .204-.155.358-.361.41-.155.05-.414 0-.517-.154-.104-.154-.104-.308-.052-.41.103-.257.31-.257.31-.257zm1.241-.513c0 .052-.052.103-.104.257 0 .153.104.307.31.256.207-.051.207-.256.104-.359-.104-.102-.207-.154-.207-.154 0-.051.155-.102.362.052.103.05.207.205.155.358 0 .206-.155.36-.362.41-.155.052-.413 0-.517-.153-.103-.154-.103-.308-.051-.41.155-.257.31-.308.31-.257zm28.016-3.486s-.052-.103-.052-.308a17.086 17.086 0 01-.155-.923 142.41 142.41 0 00-.465-3.487c-.362-2.974-.879-7.025-1.448-11.486-.103-.615-.155-1.282-.258-1.897v-.103c.414-.974.775-1.948 1.137-2.871v.102c-.413-.871-.775-1.743-1.137-2.563v-.102c.672-2.462 1.292-4.565 1.706-6.052.207-.717.362-1.281.517-1.692.103-.41.206-.615.206-.615s-.051.205-.103.615c-.103.41-.258.975-.413 1.692-.414 1.488-.931 3.59-1.603 6.051v-.102c.362.82.724 1.64 1.137 2.512v.103c-.362.923-.723 1.897-1.137 2.871v-.051c.052.615.155 1.23.259 1.897.516 4.461 1.033 8.563 1.395 11.537.155 1.436.31 2.615.414 3.487.051.41.051.718.103.974-.103.308-.103.41-.103.41zm-3.773 6.101s-.052-.102-.052-.256c-.052-.205-.052-.41-.104-.718a51.127 51.127 0 01-.31-2.666c-.258-2.256-.672-5.384-1.137-8.82-.465-3.435-.93-6.563-1.24-8.768-.156-1.077-.311-2-.414-2.666-.052-.308-.052-.513-.103-.718v-.257s.051.103.051.257c.052.205.104.41.155.718.104.615.259 1.538.466 2.666.361 2.256.878 5.333 1.344 8.768.465 3.436.827 6.564 1.033 8.82.104 1.128.207 2.05.259 2.666 0 .308.052.513.052.718.051.154.051.256 0 .256zm-2.12 18.87s.103.205.362.41c.258.205.775.462 1.396.308.62-.154 1.24-.718 1.55-1.487.31-.769.362-1.744.414-2.769.051-.974.051-1.949-.31-2.769-.31-.769-.931-1.333-1.396-1.743-.517-.462-.879-.82-1.085-1.18-.207-.307-.259-.513-.259-.513s.103.154.362.462c.207.308.62.666 1.137 1.077.517.41 1.137.974 1.499 1.794.362.821.414 1.846.31 2.872-.051 1.025-.103 2-.465 2.82-.362.82-1.034 1.436-1.706 1.59-.723.153-1.292-.154-1.55-.411-.156-.153-.207-.256-.259-.359v-.102zm-5.789-19.895s.517-5.897 5.221-6.41c0-.05.103 4.769-5.221 6.41z" fill="#1A2E35"/><path d="M148.713 110.295c.31.205 13.646 8.871 13.646 8.871l1.551-1.231.723-19.895-13.025-9.794-1.81.616-1.085 21.433z" fill="#71B219"/><path d="M151.504 88.554l.517 21.536h-2.895l.983-21.075 1.395-.461z" fill="#F0F1F2"/><path d="M155.795 115.013s.31.974 1.55 1.025c.052 0 .052.051.104.103.258.461.775.82 1.292.82.413 0 .93-.103 1.447-.41.724-.41 1.964-3.282 1.964-3.282l2.998-6.666-5.065-1.384-6.461 2c0 .102-1.499 6.153-1.499 6.153s1.24.359 1.809-.975c.568-1.333 1.137-2.102 1.137-2.102l.465 2.718-1.809.615s-.207 1.026.775 1.385h1.293z" fill="#FFBF9D"/><path d="M158.069 68.249l8.425 15.434-6.874 20.254 7.65 4.256 9.718-22.51c.723-1.693.671-3.539-.104-5.23L164.995 55.07l-6.926 13.178z" fill="#375A64"/><path d="M159.619 103.886l-.723 1.589 7.236 3.846.776-1.384-7.289-4.051z" fill="#F0F1F2"/><path d="M159.62 103.886v-.103c0-.102.051-.154.103-.308.103-.256.207-.666.362-1.128.31-1.025.827-2.46 1.395-4.256 1.241-3.64 2.895-8.665 4.859-14.46v.103c-.982-1.64-2.016-3.384-2.998-5.23-1.861-3.282-3.566-6.46-5.014-9.435-.723-1.487-1.395-2.871-1.964-4.205-.62-1.333-.775-2.769-.724-4 .104-1.23.311-2.358.776-3.28a6.055 6.055 0 011.499-2.052c.517-.461 1.034-.718 1.344-.872.362-.153.517-.205.517-.205.051.052-.776.205-1.81 1.128-.516.462-1.033 1.129-1.447 2.052-.413.871-.62 2-.724 3.23-.051 1.23.104 2.564.724 3.897.569 1.333 1.241 2.718 1.964 4.204 1.448 2.923 3.205 6.102 5.066 9.384 1.034 1.795 2.016 3.538 2.998 5.23l.052.052v.05c-1.965 5.795-3.722 10.82-4.963 14.46a199.175 199.175 0 01-1.499 4.205c-.155.462-.31.872-.413 1.128-.052.103-.103.206-.103.308.051.051 0 .103 0 .103z" fill="#1A2E35"/><path d="M172.232 83.529c0 .051-.31-.103-.827-.308a7.326 7.326 0 00-2.068-.307c-.827.05-1.55.205-2.016.41-.516.205-.775.359-.827.359 0 0 .259-.257.724-.513a4.758 4.758 0 012.119-.513c.879 0 1.603.154 2.12.41.517.206.775.41.775.462zm-15.869-18.972l6.099 20.151.828-6.614-6.927-13.537zm10.028 39.585c0 .051-.052.103-.103.256 0 .154.103.308.31.257.207-.051.207-.257.103-.359a.87.87 0 00-.207-.154c0-.051.155-.102.362.051.104.052.207.205.155.359 0 .205-.155.359-.362.411-.155.051-.413 0-.516-.154-.104-.154-.104-.308-.052-.411.103-.307.31-.307.31-.256zm.62-1.436c0 .052-.051.103-.103.257 0 .154.103.307.31.256.207-.051.207-.256.103-.359a.914.914 0 00-.206-.154c0-.051.155-.102.362.052.103.051.206.205.155.359 0 .205-.155.358-.362.41-.155.051-.414 0-.517-.154-.103-.154-.104-.308-.052-.41.104-.308.31-.308.31-.257zm8.271-25.689c-.879.461-1.241 1.794-1.138 2.82.104 1.026.466 2 .466 3.025 0 .718-.259 1.436-.362 2.154-.155.718-.207 1.487.052 2.153.258.667.982 1.231 1.705 1.077l.724-1.435c1.137-2.257 1.085-4.974-.103-7.23l-1.344-2.564z" fill="#1A2E35"/><path d="M219.529 185.261c.465-1.589 1.447-3.128 2.998-3.794 1.602-.667 3.463-.308 5.117.307 1.654.616 3.257 1.385 5.014 1.487 1.758.103 3.722-.718 4.239-2.358.465-1.539-.466-3.231-1.654-4.359-2.482-2.359-6.203-3.384-9.563-2.564-3.36.821-6.203 3.385-7.34 6.615" fill="#539100"/><path d="M205.779 192.235c-2.533-2.41-2.429-6.615-1.137-9.845 1.292-3.282 4.032-5.743 7.185-7.384 5.996-3.179 13.543-3.436 19.746-.616-3.05.103-5.996 1.795-7.599 4.41-1.396 2.308-1.706 5.128-2.843 7.538-1.292 2.718-3.67 4.922-6.461 5.999-2.895 1.026-6.1 1.026-8.891-.102zm-1.24-14.46c-2.843-3.333-3.205-8.615-2.792-12.922.414-4.307 1.448-8.666.724-12.973-.414-2.564-1.396-4.974-1.758-7.537-.31-2.564.156-5.436 2.12-7.076 2.274-1.898 5.892-1.436 8.27.307 2.378 1.795 3.774 4.564 4.756 7.333 2.222 6.102 3.049 12.87 1.189 19.126-1.81 6.255-6.1 11.793-12.354 13.69" fill="#71B219"/><path d="M203.195 204.9v-1.436c.051-.974.103-2.307.361-3.999.207-1.692.569-3.692 1.086-5.897.517-2.205 1.447-4.512 2.688-6.82a29.43 29.43 0 014.393-5.845 26.166 26.166 0 014.653-3.795 33.54 33.54 0 011.964-1.179l1.551-.769c.413-.154.775-.308 1.033-.41.259-.103.362-.154.362-.154s-.103.051-.362.154c-.258.102-.568.256-.982.461-.413.205-.93.461-1.55.82-.569.359-1.241.718-1.965 1.231-1.395.974-2.998 2.205-4.548 3.846a28.35 28.35 0 00-4.342 5.794c-2.585 4.512-3.309 9.23-3.826 12.563a40.331 40.331 0 00-.413 3.999c-.052.462-.052.821-.052 1.077-.051.256-.051.359-.051.359z" fill="#1A2E35"/><path d="M178.797 164.699c-5.221 3.128-5.221 6-4.342 8.666.878 2.666 4.083 4.564 6.771 3.538 1.499-.564 2.585-1.846 3.515-3.179.931-1.282 1.809-2.718 3.102-3.641 1.292-.923 3.204-1.282 4.497-.359" fill="#539100"/><path d="M174.868 168.135c1.344-1.897 4.756-2.41 6.875-1.487 2.119.923 3.722 2.769 5.117 4.666 1.396 1.846 2.74 3.794 4.704 5.076 1.913 1.282 4.652 1.744 6.565.462 1.292-.872 2.016-2.359 2.222-3.846.207-1.487 0-3.025-.31-4.512-.465-2.154-1.24-4.461-2.946-5.846-1.964-1.538-4.652-1.589-7.185-1.538-2.843.103-5.789.308-8.477 1.282-2.688.974-5.428 3.128-6.565 5.743z" fill="#71B219"/><path d="M198.852 200.747v-.462c0-.308-.051-.718-.051-1.282a261.33 261.33 0 01-.155-4.717c-.052-2-.155-4.359-.31-7.025-.156-2.615-.362-5.538-.776-8.563-.207-1.487-.465-2.974-.879-4.359-.413-1.384-.982-2.615-1.602-3.794a20.438 20.438 0 00-2.016-3.128 20.639 20.639 0 00-2.223-2.41 17.725 17.725 0 00-3.928-2.666 8.557 8.557 0 01-.672-.308c-.207-.051-.362-.154-.517-.205-.103-.051-.207-.103-.31-.103-.052-.051-.103-.051-.103-.051s.051 0 .103.051c.103.052.207.052.31.103.155.051.31.102.517.154.207.051.414.205.672.307 1.034.462 2.481 1.282 3.98 2.615a26.506 26.506 0 012.275 2.41c.723.923 1.447 2 2.067 3.18a26.17 26.17 0 011.654 3.845c.414 1.385.672 2.872.879 4.41.413 3.025.62 5.948.724 8.563.155 2.667.206 5.025.258 7.025.052 2 .052 3.641.052 4.718v1.64l.051.052zm1.861 2.358s-.31-.769-.568-2.205c-.259-1.435-.465-3.589-.259-6.255.207-2.667.931-5.743 2.016-9.076 1.086-3.333 2.533-6.923 3.774-10.768a48.917 48.917 0 001.499-5.692c.362-1.846.62-3.692.723-5.435.311-3.487.259-6.615.155-9.281-.103-2.667-.206-4.769-.31-6.256-.051-.718-.051-1.282-.103-1.692v-.615.153c0 .103 0 .257.052.462.051.41.103.974.155 1.692.103 1.487.258 3.589.413 6.256.104 2.666.155 5.794-.103 9.281-.155 1.743-.362 3.589-.724 5.435-.362 1.897-.879 3.794-1.499 5.692-1.24 3.845-2.688 7.435-3.773 10.716-1.086 3.333-1.809 6.41-2.016 9.025-.259 2.615-.104 4.769.155 6.256.103.718.258 1.282.362 1.641.051.205.103.307.103.41-.052.205-.052.256-.052.256z" fill="#1A2E35"/><path d="M213.688 205.464h-24.553l-.569-4.717h25.122v4.717z" fill="#375A64"/><path d="M191.771 204.9l3.05 14.101h13.336l2.894-14.101h-19.28z" fill="#375A64"/><path d="M213.656 205.433c0-.057-5.392-.118-12.044-.136-6.651-.019-12.044.012-12.044.069 0 .057 5.392.117 12.044.136 6.651.018 12.044-.012 12.044-.069z" fill="#375A64"/><path d="M209.449 212.386c-.052.051-.724-.666-2.171-1.23-.724-.257-1.602-.513-2.636-.513-1.034-.051-2.119.205-3.257.564-1.137.359-2.171.82-3.204 1.077a8.416 8.416 0 01-2.74.102 4.988 4.988 0 01-1.757-.564 1.955 1.955 0 01-.414-.256.667.667 0 01-.155-.103l.62.308c.414.154.982.359 1.758.461a7.008 7.008 0 002.688-.153c.982-.257 2.016-.667 3.153-1.077 1.137-.41 2.274-.616 3.308-.564 1.034.051 1.964.256 2.688.564.723.307 1.24.666 1.602.923.155.154.31.256.362.307.155.103.155.154.155.154z" fill="#1A2E35"/><path d="M209.294 213.36c-.052.052-.724-.615-2.068-1.23-.672-.257-1.55-.513-2.532-.513-.983-.051-2.068.205-3.154.564-1.085.359-2.119.769-3.049 1.026-.982.256-1.861.359-2.637.307a4.543 4.543 0 01-1.757-.461c-.207-.103-.31-.205-.414-.257-.103-.051-.155-.102-.103-.102 0 0 .207.102.569.308.362.153.982.358 1.705.358.724.052 1.655-.051 2.585-.358.93-.257 1.964-.667 3.05-1.026 1.085-.359 2.171-.615 3.205-.564 1.033.051 1.912.256 2.584.564.724.308 1.189.667 1.551.923.155.154.31.256.362.308.051.102.103.102.103.153z" fill="#fff"/><path d="M209.707 211.463c-.051.051-.775-.666-2.222-1.282a9.354 9.354 0 00-2.688-.666c-1.034-.052-2.171.205-3.36.564-1.137.41-2.223.871-3.308 1.077a7.543 7.543 0 01-2.843 0c-.775-.154-1.447-.359-1.809-.564-.207-.103-.362-.206-.465-.257-.104-.051-.156-.102-.156-.102l.621.307c.413.205 1.034.359 1.809.513.775.103 1.757.154 2.791-.051s2.119-.667 3.257-1.077c1.137-.41 2.326-.667 3.411-.564a6.9 6.9 0 012.74.718c.723.307 1.292.718 1.654.974.155.154.31.256.413.359.104 0 .155.051.155.051z" fill="#fff"/><path d="M201.54 205.566c6.823 0 12.354-.045 12.354-.102 0-.057-5.531-.103-12.354-.103-6.822 0-12.353.046-12.353.103 0 .057 5.531.102 12.353.102z" fill="#1A2E35"/><path d="M26.207 200.131c.879 1.231 2.584.821 3.412.052.827-.77 1.137-1.846 1.447-2.923.724-2.41 1.396-4.923.879-7.384-.155-.718-.414-1.487-.93-2-.518-.564-1.345-.871-2.068-.666-.88.205-1.396 1.076-1.81 1.846-1.137 2.358-1.757 4.973-1.757 7.588-.052 1.18.103 2.462.827 3.487z" fill="#71B219"/><path opacity=".2" d="M26.207 200.131c.879 1.231 2.584.821 3.412.052.827-.77 1.137-1.846 1.447-2.923.724-2.41 1.396-4.923.879-7.384-.155-.718-.414-1.487-.93-2-.518-.564-1.345-.871-2.068-.666-.88.205-1.396 1.076-1.81 1.846-1.137 2.358-1.757 4.973-1.757 7.588-.052 1.18.103 2.462.827 3.487z" fill="#000"/><path d="M29.515 206.438c1.447-.718 3.153-.82 4.756-.564.878.154 1.757.41 2.326 1.026.568.666.672 1.794 0 2.307-.414.308-.982.359-1.5.359-1.24 0-2.636-.256-3.67.513-.568.41-.93 1.128-1.653 1.333-.672.205-1.448-.205-1.758-.769-.362-.615-.362-1.333-.207-2 .052.051.259-1.436 1.706-2.205zm-5.737-4.512c.982-1.128 1.137-2.769.723-4.205-.413-1.436-1.395-2.615-2.48-3.589a13.6 13.6 0 00-4.498-2.615c-.672-.205-1.344-.41-2.016-.359-.672.051-1.396.41-1.706 1.025-.465.872 0 2 .466 2.872a41.686 41.686 0 002.946 4.461c.879 1.128 1.912 2.256 3.256 2.769 1.344.513 2.74.461 3.464-.462" fill="#71B219"/><path d="M26.104 219.001s.051-.205.103-.564c.052-.41.104-.923.155-1.538.052-.667.155-1.436.362-2.257.207-.82.465-1.743.827-2.666.362-.923.827-1.743 1.396-2.41.517-.667 1.137-1.179 1.757-1.436a4.202 4.202 0 011.447-.461c.362-.051.57-.051.57-.103h-.57c-.361 0-.93.103-1.55.411-.62.256-1.293.769-1.861 1.435-.569.667-1.034 1.539-1.447 2.462-.362.922-.672 1.845-.828 2.717a23.973 23.973 0 00-.31 2.308c-.051.666-.051 1.179-.103 1.538.052.359.052.564.052.564z" fill="#1A2E35"/><path d="M26.259 217.821v-1.025c0-.667 0-1.59.051-2.769.052-2.359.259-5.589.672-9.127.414-3.538.93-6.769 1.396-9.025.103-.564.207-1.077.31-1.538.104-.462.207-.82.259-1.179.051-.308.155-.564.155-.718.051-.154.051-.257.051-.257s-.051.103-.103.257c-.052.205-.155.41-.207.718-.103.307-.207.717-.31 1.179-.103.461-.258.974-.362 1.538a79.35 79.35 0 00-1.447 9.025c-.414 3.538-.569 6.82-.569 9.127 0 1.179 0 2.102.052 2.769 0 .308.052.564.052.769-.052.154-.052.256 0 .256z" fill="#1A2E35"/><path d="M26.259 211.566v-.769c-.052-.513-.104-1.231-.259-2.154-.155-.872-.362-1.948-.723-3.128-.31-1.179-.776-2.41-1.293-3.692-1.085-2.563-2.584-4.666-3.876-5.948a4.443 4.443 0 00-.93-.82c-.156-.103-.26-.256-.363-.308-.103-.102-.258-.154-.362-.256-.413-.308-.671-.462-.671-.41-.052.051.93.615 2.17 1.948 1.241 1.333 2.688 3.384 3.774 5.948.569 1.282.982 2.513 1.344 3.641.362 1.128.568 2.205.724 3.076.155.872.258 1.59.31 2.103.103.461.155.769.155.769z" fill="#1A2E35"/><path d="M102.45 4.307h1.034c.362 0 .775.051 1.241.103.258.051.516.051.775.102.258.052.568.154.879.205 1.24.36 2.739.872 4.29 1.898a14.822 14.822 0 014.342 4.41c1.24 1.948 2.171 4.41 2.274 7.127.155 2.717-.465 5.691-2.016 8.306-1.55 2.667-4.083 4.923-7.185 6.205a13.663 13.663 0 01-4.962 1.077 13.95 13.95 0 01-5.22-.667l-.156-.051h.104c-2.998 1.025-5.893 2.05-8.736 2.974l-.362.102.104-.358c.775-2.462 1.55-4.872 2.274-7.18l.052.155a15.003 15.003 0 01-3.36-6.307c-.569-2.257-.517-4.461-.155-6.512a15.116 15.116 0 012.222-5.333 15.42 15.42 0 013.464-3.59c.568-.461 1.24-.82 1.809-1.179.62-.307 1.189-.615 1.757-.769.569-.205 1.086-.41 1.551-.513.465-.102.93-.256 1.344-.256.413-.051.775-.103 1.085-.154h1.241c.258.205.31.205.31.205h-.155c-.103 0-.258 0-.465.051-.207 0-.465.052-.775.052-.311.051-.672.102-1.086.154-.413.05-.827.153-1.344.307-.465.103-.982.308-1.55.513-.57.205-1.086.513-1.706.77-.569.358-1.19.717-1.758 1.178-1.189.923-2.378 2.052-3.36 3.538a14.927 14.927 0 00-2.17 5.23c-.363 2-.414 4.154.154 6.359a14.962 14.962 0 003.308 6.153l.052.051-.052.103c-.723 2.307-1.447 4.717-2.222 7.179l-.259-.257c2.792-.974 5.738-1.948 8.684-2.974h.104l.155.052c1.654.512 3.411.769 5.065.615 1.706-.103 3.36-.41 4.859-1.077 2.998-1.282 5.531-3.436 7.03-6.05a14.229 14.229 0 002.016-8.102 13.777 13.777 0 00-2.223-6.974c-1.188-1.948-2.739-3.384-4.238-4.41-1.499-1.025-2.998-1.59-4.239-1.948-.31-.103-.62-.154-.878-.256l-.776-.154a5.838 5.838 0 00-1.24-.154c-.311 0-.569-.051-.776-.051-.051.153-.155.153-.155.102z" fill="#71B219"/><path d="M93.715 20.1l2.274-2.307 4.445 3.897 8.684-8.256 2.12 2.257L100.073 26.1l-6.358-6z" fill="#71B219"/></g><defs><clipPath id="clip0"><path fill="#fff" d="M0 0h237v227H0z"/></clipPath></defs></svg>