<svg width="213" height="208" fill="none" xmlns="http://www.w3.org/2000/svg"><g clip-path="url(#clip0)"><path d="M198.221 8.02h-37.204v38.739h37.204V8.019z" fill="#F0F1F2"/><path d="M195.688 8.02h-37.205v38.739h37.205V8.019z" fill="#FAFAFA"/><path d="M195.688 46.806h-37.205V8.02h37.205v38.786zm-37.158 0h37.158V8.066H158.53v38.74z" fill="#F0F1F2"/><path d="M190.715 13.273h-27.212V41.6h27.212V13.272z" fill="#FAFAFA"/><path d="M163.503 41.788c0 .047-.234.328-.657.797a29.79 29.79 0 01-1.736 1.735c-.703.657-1.313 1.266-1.782 1.688-.47.423-.751.657-.798.657 0-.047.235-.328.657-.797a29.82 29.82 0 011.736-1.736c.704-.656 1.313-1.266 1.783-1.688.469-.422.797-.703.797-.656zm27.212-.094c.047 0 .328.234.797.656a30.078 30.078 0 011.736 1.736c.657.703 1.267 1.313 1.689 1.782.422.469.657.75.657.797-.047 0-.328-.234-.798-.656a30.078 30.078 0 01-1.736-1.736c-.656-.703-1.266-1.313-1.689-1.782-.469-.469-.703-.75-.656-.797zm-.094-28.374c0-.047.234-.329.657-.798a29.82 29.82 0 011.736-1.735c.703-.657 1.313-1.266 1.782-1.689.47-.422.751-.656.798-.656 0 .047-.235.328-.657.797a29.82 29.82 0 01-1.736 1.736c-.703.656-1.313 1.266-1.783 1.688-.469.422-.75.703-.797.656zm-27.212.093c-.047 0-.328-.234-.797-.656a30.078 30.078 0 01-1.736-1.736c-.657-.703-1.267-1.313-1.689-1.782-.422-.469-.657-.75-.657-.797.047-.047.328.234.798.656a30.107 30.107 0 011.736 1.736c.656.703 1.266 1.313 1.688 1.782.47.469.704.75.657.797z" fill="#F0F1F2"/><path d="M190.621 41.6v-2.064c0-1.36 0-3.283-.047-5.768 0-4.972-.047-12.053-.047-20.495l.094.093h-27.118l.141-.14v28.327l-.094-.094c8.117 0 14.873.047 19.658.047 2.393 0 4.223 0 5.536.047h1.83c0 .047.047.047.047.047h-1.971c-1.266 0-3.143 0-5.489.047-4.738 0-11.541.047-19.705.047h-.093V13.132h27.352v.094c0 8.489-.047 15.57-.047 20.542 0 2.485 0 4.408-.047 5.768V41.6z" fill="#F0F1F2"/><path d="M181.613 22.887h-9.055v9.052h9.055v-9.052z" fill="#ECECEC"/><path d="M143.376 0h-27.07v28.187h27.07V0z" fill="#F0F1F2"/><path d="M141.547 0h-27.071v28.187h27.071V0z" fill="#FAFAFA"/><path d="M141.547 28.187h-27.071V0h27.071v28.187zm-27.071 0H141.5V0h-27.024v28.187z" fill="#F0F1F2"/><path d="M137.934 3.799h-19.799v20.589h19.799V3.798z" fill="#FAFAFA"/><path d="M118.135 24.529s-.187.234-.469.562c-.328.329-.751.798-1.267 1.267-.516.469-.938.938-1.313 1.219-.329.328-.563.516-.563.469 0 0 .187-.235.469-.563.328-.328.751-.797 1.267-1.266.516-.469.938-.938 1.313-1.22.329-.28.516-.468.563-.468zm19.752-.047s.235.187.563.469c.328.328.798.75 1.267 1.266.469.516.938.938 1.22 1.313.328.328.516.563.469.563 0 0-.235-.188-.563-.469-.329-.328-.798-.75-1.267-1.266-.469-.516-.938-.938-1.22-1.314-.281-.328-.469-.515-.469-.562zm-.047-20.636s.188-.235.469-.563c.329-.328.751-.797 1.267-1.266.516-.47.938-.938 1.314-1.22.328-.328.563-.515.563-.469 0 0-.188.235-.47.563-.328.329-.75.798-1.266 1.267-.516.469-.939.938-1.314 1.219-.328.328-.516.516-.563.469zm-19.752.047s-.234-.188-.563-.47c-.328-.328-.797-.75-1.266-1.266-.47-.515-.939-.938-1.22-1.313-.329-.328-.516-.563-.469-.563 0 0 .234.188.563.47.328.328.797.75 1.266 1.266.47.516.939.938 1.22 1.313.282.328.469.563.469.563z" fill="#F0F1F2"/><path d="M137.84 24.388v-5.721c0-3.612 0-8.771-.047-14.915l.094.094h-19.705l.094-.094v20.589l-.094-.094c5.912 0 10.838.047 14.263.047h5.395v.094h-5.395c-3.472 0-8.398 0-14.31.047h-.093V3.658h19.892v.094c0 6.19-.047 11.35-.047 14.961v5.534c-.047.14-.047.188-.047.14z" fill="#F0F1F2"/><path d="M131.319 10.787h-6.615V17.4h6.615v-6.613zm69.014 151.439c2.392-1.266 5.254-1.407 7.929-.985 1.454.234 2.955.657 3.941 1.735.985 1.079 1.172 3.002.046 3.893-.656.563-1.595.657-2.486.61-2.111-.047-4.41-.376-6.099.891-.939.703-1.595 1.923-2.721 2.251-1.126.328-2.393-.328-2.956-1.313-.61-1.032-.61-2.251-.329-3.424-.046.047.235-2.439 2.675-3.658zm-5.536-10.693c1.454 2.11 4.363 1.407 5.677.14 1.313-1.266 1.876-3.142 2.392-4.924 1.173-4.08 2.346-8.348 1.502-12.475-.282-1.22-.704-2.486-1.596-3.377-.891-.938-2.205-1.454-3.424-1.126-1.455.376-2.346 1.783-3.003 3.143-1.924 3.986-2.909 8.348-2.956 12.756 0 2.017.282 4.174 1.408 5.863zm-4.035 3.001c1.595-1.923 1.923-4.69 1.173-7.082-.704-2.391-2.346-4.408-4.176-6.05-2.158-1.922-4.738-3.47-7.507-4.408-1.079-.375-2.205-.704-3.377-.563-1.126.094-2.299.704-2.815 1.688-.798 1.501-.047 3.33.797 4.831a60.902 60.902 0 004.926 7.504c1.455 1.923 3.144 3.799 5.396 4.643 2.252.844 4.597.751 5.77-.797" fill="#ECECEC"/><path d="M194.703 183.331c.047 0 .094-.329.14-.938.047-.704.141-1.595.235-2.627.141-1.078.282-2.391.61-3.845.281-1.407.798-2.955 1.407-4.55.657-1.547 1.408-2.954 2.299-4.08.892-1.126 1.924-1.97 2.909-2.439a9.099 9.099 0 012.44-.75c.61-.047.938-.094.938-.141 0-.047-.328-.047-.985 0a7.649 7.649 0 00-2.58.657c-1.033.469-2.159 1.313-3.097 2.439-.938 1.172-1.736 2.579-2.393 4.174a33.682 33.682 0 00-1.407 4.596 35.763 35.763 0 00-.516 3.892c-.094 1.126-.094 2.017-.141 2.627l.141.985z" fill="#F0F1F2"/><path d="M194.89 181.314s0-.141.047-.422v-1.266c0-1.126 0-2.72.047-4.69.094-3.94.422-8.208 1.079-14.164.61-5.628 1.455-12.194 2.346-16.415.188-.985.375-1.829.563-2.626.188-.751.329-1.407.469-1.97.141-.516.235-.891.282-1.219.047-.282.094-.422.094-.422l-.141.422c-.094.328-.235.703-.375 1.219-.141.516-.329 1.172-.517 1.923-.187.75-.422 1.641-.609 2.579-.892 3.846-1.783 9.24-2.44 15.243s-.938 11.443-.985 15.43c-.047 1.97 0 3.564.047 4.69.046.516.046.938.093 1.266-.047.281 0 .422 0 .422z" fill="#F0F1F2"/><path d="M194.937 170.809c.047 0 0-.469 0-1.314-.047-.844-.187-2.11-.422-3.611a44.116 44.116 0 00-1.173-5.253c-.234-.891-.797-3.001-2.205-6.19-1.83-4.315-4.269-7.833-6.428-10.037-.516-.563-1.079-.985-1.501-1.407-.234-.188-.422-.375-.657-.563-.187-.14-.422-.281-.61-.422-.703-.469-1.126-.75-1.126-.703-.046.093 1.596 1.078 3.66 3.283 2.064 2.204 4.457 5.721 6.287 9.989a56.224 56.224 0 012.205 6.144c.563 1.923.938 3.705 1.267 5.206.281 1.501.422 2.72.516 3.564.093.845.14 1.314.187 1.314zm-10.228 18.572l1.08 14.445h18.578l1.079-14.445h-20.737zm22.943-5.722h-24.725v5.722h24.725v-5.722z" fill="#F0F1F2"/><path d="M182.927 203.263v1.595h24.302v-1.595h-24.302z" fill="#ECECEC"/><path d="M185.226 207.625l-1.126-2.767h22.238l-1.314 2.767h-19.798z" fill="#F0F1F2"/><path d="M205.071 194.118s-.047.047-.094.14a2.682 2.682 0 00-.281.376c-.282.328-.61.797-1.079 1.407l-.047.047-.047-.047c-.704-.938-1.595-2.205-2.674-3.659h.141c-.798 1.126-1.689 2.345-2.628 3.706l-.094.093-.093-.093c-.986-1.173-2.018-2.392-3.097-3.706h.188c-.047.047-.094.141-.188.235-.985 1.219-1.877 2.392-2.768 3.471l-.094.093-.094-.14c-.938-1.314-1.829-2.58-2.627-3.705h.141c-1.314 1.453-2.393 2.72-3.237 3.658l-.047.047-.047-.094c-.423-.704-.751-1.266-1.032-1.689a4.204 4.204 0 00-.282-.469c.094.094.188.235.282.423.234.422.609.984 1.079 1.688h-.094c.844-.985 1.923-2.251 3.19-3.705l.094-.094.094.094c.797 1.125 1.689 2.345 2.627 3.705h-.188c.892-1.126 1.83-2.298 2.768-3.471a.836.836 0 01.188-.234l.094-.094.094.094c1.079 1.313 2.111 2.532 3.096 3.705h-.187c.938-1.313 1.829-2.58 2.627-3.705l.094-.094.094.094c1.032 1.501 1.923 2.767 2.58 3.705h-.094c.469-.563.845-1.032 1.126-1.36.141-.141.235-.235.282-.328.187-.094.234-.094.234-.094zm-9.805-4.737c5.752 0 10.415-.042 10.415-.094s-4.663-.094-10.415-.094c-5.753 0-10.416.042-10.416.094s4.663.094 10.416.094zm.047 15.711c6.244 0 11.306-.042 11.306-.094 0-.051-5.062-.093-11.306-.093-6.245 0-11.307.042-11.307.093 0 .052 5.062.094 11.307.094zM57.19 196.697v10.646h32.75v-10.646H57.19z" fill="#F5F5F5"/><path d="M55.83 193.743v2.954h35.281v-2.954H55.83z" fill="#F0F1F2"/><path d="M73.47 207.343h16.468v-10.646h1.173v-2.954H72.767v2.673l.704 10.927z" fill="#ECECEC"/><path d="M68.45 198.432h-6.66v1.595h6.662v-1.595z" fill="#F0F1F2"/><path d="M69.483 202.044h-8.539v3.377h8.539v-3.377z" fill="#fff"/><path d="M84.778 193.789v13.836h42.646v-13.836H84.778z" fill="#F5F5F5"/><path d="M82.995 189.897v3.892h45.931v-3.892H82.995z" fill="#F0F1F2"/><path d="M105.984 207.625h21.441v-13.836h1.501v-3.892h-23.833v3.517l.891 14.211zm-6.568-11.631h-8.633v2.063h8.633v-2.063z" fill="#F0F1F2"/><path d="M100.776 200.731H89.657v4.408h11.119v-4.408z" fill="#fff"/><path d="M89.704 179.25v10.647h32.748V179.25H89.704z" fill="#F5F5F5"/><path d="M88.344 176.296v2.954h35.234v-2.954H88.344z" fill="#F0F1F2"/><path d="M105.937 189.897h16.515V179.25h1.126v-2.954H105.28v2.673l.657 10.928z" fill="#ECECEC"/><path d="M100.917 180.986h-6.662v1.594h6.662v-1.594z" fill="#F0F1F2"/><path d="M101.949 184.597H93.41v3.377h8.539v-3.377z" fill="#fff"/><path d="M176.171 158.474l-44.852-.047a9.75 9.75 0 01-9.759-9.755V36.253a9.75 9.75 0 019.759-9.755l44.852.047a9.75 9.75 0 019.758 9.755v112.42a9.75 9.75 0 01-9.758 9.755z" fill="#375A64"/><path d="M176.124 30.532h-8.68c-1.173 0-2.111.985-2.111 2.204v1.595c0 1.219-.938 2.204-2.111 2.204h-16.937c-1.173 0-2.111-.985-2.111-2.204v-1.595c0-1.22-.939-2.204-2.111-2.204h-3.05l-7.647-.047a6.826 6.826 0 00-6.85 6.847v109.699a6.827 6.827 0 006.85 6.847l44.758.047c3.8 0 6.85-3.049 6.85-6.848V37.379a6.827 6.827 0 00-6.85-6.847z" fill="#fff"/><path d="M176.218 30.625h.234c.141 0 .376 0 .704.047.61.094 1.548.282 2.58.892a5.434 5.434 0 011.549 1.266c.516.563.985 1.22 1.313 2.063.329.798.516 1.783.516 2.767v109.652c0 .703-.047 1.407-.281 2.11-.188.657-.469 1.36-.892 1.923-.375.61-.891 1.126-1.407 1.595a7.232 7.232 0 01-3.988 1.547c-1.454.047-2.862 0-4.316 0h-40.489c-1.548.094-3.19-.328-4.457-1.219-1.314-.891-2.252-2.251-2.721-3.752-.235-.75-.282-1.548-.282-2.345V37.567c0-.282.047-.563.047-.845.047-.28.047-.562.141-.797.234-1.078.751-2.063 1.454-2.908.704-.844 1.595-1.454 2.534-1.923a6.91 6.91 0 013.049-.562h10.275c.469 0 .985.093 1.361.375.375.281.703.657.844 1.125.188.423.141.939.141 1.36v1.314c.047.422.234.844.516 1.125a2.05 2.05 0 001.032.657c.188.047.422.047.61.047h17.078c.281-.047.609-.14.844-.281.516-.329.845-.845.985-1.36.047-.282.047-.563.047-.845v-.844c0-.281 0-.516.047-.797a2.07 2.07 0 01.282-.75c.234-.47.656-.798 1.079-.986.469-.187.938-.14 1.36-.14h7.178c.751.093 1.033.093 1.033.093h-8.117c-.422 0-.891-.046-1.36.141-.423.188-.845.516-1.08.938-.14.235-.187.47-.234.704-.047.234-.047.516-.047.797v.844c0 .282 0 .563-.047.844-.141.563-.469 1.126-.985 1.454-.282.141-.563.282-.892.328-.328.047-.61 0-.938 0h-16.139c-.188 0-.422 0-.657-.046a1.936 1.936 0 01-1.126-.704c-.281-.328-.469-.75-.563-1.22-.047-.234 0-.468 0-.656v-.656c0-.47.047-.892-.141-1.314a1.94 1.94 0 00-.797-1.031 2.363 2.363 0 00-1.267-.376h-10.275c-1.032 0-2.064.141-3.002.563a6.98 6.98 0 00-2.487 1.876 6.818 6.818 0 00-1.407 2.861c-.047.282-.094.516-.141.797 0 .282-.047.563-.047.798V147.17c0 .751.047 1.548.281 2.251a6.866 6.866 0 002.628 3.659c1.266.891 2.815 1.266 4.363 1.219h44.805c1.407-.047 2.768-.61 3.847-1.501.516-.469.985-.985 1.408-1.548a6.772 6.772 0 00.844-1.876c.188-.656.235-1.36.235-2.063V137.04c0-21.621 0-41.084.047-57.405 0-16.368.047-29.594.047-38.74V37.66c0-1.031-.188-1.97-.517-2.767a7.057 7.057 0 00-1.266-2.016c-.516-.563-1.032-.985-1.549-1.267-1.032-.61-1.97-.844-2.58-.89-.281-.048-.516-.048-.704-.048-.047-.047-.14-.047-.14-.047z" fill="#1A2E35"/><path d="M175.051 41.79c1.399-.012 2.533-.042 2.533-.068 0-.026-1.135-.038-2.534-.026-1.399.011-2.533.041-2.533.068 0 .025 1.135.037 2.534.025zm0 1.313c1.399-.012 2.533-.042 2.533-.068 0-.026-1.134-.038-2.534-.026-1.399.011-2.533.042-2.533.068 0 .026 1.135.037 2.534.026zm0 1.267c1.399-.012 2.533-.043 2.533-.069 0-.025-1.135-.037-2.534-.026-1.399.012-2.533.042-2.533.068 0 .026 1.135.038 2.534.026zm-43.592 1.451h.376c.281 0 .657 0 1.079-.047l-.047.047v-1.267c.047-.187.188-.328.375-.328h.516c.188.047.376.235.376.423v1.125l-.047-.047h1.36l-.047.047v-2.11c0-.141-.093-.235-.187-.329-.188-.187-.422-.375-.61-.61l-.563-.562-.282-.281c-.093-.094-.187-.188-.281-.188-.094-.047-.235 0-.329.047-.093.047-.187.187-.234.234-.188.188-.329.329-.469.516-.329.328-.61.61-.845.891-.094.141-.047.329-.047.516v1.782c-.094.047-.094.094-.094.141v-2.157c0-.094.047-.188.094-.282.235-.328.563-.563.845-.89.141-.142.328-.33.469-.517.094-.093.141-.187.281-.281.094-.094.282-.094.376-.094.141.047.234.14.328.235l.282.281.563.563.61.61a.647.647 0 01.14.187c.047.047.047.14.094.235v2.157h-1.454v-1.172c0-.188-.141-.329-.282-.329h-.516a.302.302 0 00-.281.282v1.266H131.6c-.094-.094-.141-.094-.141-.094z" fill="#1A2E35"/><path d="M172.746 95.957h-38.659v7.879h38.659v-7.88zm0 11.443h-38.659v7.879h38.659V107.4z" fill="#ECECEC"/><path d="M163.832 131.178h-19.377c-2.158 0-3.941-1.782-3.941-3.939 0-2.158 1.783-3.94 3.941-3.94h19.377c2.158 0 3.941 1.782 3.941 3.94a3.904 3.904 0 01-3.941 3.939z" fill="#71B219"/><path d="M139.435 101.632h-1.689c-.187 0-.281-.141-.281-.282 0-.609.516-1.125 1.126-1.125h.047c.61 0 1.126.516 1.126 1.125 0 .141-.141.282-.329.282z" fill="#F0F1F2"/><path d="M138.591 100.271a.656.656 0 10.001-1.313.656.656 0 00-.001 1.313zm.985 11.209h-2.017v1.454h2.017v-1.454z" fill="#F0F1F2"/><path d="M139.857 111.762h-.703v-.422a.57.57 0 00-.563-.563.57.57 0 00-.563.563v.422h-.704v-.422c0-.704.563-1.267 1.267-1.267.703 0 1.266.563 1.266 1.267v.422zm3.331 24.248v.703h.892v.141h-.892v.751h-.187v-1.736h1.173v.141h-.986zm1.173.937c0-.375.282-.657.657-.657.375 0 .657.282.657.657a.642.642 0 01-.657.657.642.642 0 01-.657-.657zm1.173 0c0-.328-.187-.516-.469-.516-.281 0-.469.188-.469.516s.188.516.469.516c.282 0 .469-.188.469-.516zm1.173-.657v.188h-.047c-.281 0-.422.188-.422.469v.657h-.188v-1.314h.188v.235c.094-.141.235-.235.469-.235zm1.548 0v1.126c0 .469-.234.657-.656.657-.235 0-.47-.094-.61-.188l.093-.141c.141.094.329.188.517.188.328 0 .469-.141.469-.469v-.188c-.094.188-.282.235-.516.235a.641.641 0 01-.657-.657c0-.375.281-.609.657-.609.234 0 .422.093.516.281v-.235h.187zm-.187.61c0-.281-.188-.469-.516-.469-.282 0-.516.188-.516.469 0 .282.187.469.516.469.328.047.516-.187.516-.469zm.516.047c0-.375.281-.657.657-.657.375 0 .656.282.656.657a.641.641 0 01-.656.657.641.641 0 01-.657-.657zm1.173 0c0-.328-.188-.516-.47-.516-.281 0-.469.188-.469.516s.188.516.469.516c.282 0 .47-.188.47-.516zm1.22.563a.504.504 0 01-.282.094c-.234 0-.375-.141-.375-.376v-.797h-.235v-.141h.235v-.281h.187v.281h.376v.141h-.376v.797c0 .141.094.235.235.235.094 0 .141 0 .188-.047l.047.094zm2.298-.563a.641.641 0 01-.656.657.65.65 0 01-.517-.282v.751h-.187v-1.783h.187v.282c.094-.188.282-.282.517-.282.375 0 .656.282.656.657zm-.187 0c0-.281-.235-.516-.469-.516-.282 0-.47.188-.47.516s.188.516.47.516c.281 0 .469-.188.469-.516zm1.548-.141v.798h-.188v-.188c-.093.141-.234.234-.469.234-.281 0-.469-.14-.469-.375 0-.187.141-.375.516-.375h.422v-.094c0-.234-.14-.328-.375-.328-.188 0-.328.047-.422.141l-.094-.141c.141-.094.328-.188.516-.188.328 0 .563.188.563.516zm-.188.422v-.234h-.422c-.235 0-.328.094-.328.234 0 .141.14.235.328.235a.49.49 0 00.422-.235zm.469.235l.094-.141c.094.094.282.141.469.141.235 0 .329-.094.329-.235 0-.328-.845-.093-.845-.609 0-.235.188-.375.516-.375.188 0 .376.046.47.14l-.094.141c-.094-.094-.235-.094-.376-.094-.234 0-.328.094-.328.235 0 .375.845.093.845.609 0 .235-.188.376-.517.376-.234-.047-.469-.094-.563-.188zm1.22 0l.094-.141c.094.094.282.141.469.141.235 0 .329-.094.329-.235 0-.328-.845-.093-.845-.609 0-.235.188-.375.516-.375.188 0 .376.046.469.14l-.093.141c-.094-.094-.235-.094-.376-.094-.234 0-.328.094-.328.235 0 .375.844.093.844.609 0 .235-.187.376-.516.376-.281-.047-.469-.094-.563-.188zm3.284-1.173l-.516 1.314h-.187l-.423-1.079-.422 1.079h-.188l-.469-1.314h.188l.422 1.126.422-1.126h.141l.422 1.126.423-1.126h.187zm.094.657c0-.375.282-.657.657-.657.376 0 .657.282.657.657a.641.641 0 01-.657.657.642.642 0 01-.657-.657zm1.126 0c0-.328-.187-.516-.469-.516-.281 0-.469.188-.469.516s.188.516.469.516c.282 0 .469-.188.469-.516zm1.22-.657v.188h-.047c-.281 0-.422.188-.422.469v.657h-.188v-1.314h.188v.235c.047-.141.235-.235.469-.235zm1.502-.515v1.829h-.188v-.282c-.094.188-.282.282-.516.282a.641.641 0 01-.657-.657c0-.375.281-.657.657-.657a.65.65 0 01.516.282v-.797h.188zm-.188 1.172c0-.328-.188-.516-.469-.516-.282 0-.469.188-.469.516s.187.516.469.516c.281 0 .469-.188.469-.516zm1.454-.657c0-.187-.141-.281-.422-.281-.188 0-.375.047-.469.188l-.141-.094c.141-.141.328-.282.61-.282.328 0 .563.188.563.423 0 .422-.469.422-.469.797h-.094c0-.375.422-.422.422-.751zm-.469 1.22c0-.094.047-.141.141-.141.094 0 .14.047.14.141 0 .047-.046.14-.14.14-.094-.046-.141-.093-.141-.14z" fill="#F0F1F2"/><path d="M144.361 87.609v3.236h-.375l-1.924-2.44v2.44h-.469v-3.236h.376l1.923 2.438V87.61h.469zm.845 0c0-.141.141-.282.281-.282.188 0 .282.14.282.282 0 .187-.141.28-.282.28-.14.048-.281-.093-.281-.28zm.094.797h.422v2.439h-.422v-2.44zm1.079 1.219c0-.75.563-1.266 1.313-1.266.423 0 .798.188.986.516l-.329.234a.749.749 0 00-.657-.375c-.469 0-.844.328-.844.844s.375.844.844.844c.282 0 .516-.093.657-.375l.329.235c-.188.328-.563.516-.986.516-.797.093-1.313-.47-1.313-1.173zm3.753.094l-.516.469v.657h-.422V87.42h.422v2.204l1.36-1.22h.516l-1.032 1.033 1.126 1.453h-.516l-.938-1.172zm4.176-.281v1.406h-.329v-1.36c0-.515-.281-.797-.75-.797-.517 0-.845.329-.845.891v1.266h-.328v-2.438h.328v.469c.188-.282.516-.47.938-.47.61 0 .986.33.986 1.033zm2.768-.094v1.5h-.329v-.375c-.141.235-.422.422-.844.422-.563 0-.892-.28-.892-.703 0-.375.235-.704.939-.704h.75v-.14c0-.422-.234-.657-.704-.657-.328 0-.609.094-.797.282l-.141-.235c.235-.188.61-.328.985-.328.657 0 1.033.281 1.033.938zm-.329.75v-.375h-.751c-.469 0-.609.188-.609.422 0 .281.234.469.609.469.329 0 .61-.188.751-.516zm5.208-.656v1.407h-.328v-1.36c0-.516-.282-.798-.704-.798-.516 0-.798.329-.798.891v1.267h-.328v-1.36c0-.516-.282-.798-.704-.798-.516 0-.798.329-.798.891v1.267h-.328v-2.44h.328v.423a1.01 1.01 0 01.892-.47c.422 0 .704.188.844.517.188-.329.516-.516.986-.516.563.047.938.375.938 1.079zm3.05.281h-2.018c.047.516.422.844.938.844.282 0 .563-.094.751-.328l.188.234c-.235.282-.563.376-.939.376-.75 0-1.266-.516-1.266-1.22 0-.703.516-1.22 1.173-1.22.703 0 1.173.517 1.173 1.22v.094zm-2.065-.234h1.736c-.047-.47-.375-.798-.844-.798a.874.874 0 00-.892.797z" fill="#1A2E35"/><path d="M150.132 141.403l.094-.187c.094.094.328.187.516.187.282 0 .375-.093.375-.234 0-.375-.938-.141-.938-.704 0-.234.188-.469.61-.469.188 0 .375.047.516.141l-.094.188a.755.755 0 00-.422-.141c-.282 0-.375.094-.375.234 0 .376.938.141.938.704 0 .234-.188.469-.61.469-.282.047-.516-.047-.61-.188zm1.454-1.361c0-.093.047-.14.141-.14.094 0 .141.047.141.14 0 .094-.047.141-.141.141-.094 0-.141-.047-.141-.141zm.047.376h.235v1.172h-.235v-1.172zm1.736 0v1.031c0 .422-.234.61-.61.61-.234 0-.422-.047-.563-.188l.094-.187c.094.094.282.141.469.141.282 0 .423-.141.423-.423v-.093c-.094.14-.282.187-.423.187-.328 0-.61-.234-.61-.563 0-.328.282-.562.61-.562.188 0 .329.047.423.187v-.187h.187v.047zm-.187.562c0-.234-.188-.375-.423-.375-.234 0-.422.141-.422.375 0 .235.188.376.422.376.235 0 .423-.141.423-.376zm1.736-.047v.704h-.235v-.657c0-.234-.094-.328-.328-.328-.235 0-.376.141-.376.375v.61h-.234v-1.173h.187v.188c.094-.141.235-.188.423-.188.375-.047.563.094.563.469zm2.158-.515v1.172h-.188v-.188c-.094.141-.235.188-.422.188-.329 0-.516-.188-.516-.516v-.703h.234v.656c0 .235.094.328.329.328.234 0 .375-.14.375-.375v-.609h.188v.047zm1.642.609c0 .375-.235.61-.61.61-.188 0-.328-.047-.422-.188v.61h-.235v-1.642h.188v.188c.094-.141.234-.188.422-.188.375 0 .657.235.657.61zm-.235 0a.42.42 0 00-.422-.422.42.42 0 00-.422.422.42.42 0 00.422.422c.235-.047.422-.187.422-.422z" fill="#71B219"/><path d="M150.273 127.755l.094-.235c.14.094.328.188.516.188.234 0 .328-.094.328-.188 0-.328-.938-.094-.938-.703 0-.235.187-.469.657-.469.187 0 .375.047.516.14l-.094.235a.758.758 0 00-.422-.141c-.235 0-.329.094-.329.235 0 .328.938.093.938.703 0 .235-.187.469-.656.469a1.85 1.85 0 01-.61-.234zm1.501-1.407c0-.094.094-.188.188-.188.093 0 .187.047.187.141 0 .094-.094.187-.187.187-.141.047-.188-.047-.188-.14zm0 .375h.281v1.219h-.281v-1.219zm1.877 0v1.032c0 .422-.235.656-.657.656-.235 0-.469-.047-.563-.187l.14-.235c.094.094.282.141.423.141.281 0 .375-.141.375-.375v-.047c-.094.093-.235.14-.422.14-.329 0-.61-.234-.61-.562 0-.329.281-.563.61-.563.187 0 .328.047.422.187v-.14h.282v-.047zm-.282.563c0-.188-.141-.329-.375-.329-.235 0-.376.141-.376.329 0 .187.141.328.376.328.234 0 .375-.141.375-.328zm1.83-.047v.703h-.282v-.656c0-.235-.094-.329-.281-.329-.188 0-.329.141-.329.376v.609h-.281v-1.219h.281v.141a.596.596 0 01.423-.188c.234 0 .469.187.469.563zm.938-.891c0-.094.094-.188.188-.188s.188.047.188.141c0 .094-.094.187-.188.187-.094.047-.188-.047-.188-.14zm.047.375h.282v1.219h-.282v-1.219zm1.83.516v.703h-.281v-.656c0-.235-.094-.329-.282-.329-.188 0-.328.141-.328.376v.609h-.282v-1.219h.282v.141a.591.591 0 01.422-.188c.234 0 .469.187.469.563zM93.973 38.551h-8.07c-1.078 0-1.97.938-1.97 2.064v1.454c0 1.126-.891 2.064-1.97 2.064H66.199c-1.08 0-1.97-.938-1.97-2.064v-1.454c0-1.126-.892-2.064-1.971-2.064h-9.946a6.386 6.386 0 00-6.38 6.379v102.054a6.386 6.386 0 006.38 6.378l41.615.047a6.386 6.386 0 006.38-6.379V44.977a6.298 6.298 0 00-6.334-6.425z" fill="#fff"/><path d="M93.974 38.551h.234c.14 0 .375 0 .657.047.563.047 1.407.235 2.393.845.469.28.985.656 1.454 1.172.47.516.891 1.126 1.22 1.876.328.75.469 1.642.469 2.58v101.631c0 .657-.047 1.313-.235 1.923-.187.61-.422 1.266-.797 1.782a6.472 6.472 0 01-1.314 1.454c-1.032.844-2.346 1.36-3.66 1.407-1.313.047-2.673 0-3.987 0h-37.58a6.706 6.706 0 01-4.129-1.126 6.664 6.664 0 01-2.533-3.47c-.235-.704-.282-1.454-.282-2.158V44.883c0-.235 0-.516.047-.75.047-.235.047-.516.14-.75a6.305 6.305 0 011.361-2.674 7.248 7.248 0 012.346-1.782c.892-.422 1.877-.563 2.815-.516h9.524c.423 0 .892.093 1.267.328.375.235.657.61.798 1.032.14.422.14.844.14 1.266v1.22c.047.375.235.75.47 1.078.234.282.61.516.985.61.188.047.375.047.563.047h15.81a2.31 2.31 0 00.797-.282c.47-.281.798-.75.892-1.266.046-.234.046-.516.046-.75v-.75c0-.235 0-.517.047-.751.047-.235.141-.47.235-.704.235-.422.61-.75 1.032-.89.422-.188.845-.141 1.267-.141h6.663c.563.047.844.093.844.093h-7.506c-.422 0-.845-.047-1.22.141-.422.14-.75.47-.985.891a2.712 2.712 0 00-.235.657c-.047.234-.047.469-.047.75v.75c0 .235 0 .517-.047.798a1.898 1.898 0 01-.938 1.313 2.31 2.31 0 01-.797.282c-.282.046-.563 0-.892 0H66.34c-.188 0-.422 0-.61-.047a2.054 2.054 0 01-1.032-.657c-.282-.328-.47-.704-.516-1.126-.047-.187 0-.422 0-.61v-.609c0-.422.046-.844-.141-1.22-.14-.375-.375-.75-.75-.984-.33-.235-.751-.329-1.174-.329h-9.524c-.938 0-1.876.141-2.768.516a5.984 5.984 0 00-2.299 1.736 6.93 6.93 0 00-1.313 2.626c-.047.234-.094.516-.141.75 0 .235-.047.516-.047.75v101.632c0 .704.047 1.407.282 2.111.422 1.36 1.266 2.579 2.44 3.377 1.172.797 2.627 1.172 4.034 1.125h41.568a5.844 5.844 0 003.566-1.407 6.471 6.471 0 001.313-1.454c.375-.516.61-1.125.798-1.735.187-.61.234-1.266.234-1.876v-9.521c0-20.026 0-38.082.047-53.23 0-15.15.047-27.437.047-35.879V45.07c0-.938-.141-1.829-.47-2.579-.328-.75-.75-1.407-1.172-1.876-.47-.516-.938-.891-1.454-1.172-.939-.563-1.83-.75-2.393-.845-.282-.047-.516-.047-.657-.047h-.234z" fill="#1A2E35"/><path d="M91.815 48.213c1.659 0 3.003-.063 3.003-.14 0-.079-1.344-.142-3.003-.142-1.658 0-3.002.063-3.002.141 0 .078 1.344.14 3.002.14zm-.609.985c1.658 0 3.002-.063 3.002-.141 0-.078-1.344-.14-3.002-.14-1.659 0-3.003.062-3.003.14 0 .078 1.344.14 3.002.14zm.281.938c1.658 0 3.003-.063 3.003-.141 0-.078-1.345-.14-3.003-.14-1.658 0-3.003.062-3.003.14 0 .078 1.345.14 3.003.14zm-13.559 7.597s.094 0 .235.047c.14.047.375.14.657.235.281.093.61.281 1.032.469.375.187.844.422 1.313.75.986.61 2.065 1.5 3.144 2.767a13.35 13.35 0 011.501 2.158c.235.375.422.844.657 1.266.188.469.375.938.516 1.407.657 1.97.844 4.268.422 6.66-.422 2.391-1.501 4.83-3.284 6.94a14.944 14.944 0 01-3.143 2.768 15.13 15.13 0 01-3.988 1.735c-2.862.797-6.1.704-9.055-.328a14.732 14.732 0 01-7.178-5.581c-1.69-2.439-2.627-5.253-2.768-8.02-.141-2.72.516-5.347 1.736-7.457 1.22-2.11 3.05-3.611 4.879-4.55 1.83-.984 3.66-1.453 5.255-1.688a22.422 22.422 0 014.175-.187c2.299.14 3.519.422 3.519.422h-.235c-.14 0-.375-.047-.703-.094-.61-.047-1.502-.188-2.628-.188a22.97 22.97 0 00-4.175.235c-1.596.234-3.425.75-5.208 1.688-1.783.985-3.566 2.439-4.785 4.503-1.22 2.063-1.83 4.643-1.69 7.363.141 2.673 1.08 5.487 2.769 7.879a14.965 14.965 0 007.037 5.487c2.909 1.032 6.1 1.126 8.914.329 2.815-.75 5.302-2.345 7.038-4.409 1.736-2.064 2.814-4.456 3.237-6.8.422-2.346.234-4.644-.375-6.566-.141-.47-.329-.938-.517-1.407-.234-.422-.422-.892-.656-1.267-.423-.797-.939-1.5-1.455-2.157-1.032-1.266-2.111-2.158-3.096-2.767-.47-.328-.939-.563-1.314-.797-.375-.188-.75-.329-1.032-.47-.282-.093-.47-.187-.657-.234 0-.14-.094-.14-.094-.14z" fill="#1A2E35"/><path d="M81.635 76.962s-.047-.094-.094-.234a5.444 5.444 0 01-.282-.704c-.234-.61-.563-1.5-1.079-2.532s-1.22-2.252-2.393-3.283a7.254 7.254 0 00-1.97-1.314c-.75-.328-1.595-.516-2.487-.422-1.736.094-3.284 1.032-4.363 2.064-1.079 1.079-1.736 2.345-2.158 3.424-.422 1.078-.657 2.016-.75 2.626-.048.281-.095.563-.141.75-.047.188-.047.235-.047.235v-.282c0-.187.047-.422.093-.75.094-.657.282-1.595.704-2.673.422-1.079 1.032-2.392 2.158-3.518 1.08-1.078 2.675-2.063 4.504-2.157a5.87 5.87 0 012.58.469c.798.328 1.455.797 2.065 1.36 1.173 1.079 1.877 2.298 2.393 3.377.516 1.079.797 1.97 1.032 2.58.094.28.188.515.234.703v.281zm-7.976-15.008h.188c.093 0 .281.047.469.141.422.14.985.516 1.36 1.22a3.1 3.1 0 01.376 1.219c0 .469-.094.985-.376 1.454-.516.89-1.689 1.594-2.956 1.407-1.22-.188-2.11-1.22-2.392-2.251a2.72 2.72 0 010-1.501c.14-.47.375-.844.61-1.126.516-.61 1.126-.89 1.548-.985.188-.047.375-.093.516-.093h.188c0 .046-.235.046-.657.14-.376.14-.985.422-1.455.985-.234.282-.422.657-.563 1.079-.093.422-.14.89 0 1.36.235.938 1.08 1.876 2.206 2.063 1.126.188 2.204-.469 2.72-1.313.282-.422.376-.89.376-1.313 0-.422-.14-.844-.328-1.172a2.743 2.743 0 00-1.22-1.22 9.258 9.258 0 01-.61-.094zm14.215 32.361s-.093-.047-.328-.094a5.827 5.827 0 00-.938-.281c-.845-.234-2.065-.422-3.613-.188-.75.094-1.548.329-2.393.704-.422.188-.844.422-1.266.61-.47.187-.986.328-1.502.187-1.172-.281-1.313-1.829-2.346-2.016-.516-.094-.985.28-1.36.656-.375.422-.75.891-1.267 1.22-.234.187-.563.28-.844.328-.329 0-.61 0-.892-.14a5.168 5.168 0 01-1.454-.939c-.422-.328-.845-.703-1.314-.938-.422-.281-.938-.422-1.407-.328-.47.047-.845.375-1.173.75-.329.375-.563.75-.845 1.079a3.16 3.16 0 01-1.032.891 2.738 2.738 0 01-1.22.281c-.797 0-1.5-.375-1.876-.89a2.203 2.203 0 01-.563-1.455c-.047-.422.047-.797.14-.984.094-.235.141-.329.141-.329.047 0-.281.422-.187 1.313.047.422.187.938.61 1.407.375.47 1.032.798 1.782.798a2.5 2.5 0 001.126-.282c.376-.187.657-.469.939-.844.281-.328.516-.75.844-1.126.329-.375.75-.75 1.314-.797.563-.094 1.079.094 1.548.375.47.282.891.61 1.314.985.422.329.891.704 1.407.891.235.094.516.141.798.141.281-.047.516-.14.75-.281.47-.329.845-.798 1.22-1.22.188-.187.422-.422.657-.563.282-.14.563-.234.891-.187.329.047.564.234.751.422.188.188.376.422.516.657.282.422.61.844 1.08.938.468.14.938 0 1.407-.141l1.266-.563a8.818 8.818 0 012.44-.703 9.372 9.372 0 013.66.281c.422.14.75.234.938.328.14-.047.281.047.281.047zM73.94 98.677c3.731 0 6.756-.063 6.756-.14 0-.079-3.025-.142-6.756-.142-3.73 0-6.756.064-6.756.141 0 .078 3.025.14 6.756.14zm-21.316 12.147c.038-2.357.006-4.268-.072-4.269-.078-.002-.171 1.908-.21 4.265-.037 2.357-.005 4.268.073 4.269.078.002.171-1.908.21-4.265z" fill="#1A2E35"/><path d="M93.176 115.514c0 .047-9.29-.047-20.784-.188-11.494-.187-20.784-.375-20.784-.469 0-.047 9.29.047 20.784.188 11.495.187 20.784.375 20.784.469zm-.188-9.568c0 .047-9.008.282-20.08.422-11.12.188-20.127.235-20.127.188 0-.047 9.008-.281 20.127-.422 11.12-.188 20.08-.282 20.08-.188z" fill="#1A2E35"/><path d="M92.847 115.279c.078 0 .141-2.099.141-4.69 0-2.59-.063-4.69-.14-4.69-.078 0-.141 2.1-.141 4.69 0 2.591.063 4.69.14 4.69zm-35.562-5.628s.094-.047.282.047c.187.047.422.188.61.469.187.282.328.704.234 1.126-.094.469-.61.844-1.126.891-.516.094-1.08-.141-1.314-.563a1.3 1.3 0 01-.047-1.172c.141-.329.329-.516.47-.61.14-.094.281-.094.281-.094.047.047-.422.188-.61.751-.094.281-.094.656.094.984.188.329.61.516 1.08.469.421-.046.844-.328.937-.703.094-.375 0-.75-.14-.985-.329-.516-.798-.563-.751-.61zm-3.459 18.636c.077-.01-.096-1.809-.388-4.017-.29-2.209-.59-3.991-.667-3.981-.077.01.097 1.809.388 4.018.292 2.208.59 3.99.667 3.98zm18.331-7.661c10.494 0 19.001-.063 19.001-.141 0-.078-8.507-.141-19-.141-10.495 0-19.002.063-19.002.141 0 .078 8.507.141 19.001.141zm20.362 7.128c.078 0 .14-1.532.14-3.423s-.062-3.424-.14-3.424c-.078 0-.14 1.533-.14 3.424s.062 3.423.14 3.423zm-18.907.61c10.623 0 19.235-.063 19.235-.141 0-.077-8.612-.14-19.235-.14-10.624 0-19.236.063-19.236.14 0 .078 8.612.141 19.236.141zm-16.843-4.361s.047-.094.234-.141a.828.828 0 01.751.187c.14.094.282.235.375.423.094.187.094.422.047.656-.14.422-.563.844-1.126.797-.563-.046-.938-.422-1.126-.844-.187-.422-.047-.844.141-1.125.188-.282.422-.422.563-.516.188-.094.282-.094.282-.047.047.047-.376.141-.704.656-.14.235-.235.61-.094.938.14.329.47.657.891.657.423 0 .798-.328.892-.657.14-.328-.047-.703-.282-.844-.234-.187-.469-.234-.61-.187-.14 0-.234.047-.234.047z" fill="#1A2E35"/><path d="M62.68 144.591s-.047 0-.14.047c-.094 0-.235.047-.423.047-.375.047-.938 0-1.595-.234a5.018 5.018 0 01-1.97-1.313c-.61-.657-1.126-1.595-1.22-2.627-.094-1.032.234-2.063.75-2.814a4.774 4.774 0 011.736-1.641c.61-.329 1.127-.469 1.502-.516.187-.047.328 0 .422-.047h.14c0 .047-.89 0-2.017.703a4.715 4.715 0 00-1.595 1.595c-.469.75-.75 1.688-.657 2.673a4.132 4.132 0 001.173 2.486c.563.657 1.267 1.079 1.877 1.266 1.173.516 2.064.282 2.017.375zm13.981-.093c6.556 0 11.87-.063 11.87-.141 0-.078-5.314-.141-11.87-.141-6.555 0-11.87.063-11.87.141 0 .078 5.315.141 11.87.141zm12.152-.751c0-.047.563-.093 1.313-.656a5.202 5.202 0 001.173-1.267c.329-.562.563-1.36.563-2.204-.047-.844-.328-1.782-.985-2.532-.657-.751-1.595-1.314-2.721-1.548-1.08-.282-2.299-.328-3.519-.328-1.22 0-2.533.046-3.847.046a3239.7 3239.7 0 00-13.512.141h-5.583s.14 0 .375-.047c.282 0 .657 0 1.126-.047.986 0 2.393-.047 4.082-.093 3.472-.047 8.21-.094 13.512-.188 1.314 0 2.58-.047 3.847-.047s2.44.047 3.566.328c1.126.282 2.158.845 2.815 1.642.657.797.985 1.782.985 2.673s-.235 1.689-.61 2.251c-.375.61-.797 1.032-1.22 1.267-.422.281-.75.422-.985.515-.14.047-.235.047-.282.094-.046 0-.093.047-.093 0z" fill="#71B219"/><path d="M87.264 140.511s-.093 0-.281.047c-.188 0-.47.047-.797.047-.751.047-1.736.094-2.956.188-2.534.14-5.959.281-9.759.469-1.079.047-2.205.093-3.19-.282-.516-.187-.939-.422-1.408-.563-.469-.14-.891-.187-1.313-.046-.845.328-1.408 1.078-2.252 1.266-.798.281-1.736-.469-1.455-1.22l.094.094a1.105 1.105 0 00-.797.516c-.141.282-.188.563-.141.75h-.094v-1.078s0 .094.047.281c0 .188 0 .469.047.797v.423l-.094-.423c-.047-.234-.047-.562.14-.844.142-.281.47-.562.892-.609h.14l-.046.093c-.094.282.047.61.282.798.234.234.61.281.985.187.375-.093.703-.328 1.032-.562.328-.235.704-.563 1.173-.704.469-.188.985-.141 1.454.047.47.141.939.375 1.408.563.938.328 2.017.281 3.143.234 3.8-.14 7.225-.328 9.759-.422 1.22-.047 2.205-.094 2.955-.094h.798c.14 0 .234.047.234.047z" fill="#1A2E35"/><path d="M74.362 148.484c8.862 0 16.046-.063 16.046-.14 0-.078-7.184-.141-16.046-.141-8.861 0-16.045.063-16.045.141 0 .077 7.184.14 16.045.14z" fill="#71B219"/><path d="M55.08 47.838c.047 0 .047.328.094.89.047.563.094 1.36.187 2.299v.093h-.093c-.751.094-1.596.188-2.487.282-.61.047-1.22.14-1.736.188h-.14v-.141c-.047-1.126-.047-2.11-.095-2.814 0-.704 0-1.126.047-1.126s.047.422.141 1.079c.047.703.094 1.688.141 2.814l-.14-.094c.562-.047 1.125-.14 1.735-.188.892-.093 1.736-.187 2.487-.28l-.094.093c-.047-.938-.094-1.735-.094-2.298 0-.47 0-.797.047-.797zm-2.205-2.204c.047.047-.892.75-1.97 1.642-1.08.89-1.971 1.641-2.018 1.594-.047-.047.75-.89 1.877-1.782 1.126-.891 2.064-1.5 2.11-1.454zm3.813 3.129c.05-.06-.752-.805-1.79-1.663-1.038-.859-1.92-1.506-1.97-1.446-.049.06.753.804 1.79 1.662 1.039.859 1.92 1.506 1.97 1.447z" fill="#1A2E35"/><path d="M76.492 21.493l-8.923-.83-.83 8.92 8.923.83.83-8.92z" fill="#71B219"/><path d="M71.313 27.436c-.047 0-.047-.375 0-.985v-.469c0-.093 0-.187.093-.281a.566.566 0 01.235-.235 5.11 5.11 0 00.516-.28c.141-.095.282-.282.376-.47a.941.941 0 00-.282-1.032c-.282-.234-.61-.328-.891-.281-.563.094-.798.422-.845.375 0 0 0-.094.14-.234.142-.141.33-.282.658-.329.328-.047.75 0 1.079.282.188.14.328.328.375.563.094.234.094.515 0 .75a1.28 1.28 0 01-.422.563c-.188.14-.422.187-.563.281-.14.094-.235.188-.235.375 0 .188-.047.329-.047.47-.094.562-.187.937-.187.937zm-.141.469V28c.047.047 0 0 .047 0 0-.047-.047-.047-.047-.094s.047-.094.14 0c.048.047.095.094.095.188a.202.202 0 01-.188.187c-.094 0-.188 0-.235-.093-.046-.094-.046-.141 0-.188.094-.14.188-.094.188-.094z" fill="#1A2E35"/><path d="M25.157 14.252l-8.512 1.125 1.125 8.508 8.512-1.124-1.125-8.509zm10.599 12.191l-8.55-.794-.794 8.546 8.549.794.795-8.546z" fill="#71B219"/><path d="M51.049 25.459l-8.549-.795-.795 8.546 8.549.794.795-8.545z" fill="#1A2E35"/><path d="M45.509 14.117h-8.586v8.582h8.586v-8.582zm11.635 0h-8.586v8.582h8.586v-8.582z" fill="#71B219"/><path d="M35.75 14.257h-8.585v8.583h8.585v-8.583z" fill="#375A64"/><path d="M38.378 31.985c1.036 0 1.876-.063 1.876-.14 0-.078-.84-.14-1.876-.14-1.037 0-1.877.062-1.877.14 0 .078.84.14 1.877.14z" fill="#1A2E35"/><path d="M38.847 30.954c.047-.047.61.328 1.454.61l.188.046-.141.141-.047.047c-.704.61-1.267 1.079-1.314 1.032-.047-.047.47-.61 1.173-1.22l.047-.047.047.188c-.891-.235-1.454-.75-1.407-.797zm0 19.651s-.282.047-.845.047-1.313.047-2.252.047c-.469 0-.985.046-1.548.046a6.128 6.128 0 01-1.783-.281c-.61-.234-1.22-.61-1.548-1.22-.375-.61-.516-1.313-.61-2.063-.281-2.86-.516-5.487-.657-7.363-.094-.891-.14-1.642-.188-2.251-.046-.516-.046-.798-.046-.845 0 0 .046.282.14.798.047.563.141 1.313.235 2.204.188 1.923.47 4.502.75 7.363.095.704.235 1.407.61 1.97.329.563.892.938 1.455 1.172.563.235 1.173.282 1.689.282.563 0 1.079-.047 1.548-.047.939 0 1.69 0 2.252.047.516.047.798.094.798.094z" fill="#1A2E35"/><path d="M38.002 51.824c-.047-.047.47-.657 1.22-1.266.047 0 .047-.047.094-.047v.187c-.845-.422-1.36-1.031-1.314-1.031.047-.047.61.422 1.408.844l.187.094-.14.14c-.047 0-.047.047-.094.047-.704.563-1.267 1.079-1.36 1.032z" fill="#1A2E35"/><path d="M30.158 98.418l-8.222-.764-.764 8.219 8.222.764.764-8.219z" fill="#71B219"/><path d="M19.564 73.867h-8.257v8.254h8.257v-8.254z" fill="#375A64"/><path d="M30.261 62.142h-8.257v8.254h8.257v-8.254z" fill="#71B219"/><path d="M29.984 72.954l-8.24.54.54 8.237 8.24-.54-.54-8.237z" fill="#F0F1F2"/><path d="M30.626 85.425l-8.222-.764-.765 8.219 8.222.764.765-8.219zm1.324 16.347s.328-.234.938-.703c.61-.423 1.408-1.126 2.252-2.11.845-.986 1.783-2.299 2.487-3.847a15.235 15.235 0 001.407-5.44c.141-2.017-.187-3.94-.891-5.487-.704-1.595-1.783-2.767-2.862-3.518a7.57 7.57 0 00-2.815-1.22c-.704-.14-1.126-.093-1.126-.14h.282c.187 0 .469 0 .844.047.75.094 1.783.422 2.909 1.172a8.128 8.128 0 012.956 3.565c.75 1.595 1.079 3.564.938 5.628a15.767 15.767 0 01-1.454 5.534 16.016 16.016 0 01-2.58 3.893c-.892.985-1.737 1.688-2.347 2.11-.281.235-.563.375-.703.469-.141.047-.235.094-.235.047z" fill="#1A2E35"/><path d="M34.624 102.476c0 .046-1.313.187-2.955.281h-.141v-.141c.188-1.641.422-2.907.469-2.907.047 0-.047 1.313-.235 2.954l-.14-.141c1.689-.14 3.002-.14 3.002-.046zm9.008-33.674c5.908 0 10.697-.063 10.697-.141 0-.078-4.789-.14-10.697-.14-5.907 0-10.697.062-10.697.14 0 .078 4.79.14 10.697.14z" fill="#1A2E35"/><path d="M53.25 70.209c-.047-.047.516-.798 1.267-1.689 0-.047.047-.047.047-.047l.047.188c-.939-.61-1.69-1.079-1.642-1.173.047-.046.844.376 1.782.938l.141.094-.094.094-.047.047c-.797.891-1.454 1.594-1.5 1.548zm45.556 54.732c2.461 0 4.457-.063 4.457-.141 0-.078-1.996-.141-4.457-.141-2.462 0-4.457.063-4.457.141 0 .078 1.995.141 4.457.141z" fill="#1A2E35"/><path d="M102.7 127.051c-.047 0 0-.234.14-.656.141-.376.329-.938.751-1.454v.14a.354.354 0 01-.094-.187c-.61-1.22-1.407-1.97-1.36-2.017.047-.047.938.704 1.595 1.923.047.094.094.141.094.234l.047.047-.047.047c-.798.985-1.032 1.97-1.126 1.923z" fill="#1A2E35"/><path d="M117.306 119.493l-12.172.797.797 12.168 12.173-.797-.798-12.168z" fill="#71B219"/><path d="M113.819 123.862c0 .047-.187-.141-.422-.094-.141 0-.235.094-.328.235a.449.449 0 00.093.469.45.45 0 00.47.093c.14-.046.234-.187.281-.328.047-.234-.094-.375-.094-.375 0-.047.235.094.235.469 0 .188-.141.375-.376.469a.653.653 0 01-.703-.141.635.635 0 01-.094-.75c.094-.235.328-.328.516-.328.375 0 .469.234.422.281z" fill="#fff"/><path d="M114.101 126.113l-.094.094c-.094.047-.188.141-.329.234-.328.188-.938.329-1.595.047h.094a421.14 421.14 0 00-2.768 2.627l-.047.047h-.047c-.281-.047-.563-.141-.844-.188h-.094v-.094c0-.187 0-.375.047-.563v-.047l.047-.046c.094-.047.141-.141.234-.235l.047-.047h.047c.094.047.235.047.376.094l-.141.141c0-.141-.047-.235-.047-.376v-.046l.047-.047c.141-.141.281-.235.422-.376l.047-.046h.047l.563.14-.141.141c-.047-.188-.047-.422-.094-.61v-.047l.047-.047c.047-.046.094-.093.141-.093l.328-.329.047-.046h.047l.563.14-.141.141c-.046-.188-.046-.422-.093-.61v-.047l.047-.047c.14-.093.234-.234.375-.328v.141a1.898 1.898 0 01-.094-1.735c.235-.516.704-.892 1.22-1.079.516-.141 1.032-.094 1.407.094.423.187.704.562.845.891.328.703.141 1.36-.047 1.688-.235.328-.469.469-.469.469s.14-.141.328-.516a1.71 1.71 0 000-1.594c-.141-.329-.422-.61-.797-.798a1.69 1.69 0 00-1.267-.093c-.422.14-.845.469-1.032.938a1.803 1.803 0 00.094 1.547l.046.094-.046.047c-.141.094-.235.234-.376.328l.047-.094c.047.188.047.423.094.61l.047.188-.188-.047-.563-.141.094-.047-.328.328c-.047.047-.094.094-.141.094l.047-.094c.047.235.047.423.094.61l.047.188-.188-.047-.563-.141.094-.047c-.141.141-.282.235-.423.375l.047-.093c0 .14.047.281.047.375l.047.187-.187-.046c-.141-.047-.235-.047-.376-.094l.094-.047-.235.234.047-.093c0 .187-.047.375-.047.562l-.093-.14c.281.093.563.14.844.234l-.094.047c1.079-.985 2.065-1.876 2.815-2.579l.047-.047h.047c.61.281 1.173.14 1.501 0 .235-.094.376-.235.376-.188z" fill="#fff"/><path d="M113.819 123.862c0 .047-.187-.141-.422-.094-.141 0-.235.094-.328.235a.449.449 0 00.093.469.45.45 0 00.47.093c.14-.046.234-.187.281-.328.047-.234-.094-.375-.094-.375 0-.047.235.094.235.469 0 .188-.141.375-.376.469a.653.653 0 01-.703-.141.635.635 0 01-.094-.75c.094-.235.328-.328.516-.328.375 0 .469.234.422.281z" fill="#fff"/><path d="M114.101 126.113l-.094.094c-.094.047-.188.141-.329.234-.328.188-.938.329-1.595.047h.094a421.14 421.14 0 00-2.768 2.627l-.047.047h-.047c-.281-.047-.563-.141-.844-.188h-.094v-.094c0-.187 0-.375.047-.563v-.047l.047-.046c.094-.047.141-.141.234-.235l.047-.047h.047c.094.047.235.047.376.094l-.141.141c0-.141-.047-.235-.047-.376v-.046l.047-.047c.141-.141.281-.235.422-.376l.047-.046h.047l.563.14-.141.141c-.047-.188-.047-.422-.094-.61v-.047l.047-.047c.047-.046.094-.093.141-.093l.328-.329.047-.046h.047l.563.14-.141.141c-.046-.188-.046-.422-.093-.61v-.047l.047-.047c.14-.093.234-.234.375-.328v.141a1.898 1.898 0 01-.094-1.735c.235-.516.704-.892 1.22-1.079.516-.141 1.032-.094 1.407.094.423.187.704.562.845.891.328.703.141 1.36-.047 1.688-.235.328-.469.469-.469.469s.14-.141.328-.516a1.71 1.71 0 000-1.594c-.141-.329-.422-.61-.797-.798a1.69 1.69 0 00-1.267-.093c-.422.14-.845.469-1.032.938a1.803 1.803 0 00.094 1.547l.046.094-.046.047c-.141.094-.235.234-.376.328l.047-.094c.047.188.047.423.094.61l.047.188-.188-.047-.563-.141.094-.047-.328.328c-.047.047-.094.094-.141.094l.047-.094c.047.235.047.423.094.61l.047.188-.188-.047-.563-.141.094-.047c-.141.141-.282.235-.423.375l.047-.093c0 .14.047.281.047.375l.047.187-.187-.046c-.141-.047-.235-.047-.376-.094l.094-.047-.235.234.047-.093c0 .187-.047.375-.047.562l-.093-.14c.281.093.563.14.844.234l-.094.047c1.079-.985 2.065-1.876 2.815-2.579l.047-.047h.047c.61.281 1.173.14 1.501 0 .235-.094.376-.235.376-.188z" fill="#fff"/><path d="M112.787 131.976s0 .093.047.281c0 .234.046.516.046.891.047.75.094 1.829.094 3.189.047 1.36.047 2.955.047 4.737 0 .891 0 1.829-.047 2.814 0 .469 0 .985-.094 1.501-.093.516-.328 1.032-.797 1.36-.469.328-.985.469-1.501.516-.516.094-.986.141-1.502.187-.985.094-1.923.188-2.815.235a54.613 54.613 0 01-4.738.047c-1.361-.047-2.44-.141-3.19-.188-.376-.047-.657-.094-.845-.094-.188-.046-.282-.046-.282-.046h.282c.234 0 .516.046.891.046.751.047 1.83.094 3.191.141 1.36 0 2.955 0 4.738-.094.892-.047 1.83-.14 2.768-.234.469-.047.986-.094 1.455-.188.469-.094.985-.187 1.36-.469.376-.281.61-.75.704-1.219.094-.469.094-.985.094-1.454 0-.985.047-1.923.047-2.814a79.234 79.234 0 000-4.737c0-1.313-.047-2.392-.047-3.189v-.891c.094-.235.094-.328.094-.328z" fill="#1A2E35"/><path d="M99.979 150.032c0 .047-.423-.235-1.08-.61a41.899 41.899 0 00-2.674-1.407l-.187-.094.14-.14c.094-.094.188-.141.235-.235.938-.844 1.83-1.594 2.44-2.11.656-.516 1.032-.844 1.079-.844 0 .046-.329.375-.939.938-.61.562-1.454 1.36-2.392 2.157-.094.094-.188.141-.235.234l-.047-.187c1.08.516 2.017 1.032 2.627 1.454.704.516 1.033.844 1.033.844z" fill="#1A2E35"/><path d="M90.83 44.46s.47-.14 1.314 0c.844.142 2.064.61 3.002 1.83a4.6 4.6 0 01.939 2.298c.047.47.047.938-.047 1.407a5.516 5.516 0 01-.47 1.407c-.422.891-1.172 1.735-2.11 2.298-.939.563-2.159.797-3.285.657a6.308 6.308 0 01-3.096-1.267c-.845-.703-1.502-1.594-1.83-2.58-.328-.937-.422-1.969-.235-2.813a4.697 4.697 0 011.126-2.204c.516-.563 1.126-.891 1.736-1.126.563-.188 1.08-.281 1.502-.281.422 0 .75.093.938.14.188.094.328.141.328.141 0 .047-.422-.188-1.266-.188a4.41 4.41 0 00-1.455.282c-.563.234-1.126.563-1.642 1.126-.516.515-.891 1.266-1.079 2.11a5.487 5.487 0 00.235 2.72c.328.938.938 1.782 1.736 2.439.844.657 1.876 1.125 3.002 1.22 1.126.14 2.252-.095 3.144-.61.891-.516 1.642-1.314 2.064-2.205.234-.422.375-.89.47-1.36.093-.469.093-.89.046-1.313a4.404 4.404 0 00-.891-2.204c-.892-1.173-2.112-1.689-2.91-1.83-.797-.14-1.266-.046-1.266-.093z" fill="#71B219"/><path d="M102.934 38.27s0 .188-.046.516c-.047.328-.188.797-.376 1.313-.422 1.079-1.267 2.533-2.721 3.611-1.454 1.08-3.05 1.501-4.222 1.642-.563.047-1.033.047-1.361 0-.328-.047-.516-.094-.516-.094 0-.047.704.047 1.877-.094a8.986 8.986 0 004.081-1.641c1.408-1.032 2.252-2.439 2.721-3.47.423-1.08.517-1.783.563-1.783z" fill="#71B219"/><path d="M103.779 39.067c-.047.047-.469-.516-.938-1.219h.187l-.047.047c-.61.656-1.173 1.125-1.219 1.079-.047-.047.422-.61 1.032-1.22l.047-.047.093-.093.094.14c.469.704.798 1.267.751 1.313zm12.245 5.487h-7.694v7.692h7.694v-7.692zm-.395-8.814l-7.628 1.008 1.008 7.625 7.628-1.007-1.008-7.626z" fill="#71B219"/><path d="M114.407 27.441l-7.628 1.008 1.008 7.625 7.628-1.007-1.008-7.626z" fill="#375A64"/><path d="M103.864 28.484l-7.619-1.077-1.077 7.617 7.619 1.076 1.077-7.616zm1.415 4.25c1.087-.029 1.968-.115 1.966-.193-.002-.077-.886-.117-1.974-.088-1.088.028-1.968.115-1.966.192.002.078.886.118 1.974.089zM54.188 45.446s.094 0 .329.094c.188.047.469.187.797.422.657.422 1.502 1.36 1.783 2.767.141.703.094 1.5-.187 2.298-.282.797-.798 1.548-1.502 2.204-.703.657-1.595 1.126-2.58 1.407-.985.235-2.111.282-3.144-.093a4.635 4.635 0 01-2.486-1.923c-.563-.892-.75-1.876-.75-2.814.046-.938.28-1.83.75-2.533.47-.703 1.032-1.266 1.642-1.641 1.22-.798 2.393-.938 3.19-.985.376 0 .704.047.892.047.187.047.328.047.328.047 0 .046-.422-.047-1.22-.047-.75.047-1.923.234-3.096 1.031a5.045 5.045 0 00-1.548 1.595c-.423.703-.657 1.548-.704 2.439 0 .89.188 1.876.704 2.72.516.844 1.36 1.5 2.345 1.829.986.328 2.065.328 3.003.094.938-.235 1.83-.704 2.487-1.313.656-.61 1.173-1.36 1.454-2.11.282-.751.328-1.549.188-2.205-.235-1.36-1.032-2.298-1.642-2.72-.61-.516-1.033-.563-1.033-.61z" fill="#71B219"/><path d="M71.97 33.72s0 .095.047.235c0 .141.047.422.047.704 0 .61-.047 1.5-.235 2.58a13.367 13.367 0 01-1.22 3.658c-.657 1.313-1.548 2.673-2.72 3.845-1.22 1.173-2.534 2.11-3.848 2.72a13.377 13.377 0 01-3.66 1.22c-1.079.188-1.97.234-2.58.234-.328 0-.563 0-.704-.046-.14 0-.234 0-.234-.047 0 0 .328 0 .938-.047.61 0 1.501-.094 2.534-.329 2.11-.422 5.02-1.594 7.366-3.94 2.345-2.344 3.518-5.252 3.94-7.362.235-1.08.282-1.97.329-2.533v-.891z" fill="#71B219"/><path d="M74.034 35.597c-.047.047-.891-1.032-1.924-2.439h.188c-.047.047-.047.094-.094.14-.891 1.595-1.689 2.815-1.736 2.815-.047-.047.61-1.36 1.549-2.908.047-.047.047-.094.094-.14l.093-.141.094.14c.985 1.36 1.783 2.486 1.736 2.533zm89.555 34.856c1.749-7.492-2.909-14.983-10.404-16.73-7.495-1.748-14.988 2.908-16.736 10.4-1.749 7.492 2.909 14.983 10.404 16.73 7.495 1.749 14.988-2.908 16.736-10.4z" fill="#71B219"/><path d="M153.416 73.867l-9.336-2.157.282-1.126a4.793 4.793 0 015.77-3.564 4.791 4.791 0 013.566 5.768l-.282 1.079z" fill="#fff"/><path d="M153.412 65.22a2.814 2.814 0 10-5.482-1.277 2.814 2.814 0 005.482 1.278z" fill="#fff"/><path d="M144.737 80.105s-.657-2.72-1.173-3.19c-.563-.516-1.783-1.829-2.064-2.86-.188-.704-.704-.563-.704-.563l.469 2.673-4.504-3.893s-.422.704 0 1.548c.422.844.235.75.235.75s-.657.282-.469.845c.234.61.61 1.36.61 1.36s-.657.562-.563 1.266c0 0-.329.516-.329 1.313 0 .797 1.126 2.486 1.126 2.486l6.381 4.502 3.472-4.409-2.487-1.829z" fill="#FFBF9D"/><path d="M142.431 77.3c.035-.038-.536-.598-1.274-1.25-.738-.651-1.364-1.148-1.398-1.11-.034.04.536.6 1.274 1.25.738.652 1.364 1.15 1.398 1.11zm-3.223.206c.042-.03-.426-.754-1.046-1.617-.62-.862-1.156-1.537-1.198-1.507-.042.03.426.754 1.046 1.617.619.862 1.156 1.537 1.198 1.507zm-1.147.896c.044-.026-.166-.463-.47-.976-.303-.513-.586-.907-.63-.88-.045.026.165.463.469.976.304.512.586.906.631.88zm-1.487-.408c-.047.047.093.281.234.61.141.328.282.563.329.563.047 0 0-.282-.141-.61-.188-.375-.375-.61-.422-.563z" fill="#C18043"/><path d="M164.864 51.168c.047 0 0-.704.328-1.689.094-.234.235-.516.423-.703.234-.188.469-.094.657.234.328.563.469 1.36.469 2.158 0 .797-.141 1.594-.469 2.157-.188.281-.47.422-.657.234-.235-.187-.329-.468-.423-.703-.328-.985-.234-1.688-.328-1.688 0 0-.047.187-.047.469 0 .281.047.75.188 1.266.094.281.187.563.469.797.141.14.375.235.563.14.188-.093.328-.234.469-.374.422-.657.516-1.454.516-2.298 0-.845-.141-1.642-.516-2.298-.094-.141-.234-.329-.469-.376-.188-.093-.422 0-.563.141-.282.235-.375.563-.469.797-.188.516-.188.985-.188 1.267 0 .281.047.469.047.469z" fill="#1A2E35"/><path d="M177.015 72.648c-2.955.234-5.536-2.064-5.677-5.019-.14-2.86-.234-5.768-.234-5.768s-4.316-.375-4.645-4.69c-.328-4.268-.234-14.21-.234-14.21 4.832-2.44 10.603-2.111 15.107.937L181.097 59l.047 8.113c0 2.767-1.408 5.3-4.129 5.535z" fill="#FFBF9D"/><path d="M171.479 54.591s0 .094.047.188c.094.094.235.234.469.234.469.047 1.079-.469 1.126-1.172 0-.328-.094-.704-.328-.891-.188-.235-.469-.329-.657-.375-.422-.094-.704.093-.657.093 0 .047.282 0 .61.094.329.094.798.516.751 1.079 0 .563-.469.985-.798.985-.375 0-.516-.235-.563-.235z" fill="#C18043"/><path d="M170.713 51.913c.012-.077-1.284-.353-2.895-.617-1.611-.263-2.927-.415-2.939-.338-.013.077 1.283.352 2.894.616 1.611.264 2.927.416 2.94.339z" fill="#1A2E35"/><path d="M189.777 51.965c.093-1.689-1.126-3.377-2.768-3.846.469-.657.563-1.5.234-2.251-.281-.704-.985-1.267-1.783-1.407-.14-.047-.328-.047-.469-.047-.094-.094-.141-.188-.234-.235-1.361-1.172-1.455-3.048-3.003-3.94-1.501-.89-3.472-.984-4.926-.046-1.032-.516-1.971-1.172-2.956-1.688-1.408-.704-3.096-1.126-4.504-.422-.985.515-1.689 1.5-2.627 2.063-1.408.797-3.284.61-3.941 2.673-.235.704-.188 1.501.047 2.205.938 2.767 4.41 3.892 6.849 2.673.047.469-.422 1.5.094 3.002.141.468.235 1.219.939 1.219.75-.938 1.923-1.266 2.908-.657.986.657 1.361 2.064.845 3.096-.375.75-1.22 1.407-2.111 1.594a1.647 1.647 0 00-1.267 1.782c.141 1.08 1.923 1.454 2.721 2.345 1.267 1.36 4.035 1.97 5.865 2.158 1.595.187 1.642.234 2.298-.75.517 0 .986-.047 1.455-.235 2.299-.75 3.753-3.424 3.19-5.769 1.689-.234 3.05-1.782 3.144-3.517z" fill="#1A2E35"/><path d="M180.956 53.653s-.187.094-.563.14a3.038 3.038 0 01-1.595-.234c-.657-.234-1.36-.797-1.736-1.641-.375-.844-.469-1.923.047-2.908 0-.047.047-.047.047-.094l.047.094c-1.032.094-2.064.094-2.909-.187a3.59 3.59 0 01-1.97-1.314c-.423-.562-.563-1.125-.563-1.5 0-.376.047-.563.047-.563s-.047.187 0 .563c.047.375.187.89.61 1.453a3.856 3.856 0 001.923 1.267c.845.234 1.83.281 2.862.187h.094l-.047.094c0 .047-.047.047-.047.094a3.29 3.29 0 00-.047 2.814 2.93 2.93 0 001.689 1.595c.61.28 1.22.28 1.595.234.329-.047.516-.094.516-.094zm3.66-3.564s.141-.14.375-.47c.235-.328.469-.843.563-1.547a3.24 3.24 0 00-.61-2.345c-.563-.75-1.548-1.266-2.627-1.266-.422 0-.845.094-1.22.234l-.047.047v-.047a3.366 3.366 0 00-1.266-2.157c-.657-.47-1.361-.61-1.924-.563-.563.047-1.032.188-1.314.328-.281.141-.422.282-.422.235 0 0 .141-.14.422-.281a3.68 3.68 0 011.314-.376 2.972 2.972 0 011.97.563c.657.47 1.22 1.266 1.314 2.204l-.047-.047a3.6 3.6 0 011.267-.234c1.126 0 2.111.563 2.674 1.313.563.75.704 1.689.61 2.392-.094.704-.375 1.266-.61 1.548-.234.328-.422.469-.422.469zm-4.176 6.754s-.047.046-.187.14c-.141.047-.329.14-.563.188-.235.047-.563 0-.892-.094-.328-.14-.657-.375-.844-.75h.094a3.37 3.37 0 01-.986.562c-.516.188-1.079.188-1.548.094-.469-.094-.844-.328-1.126-.516-.281-.234-.469-.422-.563-.61l-.141-.28s.235.421.798.797c.281.187.657.422 1.126.515.469.094.985.094 1.454-.093.376-.141.704-.329.939-.516l.047-.047.046.047c.188.328.517.563.798.703.328.14.61.14.845.14.469-.093.703-.28.703-.28z" fill="#375A64"/><path d="M187.431 51.636c-.329-.75-1.079-1.313-1.877-1.453-.797-.141-2.252.703-2.252.703-.188-.328-.563-.422-.563-.422-.797-.14-1.642.281-2.064.985-.376.703-.282 1.641.281 2.251-.703.422-1.126 1.313-.938 2.11.141.798.891 1.454 1.689 1.548.798.094 1.642-.375 2.017-1.078.657.75 1.924.89 2.768.28.798-.609 1.079-1.875.516-2.72.704-.468.751-1.453.423-2.204z" fill="#71B219"/><path d="M182.692 53.137c-.047 0-.328-.516-.938-.89-.282-.188-.61-.33-.845-.33-.234-.046-.375-.046-.375-.046s.141-.047.375 0c.235.047.563.14.892.328.328.188.516.422.656.657.188.14.235.281.235.281zm-.094-2.627s.094.095.235.282c.141.188.328.47.422.844.235.704.094 1.313.094 1.313-.047 0 .094-.61-.141-1.266-.234-.703-.61-1.172-.61-1.172zm1.924-.187s.281.422.141 1.032c-.141.61-.563.891-.563.891-.047 0 .328-.328.469-.891.141-.563-.047-.985-.047-1.032zm1.642.047c.047 0 .188.563-.094 1.173a1.204 1.204 0 01-.563.61c-.188.093-.328.14-.328.093 0 0 .516-.188.797-.75.141-.282.188-.563.188-.798v-.328zm-5.818 3.987c-.047-.047.376-.282.892-.282.516-.047.938.141.938.188 0 0-.422-.094-.891-.047-.563 0-.939.188-.939.14zm0 2.11s0-.14.094-.328a2.49 2.49 0 01.469-.657c.563-.375 1.126-.234 1.079-.187 0 .047-.516-.047-1.032.281a1.786 1.786 0 00-.469.61c-.094.14-.141.281-.141.281z" fill="#fff"/><path d="M191.841 55.435s.188 0 .469-.093c.282-.094.704-.329 1.032-.845a2.065 2.065 0 00.235-1.923c-.235-.703-.845-1.36-1.642-1.735a4.415 4.415 0 00-2.44-.234c-.751.093-1.407.375-1.923.61-.517.234-.939.468-1.22.609a.758.758 0 00-.329.188c-.094.047-.14.047-.14.047l.093-.094c.094-.047.188-.094.329-.188.281-.14.704-.375 1.22-.61.516-.234 1.173-.516 1.923-.61a4.619 4.619 0 012.487.235c.844.375 1.454 1.032 1.689 1.782.141.376.141.75.094 1.08a1.904 1.904 0 01-.376.89c-.328.47-.797.75-1.079.798-.234.14-.422.093-.422.093z" fill="#375A64"/><path d="M192.075 55.53c1.361-.282 1.971-2.111 1.361-3.33-.657-1.22-2.158-1.83-3.519-1.69-1.36.095-2.674.798-3.847 1.502-.985-.47-2.252.093-2.721 1.032-.985-.094-2.017.562-2.299 1.547-.328 1.079.375 2.392 1.501 2.673-1.126.892-1.595 2.533-1.173 3.94.47 1.36 1.83 2.392 3.285 2.439 1.454.047 2.908-.844 3.471-2.205 1.549.892 3.754.376 4.739-1.125.938-1.5.61-3.705-.798-4.784z" fill="#1A2E35"/><path d="M193.389 58.296s.047.188 0 .516-.328.75-.891 1.032c-.516.281-1.267.422-2.112.234-.797-.14-1.688-.656-2.251-1.5h.093c0 .703-.469 1.407-1.173 1.782-.656.422-1.595.375-2.298 0-.61-.328-1.126-.844-1.408-1.407-.141-.282-.235-.61-.188-.938 0-.328.141-.657.329-.891l.047.093c-1.126.235-2.158-.468-2.44-1.36-.328-.89 0-1.735.469-2.204.469-.469 1.032-.61 1.361-.657.375-.046.563.047.563.047s-.188-.047-.563 0c-.329.047-.892.188-1.314.657-.469.469-.704 1.313-.422 2.157.281.845 1.314 1.501 2.346 1.267l.14-.047-.093.094c-.423.422-.376 1.172-.094 1.735.281.563.75 1.079 1.36 1.36.704.375 1.596.375 2.252 0 .657-.375 1.079-1.032 1.126-1.735v-.141l.094.14a3.372 3.372 0 002.205 1.455c.798.14 1.548.047 2.065-.235.516-.281.797-.703.891-.985-.094-.328-.141-.516-.094-.469z" fill="#375A64"/><path d="M192.498 55.013s.141-.14.187-.469c.047-.328-.046-.844-.516-1.266-.422-.375-1.126-.704-1.923-.75-.798-.047-1.642.28-2.299.938-.188.187-.329.422-.469.61l-.094.14v-.188c-.047-.797-.563-1.5-1.173-1.829-.61-.375-1.267-.328-1.783-.14a2.786 2.786 0 00-1.032.656c-.188.235-.281.375-.281.375s.046-.14.234-.375c.188-.234.516-.516 1.032-.703.516-.188 1.22-.235 1.83.14.61.329 1.173 1.079 1.22 1.923h-.094c.141-.234.281-.422.469-.656.657-.704 1.548-1.032 2.346-.985.798.047 1.501.375 1.97.797.47.422.563.985.517 1.313a1.562 1.562 0 01-.141.375c.047.047 0 .094 0 .094zm-.047 4.268s0 .14-.047.422a2.456 2.456 0 01-.469 1.032 2.672 2.672 0 01-1.455.985c-.657.187-1.501.14-2.205-.328h.047c-.563 1.172-1.923 2.157-3.519 2.204-1.407.047-2.674-.75-3.331-1.735-.703-.985-.844-2.158-.563-3.049a2.212 2.212 0 011.455-1.454c.234-.047.469-.047.563-.047.141 0 .187.047.187.047s-.281-.094-.75.047a2.073 2.073 0 00-1.408 1.454c-.281.844-.094 2.017.563 2.955.657.938 1.877 1.735 3.237 1.688.751 0 1.502-.281 2.112-.657a3.764 3.764 0 001.36-1.5v-.047l.047.047c.704.422 1.502.516 2.158.328.657-.188 1.126-.563 1.408-.985.281-.375.422-.75.469-1.032.141-.234.141-.375.141-.375zm-2.627-3.189s-.047.094-.188.281c-.141.141-.375.376-.751.516-.375.14-.844.235-1.36.047-.516-.14-.986-.516-1.267-1.078h.047c-.047.046-.141.046-.188.093a2.416 2.416 0 01-1.736-.14 1.899 1.899 0 01-.985-1.032 2.09 2.09 0 01-.235-.938c0-.235.047-.375.047-.375.047 0-.094.515.282 1.266.187.375.516.75.985.985a2.291 2.291 0 001.689.14.357.357 0 00.188-.093h.047v.047c.281.516.75.89 1.219 1.031.47.141.939.094 1.314-.047.61-.281.845-.75.892-.703z" fill="#375A64"/><path d="M194.937 176.108l1.361 25.185-9.149 2.205-1.783-24.623 9.571-2.767z" fill="#FFBF9D"/><path d="M196.579 201.059l1.549 6.847h-10.51l-.469-4.455 9.43-2.392z" fill="#71B219"/><path d="M187.384 206.921c0 .047.563.094 1.548.094.938 0 2.252 0 3.706-.047 1.408-.047 2.628-.094 3.707-.14.938-.047 1.548-.094 1.548-.141 0-.047-.563-.094-1.548-.094-.939 0-2.252 0-3.707.094-1.407.047-2.627.094-3.706.141-.938 0-1.548.046-1.548.093z" fill="#1A2E35"/><path d="M192.169 206.813c.078-.005.074-.994-.007-2.209-.082-1.214-.211-2.194-.289-2.189-.077.005-.074.994.008 2.208.082 1.215.211 2.195.288 2.19z" fill="#1A2E35"/><path opacity=".6" d="M198.128 207.906h-10.51l-.094-.985 10.416-.234.188 1.125" fill="#fff"/><path d="M160.266 188.349l-2.205 16.696-8.07-.563 1.689-15.289 8.586-.844z" fill="#FFBF9D"/><path d="M149.898 202.653s-9.102 3.049-9.243 4.737l17.359.516.141-4.549-.657.141a12.476 12.476 0 01-7.6-.845z" fill="#71B219"/><path opacity=".6" d="M156.137 204.154a.71.71 0 01.47.844c-.094.329-.47.563-.798.469-.328-.093-.61-.562-.469-.891.141-.328.61-.562.891-.375m1.783 3.705v-1.407l-16.655.047s-.798.328-.704.844l17.359.516z" fill="#fff"/><path d="M149.616 202.56c0 .093.422.14.845.422.422.281.61.656.703.609.094 0-.046-.515-.516-.844-.516-.328-1.032-.234-1.032-.187zm-1.83.703c0 .094.329.235.61.61.282.375.329.75.423.75.093 0 .14-.469-.188-.938-.375-.422-.845-.516-.845-.422zm-1.126 2.158c.094 0 .188-.423 0-.892-.187-.469-.609-.656-.609-.609-.047.047.187.328.375.703.141.422.141.798.234.798z" fill="#1A2E35"/><path d="M149.804 202.513c0 .047.328.093.891 0 .282-.047.563-.094.938-.235.188-.047.329-.141.517-.234.093-.047.187-.094.281-.188.094-.094.141-.328.047-.469a.427.427 0 00-.375-.188c-.141 0-.235 0-.329.047-.187.047-.375.094-.563.188-.328.141-.61.328-.797.516-.423.375-.563.656-.516.703.046.047.234-.234.656-.516.188-.14.47-.281.798-.422.141-.047.328-.093.516-.14.188-.047.328-.047.375.047v.093c-.047.047-.093.094-.187.141a2.212 2.212 0 01-.469.235c-.329.14-.61.234-.845.281-.61.094-.938.094-.938.141z" fill="#1A2E35"/><path d="M149.898 202.653c.047 0 .187-.281.234-.844 0-.281 0-.609-.094-.938-.046-.187-.093-.375-.187-.516-.094-.187-.235-.422-.563-.469a.448.448 0 00-.376.235.883.883 0 00-.093.328 1.137 1.137 0 000 .563c.047.375.187.703.328.891.328.469.657.563.704.563.047-.047-.282-.235-.516-.657a1.616 1.616 0 01-.235-.844c0-.141 0-.328.047-.516.047-.187.094-.328.188-.328s.234.141.281.281c.094.141.141.329.188.469.094.329.141.61.141.891 0 .563-.094.891-.047.891z" fill="#1A2E35"/><path d="M188.182 103.836s6.427 10.693 6.427 17.118l1.595 77.994-10.134 2.392-7.741-76.212s-18.719 76.4-19.329 76.4c-.61 0-9.806-1.642-9.806-1.642l13.981-95.675 25.007-.375z" fill="#1A2E35"/><path d="M184.194 123.018v.187c0 .141.047.329.093.563.094.516.188 1.266.329 2.204.328 1.923.751 4.69 1.267 8.067 1.032 6.801 2.298 16.274 3.378 26.78a574.786 574.786 0 012.111 26.92c.187 3.471.328 6.238.422 8.161.047.938.094 1.688.094 2.204 0 .235.047.422.047.563v-.563c0-.516-.047-1.266-.047-2.204a271.226 271.226 0 00-.329-8.161 498.37 498.37 0 00-2.017-26.92c-1.079-10.506-2.393-19.979-3.472-26.78-.563-3.424-.985-6.191-1.36-8.067-.188-.938-.329-1.688-.423-2.204-.046-.234-.093-.422-.093-.563.047-.093 0-.187 0-.187zm-15.999 1.313c-.094 0-3.143 17.118-6.896 38.223-3.754 21.105-6.71 38.27-6.616 38.27.094 0 3.144-17.118 6.897-38.223 3.706-21.105 6.662-38.27 6.615-38.27zm10.51.657s.046-.047.093-.188c.047-.141.141-.328.282-.563.188-.516.469-1.266.751-2.204.516-1.876.938-4.596.703-7.598-.047-.75-.14-1.454-.281-2.157-.141-.704-.329-1.36-.469-1.97-.376-1.266-.704-2.345-1.033-3.283a55.015 55.015 0 00-.797-2.157c-.094-.235-.188-.423-.235-.563a.514.514 0 00-.094-.188s0 .094.047.235c.047.187.094.375.188.609.188.563.422 1.314.704 2.205.281.938.657 2.063.985 3.283.188.609.328 1.266.469 1.969.094.704.188 1.407.282 2.158.234 2.954-.141 5.675-.657 7.551-.235.938-.516 1.688-.657 2.204-.235.375-.328.657-.281.657zm-2.909-13.086v.563c0 .375-.047.891-.047 1.548-.047 1.36-.094 3.189-.188 5.44l.047-.094c-1.173.469-2.487 1.032-3.894 1.595h.094c-.986-.61-2.065-1.266-3.144-1.923-.047-.047-.14-.094-.187-.141l.047.094c-.235-2.579-.47-4.971-.657-7.082l-.094.141c2.393 0 4.41-.047 5.818-.047.703 0 1.266 0 1.642-.047h.422c.094-.047.141-.047.141-.047s-.188 0-.563-.046c-.423 0-.939 0-1.642-.047-1.455 0-3.472-.047-5.912-.047h-.141v.14c.188 2.111.423 4.503.61 7.082v.047l.047.047c.047.047.141.094.188.141 1.079.656 2.158 1.313 3.19 1.923l.047.047h.047c1.407-.563 2.721-1.126 3.894-1.595l.047-.047v-.047c.047-2.251.047-4.127.094-5.487v-1.501c.141-.422.141-.61.094-.61zm14.684-2.063s0 .187.047.516c.047.375.141.844.235 1.407.188 1.219.469 2.954.798 5.018l.046-.094c-.891.657-1.876 1.407-2.955 2.205h.094a175.473 175.473 0 00-3.566-.985c-.047 0-.141-.047-.188-.047l.094.094c-.704-2.345-1.314-4.503-1.877-6.426l-.093.141c2.158-.516 3.988-.938 5.301-1.266.61-.141 1.126-.282 1.501-.376.376-.14.563-.187.563-.187s-.187 0-.516.094c-.375.093-.891.187-1.501.328-1.314.281-3.19.703-5.395 1.172l-.094.047.047.094c.563 1.876 1.173 4.08 1.876 6.425v.047h.047c.047 0 .141.047.188.047 1.267.329 2.44.657 3.566.985h.047l.046-.047a171.573 171.573 0 012.909-2.204l.047-.047v-.047c-.375-2.063-.704-3.799-.938-5.065a18.413 18.413 0 00-.282-1.407c0-.281-.047-.422-.047-.422zm-11.779 15.547c.016-.076-1.92-.56-4.326-1.083-2.405-.522-4.368-.884-4.385-.808-.016.076 1.92.561 4.326 1.083 2.405.523 4.368.884 4.385.808z" fill="#375A64"/><path d="M182.599 123.815c0 .047.422.047 1.126 0 .703-.047 1.595-.188 2.627-.422 1.032-.235 1.923-.516 2.533-.797.657-.235.986-.469.986-.469 0-.047-.423.093-1.033.328-.656.187-1.548.469-2.533.703-.985.235-1.924.376-2.58.469-.704.141-1.126.141-1.126.188z" fill="#375A64"/><path d="M170.025 65.894l1.126-2.298 9.712-.375 1.501 2.954h-12.151m-24.022 14.727l-4.785 4.596 12.292 10.974 3.566-8.441-11.073-7.13zm47.761 13.929l-9.336-3.705 2.064-7.739 7.648 2.58-.376 8.864z" fill="#71B219"/><path d="M154.402 96.942c-2.346-1.173-2.909-3.94-1.783-6.285l9.665-20.683c.234-.516.563-.985.985-1.313 3.8-3.283 8.023-2.72 8.023-2.72l10.087-.282s7.928 0 10.884 6.238c.235.47 4.833 9.614 7.882 15.618 1.408 2.767.047 6.144-2.862 7.222a5.25 5.25 0 01-6.568-2.767l-3.284-7.363-2.065 10.552 3.003 8.677-25.006.328 1.923-11.631.61-8.301-5.161 10.505c-1.126 2.392-3.987 3.33-6.333 2.205z" fill="#71B219"/><path opacity=".2" d="M184.475 94.972c-1.877 1.407-4.692.938-7.037.562-2.346-.375-4.598-1.5-6.1-3.33-.703-.797-1.219-1.828-1.126-2.907.094-1.079 1.033-2.064 2.065-1.97 1.22.14 1.783 1.5 2.392 2.58 1.83 3.376 6.006 5.346 9.759 4.596 0 0 .375.187.047.469zM169.04 78.698c-.61 4.736-.329 4.408-1.314 9.098-.469 2.298-1.079 4.737-2.674 6.472l.797-9.942 3.191-5.628z" fill="#000"/><path d="M188.322 103.836l.704-2.064-1.877-1.266-22.942-1.876-1.595 3.048.704 2.486 25.006-.328z" fill="#71B219"/><path d="M187.478 85.639c-.047 0 .141.469.516 1.172a33.42 33.42 0 001.454 2.72c.61 1.032 1.22 1.97 1.689 2.58.469.656.751 1.032.798 1.032.047 0-.235-.422-.657-1.126a91.43 91.43 0 01-1.595-2.626c-.61-1.032-1.126-1.97-1.548-2.674-.376-.656-.657-1.125-.657-1.078z" fill="#1A2E35"/><path d="M189.683 89.578c-.047 0-.141.798.141 1.736.281.938.844 1.547.891 1.5.047-.046-.375-.703-.657-1.594-.281-.844-.328-1.642-.375-1.642zm-24.772-20.776c0 .046.422.187 1.032.562a6.587 6.587 0 012.018 1.97c.61.938.891 1.923.985 2.627.094.703.094 1.172.141 1.172.047 0 .14-.469.047-1.22-.047-.75-.329-1.781-.986-2.766-.656-.985-1.501-1.642-2.158-1.97-.61-.329-1.032-.422-1.079-.375zm22.963 15.752c1.32-5.916 2.329-10.725 2.253-10.742-.076-.017-1.207 4.765-2.527 10.68-1.32 5.916-2.329 10.725-2.253 10.742.076.017 1.208-4.765 2.527-10.68zm-35.724 4.508c.047.047.516-.469 1.126-1.031.61-.563 1.126-1.032 1.079-1.08-.047-.046-.61.282-1.22.892-.657.61-1.032 1.172-.985 1.22zm8.398 6.05s.141-.234.375-.656c.235-.422.563-1.032.938-1.782.798-1.501 1.83-3.612 3.003-5.957a612.636 612.636 0 013.003-5.956c.375-.703.704-1.313.938-1.782.235-.422.328-.657.328-.657s-.14.235-.422.61c-.234.422-.563.985-.985 1.735a107.002 107.002 0 00-3.05 5.91 1675.68 1675.68 0 00-2.908 5.956c-.376.75-.657 1.36-.892 1.829-.234.516-.328.75-.328.75zm9.008-6.378v.188c0 .094.047.281.094.469a6.3 6.3 0 00.609 1.594c.704 1.314 2.159 2.814 4.223 3.752 2.064.938 4.082 1.22 5.536 1.36.704.094 1.314.141 1.736.141.422.047.61.047.61 0 0 0-.235-.047-.61-.094-.469-.047-1.032-.14-1.689-.234-1.408-.235-3.425-.516-5.442-1.407-2.018-.891-3.472-2.345-4.176-3.612-.751-1.266-.844-2.157-.891-2.157zm18.908 13.11c.005-.078-3.092-.358-6.917-.626-3.826-.268-6.932-.423-6.937-.345-.005.077 3.091.358 6.917.626 3.826.268 6.931.422 6.937.345zm-17.876-2.839c-.047 0-.375 1.032-.516 2.345-.141 1.313-.047 2.392 0 2.392.094 0 .094-1.079.234-2.392.141-1.266.376-2.345.282-2.345zm-1.595-1.501c-.047 0-.141.376-.188.938a9.36 9.36 0 00-.047 2.345c.047.938.235 1.736.376 2.298.14.563.328.938.328.892.094 0-.375-1.454-.469-3.237-.188-1.782.047-3.236 0-3.236zm6.009-31.611c2.768-.155 5.008-.344 5.004-.422-.004-.077-2.252-.014-5.02.141-2.768.156-5.008.345-5.004.422.004.078 2.252.015 5.02-.14z" fill="#1A2E35"/><path d="M170.588 65.894s-.094 0-.329.047c-.234.047-.563.094-.938.14-.422.094-.891.141-1.454.282-.563.094-1.22.235-1.877.563a9.57 9.57 0 00-1.97 1.313c-.657.563-1.22 1.266-1.689 2.11-.845 1.736-1.736 3.706-2.722 5.722a5015.895 5015.895 0 00-4.926 10.365 130.127 130.127 0 01-1.501 3.142c-.188.329-.329.61-.422.845l-.141.281s.047-.094.141-.328c.093-.235.234-.516.375-.845.328-.75.844-1.829 1.454-3.189 1.22-2.673 2.956-6.331 4.833-10.411.985-2.017 1.83-3.94 2.721-5.722.469-.844 1.079-1.595 1.783-2.157a9.847 9.847 0 012.017-1.314c.657-.328 1.361-.469 1.924-.563.563-.093 1.079-.187 1.501-.234.422-.047.704-.094.938-.094.188 0 .282 0 .282.047z" fill="#1A2E35"/><path d="M163.222 90.938h-.094c-.094 0-.188-.047-.281-.047-.235-.047-.61-.093-1.079-.187-.892-.188-2.159-.422-3.425-1.032-1.267-.61-2.252-1.454-2.815-2.204-.563-.75-.704-1.314-.704-1.314s.047.141.188.376c.093.234.281.563.563.938.563.75 1.548 1.594 2.815 2.157 1.266.563 2.533.844 3.424 1.032.423.094.751.14 1.08.234.093 0 .187.047.281.047h.047zm-10.744-5.534s-.094.047-.281.094c-.188.047-.422.14-.751.234-.61.235-1.407.61-2.205 1.173a7.702 7.702 0 00-1.736 1.829c-.188.281-.328.469-.422.657-.094.14-.141.234-.141.234s.047-.094.094-.234c.094-.188.188-.376.375-.657a7.743 7.743 0 011.736-1.83 7.442 7.442 0 012.252-1.172c.329-.093.563-.187.751-.187.188-.141.328-.14.328-.14zm15.764-6.05h-.375c-.235 0-.563-.047-.985-.14a16.21 16.21 0 01-3.097-.892 15.876 15.876 0 01-2.862-1.5c-.328-.235-.61-.423-.797-.563a.367.367 0 01-.188-.188l-.047-.047s.047 0 .094.047.141.094.235.14c.187.142.469.33.797.564.704.422 1.689.984 2.862 1.453 1.173.47 2.252.75 3.096.892.423.093.751.14.986.14.094 0 .187.047.281.047v.047zm21.253-10.505s-.328-.047-.891-.094-1.408 0-2.393.14c-.985.141-2.158.47-3.519.75a16.341 16.341 0 01-4.363.33c-1.548-.048-3.049-.235-4.363-.376a34.333 34.333 0 00-3.566-.188c-1.032 0-1.829.141-2.392.235-.235.047-.47.094-.657.14-.141.047-.235.047-.235.047s.094-.046.235-.046c.187-.047.375-.094.657-.188.563-.094 1.36-.282 2.392-.282 1.033-.046 2.252 0 3.566.141 1.361.14 2.815.282 4.363.375 1.548.094 3.05-.046 4.363-.328 1.314-.281 2.487-.563 3.519-.703.985-.141 1.83-.188 2.393-.141.281 0 .516.047.657.094.187.047.234.094.234.094zm-1.126 12.053h-.188c-.187 0-.375.047-.609.047a71.99 71.99 0 01-2.159.14c-1.829.094-4.363.329-7.178.376-2.815.046-5.348-.141-7.178-.47-1.83-.328-2.909-.703-2.909-.703s.094 0 .188.047c.141.047.328.094.563.14.516.141 1.22.282 2.111.47 1.83.328 4.363.516 7.178.422 2.815-.047 5.349-.235 7.178-.329a62.74 62.74 0 002.159-.14c.234 0 .422 0 .61-.047.187.047.234.047.234.047zm8.867 1.125s0 .047-.047.094-.14.14-.187.235l-.751.75c-.657.61-1.689 1.36-2.909 2.017-1.22.656-2.439 1.031-3.284 1.266-.422.094-.797.188-1.032.235-.094 0-.188.046-.282.046h-.093s.047 0 .093-.046c.094 0 .188-.047.282-.047.235-.047.61-.141 1.032-.235.892-.234 2.064-.656 3.284-1.266 1.22-.657 2.205-1.407 2.909-1.97.328-.281.61-.563.798-.703l.187-.188c-.047-.14 0-.188 0-.188zm-4.128-7.269s-.047.047-.094.14a2.027 2.027 0 01-.328.282 5.955 5.955 0 01-1.267.797c-.563.235-1.079.422-1.455.47-.187.046-.328.046-.469.046h-.187s.234-.047.61-.14c.375-.094.891-.235 1.407-.516.516-.235.985-.516 1.267-.75.328-.141.469-.329.516-.329zm7.413 14.867s-.282.47-.939 1.079c-.328.328-.75.657-1.22.985-.516.328-1.079.656-1.689.89-.656.235-1.266.423-1.829.517a9.95 9.95 0 01-1.549.14c-.891 0-1.454-.14-1.454-.14h.094a.59.59 0 01.281.047c.235.047.61.047 1.033.047.891 0 2.111-.188 3.378-.704 1.266-.516 2.252-1.266 2.908-1.829.329-.281.563-.563.751-.75.047-.094.141-.141.188-.235.047 0 .047-.047.047-.047zm-18.908-25.466h-.422c-.328 0-.751-.047-1.173-.047a38.223 38.223 0 00-3.941.047 47.142 47.142 0 00-3.894.422c-.469.093-.844.14-1.173.187-.094 0-.234.047-.328.047h-.094s.047 0 .094-.047c.094 0 .187-.047.328-.094.282-.046.657-.14 1.173-.234a32.844 32.844 0 013.894-.469 38.223 38.223 0 013.941-.047c.516.047.891.047 1.173.094.094 0 .235 0 .328.047l.094.094zm-12.01 26.686h-.188c-.094 0-.281-.047-.469-.047a8.89 8.89 0 01-1.501-.47c-.563-.234-1.08-.515-1.408-.75-.188-.14-.281-.234-.375-.281-.094-.094-.141-.094-.141-.14 0 0 .188.14.563.374.328.235.844.516 1.407.75.563.235 1.126.376 1.502.47.375.047.61.094.61.094zm16.186 1.829s-.047 0-.141.046c-.141 0-.234.047-.422.047a24.18 24.18 0 01-1.501.141c-1.267.094-3.003.235-4.88.281-1.923.047-3.659 0-4.926-.046-.61-.047-1.126-.047-1.501-.094-.141 0-.282 0-.423-.047h-.14.563c.422 0 .891.047 1.501.047 1.267.047 3.003.047 4.926 0a96.15 96.15 0 004.88-.235c.563-.047 1.079-.093 1.501-.093.141 0 .281 0 .422-.047h.141zm-17.172 9.004s-.093.047-.234.047c-.141.047-.375.047-.657.094-.563.094-1.314.141-2.158.141-.845 0-1.595-.094-2.158-.188-.282-.047-.516-.094-.657-.094-.141-.047-.235-.047-.235-.047s.094 0 .235.047c.188.047.422.047.657.094.563.047 1.313.141 2.158.141.844 0 1.595-.047 2.158-.094.235-.047.422-.047.657-.094.141-.047.234-.047.234-.047zm1.502-.938s-.235-.281-.657-.375c-.375-.141-.751-.047-.751-.094 0 0 .329-.14.751 0 .516.141.704.469.657.469zm15.107 1.126s-.047 0-.141.047c-.141.047-.281.047-.422.094-.375.093-.938.187-1.595.281-1.361.188-3.237.422-5.349.516a49.542 49.542 0 01-5.395-.047 36.916 36.916 0 01-1.642-.141c-.188 0-.329-.047-.422-.047h-.141.141c.14 0 .281 0 .422.047.375.047.938.047 1.642.094 1.361.047 3.284.094 5.348 0a59.74 59.74 0 005.349-.469c.704-.094 1.22-.187 1.595-.234.188-.047.328-.047.422-.047.141-.094.188-.094.188-.094z" fill="#FAFAFA"/><path d="M43.304 177.515c.422-1.454 1.313-2.814 2.674-3.423 1.454-.61 3.096-.282 4.55.281 1.455.516 2.91 1.266 4.458 1.36 1.548.094 3.33-.657 3.8-2.11.422-1.407-.422-2.908-1.454-3.893-2.205-2.158-5.537-3.049-8.54-2.345-3.002.703-5.582 3.048-6.567 5.956" fill="#71B219"/><path opacity=".5" d="M43.304 177.515c.422-1.454 1.313-2.814 2.674-3.423 1.454-.61 3.096-.282 4.55.281 1.455.516 2.91 1.266 4.458 1.36 1.548.094 3.33-.657 3.8-2.11.422-1.407-.422-2.908-1.454-3.893-2.205-2.158-5.537-3.049-8.54-2.345-3.002.703-5.582 3.048-6.567 5.956" fill="#000"/><path d="M30.965 183.753c-2.299-2.158-2.158-5.956-1.032-8.864 1.126-2.955 3.612-5.206 6.427-6.66 5.396-2.861 12.105-3.095 17.688-.563-2.721.094-5.396 1.642-6.803 3.987-1.267 2.063-1.548 4.596-2.58 6.8-1.173 2.439-3.285 4.409-5.771 5.394-2.534.938-5.442.938-7.93-.094zm-1.126-13.038c-2.534-3.002-2.862-7.786-2.487-11.678.376-3.893 1.267-7.833.657-11.678-.375-2.298-1.267-4.456-1.548-6.754-.282-2.298.14-4.877 1.924-6.378 2.064-1.689 5.254-1.313 7.412.281 2.111 1.595 3.378 4.127 4.27 6.613 1.97 5.487 2.72 11.631 1.079 17.259-1.642 5.628-5.443 10.646-11.073 12.335" fill="#71B219"/><path d="M28.619 195.196v-1.313c.047-.844.094-2.11.328-3.611.188-1.501.516-3.33.986-5.3a23.556 23.556 0 012.44-6.144c1.125-2.063 2.533-3.799 3.94-5.299a25.209 25.209 0 014.129-3.424c.61-.422 1.267-.75 1.783-1.079l1.407-.703c.375-.141.704-.282.892-.375.187-.094.328-.141.328-.141s-.094.047-.328.141c-.235.093-.517.234-.892.422a14.38 14.38 0 00-1.36.75c-.517.328-1.127.657-1.736 1.079-1.267.844-2.675 2.016-4.082 3.47a25.465 25.465 0 00-3.894 5.253c-2.346 4.08-2.956 8.348-3.425 11.35-.188 1.501-.328 2.767-.375 3.611-.047.422-.047.751-.047.985-.047.234-.094.328-.094.328z" fill="#1A2E35"/><path d="M6.803 158.943c-4.692 2.814-4.645 5.393-3.894 7.832.797 2.439 3.66 4.127 6.052 3.189 1.36-.515 2.299-1.688 3.143-2.86.845-1.173 1.596-2.439 2.769-3.283 1.172-.845 2.861-1.173 4.034-.329" fill="#71B219"/><path opacity=".5" d="M6.803 158.943c-4.692 2.814-4.645 5.393-3.894 7.832.797 2.439 3.66 4.127 6.052 3.189 1.36-.515 2.299-1.688 3.143-2.86.845-1.173 1.596-2.439 2.769-3.283 1.172-.845 2.861-1.173 4.034-.329" fill="#000"/><path d="M3.284 162.038c1.22-1.688 4.27-2.157 6.146-1.36 1.924.844 3.331 2.533 4.551 4.174 1.267 1.689 2.487 3.424 4.223 4.597 1.735 1.172 4.175 1.594 5.864.422 1.126-.751 1.783-2.111 2.017-3.471.188-1.36 0-2.72-.281-4.08-.422-1.97-1.08-4.034-2.674-5.253-1.736-1.407-4.176-1.454-6.428-1.36-2.58.094-5.16.281-7.553 1.172-2.346.891-4.833 2.814-5.865 5.159z" fill="#71B219"/><path d="M24.725 191.444v-.375c0-.281 0-.656-.047-1.172a241.724 241.724 0 01-.14-4.268c-.047-1.782-.141-3.94-.282-6.332-.14-2.391-.329-5.018-.657-7.738-.188-1.36-.375-2.673-.797-3.94a18.79 18.79 0 00-1.455-3.423c-.563-1.032-1.173-2.017-1.83-2.861a18.035 18.035 0 00-1.97-2.158c-1.314-1.219-2.58-1.969-3.519-2.391a7.649 7.649 0 01-.61-.282c-.187-.047-.328-.141-.469-.187-.094-.047-.188-.094-.281-.094-.047-.047-.094-.047-.094-.047s.047 0 .094.047c.093.047.187.047.281.094.14.046.282.093.47.14.187.047.375.188.61.282.938.422 2.204 1.125 3.565 2.345.657.609 1.36 1.313 2.017 2.157a18.714 18.714 0 011.83 2.861c.563 1.079 1.079 2.204 1.454 3.471.376 1.266.61 2.579.798 3.939.375 2.72.516 5.347.657 7.739.14 2.391.187 4.549.234 6.331.047 1.782.047 3.283.047 4.268v1.454c.141.14.094.14.094.14zm1.689 2.111s-.282-.704-.516-2.017c-.235-1.313-.422-3.283-.235-5.628.188-2.392.798-5.206 1.783-8.207.938-3.002 2.252-6.238 3.378-9.708.563-1.736 1.032-3.424 1.36-5.113.329-1.688.517-3.329.658-4.877.281-3.142.234-6.003.14-8.348a196.32 196.32 0 00-.281-5.628c-.047-.657-.047-1.173-.094-1.548v-.563.141c0 .094 0 .235.047.375.047.375.094.891.14 1.548.094 1.313.235 3.236.376 5.628.094 2.392.14 5.253-.094 8.395-.14 1.595-.328 3.236-.657 4.924-.328 1.689-.797 3.424-1.36 5.159-1.126 3.471-2.44 6.707-3.378 9.709-.986 3.001-1.596 5.768-1.83 8.16-.235 2.392-.094 4.315.14 5.628.095.657.235 1.173.33 1.501.046.141.093.281.093.375v.094z" fill="#1A2E35"/><path d="M38.05 195.712H16.044l-.516-4.268h22.52v4.268z" fill="#375A64"/><path d="M18.391 195.196l2.768 12.71h11.964l2.534-12.71H18.39z" fill="#375A64"/><path d="M38.035 195.674c0-.052-4.831-.108-10.79-.124-5.96-.017-10.792.011-10.792.063 0 .052 4.831.108 10.79.124 5.96.017 10.792-.011 10.792-.063z" fill="#375A64"/><path d="M34.249 201.95c-.047.047-.657-.61-1.924-1.126-.657-.234-1.454-.469-2.346-.469-.89-.047-1.876.188-2.908.516-.986.328-1.924.751-2.862.938a7.325 7.325 0 01-2.44.094 4.876 4.876 0 01-1.595-.516c-.188-.094-.282-.188-.375-.234-.094-.047-.141-.094-.141-.094s.188.094.516.281c.329.141.891.328 1.548.422a6.99 6.99 0 002.393-.094c.891-.234 1.83-.609 2.815-.938.985-.328 2.017-.562 2.956-.515.938.046 1.783.234 2.392.515.657.282 1.126.61 1.455.845.14.14.281.234.328.281.188.047.188.094.188.094z" fill="#1A2E35"/><path d="M34.108 202.794c-.047.047-.61-.563-1.877-1.079-.61-.234-1.407-.469-2.251-.469-.892-.046-1.83.188-2.815.516-.986.329-1.877.704-2.768.938-.845.235-1.69.329-2.346.282-.704-.047-1.22-.235-1.548-.422-.188-.094-.282-.188-.376-.235-.094-.047-.14-.094-.094-.094 0 0 .188.094.516.282.329.14.845.328 1.549.328.656.047 1.454-.047 2.299-.281.844-.235 1.735-.61 2.72-.938.986-.329 1.971-.516 2.863-.516.891.047 1.689.234 2.345.516.61.281 1.08.609 1.36.844.142.14.235.234.33.281.046 0 .093.047.093.047zm.375-1.688c-.046.047-.656-.61-1.97-1.173a6.915 6.915 0 00-2.393-.563c-.938-.047-1.97.188-3.002.516-1.033.329-2.018.751-2.956.985a6.534 6.534 0 01-2.534 0c-.703-.141-1.266-.328-1.642-.516a1.778 1.778 0 01-.375-.234c-.094-.047-.14-.094-.14-.094l.562.281a7.35 7.35 0 001.642.422c.704.094 1.549.141 2.487-.046.891-.188 1.877-.61 2.909-.985 1.032-.376 2.11-.61 3.05-.516a6.002 6.002 0 012.439.656c.657.282 1.126.657 1.454.891.141.141.282.235.376.282l.093.094z" fill="#fff"/><path d="M27.165 195.806c6.089 0 11.025-.042 11.025-.094s-4.936-.094-11.025-.094c-6.09 0-11.026.042-11.026.094s4.936.094 11.026.094zm179.501 12.1c0 .047-46.259.141-103.309.141C46.26 208 0 207.953 0 207.906c0-.047 46.26-.14 103.357-.14 57.05 0 103.309.046 103.309.14z" fill="#1A2E35"/></g><defs><clipPath id="clip0"><path fill="#fff" d="M0 0h213v208H0z"/></clipPath></defs></svg>