<svg width="21" height="21" fill="none" xmlns="http://www.w3.org/2000/svg"><path d="M21 14.212a6.809 6.809 0 00-3.734-6.063c-.07 4.997-4.12 9.048-9.117 9.117A6.809 6.809 0 0014.212 21c1.222 0 2.41-.325 3.454-.944l3.304.914-.914-3.304A6.764 6.764 0 0021 14.212z" fill="#71B219"/><path d="M16.037 8.019C16.037 3.597 12.44 0 8.02 0 3.597 0 0 3.597 0 8.019c0 1.44.384 2.844 1.112 4.075L.029 16.008l3.914-1.083a7.994 7.994 0 004.076 1.112c4.421 0 8.018-3.597 8.018-8.018zM6.788 6.152h-1.23a2.464 2.464 0 012.46-2.46 2.464 2.464 0 012.461 2.46c0 .69-.291 1.351-.8 1.816l-1.045.957v.96h-1.23V8.383l1.444-1.322a1.232 1.232 0 00-.83-2.139c-.678 0-1.23.552-1.23 1.23zm.615 4.963h1.23v1.23h-1.23v-1.23z" fill="#71B219"/></svg>