<svg width="15" height="13" fill="none" xmlns="http://www.w3.org/2000/svg"><path d="M14.387 2.162a5.98 5.98 0 01-1.653.453 2.852 2.852 0 001.262-1.586 5.733 5.733 0 01-1.819.695 2.868 2.868 0 00-4.962 1.961c0 .227.02.446.067.654a8.12 8.12 0 01-5.913-3 2.873 2.873 0 00.881 3.834 2.833 2.833 0 01-1.295-.354v.032c0 1.394.994 2.551 2.298 2.818a2.863 2.863 0 01-.752.095c-.184 0-.37-.01-.543-.05a2.896 2.896 0 002.68 1.999 5.764 5.764 0 01-3.556 1.223c-.236 0-.461-.01-.687-.039a8.075 8.075 0 004.4 1.287c5.279 0 8.165-4.372 8.165-8.162 0-.127-.005-.25-.01-.371a5.723 5.723 0 001.437-1.49z" fill="#828282"/></svg>