<svg width="19" height="10" fill="none" xmlns="http://www.w3.org/2000/svg"><path d="M17.874 8.8c-.045-.077-.329-.694-1.693-1.96-1.429-1.326-1.237-1.11.484-3.403C17.712 2.04 18.13 1.187 18 .823c-.125-.347-.895-.255-.895-.255l-2.563.014s-.19-.025-.331.06c-.138.082-.226.274-.226.274s-.406 1.08-.947 2c-1.142 1.938-1.6 2.04-1.786 1.92-.434-.28-.325-1.127-.325-1.728 0-1.88.285-2.663-.555-2.866-.28-.067-.484-.111-1.197-.119-.915-.01-1.69.003-2.128.218-.292.142-.517.461-.38.48.17.022.554.103.758.38.263.357.253 1.16.253 1.16s.152 2.212-.352 2.487c-.347.189-.821-.196-1.84-1.956-.52-.9-.915-1.897-.915-1.897S4.496.809 4.361.71a1.063 1.063 0 00-.395-.158L1.529.566s-.365.011-.5.17c-.119.142-.01.434-.01.434s1.909 4.463 4.068 6.713C7.07 9.945 9.317 9.81 9.317 9.81h1.02s.308-.034.464-.204c.145-.155.14-.448.14-.448s-.02-1.367.615-1.569c.626-.198 1.43 1.322 2.28 1.907.645.443 1.134.346 1.134.346l2.278-.032s1.191-.074.626-1.01z" fill="#828282"/></svg>