<svg width="24" height="15" fill="none" xmlns="http://www.w3.org/2000/svg"><path d="M23.786 12.644c-.064-.108-.463-.975-2.384-2.757-2.01-1.867-1.74-1.564.681-4.79 1.475-1.965 2.065-3.166 1.88-3.679-.175-.489-1.26-.36-1.26-.36l-3.606.021s-.267-.036-.467.083c-.193.117-.318.387-.318.387s-.571 1.521-1.333 2.814c-1.607 2.729-2.25 2.873-2.513 2.703-.61-.394-.458-1.587-.458-2.433 0-2.645.4-3.747-.781-4.032-.393-.095-.681-.158-1.685-.168-1.287-.014-2.377.004-2.994.306-.411.2-.728.65-.534.675.238.031.778.145 1.065.535.37.503.357 1.634.357 1.634s.213 3.113-.496 3.5c-.488.265-1.156-.276-2.588-2.753-.734-1.267-1.289-2.67-1.289-2.67s-.106-.261-.297-.4a1.485 1.485 0 00-.555-.224l-3.43.02s-.514.016-.703.24c-.168.199-.013.61-.013.61s2.685 6.28 5.724 9.448c2.789 2.902 5.954 2.712 5.954 2.712h1.434s.434-.048.654-.287c.204-.219.197-.63.197-.63s-.029-1.924.865-2.208c.881-.279 2.012 1.86 3.21 2.684.907.622 1.595.486 1.595.486l3.206-.045s1.677-.104.882-1.422z" fill="#F9F9F9"/></svg>